# https://github.com/mikedh/trimesh
v 7.69859648 8.00000000 5.00000000
v 8.00000000 7.89015245 5.00000000
v 8.00000000 8.00000000 4.12590027
v 7.60796642 8.00000000 6.00000000
v 8.00000000 7.78231096 6.00000000
v 7.57600832 8.00000000 7.00000000
v 8.00000000 7.68658876 7.00000000
v 7.55860472 8.00000000 8.00000000
v 8.00000000 7.61048079 8.00000000
v 7.57467890 8.00000000 9.00000000
v 8.00000000 7.57753229 9.00000000
v 7.65931702 8.00000000 10.00000000
v 8.00000000 7.62687016 10.00000000
v 7.75577688 8.00000000 11.00000000
v 8.00000000 7.70293856 11.00000000
v 7.84761333 8.00000000 12.00000000
v 8.00000000 7.79388428 12.00000000
v 8.00000000 8.00000000 12.72069263
v 7.81511974 8.00000000 17.00000000
v 8.00000000 7.40710497 17.00000000
v 8.00000000 8.00000000 16.80128479
v 7.48593569 8.00000000 18.00000000
v 8.00000000 7.10256624 18.00000000
v 8.00000000 8.00000000 18.96059608
v 7.63723850 9.00000000 1.00000000
v 8.00000000 8.40047073 1.00000000
v 8.00000000 9.00000000 0.53920746
v 8.00000000 9.00000000 1.55268943
v 8.00000000 8.14380169 5.00000000
v 8.00000000 8.26471996 6.00000000
v 8.00000000 8.35807705 7.00000000
v 8.00000000 8.42349052 8.00000000
v 8.00000000 8.44864178 9.00000000
v 8.00000000 8.38573170 10.00000000
v 8.00000000 8.29602337 11.00000000
v 8.00000000 8.19534016 12.00000000
v 7.74735498 9.00000000 17.00000000
v 8.00000000 9.00000000 16.45062637
v 7.48954058 9.00000000 18.00000000
v 8.00000000 8.20956039 19.00000000
v 7.87282133 9.00000000 19.00000000
v 8.00000000 9.00000000 19.08555412
v 8.00000000 9.48412704 1.00000000
v 7.68751860 10.00000000 17.00000000
v 8.00000000 10.00000000 16.51636887
v 7.48665810 10.00000000 18.00000000
v 8.00000000 10.00000000 18.91322327
v 8.00000000 9.61907959 19.00000000
v 7.63974619 11.00000000 17.00000000
v 8.00000000 11.00000000 16.45544815
v 7.48396778 11.00000000 18.00000000
v 8.00000000 11.00000000 18.81243324
v 7.59237194 12.00000000 17.00000000
v 8.00000000 12.00000000 16.36846733
v 7.48741865 12.00000000 18.00000000
v 8.00000000 12.00000000 18.70308304
v 7.55845881 13.00000000 17.00000000
v 8.00000000 13.00000000 16.28221321
v 7.48732805 13.00000000 18.00000000
v 8.00000000 13.00000000 18.82880402
v 7.52797174 14.00000000 17.00000000
v 8.00000000 14.00000000 16.21271706
v 7.48674536 14.00000000 18.00000000
v 8.00000000 14.00000000 18.77308083
v 7.49887276 15.00000000 17.00000000
v 8.00000000 15.00000000 16.14434242
v 7.48621416 15.00000000 18.00000000
v 8.00000000 15.00000000 18.72425270
v 7.48621655 16.00000000 17.00000000
v 8.00000000 16.00000000 16.07102203
v 7.48634672 16.00000000 18.00000000
v 8.00000000 16.00000000 18.54811668
v 7.48810244 17.00000000 17.00000000
v 8.00000000 17.00000000 16.04033661
v 7.48518801 17.00000000 18.00000000
v 8.00000000 17.00000000 18.53845406
v 7.48684835 18.00000000 17.00000000
v 8.00000000 18.00000000 16.06632614
v 7.48766470 18.00000000 18.00000000
v 8.00000000 18.00000000 18.59849167
v 7.48654079 19.00000000 17.00000000
v 8.00000000 19.00000000 16.07300949
v 7.48898983 19.00000000 18.00000000
v 8.00000000 19.00000000 18.56553078
v 7.86569929 20.00000000 1.00000000
v 8.00000000 19.17453194 1.00000000
v 8.00000000 20.00000000 0.57178223
v 8.00000000 20.00000000 1.11957097
v 7.48780727 20.00000000 17.00000000
v 8.00000000 20.00000000 16.09104729
v 7.58386326 20.00000000 18.00000000
v 8.00000000 20.00000000 18.39442635
v 7.78039122 21.00000000 1.00000000
v 8.00000000 21.00000000 0.40321541
v 8.00000000 21.00000000 1.15649223
v 8.00000000 20.89287567 17.00000000
v 8.00000000 20.83629799 18.00000000
v 7.55484533 21.00000000 22.00000000
v 8.00000000 20.60481834 22.00000000
v 8.00000000 21.00000000 21.57420349
v 7.49630928 21.00000000 23.00000000
v 8.00000000 20.46101952 23.00000000
v 7.53585339 21.00000000 24.00000000
v 8.00000000 20.54689217 24.00000000
v 7.59454107 21.00000000 25.00000000
v 8.00000000 20.63587189 25.00000000
v 7.77731562 21.00000000 26.00000000
v 8.00000000 20.85269356 26.00000000
v 7.89819908 21.00000000 27.00000000
v 8.00000000 20.93643951 27.00000000
v 7.84081984 21.00000000 28.00000000
v 8.00000000 20.89300728 28.00000000
v 8.00000000 21.00000000 28.77838326
v 7.78979874 22.00000000 1.00000000
v 8.00000000 22.00000000 0.49649772
v 8.00000000 22.00000000 1.14006352
v 7.88027000 22.00000000 16.00000000
v 8.00000000 21.21562958 16.00000000
v 8.00000000 22.00000000 15.77663994
v 8.00000000 22.00000000 16.29634857
v 7.62641525 22.00000000 22.00000000
v 8.00000000 22.00000000 21.59847641
v 7.53646088 22.00000000 23.00000000
v 7.48857594 22.00000000 24.00000000
v 7.48557043 22.00000000 25.00000000
v 7.48662376 22.00000000 26.00000000
v 7.48540640 22.00000000 27.00000000
v 7.48479462 22.00000000 28.00000000
v 8.00000000 21.05316162 29.00000000
v 7.48518038 22.00000000 29.00000000
v 7.48668480 22.00000000 30.00000000
v 8.00000000 21.18049622 30.00000000
v 8.00000000 22.00000000 30.93811989
v 8.00000000 22.50259399 1.00000000
v 8.00000000 22.31032944 16.00000000
v 7.92495203 23.00000000 21.00000000
v 8.00000000 22.85415649 21.00000000
v 8.00000000 23.00000000 20.47153473
v 7.91658640 23.00000000 22.00000000
v 7.89626217 23.00000000 23.00000000
v 7.86538839 23.00000000 24.00000000
v 7.85153532 23.00000000 25.00000000
v 7.89355993 23.00000000 26.00000000
v 8.00000000 23.00000000 26.72544098
v 8.00000000 22.94689178 27.00000000
v 8.00000000 22.93126106 28.00000000
v 8.00000000 22.88461685 29.00000000
v 8.00000000 22.96841049 30.00000000
v 8.00000000 23.09001541 21.00000000
v 8.00000000 23.10467148 22.00000000
v 8.00000000 23.12439156 23.00000000
v 8.00000000 23.15870285 24.00000000
v 8.00000000 23.18583870 25.00000000
v 8.00000000 23.14555740 26.00000000
v 8.08893681 8.00000000 5.00000000
v 8.18675900 8.00000000 6.00000000
v 8.28571701 8.00000000 7.00000000
v 8.38032913 8.00000000 8.00000000
v 8.44857025 8.00000000 9.00000000
v 8.44373894 8.00000000 10.00000000
v 8.42707443 8.00000000 11.00000000
v 8.38629436 8.00000000 12.00000000
v 9.00000000 7.40806913 17.00000000
v 9.00000000 8.00000000 16.78647614
v 9.00000000 7.06140900 18.00000000
v 8.08441067 8.00000000 19.00000000
v 9.00000000 7.38728094 19.00000000
v 9.00000000 8.00000000 19.22779846
v 8.57025623 9.00000000 1.00000000
v 9.00000000 9.00000000 16.25164032
v 9.00000000 9.00000000 19.17223167
v 9.00000000 10.00000000 0.09770752
v 8.66300964 10.00000000 1.00000000
v 9.00000000 9.58183861 1.00000000
v 9.00000000 10.00000000 1.16886532
v 9.00000000 10.00000000 16.08863258
v 8.29125500 10.00000000 19.00000000
v 9.00000000 10.00000000 19.11852837
v 9.00000000 10.71035767 1.00000000
v 9.00000000 11.00000000 16.10930443
v 8.63577461 11.00000000 19.00000000
v 9.00000000 11.00000000 19.06809425
v 9.00000000 12.00000000 16.03441238
v 9.00000000 12.00000000 18.92476273
v 9.00000000 11.47876835 19.00000000
v 9.00000000 13.00000000 16.04215622
v 9.00000000 13.00000000 18.96467400
v 9.00000000 14.00000000 16.05687141
v 9.00000000 14.00000000 18.91077423
v 8.84040260 15.00000000 1.00000000
v 9.00000000 14.27120590 1.00000000
v 9.00000000 15.00000000 0.49687409
v 9.00000000 15.00000000 1.13582945
v 9.00000000 15.00000000 16.05463028
v 9.00000000 15.00000000 18.85885048
v 8.79000854 16.00000000 1.00000000
v 9.00000000 16.00000000 0.47042933
v 9.00000000 16.00000000 1.13854241
v 9.00000000 16.00000000 16.12092972
v 9.00000000 16.00000000 18.74949837
v 9.00000000 16.69149017 1.00000000
v 9.00000000 17.00000000 16.14251518
v 9.00000000 17.00000000 18.75918770
v 9.00000000 18.00000000 16.16862106
v 9.00000000 18.00000000 18.70628548
v 9.00000000 19.00000000 16.19811821
v 9.00000000 19.00000000 18.65178871
v 8.20137691 20.00000000 1.00000000
v 9.00000000 20.00000000 16.22204781
v 9.00000000 20.00000000 18.59780693
v 8.19393921 21.00000000 1.00000000
v 9.00000000 20.94213486 17.00000000
v 9.00000000 20.92630196 18.00000000
v 9.00000000 20.45098877 22.00000000
v 9.00000000 21.00000000 21.52253151
v 9.00000000 20.38757515 23.00000000
v 9.00000000 20.47460938 24.00000000
v 9.00000000 20.56070137 25.00000000
v 9.00000000 20.70831108 26.00000000
v 9.00000000 20.73169327 27.00000000
v 9.00000000 20.82063675 28.00000000
v 8.23725319 21.00000000 29.00000000
v 9.00000000 20.90742874 29.00000000
v 9.00000000 21.00000000 29.86059952
v 8.21483803 22.00000000 1.00000000
v 8.34675598 22.00000000 16.00000000
v 9.00000000 22.00000000 21.56967163
v 9.00000000 21.01492882 30.00000000
v 9.00000000 22.00000000 30.97572708
v 9.00000000 23.00000000 0.53340566
v 8.51414585 23.00000000 1.00000000
v 9.00000000 22.79624367 1.00000000
v 9.00000000 23.00000000 1.13278174
v 8.26381588 23.00000000 21.00000000
v 9.00000000 22.62115669 22.00000000
v 8.28695774 23.00000000 22.00000000
v 9.00000000 22.67609406 23.00000000
v 8.31106758 23.00000000 23.00000000
v 9.00000000 22.70417404 24.00000000
v 8.34692955 23.00000000 24.00000000
v 9.00000000 22.72077370 25.00000000
v 8.34166813 23.00000000 25.00000000
v 9.00000000 22.73281479 26.00000000
v 8.23516941 23.00000000 26.00000000
v 9.00000000 22.75965309 27.00000000
v 9.00000000 22.85257339 28.00000000
v 9.00000000 22.93970871 29.00000000
v 9.00000000 22.98869896 30.00000000
v 9.00000000 23.16599464 1.00000000
v 10.00000000 7.33336496 17.00000000
v 10.00000000 8.00000000 16.87558937
v 10.00000000 7.05762720 18.00000000
v 10.00000000 7.38787270 19.00000000
v 10.00000000 8.00000000 19.22587967
v 10.00000000 9.00000000 16.82543945
v 10.00000000 9.00000000 19.17294693
v 9.33005238 10.00000000 1.00000000
v 10.00000000 10.00000000 16.77548027
v 10.00000000 10.00000000 19.12572861
v 10.00000000 11.00000000 16.72157478
v 9.45239544 11.00000000 19.00000000
v 10.00000000 11.00000000 18.92916489
v 10.00000000 10.60598850 19.00000000
v 10.00000000 12.00000000 16.66609573
v 10.00000000 12.00000000 18.91595078
v 10.00000000 13.00000000 16.61498451
v 10.00000000 13.00000000 18.95979118
v 10.00000000 14.00000000 16.56001282
v 10.00000000 14.00000000 18.91358757
v 9.20507622 15.00000000 1.00000000
v 10.00000000 15.00000000 16.50713921
v 10.00000000 15.00000000 18.86024284
v 9.16343784 16.00000000 1.00000000
v 10.00000000 16.00000000 16.45427132
v 10.00000000 16.00000000 18.74867821
v 10.00000000 17.00000000 16.40115547
v 10.00000000 17.00000000 18.76075554
v 10.00000000 18.00000000 16.35047340
v 10.00000000 18.00000000 18.70643044
v 10.00000000 19.00000000 16.29867935
v 10.00000000 19.00000000 18.65039444
v 10.00000000 20.00000000 16.24889374
v 10.00000000 20.00000000 18.60132408
v 10.00000000 20.93945122 17.00000000
v 10.00000000 20.94209862 18.00000000
v 10.00000000 20.45225143 22.00000000
v 10.00000000 21.00000000 21.52254295
v 10.00000000 20.39209747 23.00000000
v 10.00000000 20.47456932 24.00000000
v 10.00000000 20.55806160 25.00000000
v 10.00000000 20.71041679 26.00000000
v 10.00000000 20.73376274 27.00000000
v 10.00000000 20.81967926 28.00000000
v 10.00000000 20.91068840 29.00000000
v 10.00000000 21.00000000 29.89282608
v 10.00000000 22.00000000 21.57159042
v 10.00000000 21.01068687 30.00000000
v 10.00000000 22.00000000 30.97071648
v 10.00000000 22.75404549 1.00000000
v 10.00000000 23.00000000 0.20178595
v 10.00000000 23.00000000 1.14197385
v 10.00000000 22.33554459 22.00000000
v 10.00000000 22.42086792 23.00000000
v 10.00000000 22.50588226 24.00000000
v 10.00000000 22.59389877 25.00000000
v 10.00000000 22.67702675 26.00000000
v 10.00000000 22.75570679 27.00000000
v 10.00000000 22.85399246 28.00000000
v 10.00000000 22.93613815 29.00000000
v 10.00000000 22.97154808 30.00000000
v 10.00000000 23.19471169 1.00000000
v 11.00000000 7.34175110 17.00000000
v 11.00000000 8.00000000 16.87904167
v 11.00000000 7.07122946 18.00000000
v 11.00000000 7.63441658 19.00000000
v 11.00000000 8.00000000 19.08668709
v 11.00000000 9.00000000 16.82518578
v 11.00000000 9.00000000 19.16152000
v 11.00000000 10.00000000 16.77491379
v 11.00000000 10.00000000 19.11253548
v 11.00000000 11.00000000 16.71834183
v 11.00000000 11.00000000 18.94938660
v 11.00000000 10.71483803 19.00000000
v 11.00000000 12.00000000 16.66773224
v 11.00000000 12.00000000 18.72522163
v 11.00000000 13.00000000 16.61557579
v 11.00000000 13.00000000 18.94205093
v 11.00000000 14.00000000 16.56134415
v 11.00000000 14.00000000 18.90275002
v 11.00000000 15.00000000 16.50738335
v 11.00000000 15.00000000 18.85059547
v 11.00000000 16.00000000 16.45544815
v 11.00000000 16.00000000 18.54663086
v 11.00000000 17.00000000 16.40155792
v 11.00000000 17.00000000 18.60565567
v 11.00000000 18.00000000 16.34945679
v 11.00000000 18.00000000 18.68909264
v 11.00000000 19.00000000 16.29705048
v 11.00000000 19.00000000 18.63893127
v 11.00000000 20.00000000 16.24256134
v 11.00000000 20.00000000 18.48112297
v 11.00000000 20.93445396 17.00000000
v 11.00000000 20.94401741 18.00000000
v 11.00000000 20.52162552 22.00000000
v 11.00000000 21.00000000 21.52327728
v 11.00000000 20.40508842 23.00000000
v 11.00000000 20.48848915 24.00000000
v 11.00000000 20.57241440 25.00000000
v 11.00000000 20.89636421 26.00000000
v 11.00000000 20.84689903 27.00000000
v 11.00000000 20.82618523 28.00000000
v 11.00000000 20.91360283 29.00000000
v 11.00000000 21.00000000 29.56632233
v 11.00000000 22.00000000 21.57217216
v 11.00000000 21.06919098 30.00000000
v 11.00000000 22.00000000 30.97001457
v 11.00000000 22.80018806 1.00000000
v 11.00000000 23.00000000 0.49302056
v 11.00000000 23.00000000 1.13852990
v 11.00000000 22.33414268 22.00000000
v 11.00000000 22.41948700 23.00000000
v 11.00000000 22.50506210 24.00000000
v 11.00000000 22.59004211 25.00000000
v 11.00000000 22.67948723 26.00000000
v 11.00000000 22.76267624 27.00000000
v 11.00000000 22.84765053 28.00000000
v 11.00000000 22.92035484 29.00000000
v 11.00000000 22.98353767 30.00000000
v 11.00000000 23.16007423 1.00000000
v 12.00000000 7.37602377 17.00000000
v 12.00000000 8.00000000 16.88351059
v 12.00000000 7.06627512 18.00000000
v 11.57034206 8.00000000 19.00000000
v 12.00000000 8.00000000 18.93776894
v 12.00000000 9.00000000 16.82878876
v 12.00000000 8.31554127 19.00000000
v 12.00000000 9.00000000 19.13939476
v 12.00000000 10.00000000 16.77417183
v 12.00000000 10.00000000 19.09103203
v 12.00000000 11.00000000 16.71827126
v 12.00000000 11.00000000 18.93124771
v 12.00000000 10.60165310 19.00000000
v 12.00000000 12.00000000 16.66793823
v 12.00000000 12.00000000 18.69324303
v 12.00000000 13.00000000 16.61448860
v 12.00000000 13.00000000 18.92519188
v 12.00000000 14.00000000 16.56120300
v 12.00000000 14.00000000 18.88012123
v 12.00000000 15.00000000 16.50684547
v 12.00000000 15.00000000 18.82754707
v 12.00000000 16.00000000 16.45363808
v 12.00000000 16.00000000 18.51745605
v 12.00000000 17.00000000 16.40147209
v 12.00000000 17.00000000 18.57750893
v 12.00000000 18.00000000 16.34778786
v 12.00000000 18.00000000 18.67255783
v 12.00000000 19.00000000 16.29456711
v 12.00000000 19.00000000 18.61927795
v 12.00000000 20.00000000 16.24219131
v 12.00000000 20.00000000 18.46418190
v 12.00000000 20.92871094 17.00000000
v 12.00000000 20.92909431 18.00000000
v 12.00000000 20.52227783 22.00000000
v 12.00000000 21.00000000 21.52281380
v 12.00000000 20.41913414 23.00000000
v 12.00000000 20.50263214 24.00000000
v 12.00000000 20.59243011 25.00000000
v 12.00000000 20.93011665 26.00000000
v 12.00000000 20.86658478 27.00000000
v 12.00000000 20.84940338 28.00000000
v 11.54696274 21.00000000 29.00000000
v 12.00000000 21.00000000 28.67532921
v 12.00000000 22.00000000 21.56706429
v 12.00000000 21.07070923 29.00000000
v 12.00000000 21.07680130 30.00000000
v 12.00000000 22.00000000 30.96943665
v 12.00000000 22.79460907 1.00000000
v 12.00000000 23.00000000 0.48035431
v 12.00000000 23.00000000 1.14222682
v 12.00000000 22.33818245 22.00000000
v 12.00000000 22.42111588 23.00000000
v 12.00000000 22.50662041 24.00000000
v 12.00000000 22.59487915 25.00000000
v 12.00000000 22.67453003 26.00000000
v 12.00000000 22.76235962 27.00000000
v 12.00000000 22.85202599 28.00000000
v 12.00000000 22.93144035 29.00000000
v 12.00000000 22.96781731 30.00000000
v 12.00000000 23.16670227 1.00000000
v 13.00000000 7.33127069 17.00000000
v 13.00000000 8.00000000 16.87957954
v 13.00000000 7.06621790 18.00000000
v 12.21714211 8.00000000 19.00000000
v 13.00000000 7.37986135 19.00000000
v 13.00000000 8.00000000 19.22574615
v 13.00000000 9.00000000 16.82850456
v 13.00000000 9.00000000 19.17383003
v 13.00000000 10.00000000 16.77139854
v 13.00000000 10.00000000 19.12375259
v 13.00000000 11.00000000 16.72021675
v 12.42569542 11.00000000 19.00000000
v 13.00000000 11.00000000 19.07866096
v 13.00000000 12.00000000 16.66788292
v 13.00000000 12.00000000 18.92845917
v 13.00000000 11.53110695 19.00000000
v 13.00000000 13.00000000 16.61298561
v 13.00000000 13.00000000 18.95483971
v 13.00000000 14.00000000 16.56177521
v 13.00000000 14.00000000 18.90662956
v 13.00000000 15.00000000 16.50878906
v 13.00000000 15.00000000 18.85943604
v 13.00000000 16.00000000 16.45517921
v 13.00000000 16.00000000 18.74508476
v 13.00000000 17.00000000 16.40320587
v 13.00000000 17.00000000 18.75934982
v 13.00000000 18.00000000 16.34987068
v 13.00000000 18.00000000 18.70504570
v 13.00000000 19.00000000 16.29557991
v 13.00000000 19.00000000 18.65289307
v 13.00000000 20.00000000 16.24192429
v 13.00000000 20.00000000 18.59907532
v 13.00000000 20.93065071 17.00000000
v 13.00000000 20.94153404 18.00000000
v 13.00000000 20.45495987 22.00000000
v 13.00000000 21.00000000 21.52300453
v 13.00000000 20.38991356 23.00000000
v 13.00000000 20.47679901 24.00000000
v 13.00000000 20.56237030 25.00000000
v 13.00000000 20.71280670 26.00000000
v 13.00000000 20.73334885 27.00000000
v 13.00000000 20.82019615 28.00000000
v 12.43449116 21.00000000 29.00000000
v 13.00000000 20.90778542 29.00000000
v 13.00000000 21.00000000 29.78759766
v 13.00000000 22.00000000 21.57039642
v 13.00000000 21.02462196 30.00000000
v 13.00000000 22.00000000 30.97426987
v 13.00000000 22.79439163 1.00000000
v 13.00000000 23.00000000 0.48717108
v 13.00000000 23.00000000 1.14091241
v 13.00000000 22.33466911 22.00000000
v 13.00000000 22.41919708 23.00000000
v 13.00000000 22.50343704 24.00000000
v 13.00000000 22.59184647 25.00000000
v 13.00000000 22.67734146 26.00000000
v 13.00000000 22.75893021 27.00000000
v 13.00000000 22.85245514 28.00000000
v 13.00000000 22.94170380 29.00000000
v 13.00000000 22.97938919 30.00000000
v 13.00000000 23.16569519 1.00000000
v 14.00000000 7.36614418 17.00000000
v 14.00000000 8.00000000 16.87808037
v 14.00000000 7.05794001 18.00000000
v 14.00000000 7.38847303 19.00000000
v 14.00000000 8.00000000 19.22602654
v 14.00000000 9.00000000 16.82642555
v 14.00000000 9.00000000 19.17599487
v 14.00000000 10.00000000 16.77188110
v 14.00000000 10.00000000 19.12368774
v 14.00000000 11.00000000 16.71756935
v 13.53193188 11.00000000 19.00000000
v 14.00000000 11.00000000 18.93909645
v 14.00000000 10.63933086 19.00000000
v 14.00000000 12.00000000 16.66460800
v 14.00000000 12.00000000 18.92446899
v 14.00000000 13.00000000 16.61381149
v 14.00000000 13.00000000 18.96500778
v 14.00000000 14.00000000 16.56106567
v 14.00000000 14.00000000 18.91407967
v 14.00000000 15.00000000 16.50833511
v 14.00000000 15.00000000 18.85942268
v 14.00000000 16.00000000 16.45530510
v 14.00000000 16.00000000 18.74602318
v 14.00000000 17.00000000 16.40287399
v 14.00000000 17.00000000 18.75686646
v 14.00000000 18.00000000 16.34895897
v 14.00000000 18.00000000 18.70496750
v 14.00000000 19.00000000 16.29657364
v 14.00000000 19.00000000 18.65244865
v 14.00000000 20.00000000 16.24519539
v 14.00000000 20.00000000 18.59776306
v 14.00000000 20.93292999 17.00000000
v 14.00000000 20.96433640 18.00000000
v 14.00000000 20.45203781 22.00000000
v 14.00000000 21.00000000 21.52093506
v 14.00000000 20.39226913 23.00000000
v 14.00000000 20.47810745 24.00000000
v 14.00000000 20.56270218 25.00000000
v 14.00000000 20.70879173 26.00000000
v 14.00000000 20.73167801 27.00000000
v 14.00000000 20.82081604 28.00000000
v 14.00000000 20.90681839 29.00000000
v 14.00000000 21.00000000 29.86507988
v 14.00000000 22.00000000 21.56791306
v 14.00000000 21.01452446 30.00000000
v 14.00000000 22.00000000 30.97101784
v 14.00000000 22.79639626 1.00000000
v 14.00000000 23.00000000 0.48948050
v 14.00000000 23.00000000 1.13987875
v 14.00000000 22.33668709 22.00000000
v 14.00000000 22.41946983 23.00000000
v 14.00000000 22.50455093 24.00000000
v 14.00000000 22.59095383 25.00000000
v 14.00000000 22.67635727 26.00000000
v 14.00000000 22.76192856 27.00000000
v 14.00000000 22.84972000 28.00000000
v 14.00000000 22.92988777 29.00000000
v 14.00000000 22.98389816 30.00000000
v 14.00000000 23.16481018 1.00000000
v 15.00000000 7.32833815 17.00000000
v 15.00000000 8.00000000 16.87977028
v 15.00000000 7.05572987 18.00000000
v 14.77229404 8.00000000 19.00000000
v 15.00000000 8.00000000 18.93394852
v 15.00000000 9.00000000 16.82502747
v 15.00000000 8.30725765 19.00000000
v 15.00000000 9.00000000 19.15329933
v 15.00000000 10.00000000 16.77236748
v 15.00000000 10.00000000 19.10469246
v 15.00000000 11.00000000 16.72087479
v 15.00000000 11.00000000 18.94260406
v 15.00000000 10.67425442 19.00000000
v 15.00000000 12.00000000 16.66819572
v 15.00000000 12.00000000 18.70644569
v 15.00000000 13.00000000 16.61430359
v 15.00000000 13.00000000 18.93470573
v 15.00000000 14.00000000 16.56073570
v 15.00000000 14.00000000 18.89563560
v 15.00000000 15.00000000 16.50760460
v 15.00000000 15.00000000 18.84161377
v 15.00000000 16.00000000 16.45467186
v 15.00000000 16.00000000 18.53191185
v 15.00000000 17.00000000 16.40213585
v 15.00000000 17.00000000 18.59106445
v 15.00000000 18.00000000 16.35148048
v 15.00000000 18.00000000 18.68288040
v 15.00000000 19.00000000 16.29704857
v 15.00000000 19.00000000 18.63042259
v 15.00000000 20.00000000 16.24334335
v 15.00000000 20.00000000 18.47212029
v 15.00000000 20.93074799 17.00000000
v 15.00000000 20.92576027 18.00000000
v 15.00000000 20.51984024 22.00000000
v 15.00000000 21.00000000 21.52073669
v 15.00000000 20.41410828 23.00000000
v 15.00000000 20.49622917 24.00000000
v 15.00000000 20.58327293 25.00000000
v 15.00000000 20.90553284 26.00000000
v 15.00000000 20.85347176 27.00000000
v 15.00000000 20.83758354 28.00000000
v 15.00000000 20.92689323 29.00000000
v 15.00000000 21.00000000 29.45177269
v 15.00000000 22.00000000 21.56441689
v 15.00000000 21.09062576 30.00000000
v 15.00000000 22.00000000 30.97933006
v 15.00000000 22.78818512 1.00000000
v 15.00000000 23.00000000 0.47834608
v 15.00000000 23.00000000 1.14547026
v 15.00000000 22.33501053 22.00000000
v 15.00000000 22.42029953 23.00000000
v 15.00000000 22.50742531 24.00000000
v 15.00000000 22.58994484 25.00000000
v 15.00000000 22.67981911 26.00000000
v 15.00000000 22.76756287 27.00000000
v 15.00000000 22.84487152 28.00000000
v 15.00000000 22.93125534 29.00000000
v 15.00000000 22.96709824 30.00000000
v 15.00000000 23.17020226 1.00000000
v 16.00000000 7.35554314 17.00000000
v 16.00000000 8.00000000 16.87433243
v 16.00000000 7.06111288 18.00000000
v 16.00000000 8.00000000 18.93038750
v 16.00000000 9.00000000 16.82696915
v 16.00000000 8.32128048 19.00000000
v 16.00000000 9.00000000 19.15203094
v 16.00000000 10.00000000 16.77140617
v 16.00000000 10.00000000 19.10036659
v 16.00000000 11.00000000 16.71962929
v 16.00000000 11.00000000 18.94666862
v 16.00000000 10.68201065 19.00000000
v 16.00000000 12.00000000 16.66743279
v 16.00000000 12.00000000 18.70933151
v 16.00000000 13.00000000 16.61423111
v 16.00000000 13.00000000 18.93926811
v 16.00000000 14.00000000 16.56071281
v 16.00000000 14.00000000 18.89446640
v 16.00000000 15.00000000 16.50808716
v 16.00000000 15.00000000 18.84360123
v 16.00000000 16.00000000 16.45514297
v 16.00000000 16.00000000 18.52464104
v 16.00000000 17.00000000 16.40318489
v 16.00000000 17.00000000 18.59143448
v 16.00000000 18.00000000 16.35059547
v 16.00000000 18.00000000 18.68442345
v 16.00000000 19.00000000 16.29759216
v 16.00000000 19.00000000 18.62889671
v 16.00000000 20.00000000 16.24352264
v 16.00000000 20.00000000 18.47253227
v 16.00000000 20.93147278 17.00000000
v 16.00000000 20.93790817 18.00000000
v 16.00000000 20.52003860 22.00000000
v 16.00000000 21.00000000 21.51997375
v 16.00000000 20.41583633 23.00000000
v 16.00000000 20.49510765 24.00000000
v 16.00000000 20.58116722 25.00000000
v 16.00000000 20.91390038 26.00000000
v 16.00000000 20.85220337 27.00000000
v 16.00000000 20.83876991 28.00000000
v 16.00000000 20.92505074 29.00000000
v 16.00000000 21.00000000 29.48898125
v 16.00000000 22.00000000 21.56805801
v 16.00000000 21.08054543 30.00000000
v 16.00000000 22.00000000 30.97341728
v 16.00000000 22.79042053 1.00000000
v 16.00000000 23.00000000 0.46133539
v 16.00000000 23.00000000 1.14204705
v 16.00000000 22.33417702 22.00000000
v 16.00000000 22.41970825 23.00000000
v 16.00000000 22.50611115 24.00000000
v 16.00000000 22.59185410 25.00000000
v 16.00000000 22.67914772 26.00000000
v 16.00000000 22.76803780 27.00000000
v 16.00000000 22.85356522 28.00000000
v 16.00000000 22.92245865 29.00000000
v 16.00000000 22.95044136 30.00000000
v 16.00000000 23.16794395 1.00000000
v 17.00000000 7.36481476 17.00000000
v 17.00000000 8.00000000 16.87922287
v 17.00000000 7.06008005 18.00000000
v 16.23688507 8.00000000 19.00000000
v 17.00000000 7.38593435 19.00000000
v 17.00000000 8.00000000 19.22721291
v 17.00000000 9.00000000 16.82527542
v 17.00000000 9.00000000 19.17897797
v 17.00000000 10.00000000 16.77268791
v 17.00000000 10.00000000 19.12614250
v 17.00000000 11.00000000 16.71977997
v 17.00000000 11.00000000 18.94092751
v 17.00000000 10.65206051 19.00000000
v 17.00000000 12.00000000 16.66782188
v 17.00000000 12.00000000 18.92087555
v 17.00000000 13.00000000 16.61367989
v 17.00000000 13.00000000 18.96627808
v 17.00000000 14.00000000 16.55984306
v 17.00000000 14.00000000 18.91504669
v 17.00000000 15.00000000 16.50817299
v 17.00000000 15.00000000 18.86275101
v 17.00000000 16.00000000 16.45482063
v 17.00000000 16.00000000 18.74593353
v 17.00000000 17.00000000 16.40316200
v 17.00000000 17.00000000 18.75766563
v 17.00000000 18.00000000 16.34951210
v 17.00000000 18.00000000 18.70638084
v 17.00000000 19.00000000 16.29708290
v 17.00000000 19.00000000 18.65303612
v 17.00000000 20.00000000 16.24506950
v 17.00000000 20.00000000 18.59765625
v 17.00000000 20.92896652 17.00000000
v 17.00000000 20.94876480 18.00000000
v 17.00000000 20.45149231 22.00000000
v 17.00000000 21.00000000 21.52234077
v 17.00000000 20.39219284 23.00000000
v 17.00000000 20.47723770 24.00000000
v 17.00000000 20.56114388 25.00000000
v 17.00000000 20.70701981 26.00000000
v 17.00000000 20.73380280 27.00000000
v 17.00000000 20.81950569 28.00000000
v 17.00000000 20.90585136 29.00000000
v 17.00000000 21.00000000 29.82733727
v 17.00000000 22.00000000 21.56682777
v 17.00000000 21.01945496 30.00000000
v 17.00000000 22.00000000 30.98065186
v 17.00000000 22.79633522 1.00000000
v 17.00000000 23.00000000 0.51226312
v 17.00000000 23.00000000 1.13974428
v 17.00000000 22.33707809 22.00000000
v 17.00000000 22.42366982 23.00000000
v 17.00000000 22.50743675 24.00000000
v 17.00000000 22.59315491 25.00000000
v 17.00000000 22.67717934 26.00000000
v 17.00000000 22.76087189 27.00000000
v 17.00000000 22.85493279 28.00000000
v 17.00000000 22.92665672 29.00000000
v 17.00000000 22.98427391 30.00000000
v 17.00000000 23.16307640 1.00000000
v 18.00000000 7.34539890 17.00000000
v 18.00000000 8.00000000 16.87931442
v 18.00000000 7.05794811 18.00000000
v 18.00000000 7.37135649 19.00000000
v 18.00000000 8.00000000 19.22955132
v 18.00000000 9.00000000 16.82676506
v 18.00000000 9.00000000 19.17472267
v 18.00000000 10.00000000 16.77455521
v 18.00000000 10.00000000 19.12185860
v 18.00000000 11.00000000 16.72041702
v 17.49524498 11.00000000 19.00000000
v 18.00000000 11.00000000 19.06871414
v 18.00000000 12.00000000 16.66662216
v 18.00000000 12.00000000 18.92901230
v 18.00000000 11.49724102 19.00000000
v 18.00000000 13.00000000 16.61371994
v 18.00000000 13.00000000 18.95788383
v 18.00000000 14.00000000 16.56191826
v 18.00000000 14.00000000 18.91545868
v 18.00000000 15.00000000 16.50707817
v 18.00000000 15.00000000 18.86082649
v 18.00000000 16.00000000 16.45475578
v 18.00000000 16.00000000 18.74550056
v 18.00000000 17.00000000 16.40228844
v 18.00000000 17.00000000 18.75836372
v 18.00000000 18.00000000 16.34987450
v 18.00000000 18.00000000 18.70485687
v 18.00000000 19.00000000 16.29641151
v 18.00000000 19.00000000 18.65257454
v 18.00000000 20.00000000 16.24291229
v 18.00000000 20.00000000 18.59799004
v 18.00000000 20.92954063 17.00000000
v 18.00000000 20.94693375 18.00000000
v 18.00000000 20.45454597 22.00000000
v 18.00000000 21.00000000 21.52366447
v 18.00000000 20.39040565 23.00000000
v 18.00000000 20.47714806 24.00000000
v 18.00000000 20.56017685 25.00000000
v 18.00000000 20.70990562 26.00000000
v 18.00000000 20.73137665 27.00000000
v 18.00000000 20.81874657 28.00000000
v 18.00000000 20.90226173 29.00000000
v 18.00000000 21.00000000 29.80266380
v 18.00000000 22.00000000 21.56800652
v 18.00000000 21.02376366 30.00000000
v 18.00000000 22.00000000 30.97362328
v 18.00000000 22.79724693 1.00000000
v 18.00000000 23.00000000 0.49485517
v 18.00000000 23.00000000 1.13913465
v 18.00000000 22.33459663 22.00000000
v 18.00000000 22.41936874 23.00000000
v 18.00000000 22.50798607 24.00000000
v 18.00000000 22.59249687 25.00000000
v 18.00000000 22.67996979 26.00000000
v 18.00000000 22.76307869 27.00000000
v 18.00000000 22.84577179 28.00000000
v 18.00000000 22.93069649 29.00000000
v 18.00000000 22.98121452 30.00000000
v 18.00000000 23.16295052 1.00000000
v 19.00000000 7.33556271 17.00000000
v 19.00000000 8.00000000 16.87578583
v 19.00000000 7.05588865 18.00000000
v 18.79576492 8.00000000 19.00000000
v 19.00000000 8.00000000 18.94096756
v 19.00000000 9.00000000 16.82821465
v 19.00000000 8.30140781 19.00000000
v 19.00000000 9.00000000 19.14019012
v 19.00000000 10.00000000 16.77280807
v 19.00000000 10.00000000 19.08958244
v 19.00000000 11.00000000 16.72081947
v 18.51395798 11.00000000 19.00000000
v 19.00000000 11.00000000 18.92463684
v 19.00000000 10.57278633 19.00000000
v 19.00000000 12.00000000 16.66483116
v 19.00000000 12.00000000 18.69141579
v 19.00000000 13.00000000 16.61322784
v 19.00000000 13.00000000 18.92579079
v 19.00000000 14.00000000 16.55960083
v 19.00000000 14.00000000 18.87669563
v 19.00000000 15.00000000 16.50702667
v 19.00000000 15.00000000 18.82780647
v 19.00000000 16.00000000 16.45565224
v 19.00000000 16.00000000 18.51511383
v 19.00000000 17.00000000 16.40243340
v 19.00000000 17.00000000 18.57583809
v 19.00000000 18.00000000 16.34939957
v 19.00000000 18.00000000 18.67217255
v 19.00000000 19.00000000 16.29631615
v 19.00000000 19.00000000 18.61751556
v 19.00000000 20.00000000 16.24564362
v 19.00000000 20.00000000 18.46583748
v 19.00000000 20.93610001 17.00000000
v 19.00000000 20.92733955 18.00000000
v 19.00000000 20.52060509 22.00000000
v 19.00000000 21.00000000 21.51886749
v 19.00000000 20.42293549 23.00000000
v 19.00000000 20.50292969 24.00000000
v 19.00000000 20.59300041 25.00000000
v 18.80897713 21.00000000 26.00000000
v 19.00000000 21.00000000 25.85907555
v 19.00000000 21.00000000 26.33004379
v 19.00000000 20.86547279 27.00000000
v 19.00000000 20.85136795 28.00000000
v 19.00000000 20.93458176 29.00000000
v 19.00000000 21.00000000 29.44549942
v 19.00000000 22.00000000 21.56811142
v 19.00000000 21.08827209 26.00000000
v 19.00000000 21.08384705 30.00000000
v 19.00000000 22.00000000 30.95274162
v 19.00000000 22.79473877 1.00000000
v 19.00000000 23.00000000 0.47456971
v 19.00000000 23.00000000 1.14124310
v 19.00000000 22.33584023 22.00000000
v 19.00000000 22.42270470 23.00000000
v 19.00000000 22.50538254 24.00000000
v 19.00000000 22.59429169 25.00000000
v 19.00000000 22.67399216 26.00000000
v 19.00000000 22.76447868 27.00000000
v 19.00000000 22.84933090 28.00000000
v 19.00000000 22.93830490 29.00000000
v 19.00000000 22.97611618 30.00000000
v 19.00000000 23.16525078 1.00000000
v 20.00000000 7.36960125 17.00000000
v 20.00000000 8.00000000 16.88200951
v 20.00000000 7.06388235 18.00000000
v 19.42429543 8.00000000 19.00000000
v 20.00000000 7.63489151 19.00000000
v 20.00000000 8.00000000 19.08354568
v 20.00000000 9.00000000 16.82788849
v 20.00000000 9.00000000 19.15831757
v 20.00000000 10.00000000 16.77492142
v 20.00000000 10.00000000 19.11087418
v 20.00000000 11.00000000 16.72017288
v 20.00000000 11.00000000 18.95487595
v 20.00000000 10.73563766 19.00000000
v 20.00000000 12.00000000 16.66712952
v 20.00000000 12.00000000 18.72574997
v 20.00000000 13.00000000 16.61313248
v 20.00000000 13.00000000 18.94462967
v 20.00000000 14.00000000 16.55971909
v 20.00000000 14.00000000 18.89950562
v 20.00000000 15.00000000 16.50767136
v 20.00000000 15.00000000 18.85560417
v 20.00000000 16.00000000 16.45593643
v 20.00000000 16.00000000 18.54197121
v 20.00000000 17.00000000 16.40360069
v 20.00000000 17.00000000 18.60498619
v 20.00000000 18.00000000 16.34974480
v 20.00000000 18.00000000 18.69278908
v 20.00000000 19.00000000 16.29491997
v 20.00000000 19.00000000 18.63983345
v 20.00000000 20.00000000 16.23988724
v 20.00000000 20.00000000 18.48282051
v 20.00000000 20.94078636 17.00000000
v 20.00000000 20.95337105 18.00000000
v 20.00000000 20.52032089 22.00000000
v 20.00000000 21.00000000 21.51998138
v 20.00000000 20.40775108 23.00000000
v 20.00000000 20.49128723 24.00000000
v 20.00000000 20.57778358 25.00000000
v 19.39618492 21.00000000 26.00000000
v 20.00000000 20.88851738 26.00000000
v 20.00000000 20.84808159 27.00000000
v 20.00000000 20.83020020 28.00000000
v 20.00000000 20.91468620 29.00000000
v 20.00000000 21.00000000 29.55822945
v 20.00000000 22.00000000 21.57050514
v 20.00000000 21.07072067 30.00000000
v 20.00000000 22.00000000 30.97106552
v 20.00000000 22.79468918 1.00000000
v 20.00000000 23.00000000 0.48051062
v 20.00000000 23.00000000 1.14139307
v 20.00000000 22.33452225 22.00000000
v 20.00000000 22.41948128 23.00000000
v 20.00000000 22.50746536 24.00000000
v 20.00000000 22.59206200 25.00000000
v 20.00000000 22.67860794 26.00000000
v 20.00000000 22.75976753 27.00000000
v 20.00000000 22.84246826 28.00000000
v 20.00000000 22.93034554 29.00000000
v 20.00000000 22.97381401 30.00000000
v 20.00000000 23.16329575 1.00000000
v 21.00000000 7.36941671 17.00000000
v 21.00000000 8.00000000 16.87968826
v 21.00000000 7.06888437 18.00000000
v 21.00000000 7.39000559 19.00000000
v 21.00000000 8.00000000 19.22551537
v 21.00000000 9.00000000 16.82827568
v 21.00000000 9.00000000 19.17605972
v 21.00000000 10.00000000 16.77524757
v 21.00000000 10.00000000 19.12389374
v 21.00000000 11.00000000 16.72254562
v 21.00000000 11.00000000 18.93372345
v 21.00000000 10.61881065 19.00000000
v 21.00000000 12.00000000 16.66967773
v 21.00000000 12.00000000 18.93058777
v 21.00000000 13.00000000 16.61261177
v 21.00000000 13.00000000 18.96492958
v 21.00000000 14.00000000 16.56068611
v 21.00000000 14.00000000 18.90917969
v 21.00000000 15.00000000 16.50818825
v 21.00000000 15.00000000 18.85687828
v 21.00000000 16.00000000 16.45623207
v 21.00000000 16.00000000 18.74667358
v 21.00000000 17.00000000 16.40226936
v 21.00000000 17.00000000 18.75751495
v 21.00000000 18.00000000 16.34943199
v 21.00000000 18.00000000 18.70728493
v 21.00000000 19.00000000 16.29615593
v 21.00000000 19.00000000 18.65263939
v 21.00000000 20.00000000 16.24478722
v 21.00000000 20.00000000 18.60113144
v 21.00000000 20.91901016 17.00000000
v 21.00000000 20.92757607 18.00000000
v 21.00000000 20.45232582 22.00000000
v 21.00000000 21.00000000 21.51953888
v 21.00000000 20.39087486 23.00000000
v 21.00000000 20.47993088 24.00000000
v 21.00000000 20.56159019 25.00000000
v 21.00000000 20.71136856 26.00000000
v 21.00000000 20.73121071 27.00000000
v 21.00000000 20.81987381 28.00000000
v 21.00000000 20.89469147 29.00000000
v 21.00000000 21.00000000 29.85738564
v 21.00000000 22.00000000 21.57142448
v 21.00000000 21.01757050 30.00000000
v 21.00000000 22.00000000 30.97305298
v 21.00000000 22.74658012 1.00000000
v 21.00000000 23.00000000 0.06871740
v 21.00000000 23.00000000 1.14599288
v 21.00000000 22.33571434 22.00000000
v 21.00000000 22.42258453 23.00000000
v 21.00000000 22.50763321 24.00000000
v 21.00000000 22.59274292 25.00000000
v 21.00000000 22.68053818 26.00000000
v 21.00000000 22.76198959 27.00000000
v 21.00000000 22.84536552 28.00000000
v 21.00000000 22.94241142 29.00000000
v 21.00000000 22.96433830 30.00000000
v 21.00000000 23.20012093 1.00000000
v 22.00000000 7.34827375 17.00000000
v 22.00000000 8.00000000 16.78717232
v 22.00000000 7.06363201 18.00000000
v 22.00000000 7.39287615 19.00000000
v 22.00000000 8.00000000 19.22799873
v 22.00000000 9.00000000 16.20119286
v 22.00000000 9.00000000 19.17445183
v 21.68142319 10.00000000 1.00000000
v 22.00000000 9.57356644 1.00000000
v 22.00000000 10.00000000 0.13926086
v 22.00000000 10.00000000 1.17047799
v 22.00000000 10.00000000 16.09237480
v 22.00000000 10.00000000 19.12518501
v 22.00000000 10.68679428 1.00000000
v 22.00000000 11.00000000 16.06456757
v 22.00000000 11.00000000 18.93920135
v 22.00000000 10.64231300 19.00000000
v 22.00000000 12.00000000 16.06436157
v 22.00000000 12.00000000 18.92705536
v 22.00000000 13.00000000 16.07457924
v 22.00000000 13.00000000 18.96502495
v 22.00000000 14.00000000 16.05138588
v 22.00000000 14.00000000 18.91472816
v 21.79132462 15.00000000 1.00000000
v 22.00000000 14.28864193 1.00000000
v 22.00000000 15.00000000 0.49709117
v 22.00000000 15.00000000 1.13966298
v 22.00000000 15.00000000 16.05270958
v 22.00000000 15.00000000 18.86728477
v 21.83472252 16.00000000 1.00000000
v 22.00000000 16.00000000 0.49886718
v 22.00000000 16.00000000 1.14154339
v 22.00000000 16.00000000 16.09547234
v 22.00000000 16.00000000 18.74840736
v 22.00000000 16.74407005 1.00000000
v 22.00000000 17.00000000 16.14800453
v 22.00000000 17.00000000 18.76049805
v 22.00000000 18.00000000 16.16787148
v 22.00000000 18.00000000 18.70602036
v 22.00000000 19.00000000 16.19727325
v 22.00000000 19.00000000 18.65229225
v 22.00000000 20.00000000 16.21423912
v 22.00000000 20.00000000 18.60116386
v 22.00000000 20.92967224 17.00000000
v 22.00000000 20.94688606 18.00000000
v 22.00000000 20.45064926 22.00000000
v 22.00000000 21.00000000 21.52012253
v 22.00000000 20.39231873 23.00000000
v 22.00000000 20.47432899 24.00000000
v 22.00000000 20.56023216 25.00000000
v 22.00000000 20.71140289 26.00000000
v 22.00000000 20.72989273 27.00000000
v 22.00000000 20.82050514 28.00000000
v 22.00000000 20.90678406 29.00000000
v 22.00000000 21.00000000 29.84688377
v 22.00000000 22.00000000 21.56933022
v 22.00000000 21.01670647 30.00000000
v 22.00000000 22.00000000 30.96649361
v 22.00000000 22.79927635 1.00000000
v 22.00000000 23.00000000 0.52877629
v 22.00000000 23.00000000 1.12917328
v 22.00000000 22.62461281 22.00000000
v 22.00000000 22.68306160 23.00000000
v 22.00000000 22.70292473 24.00000000
v 22.00000000 22.71371460 25.00000000
v 22.00000000 22.73251343 26.00000000
v 22.00000000 22.76423645 27.00000000
v 22.00000000 22.84490204 28.00000000
v 22.00000000 22.94561005 29.00000000
v 22.00000000 22.97666740 30.00000000
v 22.00000000 23.15615463 1.00000000
v 22.90819740 8.00000000 5.00000000
v 23.00000000 7.88761139 5.00000000
v 23.00000000 8.00000000 4.25211811
v 22.81275558 8.00000000 6.00000000
v 23.00000000 7.78187847 6.00000000
v 22.71502304 8.00000000 7.00000000
v 23.00000000 7.68676567 7.00000000
v 22.61978912 8.00000000 8.00000000
v 23.00000000 7.60972691 8.00000000
v 22.55251694 8.00000000 9.00000000
v 23.00000000 7.57895660 9.00000000
v 22.55667496 8.00000000 10.00000000
v 23.00000000 7.63189459 10.00000000
v 22.56361389 8.00000000 11.00000000
v 23.00000000 7.70104933 11.00000000
v 22.61867332 8.00000000 12.00000000
v 23.00000000 7.80001831 12.00000000
v 23.00000000 8.00000000 12.69978046
v 23.00000000 7.40078163 17.00000000
v 23.00000000 8.00000000 16.80780792
v 23.00000000 7.10247564 18.00000000
v 22.90706253 8.00000000 19.00000000
v 23.00000000 8.00000000 18.95636559
v 22.42304420 9.00000000 1.00000000
v 23.00000000 8.39920425 1.00000000
v 23.00000000 9.00000000 0.52967680
v 23.00000000 9.00000000 1.55427885
v 23.00000000 8.14825249 5.00000000
v 23.00000000 8.26289463 6.00000000
v 23.00000000 8.35699749 7.00000000
v 23.00000000 8.42323303 8.00000000
v 23.00000000 8.45118999 9.00000000
v 23.00000000 8.38136482 10.00000000
v 23.00000000 8.29778576 11.00000000
v 23.00000000 8.18799114 12.00000000
v 23.00000000 9.00000000 16.45748901
v 23.00000000 8.22073936 19.00000000
v 23.00000000 9.00000000 19.08871269
v 22.34529877 10.00000000 1.00000000
v 23.00000000 9.49173546 1.00000000
v 23.00000000 10.00000000 16.51811790
v 22.78200722 10.00000000 19.00000000
v 23.00000000 10.00000000 18.93590927
v 23.00000000 9.70166302 19.00000000
v 23.00000000 11.00000000 16.44989204
v 23.00000000 11.00000000 18.81391716
v 23.00000000 12.00000000 16.36656570
v 23.00000000 12.00000000 18.70386314
v 23.00000000 13.00000000 16.28605843
v 23.00000000 13.00000000 18.83150482
v 23.00000000 14.00000000 16.20024490
v 23.00000000 14.00000000 18.77604866
v 22.16180801 15.00000000 1.00000000
v 23.00000000 15.00000000 16.13202858
v 23.00000000 15.00000000 18.72791672
v 22.21180153 16.00000000 1.00000000
v 23.00000000 16.00000000 16.08113670
v 23.00000000 16.00000000 18.54793358
v 23.00000000 17.00000000 16.02212715
v 23.00000000 17.00000000 18.53960228
v 23.00000000 18.00000000 16.06772232
v 23.00000000 18.00000000 18.60611153
v 23.00000000 19.00000000 16.08055687
v 23.00000000 19.00000000 18.57138443
v 22.80209923 20.00000000 1.00000000
v 23.00000000 19.17050552 1.00000000
v 23.00000000 20.00000000 0.56776631
v 23.00000000 20.00000000 1.11848831
v 23.00000000 20.00000000 16.07374763
v 23.00000000 20.00000000 18.39554214
v 22.80840683 21.00000000 1.00000000
v 23.00000000 21.00000000 0.39318016
v 23.00000000 21.00000000 1.15491319
v 23.00000000 20.90263367 17.00000000
v 23.00000000 20.84951401 18.00000000
v 23.00000000 20.60659790 22.00000000
v 23.00000000 21.00000000 21.57028198
v 23.00000000 20.46140862 23.00000000
v 23.00000000 20.54711151 24.00000000
v 23.00000000 20.63539886 25.00000000
v 23.00000000 20.85457993 26.00000000
v 23.00000000 20.92868614 27.00000000
v 23.00000000 20.89471436 28.00000000
v 22.86100578 21.00000000 29.00000000
v 23.00000000 21.00000000 28.86864281
v 22.78426170 22.00000000 1.00000000
v 23.00000000 22.00000000 0.48377383
v 23.00000000 22.00000000 1.13865197
v 22.64421272 22.00000000 16.00000000
v 23.00000000 21.21029282 16.00000000
v 23.00000000 22.00000000 15.77995300
v 23.00000000 22.00000000 16.29189301
v 23.00000000 22.00000000 21.60169983
v 23.00000000 21.02843094 29.00000000
v 23.00000000 21.19489098 30.00000000
v 23.00000000 22.00000000 30.94476318
v 22.48322105 23.00000000 1.00000000
v 23.00000000 22.50599098 1.00000000
v 23.00000000 22.31309128 16.00000000
v 22.73067474 23.00000000 21.00000000
v 23.00000000 22.84694481 21.00000000
v 23.00000000 23.00000000 20.48616791
v 22.69871330 23.00000000 22.00000000
v 22.67231941 23.00000000 23.00000000
v 22.67812538 23.00000000 24.00000000
v 22.66888809 23.00000000 25.00000000
v 22.76376534 23.00000000 26.00000000
v 23.00000000 23.00000000 26.67034721
v 23.00000000 22.93181229 27.00000000
v 23.00000000 22.92434311 28.00000000
v 23.00000000 22.87055779 29.00000000
v 23.00000000 22.96848679 30.00000000
v 23.00000000 23.09654427 21.00000000
v 23.00000000 23.11154747 22.00000000
v 23.00000000 23.12755966 23.00000000
v 23.00000000 23.14631081 24.00000000
v 23.00000000 23.18156052 25.00000000
v 23.00000000 23.14666939 26.00000000
v 23.31629944 8.00000000 5.00000000
v 23.38779068 8.00000000 6.00000000
v 23.42256546 8.00000000 7.00000000
v 23.43727875 8.00000000 8.00000000
v 23.42193604 8.00000000 9.00000000
v 23.33887100 8.00000000 10.00000000
v 23.24584961 8.00000000 11.00000000
v 23.14680481 8.00000000 12.00000000
v 23.17755318 8.00000000 17.00000000
v 23.51287842 8.00000000 18.00000000
v 23.36384392 9.00000000 1.00000000
v 23.25180054 9.00000000 17.00000000
v 23.51581383 9.00000000 18.00000000
v 23.13248825 9.00000000 19.00000000
v 23.30665970 10.00000000 17.00000000
v 23.51368523 10.00000000 18.00000000
v 23.36426353 11.00000000 17.00000000
v 23.51071358 11.00000000 18.00000000
v 23.40456200 12.00000000 17.00000000
v 23.51500702 12.00000000 18.00000000
v 23.44002533 13.00000000 17.00000000
v 23.51362228 13.00000000 18.00000000
v 23.47497749 14.00000000 17.00000000
v 23.51328468 14.00000000 18.00000000
v 23.50197983 15.00000000 17.00000000
v 23.51482582 15.00000000 18.00000000
v 23.51392937 16.00000000 17.00000000
v 23.51157570 16.00000000 18.00000000
v 23.51158142 17.00000000 17.00000000
v 23.51269341 17.00000000 18.00000000
v 23.51348686 18.00000000 17.00000000
v 23.51484680 18.00000000 18.00000000
v 23.51465988 19.00000000 17.00000000
v 23.50873947 19.00000000 18.00000000
v 23.13367271 20.00000000 1.00000000
v 23.51233673 20.00000000 17.00000000
v 23.41346169 20.00000000 18.00000000
v 23.21571350 21.00000000 1.00000000
v 23.44658089 21.00000000 22.00000000
v 23.50483131 21.00000000 23.00000000
v 23.46083450 21.00000000 24.00000000
v 23.40594864 21.00000000 25.00000000
v 23.21947289 21.00000000 26.00000000
v 23.11349678 21.00000000 27.00000000
v 23.15601921 21.00000000 28.00000000
v 23.20742989 22.00000000 1.00000000
v 23.11938477 22.00000000 16.00000000
v 23.37393761 22.00000000 22.00000000
v 23.46474648 22.00000000 23.00000000
v 23.51205826 22.00000000 24.00000000
v 23.51175880 22.00000000 25.00000000
v 23.51323891 22.00000000 26.00000000
v 23.51234818 22.00000000 27.00000000
v 23.51032257 22.00000000 28.00000000
v 23.51442909 22.00000000 29.00000000
v 23.50941467 22.00000000 30.00000000
v 23.08061028 23.00000000 21.00000000
v 23.08896255 23.00000000 22.00000000
v 23.10745049 23.00000000 23.00000000
v 23.12235069 23.00000000 24.00000000
v 23.14680862 23.00000000 25.00000000
v 23.10779572 23.00000000 26.00000000
f 3 2 1
f 5 4 1
f 5 1 2
f 7 6 4
f 7 4 5
f 9 8 6
f 9 6 7
f 11 10 8
f 11 8 9
f 13 12 10
f 13 10 11
f 15 14 12
f 15 12 13
f 17 16 14
f 17 14 15
f 18 16 17
f 21 20 19
f 23 22 19
f 23 19 20
f 24 22 23
f 27 26 25
f 28 25 26
f 29 3 1
f 29 1 4
f 29 4 30
f 30 4 6
f 30 6 31
f 31 6 8
f 31 8 32
f 32 8 10
f 32 10 33
f 33 10 12
f 33 12 34
f 34 12 14
f 34 14 35
f 35 14 16
f 35 16 36
f 36 16 18
f 21 19 37
f 21 37 38
f 39 19 22
f 37 19 39
f 22 24 40
f 41 22 40
f 39 22 41
f 42 41 40
f 43 27 25
f 43 25 28
f 38 37 44
f 38 44 45
f 46 37 39
f 44 37 46
f 41 48 47
f 46 41 47
f 39 41 46
f 48 41 42
f 45 44 49
f 45 49 50
f 51 44 46
f 49 44 51
f 46 47 52
f 46 52 51
f 50 49 53
f 50 53 54
f 55 49 51
f 53 49 55
f 51 52 56
f 51 56 55
f 54 53 57
f 54 57 58
f 59 53 55
f 57 53 59
f 55 56 60
f 55 60 59
f 58 57 61
f 58 61 62
f 63 57 59
f 61 57 63
f 59 60 64
f 59 64 63
f 62 61 65
f 62 65 66
f 67 61 63
f 65 61 67
f 63 64 68
f 63 68 67
f 66 65 69
f 66 69 70
f 71 65 67
f 69 65 71
f 67 68 72
f 67 72 71
f 70 69 73
f 70 73 74
f 75 69 71
f 73 69 75
f 71 72 76
f 71 76 75
f 74 73 77
f 74 77 78
f 79 73 75
f 77 73 79
f 75 76 80
f 75 80 79
f 78 77 81
f 78 81 82
f 83 77 79
f 81 77 83
f 79 80 84
f 79 84 83
f 87 86 85
f 88 85 86
f 82 81 89
f 82 89 90
f 91 81 83
f 89 81 91
f 83 84 92
f 83 92 91
f 87 85 93
f 87 93 94
f 85 88 95
f 85 95 93
f 96 90 89
f 96 89 91
f 96 91 97
f 97 91 92
f 100 99 98
f 102 101 98
f 102 98 99
f 104 103 101
f 104 101 102
f 106 105 103
f 106 103 104
f 108 107 105
f 108 105 106
f 110 109 107
f 110 107 108
f 112 111 109
f 112 109 110
f 113 111 112
f 94 93 114
f 94 114 115
f 93 95 116
f 93 116 114
f 119 118 117
f 120 117 118
f 100 98 121
f 100 121 122
f 123 98 101
f 121 98 123
f 124 101 103
f 123 101 124
f 125 103 105
f 124 103 125
f 126 105 107
f 125 105 126
f 127 107 109
f 126 107 127
f 128 109 111
f 127 109 128
f 111 113 129
f 130 111 129
f 128 111 130
f 132 131 130
f 132 130 129
f 133 131 132
f 134 115 114
f 134 114 116
f 135 119 117
f 135 117 120
f 138 137 136
f 136 137 122
f 121 136 122
f 139 136 121
f 140 121 123
f 139 121 140
f 141 123 124
f 140 123 141
f 142 124 125
f 141 124 142
f 143 125 126
f 142 125 143
f 127 145 144
f 143 127 144
f 126 127 143
f 145 127 128
f 145 128 146
f 146 128 130
f 146 130 147
f 147 130 131
f 147 131 148
f 148 131 133
f 149 138 136
f 149 136 139
f 149 139 150
f 150 139 140
f 150 140 151
f 151 140 141
f 151 141 152
f 152 141 142
f 152 142 153
f 153 142 143
f 153 143 154
f 154 143 144
f 3 155 2
f 156 5 2
f 156 2 155
f 157 7 5
f 157 5 156
f 158 9 7
f 158 7 157
f 159 11 9
f 159 9 158
f 160 13 11
f 160 11 159
f 161 15 13
f 161 13 160
f 162 17 15
f 162 15 161
f 162 18 17
f 164 163 20
f 164 20 21
f 20 165 23
f 163 165 20
f 167 166 24
f 23 167 24
f 165 167 23
f 168 166 167
f 27 169 26
f 169 28 26
f 29 155 3
f 155 29 30
f 155 30 156
f 156 30 31
f 156 31 157
f 157 31 32
f 157 32 158
f 158 32 33
f 158 33 159
f 159 33 34
f 159 34 160
f 160 34 35
f 160 35 161
f 161 35 36
f 161 36 162
f 162 36 18
f 38 164 21
f 38 170 164
f 166 40 24
f 42 40 166
f 168 42 166
f 171 42 168
f 169 27 43
f 174 173 172
f 43 28 169
f 173 174 175
f 45 170 38
f 45 176 170
f 177 47 48
f 178 177 48
f 42 178 48
f 171 178 42
f 179 172 173
f 179 173 175
f 50 176 45
f 50 180 176
f 181 52 177
f 177 52 47
f 177 178 182
f 177 182 181
f 54 180 50
f 54 183 180
f 185 184 181
f 184 52 181
f 184 56 52
f 185 181 182
f 58 183 54
f 58 186 183
f 184 60 56
f 187 60 184
f 62 186 58
f 62 188 186
f 187 64 60
f 189 64 187
f 192 191 190
f 193 190 191
f 66 188 62
f 66 194 188
f 189 68 64
f 195 68 189
f 192 190 196
f 192 196 197
f 190 193 198
f 190 198 196
f 70 194 66
f 70 199 194
f 195 72 68
f 200 72 195
f 201 197 196
f 201 196 198
f 74 199 70
f 74 202 199
f 200 76 72
f 203 76 200
f 78 202 74
f 78 204 202
f 203 80 76
f 205 80 203
f 82 204 78
f 82 206 204
f 205 84 80
f 207 84 205
f 87 208 86
f 208 88 86
f 90 206 82
f 90 209 206
f 207 92 84
f 210 92 207
f 94 211 208
f 94 208 87
f 211 95 88
f 211 88 208
f 212 209 90
f 212 90 96
f 213 96 97
f 213 212 96
f 97 92 210
f 97 210 213
f 215 214 99
f 215 99 100
f 99 216 102
f 214 216 99
f 102 217 104
f 216 217 102
f 104 218 106
f 217 218 104
f 106 219 108
f 218 219 106
f 108 220 110
f 219 220 108
f 110 221 112
f 220 221 110
f 223 222 113
f 112 223 113
f 221 223 112
f 224 222 223
f 115 225 211
f 115 211 94
f 225 116 95
f 225 95 211
f 119 226 118
f 226 120 118
f 122 215 100
f 122 227 215
f 222 129 113
f 224 228 222
f 228 129 222
f 228 132 129
f 133 132 228
f 133 228 229
f 225 115 134
f 232 231 230
f 134 116 225
f 231 232 233
f 135 226 119
f 226 135 120
f 138 234 137
f 227 122 235
f 122 234 235
f 234 236 235
f 122 137 234
f 238 237 236
f 236 237 235
f 240 239 238
f 238 239 237
f 242 241 240
f 240 241 239
f 244 243 242
f 242 243 241
f 144 145 244
f 145 243 244
f 145 245 243
f 246 145 146
f 246 245 145
f 247 146 147
f 247 246 146
f 248 147 148
f 248 247 147
f 148 133 229
f 148 229 248
f 249 230 231
f 249 231 233
f 149 234 138
f 234 149 150
f 234 150 236
f 236 150 151
f 236 151 238
f 238 151 152
f 238 152 240
f 240 152 153
f 240 153 242
f 242 153 154
f 242 154 244
f 244 154 144
f 251 250 163
f 251 163 164
f 163 252 165
f 250 252 163
f 165 253 167
f 252 253 165
f 168 167 253
f 168 253 254
f 170 251 164
f 170 255 251
f 254 171 168
f 256 171 254
f 172 257 174
f 257 175 174
f 176 255 170
f 176 258 255
f 256 178 171
f 259 178 256
f 179 257 172
f 257 179 175
f 180 258 176
f 180 260 258
f 263 262 261
f 259 263 261
f 182 259 261
f 178 259 182
f 183 260 180
f 183 264 260
f 261 262 185
f 262 184 185
f 262 265 184
f 261 185 182
f 186 264 183
f 186 266 264
f 265 187 184
f 267 187 265
f 188 266 186
f 188 268 266
f 267 189 187
f 269 189 267
f 192 270 191
f 270 193 191
f 194 268 188
f 194 271 268
f 269 195 189
f 272 195 269
f 197 273 270
f 197 270 192
f 273 198 193
f 273 193 270
f 199 271 194
f 199 274 271
f 272 200 195
f 275 200 272
f 201 273 197
f 273 201 198
f 202 274 199
f 202 276 274
f 275 203 200
f 277 203 275
f 204 276 202
f 204 278 276
f 277 205 203
f 279 205 277
f 206 278 204
f 206 280 278
f 279 207 205
f 281 207 279
f 209 280 206
f 209 282 280
f 281 210 207
f 283 210 281
f 284 282 209
f 284 209 212
f 285 212 213
f 285 284 212
f 213 210 283
f 213 283 285
f 287 286 214
f 287 214 215
f 214 288 216
f 286 288 214
f 216 289 217
f 288 289 216
f 217 290 218
f 289 290 217
f 218 291 219
f 290 291 218
f 219 292 220
f 291 292 219
f 220 293 221
f 292 293 220
f 221 294 223
f 293 294 221
f 224 223 294
f 224 294 295
f 227 287 215
f 227 296 287
f 295 297 224
f 224 297 228
f 229 228 297
f 229 297 298
f 300 299 232
f 300 232 230
f 233 232 299
f 233 299 301
f 302 296 227
f 302 227 235
f 303 235 237
f 303 302 235
f 304 237 239
f 304 303 237
f 305 239 241
f 305 304 239
f 306 241 243
f 306 305 241
f 307 243 245
f 307 306 243
f 308 245 246
f 308 307 245
f 309 246 247
f 309 308 246
f 310 247 248
f 310 309 247
f 248 229 298
f 248 298 310
f 311 300 230
f 311 230 249
f 249 233 301
f 249 301 311
f 313 312 250
f 313 250 251
f 250 314 252
f 312 314 250
f 252 315 253
f 314 315 252
f 254 253 315
f 254 315 316
f 255 313 251
f 255 317 313
f 316 256 254
f 318 256 316
f 258 317 255
f 258 319 317
f 318 259 256
f 320 259 318
f 260 319 258
f 260 321 319
f 323 322 263
f 263 322 262
f 263 259 320
f 263 320 323
f 264 321 260
f 264 324 321
f 322 265 262
f 325 265 322
f 266 324 264
f 266 326 324
f 325 267 265
f 327 267 325
f 268 326 266
f 268 328 326
f 327 269 267
f 329 269 327
f 271 328 268
f 271 330 328
f 329 272 269
f 331 272 329
f 274 330 271
f 274 332 330
f 331 275 272
f 333 275 331
f 276 332 274
f 276 334 332
f 333 277 275
f 335 277 333
f 278 334 276
f 278 336 334
f 335 279 277
f 337 279 335
f 280 336 278
f 280 338 336
f 337 281 279
f 339 281 337
f 282 338 280
f 282 340 338
f 339 283 281
f 341 283 339
f 342 340 282
f 342 282 284
f 343 284 285
f 343 342 284
f 285 283 341
f 285 341 343
f 345 344 286
f 345 286 287
f 286 346 288
f 344 346 286
f 288 347 289
f 346 347 288
f 289 348 290
f 347 348 289
f 290 349 291
f 348 349 290
f 291 350 292
f 349 350 291
f 292 351 293
f 350 351 292
f 293 352 294
f 351 352 293
f 295 294 352
f 295 352 353
f 296 345 287
f 296 354 345
f 353 355 295
f 295 355 297
f 298 297 355
f 298 355 356
f 358 357 299
f 358 299 300
f 301 299 357
f 301 357 359
f 360 354 296
f 360 296 302
f 361 302 303
f 361 360 302
f 362 303 304
f 362 361 303
f 363 304 305
f 363 362 304
f 364 305 306
f 364 363 305
f 365 306 307
f 365 364 306
f 366 307 308
f 366 365 307
f 367 308 309
f 367 366 308
f 368 309 310
f 368 367 309
f 310 298 356
f 310 356 368
f 369 358 300
f 369 300 311
f 311 301 359
f 311 359 369
f 371 370 312
f 371 312 313
f 312 372 314
f 370 372 312
f 372 374 373
f 315 372 373
f 314 372 315
f 373 316 315
f 317 371 313
f 317 375 371
f 374 376 373
f 316 373 376
f 377 316 376
f 318 316 377
f 319 375 317
f 319 378 375
f 377 320 318
f 379 320 377
f 321 378 319
f 321 380 378
f 382 381 323
f 323 381 322
f 323 320 379
f 323 379 382
f 324 380 321
f 324 383 380
f 381 325 322
f 384 325 381
f 326 383 324
f 326 385 383
f 384 327 325
f 386 327 384
f 328 385 326
f 328 387 385
f 386 329 327
f 388 329 386
f 330 387 328
f 330 389 387
f 388 331 329
f 390 331 388
f 332 389 330
f 332 391 389
f 390 333 331
f 392 333 390
f 334 391 332
f 334 393 391
f 392 335 333
f 394 335 392
f 336 393 334
f 336 395 393
f 394 337 335
f 396 337 394
f 338 395 336
f 338 397 395
f 396 339 337
f 398 339 396
f 340 397 338
f 340 399 397
f 398 341 339
f 400 341 398
f 401 399 340
f 401 340 342
f 402 342 343
f 402 401 342
f 343 341 400
f 343 400 402
f 404 403 344
f 404 344 345
f 344 405 346
f 403 405 344
f 346 406 347
f 405 406 346
f 347 407 348
f 406 407 347
f 348 408 349
f 407 408 348
f 349 409 350
f 408 409 349
f 350 410 351
f 409 410 350
f 410 412 411
f 352 410 411
f 351 410 352
f 411 353 352
f 354 404 345
f 354 413 404
f 412 414 411
f 411 414 353
f 414 355 353
f 414 415 355
f 356 355 415
f 356 415 416
f 418 417 357
f 418 357 358
f 359 357 417
f 359 417 419
f 420 413 354
f 420 354 360
f 421 360 361
f 421 420 360
f 422 361 362
f 422 421 361
f 423 362 363
f 423 422 362
f 424 363 364
f 424 423 363
f 425 364 365
f 425 424 364
f 426 365 366
f 426 425 365
f 427 366 367
f 427 426 366
f 428 367 368
f 428 427 367
f 368 356 416
f 368 416 428
f 429 418 358
f 429 358 369
f 369 359 419
f 369 419 429
f 431 430 370
f 431 370 371
f 370 432 372
f 430 432 370
f 434 433 374
f 372 434 374
f 432 434 372
f 435 433 434
f 375 431 371
f 375 436 431
f 433 376 374
f 377 376 433
f 435 377 433
f 437 377 435
f 378 436 375
f 378 438 436
f 437 379 377
f 439 379 437
f 380 438 378
f 380 440 438
f 441 381 382
f 442 441 382
f 379 442 382
f 439 442 379
f 383 440 380
f 383 443 440
f 445 444 441
f 444 381 441
f 444 384 381
f 445 441 442
f 385 443 383
f 385 446 443
f 444 386 384
f 447 386 444
f 387 446 385
f 387 448 446
f 447 388 386
f 449 388 447
f 389 448 387
f 389 450 448
f 449 390 388
f 451 390 449
f 391 450 389
f 391 452 450
f 451 392 390
f 453 392 451
f 393 452 391
f 393 454 452
f 453 394 392
f 455 394 453
f 395 454 393
f 395 456 454
f 455 396 394
f 457 396 455
f 397 456 395
f 397 458 456
f 457 398 396
f 459 398 457
f 399 458 397
f 399 460 458
f 459 400 398
f 461 400 459
f 462 460 399
f 462 399 401
f 463 401 402
f 463 462 401
f 402 400 461
f 402 461 463
f 465 464 403
f 465 403 404
f 403 466 405
f 464 466 403
f 405 467 406
f 466 467 405
f 406 468 407
f 467 468 406
f 407 469 408
f 468 469 407
f 408 470 409
f 469 470 408
f 409 471 410
f 470 471 409
f 473 472 412
f 410 473 412
f 471 473 410
f 474 472 473
f 413 465 404
f 413 475 465
f 472 414 412
f 474 476 472
f 476 414 472
f 476 415 414
f 416 415 476
f 416 476 477
f 479 478 417
f 479 417 418
f 419 417 478
f 419 478 480
f 481 475 413
f 481 413 420
f 482 420 421
f 482 481 420
f 483 421 422
f 483 482 421
f 484 422 423
f 484 483 422
f 485 423 424
f 485 484 423
f 486 424 425
f 486 485 424
f 487 425 426
f 487 486 425
f 488 426 427
f 488 487 426
f 489 427 428
f 489 488 427
f 428 416 477
f 428 477 489
f 490 479 418
f 490 418 429
f 429 419 480
f 429 480 490
f 492 491 430
f 492 430 431
f 430 493 432
f 491 493 430
f 432 494 434
f 493 494 432
f 435 434 494
f 435 494 495
f 436 492 431
f 436 496 492
f 495 437 435
f 497 437 495
f 438 496 436
f 438 498 496
f 497 439 437
f 499 439 497
f 440 498 438
f 440 500 498
f 503 502 501
f 499 503 501
f 442 499 501
f 439 499 442
f 443 500 440
f 443 504 500
f 501 502 445
f 502 444 445
f 502 505 444
f 501 445 442
f 446 504 443
f 446 506 504
f 505 447 444
f 507 447 505
f 448 506 446
f 448 508 506
f 507 449 447
f 509 449 507
f 450 508 448
f 450 510 508
f 509 451 449
f 511 451 509
f 452 510 450
f 452 512 510
f 511 453 451
f 513 453 511
f 454 512 452
f 454 514 512
f 513 455 453
f 515 455 513
f 456 514 454
f 456 516 514
f 515 457 455
f 517 457 515
f 458 516 456
f 458 518 516
f 517 459 457
f 519 459 517
f 460 518 458
f 460 520 518
f 519 461 459
f 521 461 519
f 522 520 460
f 522 460 462
f 523 462 463
f 523 522 462
f 463 461 521
f 463 521 523
f 525 524 464
f 525 464 465
f 464 526 466
f 524 526 464
f 466 527 467
f 526 527 466
f 467 528 468
f 527 528 467
f 468 529 469
f 528 529 468
f 469 530 470
f 529 530 469
f 470 531 471
f 530 531 470
f 471 532 473
f 531 532 471
f 474 473 532
f 474 532 533
f 475 525 465
f 475 534 525
f 533 535 474
f 474 535 476
f 477 476 535
f 477 535 536
f 538 537 478
f 538 478 479
f 480 478 537
f 480 537 539
f 540 534 475
f 540 475 481
f 541 481 482
f 541 540 481
f 542 482 483
f 542 541 482
f 543 483 484
f 543 542 483
f 544 484 485
f 544 543 484
f 545 485 486
f 545 544 485
f 546 486 487
f 546 545 486
f 547 487 488
f 547 546 487
f 548 488 489
f 548 547 488
f 489 477 536
f 489 536 548
f 549 538 479
f 549 479 490
f 490 480 539
f 490 539 549
f 551 550 491
f 551 491 492
f 491 552 493
f 550 552 491
f 552 554 553
f 494 552 553
f 493 552 494
f 553 495 494
f 496 551 492
f 496 555 551
f 554 556 553
f 495 553 556
f 557 495 556
f 497 495 557
f 498 555 496
f 498 558 555
f 557 499 497
f 559 499 557
f 500 558 498
f 500 560 558
f 562 561 503
f 503 561 502
f 503 499 559
f 503 559 562
f 504 560 500
f 504 563 560
f 561 505 502
f 564 505 561
f 506 563 504
f 506 565 563
f 564 507 505
f 566 507 564
f 508 565 506
f 508 567 565
f 566 509 507
f 568 509 566
f 510 567 508
f 510 569 567
f 568 511 509
f 570 511 568
f 512 569 510
f 512 571 569
f 570 513 511
f 572 513 570
f 514 571 512
f 514 573 571
f 572 515 513
f 574 515 572
f 516 573 514
f 516 575 573
f 574 517 515
f 576 517 574
f 518 575 516
f 518 577 575
f 576 519 517
f 578 519 576
f 520 577 518
f 520 579 577
f 578 521 519
f 580 521 578
f 581 579 520
f 581 520 522
f 582 522 523
f 582 581 522
f 523 521 580
f 523 580 582
f 584 583 524
f 584 524 525
f 524 585 526
f 583 585 524
f 526 586 527
f 585 586 526
f 527 587 528
f 586 587 527
f 528 588 529
f 587 588 528
f 529 589 530
f 588 589 529
f 530 590 531
f 589 590 530
f 531 591 532
f 590 591 531
f 533 532 591
f 533 591 592
f 534 584 525
f 534 593 584
f 592 594 533
f 533 594 535
f 536 535 594
f 536 594 595
f 597 596 537
f 597 537 538
f 539 537 596
f 539 596 598
f 599 593 534
f 599 534 540
f 600 540 541
f 600 599 540
f 601 541 542
f 601 600 541
f 602 542 543
f 602 601 542
f 603 543 544
f 603 602 543
f 604 544 545
f 604 603 544
f 605 545 546
f 605 604 545
f 606 546 547
f 606 605 546
f 607 547 548
f 607 606 547
f 548 536 595
f 548 595 607
f 608 597 538
f 608 538 549
f 549 539 598
f 549 598 608
f 610 609 550
f 610 550 551
f 550 611 552
f 609 611 550
f 554 552 611
f 554 611 612
f 555 610 551
f 555 613 610
f 612 614 554
f 554 614 556
f 557 556 614
f 557 614 615
f 558 613 555
f 558 616 613
f 615 559 557
f 617 559 615
f 560 616 558
f 560 618 616
f 620 619 562
f 562 619 561
f 562 559 617
f 562 617 620
f 563 618 560
f 563 621 618
f 619 564 561
f 622 564 619
f 565 621 563
f 565 623 621
f 622 566 564
f 624 566 622
f 567 623 565
f 567 625 623
f 624 568 566
f 626 568 624
f 569 625 567
f 569 627 625
f 626 570 568
f 628 570 626
f 571 627 569
f 571 629 627
f 628 572 570
f 630 572 628
f 573 629 571
f 573 631 629
f 630 574 572
f 632 574 630
f 575 631 573
f 575 633 631
f 632 576 574
f 634 576 632
f 577 633 575
f 577 635 633
f 634 578 576
f 636 578 634
f 579 635 577
f 579 637 635
f 636 580 578
f 638 580 636
f 639 637 579
f 639 579 581
f 640 581 582
f 640 639 581
f 582 580 638
f 582 638 640
f 642 641 583
f 642 583 584
f 583 643 585
f 641 643 583
f 585 644 586
f 643 644 585
f 586 645 587
f 644 645 586
f 587 646 588
f 645 646 587
f 588 647 589
f 646 647 588
f 589 648 590
f 647 648 589
f 590 649 591
f 648 649 590
f 592 591 649
f 592 649 650
f 593 642 584
f 593 651 642
f 650 652 592
f 592 652 594
f 595 594 652
f 595 652 653
f 655 654 596
f 655 596 597
f 598 596 654
f 598 654 656
f 657 651 593
f 657 593 599
f 658 599 600
f 658 657 599
f 659 600 601
f 659 658 600
f 660 601 602
f 660 659 601
f 661 602 603
f 661 660 602
f 662 603 604
f 662 661 603
f 663 604 605
f 663 662 604
f 664 605 606
f 664 663 605
f 665 606 607
f 665 664 606
f 607 595 653
f 607 653 665
f 666 655 597
f 666 597 608
f 608 598 656
f 608 656 666
f 668 667 609
f 668 609 610
f 609 669 611
f 667 669 609
f 671 670 612
f 611 671 612
f 669 671 611
f 672 670 671
f 613 668 610
f 613 673 668
f 670 614 612
f 615 614 670
f 672 615 670
f 674 615 672
f 616 673 613
f 616 675 673
f 674 617 615
f 676 617 674
f 618 675 616
f 618 677 675
f 679 678 620
f 620 678 619
f 620 617 676
f 620 676 679
f 621 677 618
f 621 680 677
f 678 622 619
f 681 622 678
f 623 680 621
f 623 682 680
f 681 624 622
f 683 624 681
f 625 682 623
f 625 684 682
f 683 626 624
f 685 626 683
f 627 684 625
f 627 686 684
f 685 628 626
f 687 628 685
f 629 686 627
f 629 688 686
f 687 630 628
f 689 630 687
f 631 688 629
f 631 690 688
f 689 632 630
f 691 632 689
f 633 690 631
f 633 692 690
f 691 634 632
f 693 634 691
f 635 692 633
f 635 694 692
f 693 636 634
f 695 636 693
f 637 694 635
f 637 696 694
f 695 638 636
f 697 638 695
f 698 696 637
f 698 637 639
f 699 639 640
f 699 698 639
f 640 638 697
f 640 697 699
f 701 700 641
f 701 641 642
f 641 702 643
f 700 702 641
f 643 703 644
f 702 703 643
f 644 704 645
f 703 704 644
f 645 705 646
f 704 705 645
f 646 706 647
f 705 706 646
f 647 707 648
f 706 707 647
f 648 708 649
f 707 708 648
f 650 649 708
f 650 708 709
f 651 701 642
f 651 710 701
f 709 711 650
f 650 711 652
f 653 652 711
f 653 711 712
f 714 713 654
f 714 654 655
f 656 654 713
f 656 713 715
f 716 710 651
f 716 651 657
f 717 657 658
f 717 716 657
f 718 658 659
f 718 717 658
f 719 659 660
f 719 718 659
f 720 660 661
f 720 719 660
f 721 661 662
f 721 720 661
f 722 662 663
f 722 721 662
f 723 663 664
f 723 722 663
f 724 664 665
f 724 723 664
f 665 653 712
f 665 712 724
f 725 714 655
f 725 655 666
f 666 656 715
f 666 715 725
f 727 726 667
f 727 667 668
f 667 728 669
f 726 728 667
f 669 729 671
f 728 729 669
f 672 671 729
f 672 729 730
f 673 727 668
f 673 731 727
f 730 674 672
f 732 674 730
f 675 731 673
f 675 733 731
f 732 676 674
f 734 676 732
f 677 733 675
f 677 735 733
f 736 678 679
f 737 736 679
f 676 737 679
f 734 737 676
f 680 735 677
f 680 738 735
f 740 739 736
f 739 678 736
f 739 681 678
f 740 736 737
f 682 738 680
f 682 741 738
f 739 683 681
f 742 683 739
f 684 741 682
f 684 743 741
f 742 685 683
f 744 685 742
f 686 743 684
f 686 745 743
f 744 687 685
f 746 687 744
f 688 745 686
f 688 747 745
f 746 689 687
f 748 689 746
f 690 747 688
f 690 749 747
f 748 691 689
f 750 691 748
f 692 749 690
f 692 751 749
f 750 693 691
f 752 693 750
f 694 751 692
f 694 753 751
f 752 695 693
f 754 695 752
f 696 753 694
f 696 755 753
f 754 697 695
f 756 697 754
f 757 755 696
f 757 696 698
f 758 698 699
f 758 757 698
f 699 697 756
f 699 756 758
f 760 759 700
f 760 700 701
f 700 761 702
f 759 761 700
f 702 762 703
f 761 762 702
f 703 763 704
f 762 763 703
f 704 764 705
f 763 764 704
f 705 765 706
f 764 765 705
f 706 766 707
f 765 766 706
f 707 767 708
f 766 767 707
f 709 708 767
f 709 767 768
f 710 760 701
f 710 769 760
f 768 770 709
f 709 770 711
f 712 711 770
f 712 770 771
f 773 772 713
f 773 713 714
f 715 713 772
f 715 772 774
f 775 769 710
f 775 710 716
f 776 716 717
f 776 775 716
f 777 717 718
f 777 776 717
f 778 718 719
f 778 777 718
f 779 719 720
f 779 778 719
f 780 720 721
f 780 779 720
f 781 721 722
f 781 780 721
f 782 722 723
f 782 781 722
f 783 723 724
f 783 782 723
f 724 712 771
f 724 771 783
f 784 773 714
f 784 714 725
f 725 715 774
f 725 774 784
f 786 785 726
f 786 726 727
f 726 787 728
f 785 787 726
f 787 789 788
f 729 787 788
f 728 787 729
f 788 730 729
f 731 786 727
f 731 790 786
f 789 791 788
f 730 788 791
f 792 730 791
f 732 730 792
f 733 790 731
f 733 793 790
f 792 734 732
f 794 734 792
f 735 793 733
f 735 795 793
f 798 797 796
f 794 798 796
f 737 794 796
f 734 794 737
f 738 795 735
f 738 799 795
f 796 797 740
f 797 739 740
f 797 800 739
f 796 740 737
f 741 799 738
f 741 801 799
f 800 742 739
f 802 742 800
f 743 801 741
f 743 803 801
f 802 744 742
f 804 744 802
f 745 803 743
f 745 805 803
f 804 746 744
f 806 746 804
f 747 805 745
f 747 807 805
f 806 748 746
f 808 748 806
f 749 807 747
f 749 809 807
f 808 750 748
f 810 750 808
f 751 809 749
f 751 811 809
f 810 752 750
f 812 752 810
f 753 811 751
f 753 813 811
f 812 754 752
f 814 754 812
f 755 813 753
f 755 815 813
f 814 756 754
f 816 756 814
f 817 815 755
f 817 755 757
f 818 757 758
f 818 817 757
f 758 756 816
f 758 816 818
f 820 819 759
f 820 759 760
f 759 821 761
f 819 821 759
f 761 822 762
f 821 822 761
f 762 823 763
f 822 823 762
f 823 825 824
f 764 823 824
f 763 823 764
f 764 824 826
f 827 764 826
f 765 764 827
f 765 828 766
f 827 828 765
f 766 829 767
f 828 829 766
f 768 767 829
f 768 829 830
f 769 820 760
f 769 831 820
f 825 832 824
f 824 832 826
f 830 833 768
f 768 833 770
f 771 770 833
f 771 833 834
f 836 835 772
f 836 772 773
f 774 772 835
f 774 835 837
f 838 831 769
f 838 769 775
f 839 775 776
f 839 838 775
f 840 776 777
f 840 839 776
f 841 777 778
f 841 840 777
f 842 778 779
f 842 841 778
f 843 779 780
f 843 842 779
f 844 780 781
f 844 843 780
f 845 781 782
f 845 844 781
f 846 782 783
f 846 845 782
f 783 771 834
f 783 834 846
f 847 836 773
f 847 773 784
f 784 774 837
f 784 837 847
f 849 848 785
f 849 785 786
f 785 850 787
f 848 850 785
f 852 851 789
f 787 852 789
f 850 852 787
f 853 851 852
f 790 849 786
f 790 854 849
f 851 791 789
f 792 791 851
f 853 792 851
f 855 792 853
f 793 854 790
f 793 856 854
f 855 794 792
f 857 794 855
f 795 856 793
f 795 858 856
f 860 859 798
f 798 859 797
f 798 794 857
f 798 857 860
f 799 858 795
f 799 861 858
f 859 800 797
f 862 800 859
f 801 861 799
f 801 863 861
f 862 802 800
f 864 802 862
f 803 863 801
f 803 865 863
f 864 804 802
f 866 804 864
f 805 865 803
f 805 867 865
f 866 806 804
f 868 806 866
f 807 867 805
f 807 869 867
f 868 808 806
f 870 808 868
f 809 869 807
f 809 871 869
f 870 810 808
f 872 810 870
f 811 871 809
f 811 873 871
f 872 812 810
f 874 812 872
f 813 873 811
f 813 875 873
f 874 814 812
f 876 814 874
f 815 875 813
f 815 877 875
f 876 816 814
f 878 816 876
f 879 877 815
f 879 815 817
f 880 817 818
f 880 879 817
f 818 816 878
f 818 878 880
f 882 881 819
f 882 819 820
f 819 883 821
f 881 883 819
f 821 884 822
f 883 884 821
f 822 885 823
f 884 885 822
f 887 886 825
f 823 887 825
f 885 887 823
f 827 826 886
f 887 827 886
f 888 827 887
f 827 889 828
f 888 889 827
f 828 890 829
f 889 890 828
f 830 829 890
f 830 890 891
f 831 882 820
f 831 892 882
f 886 832 825
f 832 886 826
f 891 893 830
f 830 893 833
f 834 833 893
f 834 893 894
f 896 895 835
f 896 835 836
f 837 835 895
f 837 895 897
f 898 892 831
f 898 831 838
f 899 838 839
f 899 898 838
f 900 839 840
f 900 899 839
f 901 840 841
f 901 900 840
f 902 841 842
f 902 901 841
f 903 842 843
f 903 902 842
f 904 843 844
f 904 903 843
f 905 844 845
f 905 904 844
f 906 845 846
f 906 905 845
f 846 834 894
f 846 894 906
f 907 896 836
f 907 836 847
f 847 837 897
f 847 897 907
f 909 908 848
f 909 848 849
f 848 910 850
f 908 910 848
f 850 911 852
f 910 911 850
f 853 852 911
f 853 911 912
f 854 909 849
f 854 913 909
f 912 855 853
f 914 855 912
f 856 913 854
f 856 915 913
f 914 857 855
f 916 857 914
f 858 915 856
f 858 917 915
f 919 918 860
f 860 918 859
f 860 857 916
f 860 916 919
f 861 917 858
f 861 920 917
f 918 862 859
f 921 862 918
f 863 920 861
f 863 922 920
f 921 864 862
f 923 864 921
f 865 922 863
f 865 924 922
f 923 866 864
f 925 866 923
f 867 924 865
f 867 926 924
f 925 868 866
f 927 868 925
f 869 926 867
f 869 928 926
f 927 870 868
f 929 870 927
f 871 928 869
f 871 930 928
f 929 872 870
f 931 872 929
f 873 930 871
f 873 932 930
f 931 874 872
f 933 874 931
f 875 932 873
f 875 934 932
f 933 876 874
f 935 876 933
f 877 934 875
f 877 936 934
f 935 878 876
f 937 878 935
f 938 936 877
f 938 877 879
f 939 879 880
f 939 938 879
f 880 878 937
f 880 937 939
f 941 940 881
f 941 881 882
f 881 942 883
f 940 942 881
f 883 943 884
f 942 943 883
f 884 944 885
f 943 944 884
f 885 945 887
f 944 945 885
f 887 946 888
f 945 946 887
f 888 947 889
f 946 947 888
f 889 948 890
f 947 948 889
f 891 890 948
f 891 948 949
f 892 941 882
f 892 950 941
f 949 951 891
f 891 951 893
f 894 893 951
f 894 951 952
f 954 953 895
f 954 895 896
f 897 895 953
f 897 953 955
f 956 950 892
f 956 892 898
f 957 898 899
f 957 956 898
f 958 899 900
f 958 957 899
f 959 900 901
f 959 958 900
f 960 901 902
f 960 959 901
f 961 902 903
f 961 960 902
f 962 903 904
f 962 961 903
f 963 904 905
f 963 962 904
f 964 905 906
f 964 963 905
f 906 894 952
f 906 952 964
f 965 954 896
f 965 896 907
f 907 897 955
f 907 955 965
f 967 966 908
f 967 908 909
f 908 968 910
f 966 968 908
f 910 969 911
f 968 969 910
f 912 911 969
f 912 969 970
f 913 967 909
f 913 971 967
f 970 914 912
f 972 914 970
f 975 974 973
f 976 973 974
f 915 971 913
f 915 977 971
f 972 916 914
f 978 916 972
f 979 975 973
f 979 973 976
f 917 977 915
f 917 980 977
f 982 981 919
f 919 981 918
f 919 916 978
f 919 978 982
f 920 980 917
f 920 983 980
f 981 921 918
f 984 921 981
f 922 983 920
f 922 985 983
f 984 923 921
f 986 923 984
f 924 985 922
f 924 987 985
f 986 925 923
f 988 925 986
f 991 990 989
f 992 989 990
f 926 987 924
f 926 993 987
f 988 927 925
f 994 927 988
f 991 989 995
f 991 995 996
f 989 992 997
f 989 997 995
f 928 993 926
f 928 998 993
f 994 929 927
f 999 929 994
f 1000 996 995
f 1000 995 997
f 930 998 928
f 930 1001 998
f 999 931 929
f 1002 931 999
f 932 1001 930
f 932 1003 1001
f 1002 933 931
f 1004 933 1002
f 934 1003 932
f 934 1005 1003
f 1004 935 933
f 1006 935 1004
f 936 1005 934
f 936 1007 1005
f 1006 937 935
f 1008 937 1006
f 1009 1007 936
f 1009 936 938
f 1010 938 939
f 1010 1009 938
f 939 937 1008
f 939 1008 1010
f 1012 1011 940
f 1012 940 941
f 940 1013 942
f 1011 1013 940
f 942 1014 943
f 1013 1014 942
f 943 1015 944
f 1014 1015 943
f 944 1016 945
f 1015 1016 944
f 945 1017 946
f 1016 1017 945
f 946 1018 947
f 1017 1018 946
f 947 1019 948
f 1018 1019 947
f 949 948 1019
f 949 1019 1020
f 950 1012 941
f 950 1021 1012
f 1020 1022 949
f 949 1022 951
f 952 951 1022
f 952 1022 1023
f 1025 1024 953
f 1025 953 954
f 955 953 1024
f 955 1024 1026
f 1027 1021 950
f 1027 950 956
f 1028 956 957
f 1028 1027 956
f 1029 957 958
f 1029 1028 957
f 1030 958 959
f 1030 1029 958
f 1031 959 960
f 1031 1030 959
f 1032 960 961
f 1032 1031 960
f 1033 961 962
f 1033 1032 961
f 1034 962 963
f 1034 1033 962
f 1035 963 964
f 1035 1034 963
f 964 952 1023
f 964 1023 1035
f 1036 1025 954
f 1036 954 965
f 965 955 1026
f 965 1026 1036
f 1039 1038 1037
f 1041 1040 1037
f 1041 1037 1038
f 1043 1042 1040
f 1043 1040 1041
f 1045 1044 1042
f 1045 1042 1043
f 1047 1046 1044
f 1047 1044 1045
f 1049 1048 1046
f 1049 1046 1047
f 1051 1050 1048
f 1051 1048 1049
f 1053 1052 1050
f 1053 1050 1051
f 1054 1052 1053
f 1056 1055 966
f 1056 966 967
f 966 1057 968
f 1055 1057 966
f 1057 1059 1058
f 969 1057 1058
f 968 1057 969
f 1058 970 969
f 1062 1061 1060
f 1063 1060 1061
f 1064 1039 1037
f 1064 1037 1040
f 1064 1040 1065
f 1065 1040 1042
f 1065 1042 1066
f 1066 1042 1044
f 1066 1044 1067
f 1067 1044 1046
f 1067 1046 1068
f 1068 1046 1048
f 1068 1048 1069
f 1069 1048 1050
f 1069 1050 1070
f 1070 1050 1052
f 1070 1052 1071
f 1071 1052 1054
f 971 1056 967
f 971 1072 1056
f 1059 1073 1058
f 970 1058 1073
f 1074 970 1073
f 972 970 1074
f 974 975 1075
f 1060 1076 1062
f 1060 1063 1076
f 974 1075 976
f 977 1072 971
f 977 1077 1072
f 1080 1079 1078
f 1074 1080 1078
f 978 1074 1078
f 972 1074 978
f 979 1075 975
f 1075 979 976
f 980 1077 977
f 980 1081 1077
f 1078 1079 982
f 1079 981 982
f 1079 1082 981
f 1078 982 978
f 983 1081 980
f 983 1083 1081
f 1082 984 981
f 1084 984 1082
f 985 1083 983
f 985 1085 1083
f 1084 986 984
f 1086 986 1084
f 987 1085 985
f 987 1087 1085
f 1086 988 986
f 1088 988 1086
f 991 1089 990
f 1089 992 990
f 993 1087 987
f 993 1090 1087
f 1088 994 988
f 1091 994 1088
f 996 1092 1089
f 996 1089 991
f 1092 997 992
f 1092 992 1089
f 998 1090 993
f 998 1093 1090
f 1091 999 994
f 1094 999 1091
f 1000 1092 996
f 1092 1000 997
f 1001 1093 998
f 1001 1095 1093
f 1094 1002 999
f 1096 1002 1094
f 1003 1095 1001
f 1003 1097 1095
f 1096 1004 1002
f 1098 1004 1096
f 1005 1097 1003
f 1005 1099 1097
f 1098 1006 1004
f 1100 1006 1098
f 1103 1102 1101
f 1104 1101 1102
f 1007 1099 1005
f 1007 1105 1099
f 1100 1008 1006
f 1106 1008 1100
f 1103 1101 1107
f 1103 1107 1108
f 1101 1104 1109
f 1101 1109 1107
f 1110 1105 1007
f 1110 1007 1009
f 1111 1009 1010
f 1111 1110 1009
f 1010 1008 1106
f 1010 1106 1111
f 1113 1112 1011
f 1113 1011 1012
f 1011 1114 1013
f 1112 1114 1011
f 1013 1115 1014
f 1114 1115 1013
f 1014 1116 1015
f 1115 1116 1014
f 1015 1117 1016
f 1116 1117 1015
f 1016 1118 1017
f 1117 1118 1016
f 1017 1119 1018
f 1118 1119 1017
f 1119 1121 1120
f 1019 1119 1120
f 1018 1119 1019
f 1120 1020 1019
f 1108 1107 1122
f 1108 1122 1123
f 1107 1109 1124
f 1107 1124 1122
f 1127 1126 1125
f 1128 1125 1126
f 1021 1113 1012
f 1021 1129 1113
f 1121 1130 1120
f 1120 1130 1020
f 1130 1022 1020
f 1130 1131 1022
f 1023 1022 1131
f 1023 1131 1132
f 1024 1025 1133
f 1122 1134 1123
f 1122 1124 1134
f 1024 1133 1026
f 1135 1127 1125
f 1135 1125 1128
f 1138 1137 1136
f 1139 1136 1027
f 1136 1129 1027
f 1129 1021 1027
f 1129 1136 1137
f 1028 1140 1027
f 1027 1140 1139
f 1029 1141 1028
f 1028 1141 1140
f 1030 1142 1029
f 1029 1142 1141
f 1031 1143 1030
f 1030 1143 1142
f 1143 1031 1144
f 1031 1145 1144
f 1031 1032 1145
f 1146 1032 1033
f 1146 1145 1032
f 1147 1033 1034
f 1147 1146 1033
f 1148 1034 1035
f 1148 1147 1034
f 1035 1023 1132
f 1035 1132 1148
f 1036 1133 1025
f 1133 1036 1026
f 1149 1138 1136
f 1149 1136 1139
f 1149 1139 1150
f 1150 1139 1140
f 1150 1140 1151
f 1151 1140 1141
f 1151 1141 1152
f 1152 1141 1142
f 1152 1142 1153
f 1153 1142 1143
f 1153 1143 1154
f 1154 1143 1144
f 1039 1155 1038
f 1156 1041 1038
f 1156 1038 1155
f 1157 1043 1041
f 1157 1041 1156
f 1158 1045 1043
f 1158 1043 1157
f 1159 1047 1045
f 1159 1045 1158
f 1160 1049 1047
f 1160 1047 1159
f 1161 1051 1049
f 1161 1049 1160
f 1162 1053 1051
f 1162 1051 1161
f 1162 1054 1053
f 1056 1163 1055
f 1164 1057 1055
f 1164 1055 1163
f 1164 1059 1057
f 1062 1165 1061
f 1165 1063 1061
f 1064 1155 1039
f 1155 1064 1065
f 1155 1065 1156
f 1156 1065 1066
f 1156 1066 1157
f 1157 1066 1067
f 1157 1067 1158
f 1158 1067 1068
f 1158 1068 1159
f 1159 1068 1069
f 1159 1069 1160
f 1160 1069 1070
f 1160 1070 1161
f 1161 1070 1071
f 1161 1071 1162
f 1162 1071 1054
f 1072 1166 1163
f 1072 1163 1056
f 1163 1167 1164
f 1163 1166 1167
f 1168 1073 1059
f 1164 1168 1059
f 1167 1168 1164
f 1168 1074 1073
f 1076 1165 1062
f 1165 1076 1063
f 1077 1169 1166
f 1077 1166 1072
f 1166 1170 1167
f 1166 1169 1170
f 1170 1079 1080
f 1168 1170 1080
f 1167 1170 1168
f 1168 1080 1074
f 1081 1171 1169
f 1081 1169 1077
f 1169 1172 1170
f 1169 1171 1172
f 1172 1082 1079
f 1172 1079 1170
f 1083 1173 1171
f 1083 1171 1081
f 1171 1174 1172
f 1171 1173 1174
f 1174 1084 1082
f 1174 1082 1172
f 1085 1175 1173
f 1085 1173 1083
f 1173 1176 1174
f 1173 1175 1176
f 1176 1086 1084
f 1176 1084 1174
f 1087 1177 1175
f 1087 1175 1085
f 1175 1178 1176
f 1175 1177 1178
f 1178 1088 1086
f 1178 1086 1176
f 1090 1179 1177
f 1090 1177 1087
f 1177 1180 1178
f 1177 1179 1180
f 1180 1091 1088
f 1180 1088 1178
f 1093 1181 1179
f 1093 1179 1090
f 1179 1182 1180
f 1179 1181 1182
f 1182 1094 1091
f 1182 1091 1180
f 1095 1183 1181
f 1095 1181 1093
f 1181 1184 1182
f 1181 1183 1184
f 1184 1096 1094
f 1184 1094 1182
f 1097 1185 1183
f 1097 1183 1095
f 1183 1186 1184
f 1183 1185 1186
f 1186 1098 1096
f 1186 1096 1184
f 1099 1187 1185
f 1099 1185 1097
f 1185 1188 1186
f 1185 1187 1188
f 1188 1100 1098
f 1188 1098 1186
f 1103 1189 1102
f 1189 1104 1102
f 1105 1190 1187
f 1105 1187 1099
f 1187 1191 1188
f 1187 1190 1191
f 1191 1106 1100
f 1191 1100 1188
f 1108 1192 1189
f 1108 1189 1103
f 1192 1109 1104
f 1192 1104 1189
f 1110 1190 1105
f 1190 1110 1111
f 1190 1111 1191
f 1191 1111 1106
f 1113 1193 1112
f 1194 1114 1112
f 1194 1112 1193
f 1195 1115 1114
f 1195 1114 1194
f 1196 1116 1115
f 1196 1115 1195
f 1197 1117 1116
f 1197 1116 1196
f 1198 1118 1117
f 1198 1117 1197
f 1199 1119 1118
f 1199 1118 1198
f 1199 1121 1119
f 1123 1200 1192
f 1123 1192 1108
f 1200 1124 1109
f 1200 1109 1192
f 1127 1201 1126
f 1201 1128 1126
f 1129 1202 1193
f 1129 1193 1113
f 1193 1203 1194
f 1193 1202 1203
f 1194 1204 1195
f 1194 1203 1204
f 1195 1205 1196
f 1195 1204 1205
f 1196 1206 1197
f 1196 1205 1206
f 1197 1207 1198
f 1197 1206 1207
f 1198 1208 1199
f 1198 1207 1208
f 1209 1130 1121
f 1199 1209 1121
f 1208 1209 1199
f 1210 1131 1130
f 1210 1130 1209
f 1210 1132 1131
f 1134 1200 1123
f 1200 1134 1124
f 1135 1201 1127
f 1201 1135 1128
f 1138 1211 1137
f 1202 1129 1137
f 1211 1202 1137
f 1212 1202 1211
f 1202 1213 1203
f 1202 1212 1213
f 1203 1214 1204
f 1203 1213 1214
f 1204 1215 1205
f 1204 1214 1215
f 1205 1216 1206
f 1205 1215 1216
f 1216 1144 1145
f 1207 1216 1145
f 1206 1216 1207
f 1207 1145 1146
f 1207 1146 1208
f 1208 1146 1147
f 1208 1147 1209
f 1209 1147 1148
f 1209 1148 1210
f 1210 1148 1132
f 1149 1211 1138
f 1211 1149 1150
f 1211 1150 1212
f 1212 1150 1151
f 1212 1151 1213
f 1213 1151 1152
f 1213 1152 1214
f 1214 1152 1153
f 1214 1153 1215
f 1215 1153 1154
f 1215 1154 1216
f 1216 1154 1144

