# https://github.com/mikedh/trimesh
v 10.82881641 11.00000000 1.00000000
v 11.00000000 10.37588215 1.00000000
v 11.00000000 11.00000000 0.02804600
v 10.82585144 11.00000000 2.00000000
v 11.00000000 10.39373970 2.00000000
v 10.82774544 11.00000000 3.00000000
v 11.00000000 10.35784054 3.00000000
v 10.82746220 11.00000000 4.00000000
v 11.00000000 10.37968731 4.00000000
v 10.83026600 11.00000000 5.00000000
v 11.00000000 10.37574959 5.00000000
v 10.82161808 11.00000000 6.00000000
v 11.00000000 10.36706543 6.00000000
v 10.82606030 11.00000000 7.00000000
v 11.00000000 10.37269592 7.00000000
v 10.81841183 11.00000000 8.00000000
v 11.00000000 10.36499023 8.00000000
v 10.82029247 11.00000000 9.00000000
v 11.00000000 10.35393429 9.00000000
v 10.82433224 11.00000000 10.00000000
v 11.00000000 10.37310505 10.00000000
v 10.82278728 11.00000000 11.00000000
v 11.00000000 10.39259338 11.00000000
v 10.81978321 11.00000000 12.00000000
v 11.00000000 10.36483192 12.00000000
v 10.82048702 11.00000000 13.00000000
v 11.00000000 10.37080860 13.00000000
v 10.82227802 11.00000000 14.00000000
v 11.00000000 10.38006592 14.00000000
v 10.82214355 11.00000000 15.00000000
v 11.00000000 10.37869167 15.00000000
v 10.82238770 11.00000000 16.00000000
v 11.00000000 10.37632847 16.00000000
v 10.82320595 11.00000000 17.00000000
v 11.00000000 10.36413097 17.00000000
v 10.76929855 11.00000000 18.00000000
v 11.00000000 10.47881031 18.00000000
v 11.00000000 11.00000000 18.34249496
v 10.82709503 12.00000000 1.00000000
v 11.00000000 12.00000000 0.07964803
v 10.82629681 12.00000000 2.00000000
v 10.82951832 12.00000000 3.00000000
v 10.82427406 12.00000000 4.00000000
v 10.82457638 12.00000000 5.00000000
v 10.82758617 12.00000000 6.00000000
v 10.82064342 12.00000000 7.00000000
v 10.82108307 12.00000000 8.00000000
v 10.82373905 12.00000000 9.00000000
v 10.82334614 12.00000000 10.00000000
v 10.82258224 12.00000000 11.00000000
v 10.82024956 12.00000000 12.00000000
v 10.82335186 12.00000000 13.00000000
v 10.82032681 12.00000000 14.00000000
v 10.82249737 12.00000000 15.00000000
v 10.82206726 12.00000000 16.00000000
v 10.82015228 12.00000000 17.00000000
v 10.81053829 12.00000000 18.00000000
v 11.00000000 12.00000000 18.31529617
v 11.00000000 12.22962952 1.00000000
v 11.00000000 12.23123169 2.00000000
v 11.00000000 12.22842407 3.00000000
v 11.00000000 12.23403263 4.00000000
v 11.00000000 12.23306942 5.00000000
v 11.00000000 12.22853184 6.00000000
v 11.00000000 12.23748875 7.00000000
v 11.00000000 12.23847675 8.00000000
v 11.00000000 12.23465347 9.00000000
v 11.00000000 12.23559093 10.00000000
v 11.00000000 12.23557758 11.00000000
v 11.00000000 12.23851681 12.00000000
v 11.00000000 12.23429871 13.00000000
v 11.00000000 12.23905849 14.00000000
v 11.00000000 12.23598194 15.00000000
v 11.00000000 12.23678493 16.00000000
v 11.00000000 12.23853588 17.00000000
v 11.00000000 13.00000000 17.84994316
v 10.88614655 13.00000000 18.00000000
v 11.00000000 13.00000000 18.16222572
v 10.89183331 14.00000000 18.00000000
v 11.00000000 14.00000000 17.88555336
v 11.00000000 14.00000000 18.09563255
v 10.89272690 15.00000000 18.00000000
v 11.00000000 15.00000000 17.88655853
v 11.00000000 15.00000000 18.09512329
v 10.89231586 16.00000000 18.00000000
v 11.00000000 16.00000000 17.88632584
v 11.00000000 16.00000000 18.09535980
v 10.89314842 17.00000000 18.00000000
v 11.00000000 17.00000000 17.88729477
v 11.00000000 17.00000000 18.09519768
v 10.89241028 18.00000000 18.00000000
v 11.00000000 18.00000000 17.87366867
v 11.00000000 18.00000000 18.09540749
v 10.79470348 19.00000000 1.00000000
v 11.00000000 18.76354027 1.00000000
v 11.00000000 19.00000000 0.10754994
v 10.79877186 19.00000000 2.00000000
v 11.00000000 18.76866722 2.00000000
v 10.79857922 19.00000000 3.00000000
v 11.00000000 18.76716423 3.00000000
v 10.79365540 19.00000000 4.00000000
v 11.00000000 18.76178551 4.00000000
v 10.79733562 19.00000000 5.00000000
v 11.00000000 18.76677895 5.00000000
v 10.79507446 19.00000000 6.00000000
v 11.00000000 18.76504707 6.00000000
v 10.79568291 19.00000000 7.00000000
v 11.00000000 18.76472092 7.00000000
v 10.79602337 19.00000000 8.00000000
v 11.00000000 18.76393509 8.00000000
v 10.79127789 19.00000000 9.00000000
v 11.00000000 18.75812721 9.00000000
v 10.79200935 19.00000000 10.00000000
v 11.00000000 18.76076889 10.00000000
v 10.79297829 19.00000000 11.00000000
v 11.00000000 18.76066208 11.00000000
v 10.78978825 19.00000000 12.00000000
v 11.00000000 18.75856972 12.00000000
v 10.79082870 19.00000000 13.00000000
v 11.00000000 18.75901031 13.00000000
v 10.79032707 19.00000000 14.00000000
v 11.00000000 18.75875282 14.00000000
v 10.79047012 19.00000000 15.00000000
v 11.00000000 18.75924683 15.00000000
v 10.79001713 19.00000000 16.00000000
v 11.00000000 18.75868607 16.00000000
v 10.79013062 19.00000000 17.00000000
v 11.00000000 18.75867081 17.00000000
v 10.89307213 19.00000000 18.00000000
v 11.00000000 19.00000000 18.09461975
v 10.79752254 20.00000000 1.00000000
v 11.00000000 20.00000000 0.11358979
v 10.79783154 20.00000000 2.00000000
v 10.79514122 20.00000000 3.00000000
v 10.79213333 20.00000000 4.00000000
v 10.79462814 20.00000000 5.00000000
v 10.79406166 20.00000000 6.00000000
v 10.79646301 20.00000000 7.00000000
v 10.79507446 20.00000000 8.00000000
v 10.79106998 20.00000000 9.00000000
v 10.78971481 20.00000000 10.00000000
v 10.79101086 20.00000000 11.00000000
v 10.79096699 20.00000000 12.00000000
v 10.78748512 20.00000000 13.00000000
v 10.79125118 20.00000000 14.00000000
v 10.78850555 20.00000000 15.00000000
v 10.79073811 20.00000000 16.00000000
v 10.79164505 20.00000000 17.00000000
v 10.89480495 20.00000000 18.00000000
v 11.00000000 20.00000000 18.26472855
v 11.00000000 20.91340065 1.00000000
v 11.00000000 20.84319305 2.00000000
v 11.00000000 20.89140129 3.00000000
v 11.00000000 20.92313194 4.00000000
v 11.00000000 20.87463951 5.00000000
v 11.00000000 20.87109947 6.00000000
v 11.00000000 20.90472984 7.00000000
v 11.00000000 20.85200882 8.00000000
v 11.00000000 20.89231491 9.00000000
v 11.00000000 20.91174316 10.00000000
v 11.00000000 20.85503769 11.00000000
v 11.00000000 20.89389038 12.00000000
v 11.00000000 20.93194008 13.00000000
v 11.00000000 20.87770081 14.00000000
v 11.00000000 20.88265800 15.00000000
v 11.00000000 20.87662315 16.00000000
v 11.00000000 20.86997223 17.00000000
v 11.00000000 20.79556084 18.00000000
v 12.00000000 10.11006355 1.00000000
v 12.00000000 11.00000000 0.03083963
v 12.00000000 10.09933567 2.00000000
v 12.00000000 10.10061359 3.00000000
v 12.00000000 10.10130119 4.00000000
v 12.00000000 10.10618210 5.00000000
v 12.00000000 10.10381413 6.00000000
v 12.00000000 10.10521412 7.00000000
v 12.00000000 10.09969330 8.00000000
v 12.00000000 10.10678005 9.00000000
v 12.00000000 10.10473919 10.00000000
v 12.00000000 10.10578823 11.00000000
v 12.00000000 10.10152626 12.00000000
v 12.00000000 10.10520744 13.00000000
v 12.00000000 10.10212708 14.00000000
v 12.00000000 10.10496521 15.00000000
v 12.00000000 10.10983849 16.00000000
v 12.00000000 10.10873032 17.00000000
v 12.00000000 10.48178959 18.00000000
v 12.00000000 11.00000000 18.10044479
v 12.00000000 12.00000000 0.04173540
v 12.00000000 12.00000000 18.10173225
v 12.00000000 12.42217922 1.00000000
v 12.00000000 12.42615795 2.00000000
v 12.00000000 12.42544270 3.00000000
v 12.00000000 12.42556381 4.00000000
v 12.00000000 12.42460346 5.00000000
v 12.00000000 12.42249298 6.00000000
v 12.00000000 12.42273998 7.00000000
v 12.00000000 12.42615891 8.00000000
v 12.00000000 12.42316532 9.00000000
v 12.00000000 12.42472649 10.00000000
v 12.00000000 12.42633247 11.00000000
v 12.00000000 12.42667961 12.00000000
v 12.00000000 12.42523384 13.00000000
v 12.00000000 12.42561340 14.00000000
v 12.00000000 12.42735767 15.00000000
v 12.00000000 12.42735195 16.00000000
v 12.00000000 12.42502785 17.00000000
v 12.00000000 13.00000000 17.85265541
v 12.00000000 13.00000000 18.09939766
v 12.00000000 14.00000000 17.88220787
v 12.00000000 14.00000000 18.09850883
v 12.00000000 15.00000000 17.88078499
v 12.00000000 15.00000000 18.10005569
v 12.00000000 16.00000000 17.88403893
v 12.00000000 16.00000000 18.09726715
v 12.00000000 17.00000000 17.88495255
v 12.00000000 17.00000000 18.09647751
v 12.00000000 18.00000000 17.86726952
v 12.00000000 18.00000000 18.10028076
v 12.00000000 18.66318703 1.00000000
v 12.00000000 19.00000000 0.03200730
v 12.00000000 18.66094971 2.00000000
v 12.00000000 18.66494942 3.00000000
v 12.00000000 18.66083717 4.00000000
v 12.00000000 18.66019821 5.00000000
v 12.00000000 18.66419411 6.00000000
v 12.00000000 18.66218185 7.00000000
v 12.00000000 18.66218758 8.00000000
v 12.00000000 18.66281700 9.00000000
v 12.00000000 18.66021729 10.00000000
v 12.00000000 18.66010666 11.00000000
v 12.00000000 18.66060257 12.00000000
v 12.00000000 18.65933990 13.00000000
v 12.00000000 18.65850067 14.00000000
v 12.00000000 18.65892792 15.00000000
v 12.00000000 18.65872192 16.00000000
v 12.00000000 18.65774345 17.00000000
v 12.00000000 19.00000000 18.10149384
v 12.00000000 20.00000000 0.02620408
v 12.00000000 20.00000000 18.29288673
v 12.00000000 20.99419212 1.00000000
v 12.00000000 20.96915245 2.00000000
v 12.00000000 20.97039413 3.00000000
v 12.00000000 20.96525955 4.00000000
v 12.00000000 20.98249435 5.00000000
v 12.00000000 20.98108101 6.00000000
v 12.00000000 20.97619820 7.00000000
v 12.00000000 20.97458649 8.00000000
v 12.00000000 20.97173882 9.00000000
v 12.00000000 20.98507118 10.00000000
v 12.00000000 20.97479439 11.00000000
v 12.00000000 20.97222710 12.00000000
v 12.00000000 20.97222710 13.00000000
v 12.00000000 20.97268867 14.00000000
v 12.00000000 20.96724510 15.00000000
v 12.00000000 20.97066116 16.00000000
v 12.00000000 20.97097588 17.00000000
v 12.00000000 20.76684189 18.00000000
v 13.00000000 10.46034050 1.00000000
v 13.00000000 11.00000000 0.10983678
v 13.00000000 10.41761494 2.00000000
v 13.00000000 10.46411419 3.00000000
v 13.00000000 10.45679760 4.00000000
v 13.00000000 10.43163013 5.00000000
v 13.00000000 10.42354107 6.00000000
v 13.00000000 10.43781281 7.00000000
v 13.00000000 10.42324257 8.00000000
v 13.00000000 10.44209385 9.00000000
v 13.00000000 10.45067215 10.00000000
v 13.00000000 10.44818115 11.00000000
v 13.00000000 10.43277073 12.00000000
v 13.00000000 10.43603420 13.00000000
v 13.00000000 10.44495296 14.00000000
v 13.00000000 10.43564224 15.00000000
v 13.00000000 10.43765259 16.00000000
v 13.00000000 10.42924881 17.00000000
v 13.00000000 10.52921867 18.00000000
v 13.00000000 11.00000000 18.09731674
v 13.00000000 12.00000000 0.17533356
v 13.00000000 12.00000000 18.10466385
v 13.00000000 12.18828869 1.00000000
v 13.00000000 12.19326878 2.00000000
v 13.00000000 12.18573475 3.00000000
v 13.00000000 12.18179893 4.00000000
v 13.00000000 12.18778324 5.00000000
v 13.00000000 12.18383884 6.00000000
v 13.00000000 12.19599915 7.00000000
v 13.00000000 12.18566036 8.00000000
v 13.00000000 12.19356632 9.00000000
v 13.00000000 12.19401073 10.00000000
v 13.00000000 12.18918800 11.00000000
v 13.00000000 12.19275665 12.00000000
v 13.00000000 12.19179058 13.00000000
v 13.00000000 12.19595051 14.00000000
v 13.00000000 12.19316292 15.00000000
v 13.00000000 12.19722557 16.00000000
v 13.00000000 12.20346069 17.00000000
v 13.00000000 13.00000000 17.85400963
v 13.00000000 13.00000000 18.09803391
v 13.00000000 14.00000000 17.88189125
v 13.00000000 14.00000000 18.09906960
v 13.00000000 15.00000000 17.88101768
v 13.00000000 15.00000000 18.09992218
v 13.00000000 16.00000000 17.88022041
v 13.00000000 16.00000000 18.10085297
v 13.00000000 17.00000000 17.88092232
v 13.00000000 17.00000000 18.10005379
v 13.00000000 18.00000000 17.86558342
v 13.00000000 18.00000000 18.10173225
v 13.00000000 18.86167717 1.00000000
v 13.00000000 19.00000000 0.20641102
v 13.00000000 18.87322044 2.00000000
v 13.00000000 18.86343575 3.00000000
v 13.00000000 18.86649323 4.00000000
v 13.00000000 18.85597038 5.00000000
v 13.00000000 18.86993790 6.00000000
v 13.00000000 18.86559677 7.00000000
v 13.00000000 18.86312485 8.00000000
v 13.00000000 18.86026382 9.00000000
v 13.00000000 18.86026764 10.00000000
v 13.00000000 18.86488724 11.00000000
v 13.00000000 18.85832405 12.00000000
v 13.00000000 18.86014748 13.00000000
v 13.00000000 18.85650444 14.00000000
v 13.00000000 18.86138535 15.00000000
v 13.00000000 18.86146736 16.00000000
v 13.00000000 18.86287308 17.00000000
v 13.00000000 18.49577522 18.00000000
v 12.49507618 19.00000000 18.00000000
v 13.00000000 19.00000000 17.50155067
v 13.00000000 20.00000000 0.15250038
v 13.00000000 19.51045418 18.00000000
v 13.00000000 20.00000000 18.27858543
v 13.00000000 20.80793953 1.00000000
v 13.00000000 20.80674934 2.00000000
v 13.00000000 20.79994774 3.00000000
v 13.00000000 20.75434494 4.00000000
v 13.00000000 20.73681259 5.00000000
v 13.00000000 20.80145073 6.00000000
v 13.00000000 20.76877403 7.00000000
v 13.00000000 20.85628891 8.00000000
v 13.00000000 20.77486992 9.00000000
v 13.00000000 20.80263138 10.00000000
v 13.00000000 20.80526543 11.00000000
v 13.00000000 20.78485680 12.00000000
v 13.00000000 20.79459381 13.00000000
v 13.00000000 20.77075958 14.00000000
v 13.00000000 20.75654221 15.00000000
v 13.00000000 20.80392075 16.00000000
v 13.00000000 20.81945610 17.00000000
v 13.00000000 20.73881531 18.00000000
v 13.13194752 11.00000000 1.00000000
v 13.13264847 11.00000000 2.00000000
v 13.13156319 11.00000000 3.00000000
v 13.13721848 11.00000000 4.00000000
v 13.13336086 11.00000000 5.00000000
v 13.13675022 11.00000000 6.00000000
v 13.13307095 11.00000000 7.00000000
v 13.13743687 11.00000000 8.00000000
v 13.13513184 11.00000000 9.00000000
v 13.13406849 11.00000000 10.00000000
v 13.13617706 11.00000000 11.00000000
v 13.13770866 11.00000000 12.00000000
v 13.13790607 11.00000000 13.00000000
v 13.13878822 11.00000000 14.00000000
v 13.13700008 11.00000000 15.00000000
v 13.13869858 11.00000000 16.00000000
v 13.15982342 11.00000000 17.00000000
v 14.00000000 11.00000000 17.88455391
v 14.00000000 10.82721329 18.00000000
v 14.00000000 11.00000000 18.09681129
v 13.13310337 12.00000000 1.00000000
v 13.13709641 12.00000000 2.00000000
v 13.13226223 12.00000000 3.00000000
v 13.12900734 12.00000000 4.00000000
v 13.13354397 12.00000000 5.00000000
v 13.12993145 12.00000000 6.00000000
v 13.13988686 12.00000000 7.00000000
v 13.13222313 12.00000000 8.00000000
v 13.13711739 12.00000000 9.00000000
v 13.13849640 12.00000000 10.00000000
v 13.13390827 12.00000000 11.00000000
v 13.13634396 12.00000000 12.00000000
v 13.13624001 12.00000000 13.00000000
v 13.13943100 12.00000000 14.00000000
v 13.13768196 12.00000000 15.00000000
v 13.14028454 12.00000000 16.00000000
v 13.16531944 12.00000000 17.00000000
v 14.00000000 12.00000000 17.88230515
v 14.00000000 12.00000000 18.09858322
v 14.00000000 13.00000000 17.87969589
v 14.00000000 13.00000000 18.10072327
v 14.00000000 14.00000000 17.88359642
v 14.00000000 14.00000000 18.09758949
v 14.00000000 15.00000000 17.87447548
v 14.00000000 15.00000000 18.10546875
v 14.00000000 16.00000000 17.88181686
v 14.00000000 16.00000000 18.09922600
v 14.00000000 17.00000000 17.88029671
v 14.00000000 17.00000000 18.10054588
v 14.00000000 18.00000000 17.88293648
v 14.00000000 18.00000000 18.09810066
v 13.10523415 19.00000000 1.00000000
v 13.09624004 19.00000000 2.00000000
v 13.10330296 19.00000000 3.00000000
v 13.10136509 19.00000000 4.00000000
v 13.11004543 19.00000000 5.00000000
v 13.09916782 19.00000000 6.00000000
v 13.10242081 19.00000000 7.00000000
v 13.10435104 19.00000000 8.00000000
v 13.10675812 19.00000000 9.00000000
v 13.10665321 19.00000000 10.00000000
v 13.10330200 19.00000000 11.00000000
v 13.10792351 19.00000000 12.00000000
v 13.10691357 19.00000000 13.00000000
v 13.10998154 19.00000000 14.00000000
v 13.10622597 19.00000000 15.00000000
v 13.10584927 19.00000000 16.00000000
v 13.12361336 19.00000000 17.00000000
v 13.51729012 19.00000000 18.00000000
v 14.00000000 19.00000000 17.88432503
v 14.00000000 19.00000000 18.09723091
v 13.09717846 20.00000000 1.00000000
v 13.09680939 20.00000000 2.00000000
v 13.09893036 20.00000000 3.00000000
v 13.10306835 20.00000000 4.00000000
v 13.10133171 20.00000000 5.00000000
v 13.10141563 20.00000000 6.00000000
v 13.10590649 20.00000000 7.00000000
v 13.11083984 20.00000000 8.00000000
v 13.10641575 20.00000000 9.00000000
v 13.11032963 20.00000000 10.00000000
v 13.11223125 20.00000000 11.00000000
v 13.10244370 20.00000000 12.00000000
v 13.11108589 20.00000000 13.00000000
v 13.10484791 20.00000000 14.00000000
v 13.10911560 20.00000000 15.00000000
v 13.11176872 20.00000000 16.00000000
v 13.13514233 20.00000000 17.00000000
v 14.00000000 20.00000000 17.88089943
v 14.00000000 20.00000000 18.28342056
v 14.00000000 20.82579422 18.00000000
v 15.00000000 10.81500721 18.00000000
v 15.00000000 11.00000000 17.87644005
v 15.00000000 11.00000000 18.10349464
v 15.00000000 12.00000000 17.88128281
v 15.00000000 12.00000000 18.09954643
v 15.00000000 13.00000000 17.88351440
v 15.00000000 13.00000000 18.09770203
v 15.00000000 14.00000000 17.87858963
v 15.00000000 14.00000000 18.10167313
v 15.00000000 15.00000000 17.87848473
v 15.00000000 15.00000000 18.10181236
v 15.00000000 16.00000000 17.88189507
v 15.00000000 16.00000000 18.09901619
v 15.00000000 17.00000000 17.87969971
v 15.00000000 17.00000000 18.10112000
v 15.00000000 18.00000000 17.87614059
v 15.00000000 18.00000000 18.10408211
v 15.00000000 19.00000000 17.87172127
v 15.00000000 19.00000000 18.10775566
v 15.00000000 20.00000000 17.87858200
v 15.00000000 20.00000000 18.27832603
v 15.00000000 20.82402039 18.00000000
v 16.00000000 10.82349110 18.00000000
v 16.00000000 11.00000000 17.88241959
v 16.00000000 11.00000000 18.09871483
v 16.00000000 12.00000000 17.88248253
v 16.00000000 12.00000000 18.09842110
v 16.00000000 13.00000000 17.88039207
v 16.00000000 13.00000000 18.10034180
v 16.00000000 14.00000000 17.88453865
v 16.00000000 14.00000000 18.09674835
v 16.00000000 15.00000000 17.88035965
v 16.00000000 15.00000000 18.10052490
v 16.00000000 16.00000000 17.87701988
v 16.00000000 16.00000000 18.10354805
v 16.00000000 17.00000000 17.87975121
v 16.00000000 17.00000000 18.10096741
v 16.00000000 18.00000000 17.88125992
v 16.00000000 18.00000000 18.09959602
v 16.00000000 19.00000000 17.88236046
v 16.00000000 19.00000000 18.09882355
v 16.00000000 20.00000000 17.87899399
v 16.00000000 20.00000000 18.28621483
v 16.00000000 20.78354645 18.00000000
v 17.00000000 10.81839085 18.00000000
v 17.00000000 11.00000000 17.87883568
v 17.00000000 11.00000000 18.10178947
v 17.00000000 12.00000000 17.87795258
v 17.00000000 12.00000000 18.10208702
v 17.00000000 13.00000000 17.88539314
v 17.00000000 13.00000000 18.09584045
v 17.00000000 14.00000000 17.87844276
v 17.00000000 14.00000000 18.10192490
v 17.00000000 15.00000000 17.87848282
v 17.00000000 15.00000000 18.10183144
v 17.00000000 16.00000000 17.88193703
v 17.00000000 16.00000000 18.09899330
v 17.00000000 17.00000000 17.87584305
v 17.00000000 17.00000000 18.10446930
v 17.00000000 18.00000000 17.87761116
v 17.00000000 18.00000000 18.10296822
v 17.00000000 19.00000000 17.87785149
v 17.00000000 19.00000000 18.10283852
v 17.00000000 20.00000000 17.87785339
v 17.00000000 20.00000000 18.28785133
v 17.00000000 20.77273560 18.00000000
v 18.00000000 10.82655525 18.00000000
v 18.00000000 11.00000000 17.37009239
v 18.00000000 11.00000000 18.09749985
v 18.00000000 12.00000000 17.36858749
v 18.00000000 12.00000000 18.10109711
v 18.00000000 13.00000000 17.67881203
v 18.00000000 13.00000000 18.10163498
v 18.00000000 14.00000000 17.87969398
v 18.00000000 14.00000000 18.10082245
v 18.00000000 15.00000000 17.88048935
v 18.00000000 15.00000000 18.10025978
v 18.00000000 16.00000000 17.87823677
v 18.00000000 16.00000000 18.10237885
v 18.00000000 17.00000000 17.87670135
v 18.00000000 17.00000000 18.10357475
v 18.00000000 18.00000000 17.87452126
v 18.00000000 18.00000000 18.10542488
v 17.83238411 19.00000000 1.00000000
v 18.00000000 18.84695625 1.00000000
v 18.00000000 19.00000000 0.09227247
v 17.83259773 19.00000000 2.00000000
v 18.00000000 18.84708214 2.00000000
v 17.82813072 19.00000000 3.00000000
v 18.00000000 18.84237289 3.00000000
v 17.82851028 19.00000000 4.00000000
v 18.00000000 18.84193802 4.00000000
v 17.82254601 19.00000000 5.00000000
v 18.00000000 18.83786011 5.00000000
v 17.82275009 19.00000000 6.00000000
v 18.00000000 18.83781433 6.00000000
v 17.81768417 19.00000000 7.00000000
v 18.00000000 18.83304596 7.00000000
v 17.82211494 19.00000000 8.00000000
v 18.00000000 18.83684540 8.00000000
v 17.82140732 19.00000000 9.00000000
v 18.00000000 18.83615875 9.00000000
v 17.82301331 19.00000000 10.00000000
v 18.00000000 18.83819580 10.00000000
v 17.82399750 19.00000000 11.00000000
v 18.00000000 18.83913231 11.00000000
v 17.82406616 19.00000000 12.00000000
v 18.00000000 18.83834076 12.00000000
v 17.82297325 19.00000000 13.00000000
v 18.00000000 18.83754158 13.00000000
v 17.81946754 19.00000000 14.00000000
v 18.00000000 18.83421516 14.00000000
v 17.82019997 19.00000000 15.00000000
v 18.00000000 18.83502769 15.00000000
v 17.81697845 19.00000000 16.00000000
v 18.00000000 18.83139992 16.00000000
v 17.81316376 19.00000000 17.00000000
v 18.00000000 18.81298828 17.00000000
v 18.00000000 19.00000000 18.10398865
v 17.76151276 20.00000000 1.00000000
v 18.00000000 20.00000000 0.08054160
v 17.75577164 20.00000000 2.00000000
v 17.76032257 20.00000000 3.00000000
v 17.75968742 20.00000000 4.00000000
v 17.75845337 20.00000000 5.00000000
v 17.75636864 20.00000000 6.00000000
v 17.75287628 20.00000000 7.00000000
v 17.75449181 20.00000000 8.00000000
v 17.75742149 20.00000000 9.00000000
v 17.75605202 20.00000000 10.00000000
v 17.75418854 20.00000000 11.00000000
v 17.75354576 20.00000000 12.00000000
v 17.75020409 20.00000000 13.00000000
v 17.75316620 20.00000000 14.00000000
v 17.75255013 20.00000000 15.00000000
v 17.75354004 20.00000000 16.00000000
v 17.75038910 20.00000000 17.00000000
v 18.00000000 20.00000000 18.29924965
v 17.84121704 21.00000000 1.00000000
v 18.00000000 21.00000000 0.15030774
v 17.83751488 21.00000000 2.00000000
v 17.83561325 21.00000000 3.00000000
v 17.83727264 21.00000000 4.00000000
v 17.83307457 21.00000000 5.00000000
v 17.83638954 21.00000000 6.00000000
v 17.83452415 21.00000000 7.00000000
v 17.83556175 21.00000000 8.00000000
v 17.83401871 21.00000000 9.00000000
v 17.83273697 21.00000000 10.00000000
v 17.83029747 21.00000000 11.00000000
v 17.83504486 21.00000000 12.00000000
v 17.82884026 21.00000000 13.00000000
v 17.82938576 21.00000000 14.00000000
v 17.82809639 21.00000000 15.00000000
v 17.83342552 21.00000000 16.00000000
v 17.83106613 21.00000000 17.00000000
v 17.22978783 21.00000000 18.00000000
v 18.00000000 21.00000000 18.79805756
v 18.00000000 21.14402390 1.00000000
v 18.00000000 21.14744186 2.00000000
v 18.00000000 21.14877129 3.00000000
v 18.00000000 21.14747620 4.00000000
v 18.00000000 21.15166283 5.00000000
v 18.00000000 21.14789200 6.00000000
v 18.00000000 21.15071869 7.00000000
v 18.00000000 21.14850235 8.00000000
v 18.00000000 21.15047646 9.00000000
v 18.00000000 21.15169334 10.00000000
v 18.00000000 21.15384674 11.00000000
v 18.00000000 21.14932060 12.00000000
v 18.00000000 21.15488625 13.00000000
v 18.00000000 21.15518188 14.00000000
v 18.00000000 21.15561485 15.00000000
v 18.00000000 21.15166855 16.00000000
v 18.00000000 21.15089607 17.00000000
v 18.00000000 21.10736465 18.00000000
v 18.07472992 11.00000000 1.00000000
v 19.00000000 10.46035767 1.00000000
v 19.00000000 11.00000000 0.02978997
v 18.08590698 11.00000000 2.00000000
v 19.00000000 10.46348572 2.00000000
v 18.05961227 11.00000000 3.00000000
v 19.00000000 10.46010590 3.00000000
v 18.06834030 11.00000000 4.00000000
v 19.00000000 10.46243095 4.00000000
v 18.06898689 11.00000000 5.00000000
v 19.00000000 10.46293068 5.00000000
v 18.07567596 11.00000000 6.00000000
v 19.00000000 10.46041489 6.00000000
v 18.08562660 11.00000000 7.00000000
v 19.00000000 10.46163368 7.00000000
v 18.07203293 11.00000000 8.00000000
v 19.00000000 10.46201897 8.00000000
v 18.07946587 11.00000000 9.00000000
v 19.00000000 10.46179771 9.00000000
v 18.08353806 11.00000000 10.00000000
v 19.00000000 10.46373367 10.00000000
v 18.08090401 11.00000000 11.00000000
v 19.00000000 10.46218872 11.00000000
v 18.08359337 11.00000000 12.00000000
v 19.00000000 10.46323299 12.00000000
v 18.10022163 11.00000000 13.00000000
v 19.00000000 10.46216393 13.00000000
v 18.08079529 11.00000000 14.00000000
v 19.00000000 10.46312809 14.00000000
v 18.08237076 11.00000000 15.00000000
v 19.00000000 10.46231174 15.00000000
v 18.07673454 11.00000000 16.00000000
v 19.00000000 10.46325874 16.00000000
v 18.09665680 11.00000000 17.00000000
v 19.00000000 10.46208763 17.00000000
v 19.00000000 10.65154457 18.00000000
v 19.00000000 11.00000000 18.10002136
v 18.04115486 12.00000000 1.00000000
v 19.00000000 12.00000000 0.01906133
v 18.05674553 12.00000000 2.00000000
v 18.06254387 12.00000000 3.00000000
v 18.05462074 12.00000000 4.00000000
v 18.05526733 12.00000000 5.00000000
v 18.05078506 12.00000000 6.00000000
v 18.06176186 12.00000000 7.00000000
v 18.07558632 12.00000000 8.00000000
v 18.05711555 12.00000000 9.00000000
v 18.05475426 12.00000000 10.00000000
v 18.05885315 12.00000000 11.00000000
v 18.05817223 12.00000000 12.00000000
v 18.05385208 12.00000000 13.00000000
v 18.06407356 12.00000000 14.00000000
v 18.05721664 12.00000000 15.00000000
v 18.07329941 12.00000000 16.00000000
v 18.07032394 12.00000000 17.00000000
v 19.00000000 12.00000000 18.09727859
v 19.00000000 12.78838444 1.00000000
v 19.00000000 12.78136921 2.00000000
v 19.00000000 12.78602886 3.00000000
v 19.00000000 12.78755283 4.00000000
v 19.00000000 12.78619576 5.00000000
v 19.00000000 12.78610992 6.00000000
v 19.00000000 12.77869320 7.00000000
v 19.00000000 12.78268814 8.00000000
v 19.00000000 12.78474617 9.00000000
v 19.00000000 12.78004837 10.00000000
v 19.00000000 12.78119469 11.00000000
v 19.00000000 12.78194427 12.00000000
v 19.00000000 12.78454494 13.00000000
v 19.00000000 12.77836609 14.00000000
v 19.00000000 12.78399849 15.00000000
v 19.00000000 12.78354073 16.00000000
v 19.00000000 12.77803516 17.00000000
v 19.00000000 13.00000000 17.69724083
v 19.00000000 13.00000000 18.09709549
v 19.00000000 14.00000000 17.88450050
v 19.00000000 14.00000000 18.09718895
v 19.00000000 15.00000000 17.87676239
v 19.00000000 15.00000000 18.10376740
v 19.00000000 16.00000000 17.88239861
v 19.00000000 16.00000000 18.09920120
v 19.00000000 17.00000000 17.87912941
v 19.00000000 17.00000000 18.10181236
v 19.00000000 18.00000000 17.87849236
v 19.00000000 18.00000000 18.10194016
v 19.00000000 18.84835815 1.00000000
v 19.00000000 19.00000000 0.16492274
v 19.00000000 18.84393692 2.00000000
v 19.00000000 18.84677696 3.00000000
v 19.00000000 18.84562111 4.00000000
v 19.00000000 18.83850479 5.00000000
v 19.00000000 18.84094048 6.00000000
v 19.00000000 18.83929825 7.00000000
v 19.00000000 18.83890343 8.00000000
v 19.00000000 18.83938408 9.00000000
v 19.00000000 18.83843231 10.00000000
v 19.00000000 18.83749580 11.00000000
v 19.00000000 18.83702087 12.00000000
v 19.00000000 18.83617401 13.00000000
v 19.00000000 18.83637238 14.00000000
v 19.00000000 18.83518219 15.00000000
v 19.00000000 18.83843040 16.00000000
v 19.00000000 18.81903839 17.00000000
v 19.00000000 19.00000000 18.10281944
v 19.00000000 20.00000000 0.03439264
v 19.00000000 20.00000000 18.30074692
v 19.00000000 21.00000000 0.09781464
v 19.00000000 21.00000000 18.79336548
v 19.00000000 21.14103699 1.00000000
v 19.00000000 21.14577866 2.00000000
v 19.00000000 21.14422989 3.00000000
v 19.00000000 21.14385414 4.00000000
v 19.00000000 21.14789963 5.00000000
v 19.00000000 21.15127182 6.00000000
v 19.00000000 21.15039062 7.00000000
v 19.00000000 21.15244484 8.00000000
v 19.00000000 21.15262032 9.00000000
v 19.00000000 21.14802933 10.00000000
v 19.00000000 21.14826012 11.00000000
v 19.00000000 21.15021324 12.00000000
v 19.00000000 21.15294266 13.00000000
v 19.00000000 21.15587044 14.00000000
v 19.00000000 21.15289688 15.00000000
v 19.00000000 21.15137100 16.00000000
v 19.00000000 21.15297127 17.00000000
v 19.00000000 21.10276222 18.00000000
v 20.00000000 10.63265419 1.00000000
v 20.00000000 11.00000000 0.07873899
v 20.00000000 10.63494492 2.00000000
v 20.00000000 10.63419151 3.00000000
v 20.00000000 10.63185120 4.00000000
v 20.00000000 10.63775635 5.00000000
v 20.00000000 10.63382053 6.00000000
v 20.00000000 10.63183403 7.00000000
v 20.00000000 10.63127518 8.00000000
v 20.00000000 10.63116837 9.00000000
v 20.00000000 10.63349056 10.00000000
v 20.00000000 10.62760639 11.00000000
v 20.00000000 10.63180733 12.00000000
v 20.00000000 10.62944126 13.00000000
v 20.00000000 10.62693024 14.00000000
v 20.00000000 10.62959480 15.00000000
v 20.00000000 10.62881565 16.00000000
v 20.00000000 10.62826538 17.00000000
v 20.00000000 10.79166889 18.00000000
v 20.00000000 11.00000000 18.25840187
v 20.00000000 12.00000000 0.04029854
v 20.00000000 12.00000000 18.29118347
v 20.00000000 12.55534172 1.00000000
v 20.00000000 12.54584122 2.00000000
v 20.00000000 12.54461384 3.00000000
v 20.00000000 12.55760098 4.00000000
v 20.00000000 12.55520535 5.00000000
v 20.00000000 12.55123901 6.00000000
v 20.00000000 12.54522133 7.00000000
v 20.00000000 12.54255104 8.00000000
v 20.00000000 12.55337906 9.00000000
v 20.00000000 12.55023003 10.00000000
v 20.00000000 12.55961990 11.00000000
v 20.00000000 12.55899906 12.00000000
v 20.00000000 12.55037308 13.00000000
v 20.00000000 12.55379200 14.00000000
v 20.00000000 12.56197548 15.00000000
v 20.00000000 12.55619526 16.00000000
v 20.00000000 12.55377960 17.00000000
v 20.00000000 13.00000000 17.67364120
v 20.00000000 13.00000000 18.22252655
v 20.00000000 14.00000000 17.87955093
v 20.00000000 14.00000000 18.10108376
v 20.00000000 14.50125694 18.00000000
v 19.50882149 15.00000000 18.00000000
v 20.00000000 15.50440884 18.00000000
v 20.00000000 16.00000000 17.88193321
v 20.00000000 16.00000000 18.09906960
v 20.00000000 17.00000000 17.88103104
v 20.00000000 17.00000000 18.09965706
v 20.00000000 18.00000000 17.88305473
v 20.00000000 18.00000000 18.09798431
v 19.72086334 19.00000000 1.00000000
v 19.71762276 19.00000000 2.00000000
v 20.00000000 19.00000000 2.50088072
v 20.00000000 18.93223953 3.00000000
v 19.69614410 19.00000000 4.00000000
v 20.00000000 19.00000000 3.47544312
v 19.70722580 19.00000000 5.00000000
v 19.72427368 19.00000000 6.00000000
v 19.71607780 19.00000000 7.00000000
v 19.71878815 19.00000000 8.00000000
v 19.70162582 19.00000000 9.00000000
v 20.00000000 19.00000000 9.50335598
v 20.00000000 18.92537308 10.00000000
v 19.68772697 19.00000000 11.00000000
v 20.00000000 19.00000000 10.47668266
v 19.69108963 19.00000000 12.00000000
v 20.00000000 19.00000000 12.49819851
v 20.00000000 18.91929626 13.00000000
v 19.68712044 19.00000000 14.00000000
v 20.00000000 19.00000000 13.49475956
v 20.00000000 19.00000000 14.51367569
v 20.00000000 18.92177582 15.00000000
v 19.69495583 19.00000000 16.00000000
v 20.00000000 19.00000000 15.50012684
v 20.00000000 19.00000000 16.49856186
v 20.00000000 18.91222191 17.00000000
v 20.00000000 19.00000000 18.09703255
v 19.94645309 20.00000000 1.00000000
v 19.94048119 20.00000000 2.00000000
v 20.00000000 19.50128555 3.00000000
v 19.94684219 20.00000000 3.00000000
v 19.94378471 20.00000000 4.00000000
v 20.00000000 20.00000000 4.48455954
v 20.00000000 19.49477196 5.00000000
v 19.94330788 20.00000000 6.00000000
v 20.00000000 20.00000000 5.51282310
v 19.93899727 20.00000000 7.00000000
v 20.00000000 20.00000000 7.51606035
v 20.00000000 19.49096489 8.00000000
v 19.93229103 20.00000000 9.00000000
v 20.00000000 20.00000000 8.45560741
v 20.00000000 20.00000000 9.54703522
v 20.00000000 19.53197670 11.00000000
v 19.93276596 20.00000000 12.00000000
v 20.00000000 20.00000000 11.45583534
v 20.00000000 19.48943901 13.00000000
v 19.93358040 20.00000000 13.00000000
v 20.00000000 19.49710846 14.00000000
v 20.00000000 20.00000000 13.50242901
v 20.00000000 19.51231003 15.00000000
v 19.94088745 20.00000000 15.00000000
v 20.00000000 20.00000000 14.52885246
v 20.00000000 19.50338745 16.00000000
v 20.00000000 20.00000000 15.49120140
v 19.53260803 20.00000000 18.00000000
v 20.00000000 20.00000000 17.40532684
v 20.00000000 19.49903297 18.00000000
v 19.71135330 21.00000000 1.00000000
v 20.00000000 21.00000000 1.44477355
v 20.00000000 20.49158096 2.00000000
v 19.68889999 21.00000000 3.00000000
v 20.00000000 21.00000000 2.52138543
v 19.69771194 21.00000000 4.00000000
v 20.00000000 20.50077248 5.00000000
v 19.68468094 21.00000000 5.00000000
v 19.70989037 21.00000000 6.00000000
v 19.67073250 21.00000000 7.00000000
v 20.00000000 20.51279068 8.00000000
v 19.70979881 21.00000000 8.00000000
v 20.00000000 20.54504013 9.00000000
v 20.00000000 21.00000000 8.48786163
v 20.00000000 21.00000000 9.48087311
v 19.67678070 21.00000000 10.00000000
v 20.00000000 20.47886467 10.00000000
v 20.00000000 21.00000000 10.50076103
v 19.67880821 21.00000000 12.00000000
v 20.00000000 21.00000000 11.49725819
v 19.65714073 21.00000000 13.00000000
v 20.00000000 20.52754211 14.00000000
v 19.69787025 21.00000000 14.00000000
v 20.00000000 20.48144150 15.00000000
v 20.00000000 21.00000000 14.48275375
v 20.00000000 20.51064682 16.00000000
v 19.69304466 21.00000000 16.00000000
v 20.00000000 21.00000000 15.52040577
v 20.00000000 20.47251701 17.00000000
v 19.67436600 21.00000000 17.00000000
v 20.00000000 20.57212830 18.00000000
v 20.00000000 21.00000000 17.50431824
v 20.00000000 21.00000000 18.70811844
v 20.00000000 21.07692528 2.00000000
v 20.00000000 21.07155037 9.00000000
v 20.00000000 21.07663727 11.00000000
v 20.00000000 21.07925797 15.00000000
v 20.00000000 21.07922935 18.00000000
v 20.26598740 11.00000000 1.00000000
v 20.26640701 11.00000000 2.00000000
v 20.26876450 11.00000000 3.00000000
v 20.26828957 11.00000000 4.00000000
v 20.26668549 11.00000000 5.00000000
v 20.26710129 11.00000000 6.00000000
v 20.26835823 11.00000000 7.00000000
v 20.26922417 11.00000000 8.00000000
v 20.27060509 11.00000000 9.00000000
v 20.26945114 11.00000000 10.00000000
v 20.27262115 11.00000000 11.00000000
v 20.26877403 11.00000000 12.00000000
v 20.27121735 11.00000000 13.00000000
v 20.27257919 11.00000000 14.00000000
v 20.27189636 11.00000000 15.00000000
v 20.27168274 11.00000000 16.00000000
v 20.27212524 11.00000000 17.00000000
v 20.17129707 11.00000000 18.00000000
v 20.26819229 12.00000000 1.00000000
v 20.26464081 12.00000000 2.00000000
v 20.26539421 12.00000000 3.00000000
v 20.27097511 12.00000000 4.00000000
v 20.26997948 12.00000000 5.00000000
v 20.26739502 12.00000000 6.00000000
v 20.26913452 12.00000000 7.00000000
v 20.26883698 12.00000000 8.00000000
v 20.27064514 12.00000000 9.00000000
v 20.26949692 12.00000000 10.00000000
v 20.27211952 12.00000000 11.00000000
v 20.27099991 12.00000000 12.00000000
v 20.26926231 12.00000000 13.00000000
v 20.26964378 12.00000000 14.00000000
v 20.27396584 12.00000000 15.00000000
v 20.27203751 12.00000000 16.00000000
v 20.27138138 12.00000000 17.00000000
v 20.23469734 12.00000000 18.00000000
v 20.12697220 13.00000000 18.00000000
v 20.12268257 14.00000000 18.00000000
v 20.11982536 16.00000000 18.00000000
v 20.12074471 17.00000000 18.00000000
v 20.11888885 18.00000000 18.00000000
v 20.06111717 19.00000000 3.00000000
v 20.06743431 19.00000000 10.00000000
v 20.07309341 19.00000000 13.00000000
v 20.07086754 19.00000000 15.00000000
v 20.07118225 19.00000000 17.00000000
v 20.11740112 19.00000000 18.00000000
v 20.06788445 20.00000000 5.00000000
v 20.06553459 20.00000000 8.00000000
v 20.06488228 20.00000000 10.00000000
v 20.06542206 20.00000000 11.00000000
v 20.07526016 20.00000000 14.00000000
v 20.06988716 20.00000000 16.00000000
v 20.06657410 20.00000000 17.00000000
v 20.07033920 21.00000000 2.00000000
v 20.06545448 21.00000000 9.00000000
v 20.07018280 21.00000000 11.00000000
v 20.07253838 21.00000000 15.00000000
v 20.09091949 21.00000000 18.00000000
f 3 2 1
f 5 4 1
f 5 1 2
f 7 6 4
f 7 4 5
f 9 8 6
f 9 6 7
f 11 10 8
f 11 8 9
f 13 12 10
f 13 10 11
f 15 14 12
f 15 12 13
f 17 16 14
f 17 14 15
f 19 18 16
f 19 16 17
f 21 20 18
f 21 18 19
f 23 22 20
f 23 20 21
f 25 24 22
f 25 22 23
f 27 26 24
f 27 24 25
f 29 28 26
f 29 26 27
f 31 30 28
f 31 28 29
f 33 32 30
f 33 30 31
f 35 34 32
f 35 32 33
f 37 36 34
f 37 34 35
f 38 36 37
f 3 1 39
f 3 39 40
f 41 1 4
f 39 1 41
f 42 4 6
f 41 4 42
f 43 6 8
f 42 6 43
f 44 8 10
f 43 8 44
f 45 10 12
f 44 10 45
f 46 12 14
f 45 12 46
f 47 14 16
f 46 14 47
f 48 16 18
f 47 16 48
f 49 18 20
f 48 18 49
f 50 20 22
f 49 20 50
f 51 22 24
f 50 22 51
f 52 24 26
f 51 24 52
f 53 26 28
f 52 26 53
f 54 28 30
f 53 28 54
f 55 30 32
f 54 30 55
f 56 32 34
f 55 32 56
f 57 34 36
f 56 34 57
f 36 38 58
f 36 58 57
f 59 40 39
f 59 39 41
f 59 41 60
f 60 41 42
f 60 42 61
f 61 42 43
f 61 43 62
f 62 43 44
f 62 44 63
f 63 44 45
f 63 45 64
f 64 45 46
f 64 46 65
f 65 46 47
f 65 47 66
f 66 47 48
f 66 48 67
f 67 48 49
f 67 49 68
f 68 49 50
f 68 50 69
f 69 50 51
f 69 51 70
f 70 51 52
f 70 52 71
f 71 52 53
f 71 53 72
f 72 53 54
f 72 54 73
f 73 54 55
f 73 55 74
f 74 55 56
f 74 56 75
f 77 76 75
f 56 77 75
f 57 77 56
f 57 58 78
f 57 78 77
f 76 77 79
f 76 79 80
f 77 78 81
f 77 81 79
f 80 79 82
f 80 82 83
f 79 81 84
f 79 84 82
f 83 82 85
f 83 85 86
f 82 84 87
f 82 87 85
f 86 85 88
f 86 88 89
f 85 87 90
f 85 90 88
f 89 88 91
f 89 91 92
f 88 90 93
f 88 93 91
f 96 95 94
f 98 97 94
f 98 94 95
f 100 99 97
f 100 97 98
f 102 101 99
f 102 99 100
f 104 103 101
f 104 101 102
f 106 105 103
f 106 103 104
f 108 107 105
f 108 105 106
f 110 109 107
f 110 107 108
f 112 111 109
f 112 109 110
f 114 113 111
f 114 111 112
f 116 115 113
f 116 113 114
f 118 117 115
f 118 115 116
f 120 119 117
f 120 117 118
f 122 121 119
f 122 119 120
f 124 123 121
f 124 121 122
f 126 125 123
f 126 123 124
f 128 127 125
f 128 125 126
f 127 128 92
f 91 127 92
f 129 127 91
f 91 93 130
f 91 130 129
f 96 94 131
f 96 131 132
f 133 94 97
f 131 94 133
f 134 97 99
f 133 97 134
f 135 99 101
f 134 99 135
f 136 101 103
f 135 101 136
f 137 103 105
f 136 103 137
f 138 105 107
f 137 105 138
f 139 107 109
f 138 107 139
f 140 109 111
f 139 109 140
f 141 111 113
f 140 111 141
f 142 113 115
f 141 113 142
f 143 115 117
f 142 115 143
f 144 117 119
f 143 117 144
f 145 119 121
f 144 119 145
f 146 121 123
f 145 121 146
f 147 123 125
f 146 123 147
f 148 125 127
f 147 125 148
f 149 127 129
f 148 127 149
f 129 130 150
f 129 150 149
f 151 132 131
f 151 131 133
f 151 133 152
f 152 133 134
f 152 134 153
f 153 134 135
f 153 135 154
f 154 135 136
f 154 136 155
f 155 136 137
f 155 137 156
f 156 137 138
f 156 138 157
f 157 138 139
f 157 139 158
f 158 139 140
f 158 140 159
f 159 140 141
f 159 141 160
f 160 141 142
f 160 142 161
f 161 142 143
f 161 143 162
f 162 143 144
f 162 144 163
f 163 144 145
f 163 145 164
f 164 145 146
f 164 146 165
f 165 146 147
f 165 147 166
f 166 147 148
f 166 148 167
f 167 148 149
f 167 149 168
f 168 149 150
f 170 169 2
f 170 2 3
f 2 171 5
f 169 171 2
f 5 172 7
f 171 172 5
f 7 173 9
f 172 173 7
f 9 174 11
f 173 174 9
f 11 175 13
f 174 175 11
f 13 176 15
f 175 176 13
f 15 177 17
f 176 177 15
f 17 178 19
f 177 178 17
f 19 179 21
f 178 179 19
f 21 180 23
f 179 180 21
f 23 181 25
f 180 181 23
f 25 182 27
f 181 182 25
f 27 183 29
f 182 183 27
f 29 184 31
f 183 184 29
f 31 185 33
f 184 185 31
f 33 186 35
f 185 186 33
f 35 187 37
f 186 187 35
f 38 37 187
f 38 187 188
f 40 170 3
f 40 189 170
f 188 58 38
f 190 58 188
f 191 189 40
f 191 40 59
f 192 59 60
f 192 191 59
f 193 60 61
f 193 192 60
f 194 61 62
f 194 193 61
f 195 62 63
f 195 194 62
f 196 63 64
f 196 195 63
f 197 64 65
f 197 196 64
f 198 65 66
f 198 197 65
f 199 66 67
f 199 198 66
f 200 67 68
f 200 199 67
f 201 68 69
f 201 200 68
f 202 69 70
f 202 201 69
f 203 70 71
f 203 202 70
f 204 71 72
f 204 203 71
f 205 72 73
f 205 204 72
f 206 73 74
f 206 205 73
f 207 74 75
f 207 206 74
f 75 76 207
f 207 76 208
f 190 78 58
f 209 78 190
f 80 208 76
f 80 210 208
f 209 81 78
f 211 81 209
f 83 210 80
f 83 212 210
f 211 84 81
f 213 84 211
f 86 212 83
f 86 214 212
f 213 87 84
f 215 87 213
f 89 214 86
f 89 216 214
f 215 90 87
f 217 90 215
f 92 216 89
f 92 218 216
f 217 93 90
f 219 93 217
f 221 220 95
f 221 95 96
f 95 222 98
f 220 222 95
f 98 223 100
f 222 223 98
f 100 224 102
f 223 224 100
f 102 225 104
f 224 225 102
f 104 226 106
f 225 226 104
f 106 227 108
f 226 227 106
f 108 228 110
f 227 228 108
f 110 229 112
f 228 229 110
f 112 230 114
f 229 230 112
f 114 231 116
f 230 231 114
f 116 232 118
f 231 232 116
f 118 233 120
f 232 233 118
f 120 234 122
f 233 234 120
f 122 235 124
f 234 235 122
f 124 236 126
f 235 236 124
f 126 237 128
f 236 237 126
f 92 128 218
f 218 128 237
f 219 130 93
f 238 130 219
f 132 221 96
f 132 239 221
f 238 150 130
f 240 150 238
f 241 239 132
f 241 132 151
f 242 151 152
f 242 241 151
f 243 152 153
f 243 242 152
f 244 153 154
f 244 243 153
f 245 154 155
f 245 244 154
f 246 155 156
f 246 245 155
f 247 156 157
f 247 246 156
f 248 157 158
f 248 247 157
f 249 158 159
f 249 248 158
f 250 159 160
f 250 249 159
f 251 160 161
f 251 250 160
f 252 161 162
f 252 251 161
f 253 162 163
f 253 252 162
f 254 163 164
f 254 253 163
f 255 164 165
f 255 254 164
f 256 165 166
f 256 255 165
f 257 166 167
f 257 256 166
f 258 167 168
f 258 257 167
f 168 150 240
f 168 240 258
f 260 259 169
f 260 169 170
f 169 261 171
f 259 261 169
f 171 262 172
f 261 262 171
f 172 263 173
f 262 263 172
f 173 264 174
f 263 264 173
f 174 265 175
f 264 265 174
f 175 266 176
f 265 266 175
f 176 267 177
f 266 267 176
f 177 268 178
f 267 268 177
f 178 269 179
f 268 269 178
f 179 270 180
f 269 270 179
f 180 271 181
f 270 271 180
f 181 272 182
f 271 272 181
f 182 273 183
f 272 273 182
f 183 274 184
f 273 274 183
f 184 275 185
f 274 275 184
f 185 276 186
f 275 276 185
f 186 277 187
f 276 277 186
f 188 187 277
f 188 277 278
f 189 260 170
f 189 279 260
f 278 190 188
f 280 190 278
f 281 279 189
f 281 189 191
f 282 191 192
f 282 281 191
f 283 192 193
f 283 282 192
f 284 193 194
f 284 283 193
f 285 194 195
f 285 284 194
f 286 195 196
f 286 285 195
f 287 196 197
f 287 286 196
f 288 197 198
f 288 287 197
f 289 198 199
f 289 288 198
f 290 199 200
f 290 289 199
f 291 200 201
f 291 290 200
f 292 201 202
f 292 291 201
f 293 202 203
f 293 292 202
f 294 203 204
f 294 293 203
f 295 204 205
f 295 294 204
f 296 205 206
f 296 295 205
f 297 206 207
f 297 296 206
f 207 208 297
f 297 208 298
f 280 209 190
f 299 209 280
f 210 298 208
f 210 300 298
f 299 211 209
f 301 211 299
f 212 300 210
f 212 302 300
f 301 213 211
f 303 213 301
f 214 302 212
f 214 304 302
f 303 215 213
f 305 215 303
f 216 304 214
f 216 306 304
f 305 217 215
f 307 217 305
f 218 306 216
f 218 308 306
f 307 219 217
f 309 219 307
f 311 310 220
f 311 220 221
f 220 312 222
f 310 312 220
f 222 313 223
f 312 313 222
f 223 314 224
f 313 314 223
f 224 315 225
f 314 315 224
f 225 316 226
f 315 316 225
f 226 317 227
f 316 317 226
f 227 318 228
f 317 318 227
f 228 319 229
f 318 319 228
f 229 320 230
f 319 320 229
f 230 321 231
f 320 321 230
f 231 322 232
f 321 322 231
f 232 323 233
f 322 323 232
f 233 324 234
f 323 324 233
f 234 325 235
f 324 325 234
f 235 326 236
f 325 326 235
f 236 327 237
f 326 327 236
f 218 328 308
f 328 218 329
f 237 329 218
f 329 237 330
f 327 330 237
f 309 328 329
f 238 309 329
f 219 309 238
f 239 311 221
f 239 331 311
f 330 332 329
f 238 329 332
f 333 238 332
f 240 238 333
f 334 331 239
f 334 239 241
f 335 241 242
f 335 334 241
f 336 242 243
f 336 335 242
f 337 243 244
f 337 336 243
f 338 244 245
f 338 337 244
f 339 245 246
f 339 338 245
f 340 246 247
f 340 339 246
f 341 247 248
f 341 340 247
f 342 248 249
f 342 341 248
f 343 249 250
f 343 342 249
f 344 250 251
f 344 343 250
f 345 251 252
f 345 344 251
f 346 252 253
f 346 345 252
f 347 253 254
f 347 346 253
f 348 254 255
f 348 347 254
f 349 255 256
f 349 348 255
f 350 256 257
f 350 349 256
f 351 257 258
f 351 350 257
f 258 240 333
f 258 333 351
f 260 352 259
f 353 261 259
f 353 259 352
f 354 262 261
f 354 261 353
f 355 263 262
f 355 262 354
f 356 264 263
f 356 263 355
f 357 265 264
f 357 264 356
f 358 266 265
f 358 265 357
f 359 267 266
f 359 266 358
f 360 268 267
f 360 267 359
f 361 269 268
f 361 268 360
f 362 270 269
f 362 269 361
f 363 271 270
f 363 270 362
f 364 272 271
f 364 271 363
f 365 273 272
f 365 272 364
f 366 274 273
f 366 273 365
f 367 275 274
f 367 274 366
f 368 276 275
f 368 275 367
f 276 368 369
f 370 276 369
f 277 276 370
f 278 277 370
f 278 370 371
f 279 372 352
f 279 352 260
f 352 373 353
f 352 372 373
f 353 374 354
f 353 373 374
f 354 375 355
f 354 374 375
f 355 376 356
f 355 375 376
f 356 377 357
f 356 376 377
f 357 378 358
f 357 377 378
f 358 379 359
f 358 378 379
f 359 380 360
f 359 379 380
f 360 381 361
f 360 380 381
f 361 382 362
f 361 381 382
f 362 383 363
f 362 382 383
f 363 384 364
f 363 383 384
f 364 385 365
f 364 384 385
f 365 386 366
f 365 385 386
f 366 387 367
f 366 386 387
f 367 388 368
f 367 387 388
f 369 368 389
f 389 368 388
f 371 280 278
f 390 280 371
f 281 372 279
f 372 281 282
f 372 282 373
f 373 282 283
f 373 283 374
f 374 283 284
f 374 284 375
f 375 284 285
f 375 285 376
f 376 285 286
f 376 286 377
f 377 286 287
f 377 287 378
f 378 287 288
f 378 288 379
f 379 288 289
f 379 289 380
f 380 289 290
f 380 290 381
f 381 290 291
f 381 291 382
f 382 291 292
f 382 292 383
f 383 292 293
f 383 293 384
f 384 293 294
f 384 294 385
f 385 294 295
f 385 295 386
f 386 295 296
f 386 296 387
f 387 296 297
f 387 297 388
f 297 298 388
f 298 389 388
f 298 391 389
f 390 299 280
f 392 299 390
f 300 391 298
f 300 393 391
f 392 301 299
f 394 301 392
f 302 393 300
f 302 395 393
f 394 303 301
f 396 303 394
f 304 395 302
f 304 397 395
f 396 305 303
f 398 305 396
f 306 397 304
f 306 399 397
f 398 307 305
f 400 307 398
f 308 399 306
f 308 401 399
f 400 309 307
f 402 309 400
f 311 403 310
f 404 312 310
f 404 310 403
f 405 313 312
f 405 312 404
f 406 314 313
f 406 313 405
f 407 315 314
f 407 314 406
f 408 316 315
f 408 315 407
f 409 317 316
f 409 316 408
f 410 318 317
f 410 317 409
f 411 319 318
f 411 318 410
f 412 320 319
f 412 319 411
f 413 321 320
f 413 320 412
f 414 322 321
f 414 321 413
f 415 323 322
f 415 322 414
f 416 324 323
f 416 323 415
f 417 325 324
f 417 324 416
f 418 326 325
f 418 325 417
f 419 327 326
f 419 326 418
f 330 327 419
f 328 420 308
f 421 308 420
f 308 421 401
f 422 420 328
f 309 422 328
f 402 422 309
f 331 423 403
f 331 403 311
f 403 424 404
f 403 423 424
f 404 425 405
f 404 424 425
f 405 426 406
f 405 425 426
f 406 427 407
f 406 426 427
f 407 428 408
f 407 427 428
f 408 429 409
f 408 428 429
f 409 430 410
f 409 429 430
f 410 431 411
f 410 430 431
f 411 432 412
f 411 431 432
f 412 433 413
f 412 432 433
f 413 434 414
f 413 433 434
f 414 435 415
f 414 434 435
f 415 436 416
f 415 435 436
f 416 437 417
f 416 436 437
f 417 438 418
f 417 437 438
f 418 439 419
f 418 438 439
f 421 420 440
f 332 440 420
f 440 332 439
f 330 439 332
f 439 330 419
f 333 332 420
f 422 333 420
f 441 333 422
f 334 423 331
f 423 334 335
f 423 335 424
f 424 335 336
f 424 336 425
f 425 336 337
f 425 337 426
f 426 337 338
f 426 338 427
f 427 338 339
f 427 339 428
f 428 339 340
f 428 340 429
f 429 340 341
f 429 341 430
f 430 341 342
f 430 342 431
f 431 342 343
f 431 343 432
f 432 343 344
f 432 344 433
f 433 344 345
f 433 345 434
f 434 345 346
f 434 346 435
f 435 346 347
f 435 347 436
f 436 347 348
f 436 348 437
f 437 348 349
f 437 349 438
f 438 349 350
f 438 350 439
f 442 440 439
f 350 442 439
f 351 442 350
f 351 333 441
f 351 441 442
f 444 443 370
f 444 370 369
f 371 370 443
f 371 443 445
f 389 444 369
f 389 446 444
f 445 390 371
f 447 390 445
f 391 446 389
f 391 448 446
f 447 392 390
f 449 392 447
f 393 448 391
f 393 450 448
f 449 394 392
f 451 394 449
f 395 450 393
f 395 452 450
f 451 396 394
f 453 396 451
f 397 452 395
f 397 454 452
f 453 398 396
f 455 398 453
f 399 454 397
f 399 456 454
f 455 400 398
f 457 400 455
f 401 456 399
f 401 458 456
f 457 402 400
f 459 402 457
f 421 458 401
f 421 460 458
f 459 422 402
f 461 422 459
f 440 460 421
f 440 462 460
f 461 441 422
f 463 441 461
f 464 462 440
f 464 440 442
f 442 441 463
f 442 463 464
f 466 465 443
f 466 443 444
f 445 443 465
f 445 465 467
f 446 466 444
f 446 468 466
f 467 447 445
f 469 447 467
f 448 468 446
f 448 470 468
f 469 449 447
f 471 449 469
f 450 470 448
f 450 472 470
f 471 451 449
f 473 451 471
f 452 472 450
f 452 474 472
f 473 453 451
f 475 453 473
f 454 474 452
f 454 476 474
f 475 455 453
f 477 455 475
f 456 476 454
f 456 478 476
f 477 457 455
f 479 457 477
f 458 478 456
f 458 480 478
f 479 459 457
f 481 459 479
f 460 480 458
f 460 482 480
f 481 461 459
f 483 461 481
f 462 482 460
f 462 484 482
f 483 463 461
f 485 463 483
f 486 484 462
f 486 462 464
f 464 463 485
f 464 485 486
f 488 487 465
f 488 465 466
f 467 465 487
f 467 487 489
f 468 488 466
f 468 490 488
f 489 469 467
f 491 469 489
f 470 490 468
f 470 492 490
f 491 471 469
f 493 471 491
f 472 492 470
f 472 494 492
f 493 473 471
f 495 473 493
f 474 494 472
f 474 496 494
f 495 475 473
f 497 475 495
f 476 496 474
f 476 498 496
f 497 477 475
f 499 477 497
f 478 498 476
f 478 500 498
f 499 479 477
f 501 479 499
f 480 500 478
f 480 502 500
f 501 481 479
f 503 481 501
f 482 502 480
f 482 504 502
f 503 483 481
f 505 483 503
f 484 504 482
f 484 506 504
f 505 485 483
f 507 485 505
f 508 506 484
f 508 484 486
f 486 485 507
f 486 507 508
f 510 509 487
f 510 487 488
f 489 487 509
f 489 509 511
f 490 510 488
f 490 512 510
f 511 491 489
f 513 491 511
f 492 512 490
f 492 514 512
f 513 493 491
f 515 493 513
f 494 514 492
f 494 516 514
f 515 495 493
f 517 495 515
f 496 516 494
f 496 518 516
f 517 497 495
f 519 497 517
f 498 518 496
f 498 520 518
f 519 499 497
f 521 499 519
f 500 520 498
f 500 522 520
f 521 501 499
f 523 501 521
f 502 522 500
f 502 524 522
f 523 503 501
f 525 503 523
f 528 527 526
f 530 529 526
f 530 526 527
f 532 531 529
f 532 529 530
f 534 533 531
f 534 531 532
f 536 535 533
f 536 533 534
f 538 537 535
f 538 535 536
f 540 539 537
f 540 537 538
f 542 541 539
f 542 539 540
f 544 543 541
f 544 541 542
f 546 545 543
f 546 543 544
f 548 547 545
f 548 545 546
f 550 549 547
f 550 547 548
f 552 551 549
f 552 549 550
f 554 553 551
f 554 551 552
f 556 555 553
f 556 553 554
f 558 557 555
f 558 555 556
f 560 559 557
f 560 557 558
f 560 524 559
f 524 504 559
f 524 502 504
f 525 505 503
f 561 505 525
f 528 526 562
f 528 562 563
f 564 526 529
f 562 526 564
f 565 529 531
f 564 529 565
f 566 531 533
f 565 531 566
f 567 533 535
f 566 533 567
f 568 535 537
f 567 535 568
f 569 537 539
f 568 537 569
f 570 539 541
f 569 539 570
f 571 541 543
f 570 541 571
f 572 543 545
f 571 543 572
f 573 545 547
f 572 545 573
f 574 547 549
f 573 547 574
f 575 549 551
f 574 549 575
f 576 551 553
f 575 551 576
f 577 553 555
f 576 553 577
f 578 555 557
f 577 555 578
f 579 557 559
f 578 557 579
f 506 579 504
f 504 579 559
f 561 507 505
f 580 507 561
f 563 562 581
f 563 581 582
f 583 562 564
f 581 562 583
f 584 564 565
f 583 564 584
f 585 565 566
f 584 565 585
f 586 566 567
f 585 566 586
f 587 567 568
f 586 567 587
f 588 568 569
f 587 568 588
f 589 569 570
f 588 569 589
f 590 570 571
f 589 570 590
f 591 571 572
f 590 571 591
f 592 572 573
f 591 572 592
f 593 573 574
f 592 573 593
f 594 574 575
f 593 574 594
f 595 575 576
f 594 575 595
f 596 576 577
f 595 576 596
f 597 577 578
f 596 577 597
f 598 578 579
f 597 578 598
f 508 599 506
f 599 579 506
f 599 598 579
f 600 599 508
f 507 600 508
f 580 600 507
f 601 582 581
f 601 581 583
f 601 583 602
f 602 583 584
f 602 584 603
f 603 584 585
f 603 585 604
f 604 585 586
f 604 586 605
f 605 586 587
f 605 587 606
f 606 587 588
f 606 588 607
f 607 588 589
f 607 589 608
f 608 589 590
f 608 590 609
f 609 590 591
f 609 591 610
f 610 591 592
f 610 592 611
f 611 592 593
f 611 593 612
f 612 593 594
f 612 594 613
f 613 594 595
f 613 595 614
f 614 595 596
f 614 596 615
f 615 596 597
f 615 597 616
f 616 597 598
f 616 598 617
f 617 598 599
f 617 599 618
f 618 599 600
f 621 620 619
f 623 622 619
f 623 619 620
f 625 624 622
f 625 622 623
f 627 626 624
f 627 624 625
f 629 628 626
f 629 626 627
f 631 630 628
f 631 628 629
f 633 632 630
f 633 630 631
f 635 634 632
f 635 632 633
f 637 636 634
f 637 634 635
f 639 638 636
f 639 636 637
f 641 640 638
f 641 638 639
f 643 642 640
f 643 640 641
f 645 644 642
f 645 642 643
f 647 646 644
f 647 644 645
f 649 648 646
f 649 646 647
f 651 650 648
f 651 648 649
f 653 652 650
f 653 650 651
f 509 510 652
f 653 509 652
f 654 509 653
f 511 509 654
f 511 654 655
f 621 619 656
f 621 656 657
f 658 619 622
f 656 619 658
f 659 622 624
f 658 622 659
f 660 624 626
f 659 624 660
f 661 626 628
f 660 626 661
f 662 628 630
f 661 628 662
f 663 630 632
f 662 630 663
f 664 632 634
f 663 632 664
f 665 634 636
f 664 634 665
f 666 636 638
f 665 636 666
f 667 638 640
f 666 638 667
f 668 640 642
f 667 640 668
f 669 642 644
f 668 642 669
f 670 644 646
f 669 644 670
f 671 646 648
f 670 646 671
f 672 648 650
f 671 648 672
f 673 650 652
f 672 650 673
f 512 673 510
f 510 673 652
f 655 513 511
f 674 513 655
f 675 657 656
f 675 656 658
f 675 658 676
f 676 658 659
f 676 659 677
f 677 659 660
f 677 660 678
f 678 660 661
f 678 661 679
f 679 661 662
f 679 662 680
f 680 662 663
f 680 663 681
f 681 663 664
f 681 664 682
f 682 664 665
f 682 665 683
f 683 665 666
f 683 666 684
f 684 666 667
f 684 667 685
f 685 667 668
f 685 668 686
f 686 668 669
f 686 669 687
f 687 669 670
f 687 670 688
f 688 670 671
f 688 671 689
f 689 671 672
f 689 672 690
f 690 672 673
f 690 673 691
f 673 512 691
f 512 692 691
f 512 514 692
f 674 515 513
f 693 515 674
f 516 692 514
f 516 694 692
f 693 517 515
f 695 517 693
f 518 694 516
f 518 696 694
f 695 519 517
f 697 519 695
f 520 696 518
f 520 698 696
f 697 521 519
f 699 521 697
f 522 698 520
f 522 700 698
f 699 523 521
f 701 523 699
f 524 700 522
f 524 702 700
f 701 525 523
f 703 525 701
f 705 704 527
f 705 527 528
f 527 706 530
f 704 706 527
f 530 707 532
f 706 707 530
f 532 708 534
f 707 708 532
f 534 709 536
f 708 709 534
f 536 710 538
f 709 710 536
f 538 711 540
f 710 711 538
f 540 712 542
f 711 712 540
f 542 713 544
f 712 713 542
f 544 714 546
f 713 714 544
f 546 715 548
f 714 715 546
f 548 716 550
f 715 716 548
f 550 717 552
f 716 717 550
f 552 718 554
f 717 718 552
f 554 719 556
f 718 719 554
f 556 720 558
f 719 720 556
f 558 721 560
f 720 721 558
f 524 560 702
f 702 560 721
f 703 561 525
f 722 561 703
f 563 705 528
f 563 723 705
f 722 580 561
f 724 580 722
f 582 723 563
f 582 725 723
f 724 600 580
f 726 600 724
f 727 725 582
f 727 582 601
f 728 601 602
f 728 727 601
f 729 602 603
f 729 728 602
f 730 603 604
f 730 729 603
f 731 604 605
f 731 730 604
f 732 605 606
f 732 731 605
f 733 606 607
f 733 732 606
f 734 607 608
f 734 733 607
f 735 608 609
f 735 734 608
f 736 609 610
f 736 735 609
f 737 610 611
f 737 736 610
f 738 611 612
f 738 737 611
f 739 612 613
f 739 738 612
f 740 613 614
f 740 739 613
f 741 614 615
f 741 740 614
f 742 615 616
f 742 741 615
f 743 616 617
f 743 742 616
f 744 617 618
f 744 743 617
f 618 600 726
f 618 726 744
f 746 745 620
f 746 620 621
f 620 747 623
f 745 747 620
f 623 748 625
f 747 748 623
f 625 749 627
f 748 749 625
f 627 750 629
f 749 750 627
f 629 751 631
f 750 751 629
f 631 752 633
f 751 752 631
f 633 753 635
f 752 753 633
f 635 754 637
f 753 754 635
f 637 755 639
f 754 755 637
f 639 756 641
f 755 756 639
f 641 757 643
f 756 757 641
f 643 758 645
f 757 758 643
f 645 759 647
f 758 759 645
f 647 760 649
f 759 760 647
f 649 761 651
f 760 761 649
f 651 762 653
f 761 762 651
f 653 763 654
f 762 763 653
f 655 654 763
f 655 763 764
f 657 746 621
f 657 765 746
f 764 674 655
f 766 674 764
f 767 765 657
f 767 657 675
f 768 675 676
f 768 767 675
f 769 676 677
f 769 768 676
f 770 677 678
f 770 769 677
f 771 678 679
f 771 770 678
f 772 679 680
f 772 771 679
f 773 680 681
f 773 772 680
f 774 681 682
f 774 773 681
f 775 682 683
f 775 774 682
f 776 683 684
f 776 775 683
f 777 684 685
f 777 776 684
f 778 685 686
f 778 777 685
f 779 686 687
f 779 778 686
f 780 687 688
f 780 779 687
f 781 688 689
f 781 780 688
f 782 689 690
f 782 781 689
f 783 690 691
f 783 782 690
f 691 692 783
f 783 692 784
f 766 693 674
f 785 693 766
f 694 784 692
f 694 786 784
f 785 695 693
f 787 695 785
f 696 789 788
f 786 696 788
f 694 696 786
f 787 788 789
f 697 787 789
f 695 787 697
f 791 790 789
f 696 791 789
f 698 791 696
f 697 789 790
f 792 697 790
f 699 697 792
f 700 791 698
f 700 793 791
f 792 701 699
f 794 701 792
f 702 793 700
f 702 795 793
f 794 703 701
f 796 703 794
f 705 797 704
f 798 706 704
f 798 704 797
f 706 798 799
f 800 706 799
f 707 706 800
f 800 802 801
f 708 800 801
f 707 800 708
f 803 709 708
f 803 708 801
f 804 710 709
f 804 709 803
f 805 711 710
f 805 710 804
f 806 712 711
f 806 711 805
f 807 713 712
f 807 712 806
f 713 807 808
f 809 713 808
f 714 713 809
f 809 811 810
f 715 809 810
f 714 809 715
f 812 716 715
f 812 715 810
f 716 812 813
f 814 716 813
f 717 716 814
f 814 816 815
f 718 814 815
f 717 814 718
f 718 815 817
f 818 718 817
f 719 718 818
f 818 820 819
f 720 818 819
f 719 818 720
f 720 819 821
f 822 720 821
f 721 720 822
f 702 721 795
f 795 721 822
f 796 722 703
f 823 722 796
f 723 824 797
f 723 797 705
f 797 825 798
f 797 824 825
f 799 798 826
f 798 827 826
f 798 825 827
f 826 827 802
f 827 801 802
f 827 828 801
f 830 803 829
f 803 828 829
f 803 801 828
f 832 831 830
f 831 803 830
f 831 804 803
f 804 833 805
f 804 831 833
f 835 806 834
f 806 833 834
f 806 805 833
f 837 836 835
f 836 806 835
f 836 807 806
f 808 807 838
f 838 807 836
f 811 839 810
f 841 840 839
f 840 810 839
f 840 812 810
f 813 812 842
f 812 843 842
f 812 840 843
f 845 844 843
f 844 815 843
f 816 842 843
f 816 843 815
f 848 847 846
f 815 844 817
f 849 819 820
f 847 850 846
f 819 849 821
f 853 852 851
f 823 853 851
f 724 823 851
f 722 823 724
f 725 854 824
f 725 824 723
f 856 825 855
f 825 854 855
f 825 824 854
f 858 857 856
f 857 825 856
f 857 827 825
f 827 859 828
f 827 857 859
f 829 828 860
f 828 861 860
f 828 859 861
f 860 861 832
f 861 831 832
f 861 862 831
f 831 863 833
f 831 862 863
f 834 833 864
f 833 865 864
f 833 863 865
f 867 866 865
f 866 836 865
f 837 864 865
f 837 865 836
f 866 868 836
f 868 869 836
f 870 838 836
f 870 836 869
f 869 871 870
f 840 841 872
f 872 841 873
f 840 874 843
f 840 872 874
f 845 843 875
f 843 876 875
f 843 874 876
f 877 847 848
f 876 878 875
f 881 880 879
f 847 877 850
f 883 882 880
f 880 882 879
f 885 884 883
f 884 851 883
f 852 882 883
f 852 883 851
f 724 851 884
f 886 724 884
f 726 724 886
f 727 854 725
f 887 855 854
f 727 887 854
f 728 887 727
f 729 857 858
f 887 729 858
f 728 729 887
f 857 729 730
f 857 730 859
f 859 730 731
f 859 731 861
f 861 731 732
f 861 732 862
f 862 732 733
f 862 733 863
f 863 733 734
f 863 734 865
f 888 867 865
f 734 888 865
f 735 888 734
f 736 869 868
f 888 736 868
f 735 736 888
f 889 871 869
f 736 889 869
f 737 889 736
f 738 872 873
f 889 738 873
f 737 738 889
f 872 738 739
f 872 739 874
f 874 739 740
f 874 740 876
f 890 878 876
f 740 890 876
f 741 890 740
f 742 880 881
f 890 742 881
f 741 742 890
f 880 742 743
f 880 743 883
f 891 885 883
f 743 891 883
f 744 891 743
f 744 726 886
f 744 886 891
f 746 892 745
f 893 747 745
f 893 745 892
f 894 748 747
f 894 747 893
f 895 749 748
f 895 748 894
f 896 750 749
f 896 749 895
f 897 751 750
f 897 750 896
f 898 752 751
f 898 751 897
f 899 753 752
f 899 752 898
f 900 754 753
f 900 753 899
f 901 755 754
f 901 754 900
f 902 756 755
f 902 755 901
f 903 757 756
f 903 756 902
f 904 758 757
f 904 757 903
f 905 759 758
f 905 758 904
f 906 760 759
f 906 759 905
f 907 761 760
f 907 760 906
f 908 762 761
f 908 761 907
f 909 763 762
f 909 762 908
f 909 764 763
f 765 910 892
f 765 892 746
f 892 911 893
f 892 910 911
f 893 912 894
f 893 911 912
f 894 913 895
f 894 912 913
f 895 914 896
f 895 913 914
f 896 915 897
f 896 914 915
f 897 916 898
f 897 915 916
f 898 917 899
f 898 916 917
f 899 918 900
f 899 917 918
f 900 919 901
f 900 918 919
f 901 920 902
f 901 919 920
f 902 921 903
f 902 920 921
f 903 922 904
f 903 921 922
f 904 923 905
f 904 922 923
f 905 924 906
f 905 923 924
f 906 925 907
f 906 924 925
f 907 926 908
f 907 925 926
f 908 927 909
f 908 926 927
f 927 766 764
f 927 764 909
f 767 910 765
f 910 767 768
f 910 768 911
f 911 768 769
f 911 769 912
f 912 769 770
f 912 770 913
f 913 770 771
f 913 771 914
f 914 771 772
f 914 772 915
f 915 772 773
f 915 773 916
f 916 773 774
f 916 774 917
f 917 774 775
f 917 775 918
f 918 775 776
f 918 776 919
f 919 776 777
f 919 777 920
f 920 777 778
f 920 778 921
f 921 778 779
f 921 779 922
f 922 779 780
f 922 780 923
f 923 780 781
f 923 781 924
f 924 781 782
f 924 782 925
f 925 782 783
f 925 783 926
f 926 783 784
f 928 926 784
f 927 926 928
f 928 785 766
f 928 766 927
f 786 929 928
f 786 928 784
f 929 787 785
f 929 785 928
f 788 929 786
f 929 788 787
f 791 930 790
f 930 792 790
f 793 931 930
f 793 930 791
f 931 794 792
f 931 792 930
f 795 932 931
f 795 931 793
f 932 796 794
f 932 794 931
f 799 933 800
f 933 802 800
f 808 934 809
f 934 811 809
f 813 935 814
f 935 816 814
f 817 936 818
f 936 820 818
f 821 937 822
f 932 795 822
f 937 932 822
f 938 932 937
f 938 823 796
f 938 796 932
f 826 933 799
f 933 826 802
f 829 939 830
f 939 832 830
f 834 940 835
f 940 837 835
f 838 941 934
f 838 934 808
f 942 839 811
f 934 942 811
f 941 942 934
f 942 841 839
f 842 935 813
f 816 935 842
f 844 845 943
f 943 817 844
f 943 936 817
f 943 848 846
f 936 943 846
f 944 846 850
f 944 936 846
f 944 849 820
f 936 944 820
f 937 821 849
f 944 937 849
f 945 937 944
f 945 852 853
f 938 945 853
f 937 945 938
f 938 853 823
f 855 946 856
f 946 858 856
f 860 939 829
f 939 860 832
f 864 940 834
f 837 940 864
f 866 867 947
f 870 941 838
f 868 866 947
f 941 870 871
f 948 941 871
f 942 941 948
f 948 873 841
f 948 841 942
f 875 943 845
f 949 875 878
f 949 943 875
f 949 877 848
f 943 949 848
f 949 850 877
f 949 944 850
f 949 881 879
f 944 949 879
f 944 879 882
f 944 882 945
f 852 945 882
f 884 885 950
f 950 886 884
f 887 946 855
f 946 887 858
f 888 947 867
f 947 888 868
f 889 948 871
f 948 889 873
f 890 949 878
f 949 890 881
f 891 950 885
f 950 891 886

