# https://github.com/mikedh/trimesh
v 6.82357645 14.00000000 30.00000000
v 7.00000000 13.08847618 30.00000000
v 7.00000000 14.00000000 29.79598427
v 7.00000000 14.00000000 30.65431786
v 6.75198412 15.00000000 30.00000000
v 7.00000000 15.00000000 29.72103310
v 7.00000000 15.00000000 30.80789566
v 6.77506542 16.00000000 30.00000000
v 7.00000000 16.00000000 29.74972725
v 7.00000000 16.00000000 30.77980042
v 6.87999964 17.00000000 30.00000000
v 7.00000000 17.00000000 29.85354424
v 7.00000000 17.00000000 30.46529579
v 7.00000000 17.59525681 30.00000000
v 7.65600491 11.00000000 30.00000000
v 8.00000000 10.27675724 30.00000000
v 8.00000000 11.00000000 29.67355919
v 8.00000000 11.00000000 30.92217827
v 7.42247009 12.00000000 30.00000000
v 8.00000000 12.00000000 29.67363358
v 8.00000000 12.00000000 30.94412041
v 8.00000000 12.86192131 30.00000000
v 7.58115864 14.00000000 30.00000000
v 7.54580927 15.00000000 30.00000000
v 7.55156517 16.00000000 30.00000000
v 7.64626312 17.00000000 30.00000000
v 7.34733105 18.00000000 30.00000000
v 8.00000000 18.00000000 29.47205544
v 8.00000000 17.29991531 30.00000000
v 8.00000000 18.00000000 30.62928581
v 7.46059608 19.00000000 30.00000000
v 8.00000000 19.00000000 29.60279083
v 8.00000000 19.00000000 30.95293808
v 7.83942747 20.00000000 30.00000000
v 8.00000000 20.00000000 29.82705879
v 8.00000000 20.00000000 30.58285332
v 8.00000000 20.31404305 30.00000000
v 8.63850307 11.00000000 30.00000000
v 8.34261799 12.00000000 30.00000000
v 8.84050274 15.00000000 26.00000000
v 9.00000000 14.88711071 26.00000000
v 9.00000000 15.00000000 25.26542854
v 9.00000000 15.00000000 26.34737396
v 9.00000000 15.20188808 26.00000000
v 8.15681362 18.00000000 30.00000000
v 8.49089336 19.00000000 30.00000000
v 8.91903019 20.00000000 30.00000000
v 8.42991734 21.00000000 30.00000000
v 9.00000000 21.00000000 29.59937859
v 9.00000000 20.02952003 30.00000000
v 9.00000000 21.00000000 30.96948433
v 9.00000000 21.87504005 30.00000000
v 9.12935066 15.00000000 26.00000000
v 9.59663486 21.00000000 30.00000000
v 9.15031433 22.00000000 30.00000000
v 10.00000000 22.00000000 29.65486145
v 10.00000000 21.45578575 30.00000000
v 10.00000000 22.00000000 30.95739555
v 10.00000000 22.50836182 30.00000000
v 10.51222706 11.00000000 1.00000000
v 11.00000000 10.70278549 1.00000000
v 11.00000000 11.00000000 0.77640951
v 11.00000000 11.00000000 1.24847269
v 11.00000000 11.47424698 1.00000000
v 10.59278870 15.00000000 22.00000000
v 11.00000000 14.09628201 22.00000000
v 11.00000000 15.00000000 21.17636299
v 10.15893555 15.00000000 23.00000000
v 11.00000000 14.10142422 23.00000000
v 11.00000000 15.00000000 23.82072830
v 10.89816856 16.00000000 22.00000000
v 11.00000000 16.00000000 21.80735779
v 10.73202515 16.00000000 23.00000000
v 11.00000000 16.00000000 23.80461311
v 10.69263744 17.00000000 22.00000000
v 11.00000000 17.00000000 21.20209694
v 11.00000000 17.00000000 22.80665970
v 11.00000000 16.83437538 23.00000000
v 11.00000000 17.31925583 22.00000000
v 10.39444542 22.00000000 30.00000000
v 11.29372787 11.00000000 1.00000000
v 12.00000000 12.00000000 0.77437818
v 11.52459431 12.00000000 1.00000000
v 12.00000000 11.70530701 1.00000000
v 12.00000000 12.00000000 1.24753022
v 12.00000000 12.48902225 1.00000000
v 11.72546864 13.00000000 22.00000000
v 12.00000000 12.65168953 22.00000000
v 12.00000000 13.00000000 21.68740082
v 11.52796555 13.00000000 23.00000000
v 12.00000000 12.43013191 23.00000000
v 11.80445004 13.00000000 24.00000000
v 12.00000000 12.75390148 24.00000000
v 12.00000000 13.00000000 24.12900734
v 12.00000000 13.83123207 22.00000000
v 12.00000000 14.00000000 22.03299713
v 11.02647018 14.00000000 23.00000000
v 11.46525192 14.00000000 24.00000000
v 12.00000000 14.00000000 24.16370010
v 11.79988289 15.00000000 20.00000000
v 12.00000000 14.74875927 20.00000000
v 12.00000000 15.00000000 19.67359352
v 12.00000000 15.00000000 20.38921356
v 11.92081547 15.00000000 22.00000000
v 12.00000000 15.00000000 22.02540588
v 11.22884178 15.00000000 24.00000000
v 12.00000000 15.00000000 24.16596603
v 12.00000000 15.19500637 20.00000000
v 11.74918079 16.00000000 22.00000000
v 12.00000000 16.00000000 22.02784729
v 11.26634216 16.00000000 24.00000000
v 12.00000000 16.00000000 24.16024590
v 11.67773151 17.00000000 20.00000000
v 12.00000000 16.68923187 20.00000000
v 12.00000000 17.00000000 19.49274635
v 12.00000000 17.00000000 20.55673790
v 11.89108467 17.00000000 22.00000000
v 11.04842377 17.00000000 23.00000000
v 12.00000000 17.00000000 22.02529526
v 11.38399124 17.00000000 24.00000000
v 12.00000000 17.00000000 24.16123962
v 12.00000000 17.28482628 20.00000000
v 11.71242619 18.00000000 22.00000000
v 12.00000000 18.00000000 21.67049026
v 12.00000000 17.12434959 22.00000000
v 11.50127125 18.00000000 23.00000000
v 11.79102898 18.00000000 24.00000000
v 12.00000000 18.00000000 24.13457870
v 12.00000000 18.39599228 22.00000000
v 12.00000000 18.62640190 23.00000000
v 12.00000000 18.27916908 24.00000000
v 12.29610348 12.00000000 1.00000000
v 12.57501507 12.00000000 22.00000000
v 13.00000000 11.71240711 22.00000000
v 13.00000000 12.00000000 21.60804176
v 12.47829151 12.00000000 23.00000000
v 13.00000000 11.63338184 23.00000000
v 12.80343819 12.00000000 24.00000000
v 13.00000000 11.86976910 24.00000000
v 13.00000000 12.00000000 24.09914589
v 13.00000000 13.00000000 0.77599627
v 12.51103401 13.00000000 1.00000000
v 13.00000000 12.70394421 1.00000000
v 13.00000000 13.00000000 1.24821746
v 13.00000000 13.00000000 21.78081131
v 13.00000000 13.00000000 24.16271782
v 13.00000000 13.49232101 1.00000000
v 13.00000000 13.67356014 22.00000000
v 13.00000000 14.00000000 22.04612160
v 13.00000000 14.00000000 24.15799141
v 12.20308495 15.00000000 20.00000000
v 13.00000000 15.00000000 22.02864075
v 13.00000000 15.00000000 24.16428757
v 13.00000000 16.00000000 22.03135872
v 13.00000000 16.00000000 24.15994644
v 12.33378696 17.00000000 20.00000000
v 13.00000000 17.00000000 22.02654648
v 13.00000000 17.00000000 24.16133308
v 12.84647465 18.00000000 22.00000000
v 13.00000000 18.00000000 22.03016090
v 13.00000000 18.00000000 24.16093445
v 12.56978798 19.00000000 22.00000000
v 13.00000000 19.00000000 21.63456345
v 13.00000000 18.13605881 22.00000000
v 12.42211819 19.00000000 23.00000000
v 12.76520252 19.00000000 24.00000000
v 13.00000000 19.00000000 24.10832596
v 13.00000000 19.28079987 22.00000000
v 13.00000000 19.40426826 23.00000000
v 13.00000000 19.15424347 24.00000000
v 13.87108421 12.00000000 22.00000000
v 14.00000000 12.00000000 22.03990746
v 14.00000000 11.20791626 23.00000000
v 14.00000000 11.64786720 24.00000000
v 14.00000000 12.00000000 24.15985870
v 13.29489136 13.00000000 1.00000000
v 13.83771515 13.00000000 22.00000000
v 14.00000000 13.00000000 22.01896858
v 14.00000000 13.00000000 24.16296959
v 14.00000000 14.00000000 0.77568233
v 13.50780106 14.00000000 1.00000000
v 14.00000000 13.70521069 1.00000000
v 14.00000000 14.00000000 1.24670064
v 14.00000000 14.00000000 22.06648254
v 14.00000000 14.00000000 24.16314507
v 14.00000000 14.47933483 1.00000000
v 14.00000000 15.00000000 22.04330826
v 14.00000000 15.00000000 24.15871429
v 14.00000000 16.00000000 22.02973557
v 14.00000000 16.00000000 24.16354561
v 14.00000000 17.00000000 22.03078079
v 14.00000000 17.00000000 24.16223145
v 14.00000000 18.00000000 22.02280617
v 14.00000000 18.00000000 24.15893364
v 13.80462456 19.00000000 22.00000000
v 14.00000000 19.00000000 22.05706596
v 14.00000000 19.00000000 24.16154671
v 14.00000000 19.82267189 23.00000000
v 14.00000000 19.37552643 24.00000000
v 15.00000000 11.02737045 23.00000000
v 15.00000000 12.00000000 22.02527046
v 15.00000000 11.46870804 24.00000000
v 15.00000000 12.00000000 24.16456985
v 15.00000000 13.00000000 22.04167747
v 15.00000000 13.00000000 24.16237640
v 14.29218292 14.00000000 1.00000000
v 15.00000000 14.00000000 22.02613449
v 15.00000000 14.00000000 24.16107559
v 15.00000000 15.00000000 1.36422324
v 14.72462845 15.00000000 2.00000000
v 15.00000000 14.77901840 2.00000000
v 14.72254181 15.00000000 3.00000000
v 15.00000000 14.77722073 3.00000000
v 14.72254467 15.00000000 4.00000000
v 15.00000000 14.77714348 4.00000000
v 14.72246742 15.00000000 5.00000000
v 15.00000000 14.77672195 5.00000000
v 14.72063923 15.00000000 6.00000000
v 15.00000000 14.77432251 6.00000000
v 14.72418118 15.00000000 7.00000000
v 15.00000000 14.77731514 7.00000000
v 14.71886921 15.00000000 8.00000000
v 15.00000000 14.77402115 8.00000000
v 14.71838951 15.00000000 9.00000000
v 15.00000000 14.77307701 9.00000000
v 14.72257233 15.00000000 10.00000000
v 15.00000000 14.77650070 10.00000000
v 14.72144318 15.00000000 11.00000000
v 15.00000000 14.77548409 11.00000000
v 14.71956730 15.00000000 12.00000000
v 15.00000000 14.77379227 12.00000000
v 14.71817684 15.00000000 13.00000000
v 15.00000000 14.77205944 13.00000000
v 14.71866131 15.00000000 14.00000000
v 15.00000000 14.77294922 14.00000000
v 14.71752167 15.00000000 15.00000000
v 15.00000000 14.65855598 15.00000000
v 14.71773052 15.00000000 16.00000000
v 15.00000000 14.28778839 16.00000000
v 14.34798527 15.00000000 17.00000000
v 15.00000000 14.69645977 17.00000000
v 14.59809780 15.00000000 18.00000000
v 15.00000000 14.77428341 18.00000000
v 14.71985245 15.00000000 19.00000000
v 15.00000000 14.77391434 19.00000000
v 14.71810818 15.00000000 20.00000000
v 15.00000000 14.77221966 20.00000000
v 14.66886711 15.00000000 21.00000000
v 15.00000000 14.74786091 21.00000000
v 15.00000000 15.00000000 21.78006172
v 15.00000000 15.00000000 22.05930519
v 15.00000000 15.00000000 24.16141129
v 15.00000000 15.82957172 2.00000000
v 15.00000000 15.83172035 3.00000000
v 15.00000000 15.82633495 4.00000000
v 15.00000000 15.80939198 5.00000000
v 15.00000000 15.83633423 6.00000000
v 15.00000000 15.80317020 7.00000000
v 15.00000000 15.79402637 8.00000000
v 15.00000000 15.80637646 9.00000000
v 15.00000000 15.79639339 10.00000000
v 15.00000000 15.80702496 11.00000000
v 15.00000000 15.79209423 12.00000000
v 15.00000000 15.78548241 13.00000000
v 15.00000000 15.80357361 14.00000000
v 15.00000000 15.79486084 15.00000000
v 15.00000000 16.00000000 15.47549534
v 14.86509514 16.00000000 16.00000000
v 15.00000000 16.00000000 16.53729439
v 15.00000000 15.80255127 17.00000000
v 15.00000000 15.80612183 18.00000000
v 15.00000000 15.81578350 19.00000000
v 15.00000000 15.80349636 20.00000000
v 15.00000000 15.80409908 21.00000000
v 15.00000000 16.00000000 22.02401352
v 15.00000000 16.00000000 24.16064644
v 15.00000000 16.53922462 16.00000000
v 15.00000000 17.00000000 22.02542877
v 15.00000000 17.00000000 24.16097069
v 15.00000000 18.00000000 22.02357101
v 15.00000000 18.00000000 24.16301346
v 15.00000000 19.00000000 22.03462791
v 15.00000000 19.00000000 24.16170502
v 15.00000000 19.97640419 23.00000000
v 15.00000000 19.53986740 24.00000000
v 16.00000000 11.08727360 23.00000000
v 16.00000000 12.00000000 22.03067017
v 16.00000000 11.53529167 24.00000000
v 16.00000000 12.00000000 24.16236305
v 16.00000000 13.00000000 22.03025818
v 16.00000000 13.00000000 24.16082764
v 16.00000000 14.00000000 22.01754570
v 16.00000000 14.00000000 24.15798187
v 15.88051605 15.00000000 2.00000000
v 15.90645218 15.00000000 3.00000000
v 15.85371399 15.00000000 4.00000000
v 15.93078423 15.00000000 5.00000000
v 15.92247868 15.00000000 6.00000000
v 15.85761833 15.00000000 7.00000000
v 15.91310596 15.00000000 8.00000000
v 15.86102962 15.00000000 9.00000000
v 15.85977650 15.00000000 10.00000000
v 15.87399197 15.00000000 11.00000000
v 15.85708141 15.00000000 12.00000000
v 15.88620663 15.00000000 13.00000000
v 15.89268875 15.00000000 14.00000000
v 15.88092136 15.00000000 15.00000000
v 15.89366245 15.00000000 16.00000000
v 15.86268425 15.00000000 17.00000000
v 15.89572525 15.00000000 18.00000000
v 15.86516476 15.00000000 19.00000000
v 15.83473396 15.00000000 20.00000000
v 16.00000000 15.00000000 20.34045410
v 16.00000000 14.87100983 21.00000000
v 16.00000000 15.00000000 21.70972252
v 16.00000000 15.00000000 22.03417778
v 16.00000000 15.00000000 24.16125107
v 15.22690010 16.00000000 16.00000000
v 16.00000000 15.41493320 21.00000000
v 16.00000000 16.00000000 22.03908348
v 16.00000000 16.00000000 24.16319847
v 16.00000000 17.00000000 22.03861427
v 16.00000000 17.00000000 24.15801811
v 16.00000000 18.00000000 22.02126122
v 16.00000000 18.00000000 24.16594124
v 16.00000000 19.00000000 22.02157593
v 16.00000000 19.00000000 24.15781975
v 16.00000000 19.92733002 23.00000000
v 16.00000000 19.46835136 24.00000000
v 17.00000000 11.40123177 23.00000000
v 17.00000000 12.00000000 22.04926491
v 17.00000000 11.74307251 24.00000000
v 17.00000000 12.00000000 24.15848351
v 17.00000000 13.00000000 22.02270508
v 17.00000000 13.00000000 24.16136551
v 16.52818489 14.00000000 1.00000000
v 17.00000000 13.53350449 1.00000000
v 17.00000000 14.00000000 0.79793841
v 17.00000000 14.00000000 1.24667561
v 16.11919403 14.00000000 22.00000000
v 17.00000000 13.14934826 22.00000000
v 17.00000000 14.00000000 21.75007820
v 17.00000000 14.00000000 24.16054916
v 17.00000000 14.27650356 1.00000000
v 16.10061073 15.00000000 21.00000000
v 17.00000000 14.84300804 22.00000000
v 17.00000000 15.00000000 22.02403641
v 17.00000000 15.00000000 24.16208649
v 17.00000000 16.00000000 22.02723312
v 17.00000000 16.00000000 24.16147614
v 16.52251244 17.00000000 1.00000000
v 17.00000000 16.84910965 1.00000000
v 17.00000000 17.00000000 0.87681931
v 17.00000000 17.00000000 1.14303219
v 17.00000000 17.00000000 22.02719116
v 17.00000000 17.00000000 24.16268921
v 17.00000000 17.46919441 1.00000000
v 17.00000000 18.00000000 22.02104759
v 17.00000000 18.00000000 24.15765762
v 17.00000000 19.00000000 22.07872391
v 17.00000000 19.00000000 24.16219711
v 17.00000000 19.63951874 23.00000000
v 17.00000000 19.28591728 24.00000000
v 17.95536232 12.00000000 23.00000000
v 17.58431244 12.00000000 24.00000000
v 17.52931213 13.00000000 1.00000000
v 18.00000000 12.53193378 1.00000000
v 18.00000000 13.00000000 0.79348105
v 18.00000000 13.00000000 1.24963105
v 17.18910027 13.00000000 22.00000000
v 18.00000000 12.20711422 22.00000000
v 18.00000000 13.00000000 21.79927063
v 18.00000000 12.03436184 23.00000000
v 18.00000000 12.40985394 24.00000000
v 18.00000000 13.00000000 24.16197205
v 17.27822876 14.00000000 1.00000000
v 18.00000000 13.28162193 1.00000000
v 17.67520523 14.00000000 13.00000000
v 18.00000000 13.84798145 13.00000000
v 18.00000000 14.00000000 12.67788124
v 18.00000000 14.00000000 13.19185925
v 18.00000000 13.75172615 22.00000000
v 17.80086327 14.00000000 22.00000000
v 18.00000000 14.00000000 22.03174019
v 18.00000000 14.00000000 24.16106033
v 18.00000000 14.20222092 13.00000000
v 18.00000000 15.00000000 22.02459335
v 18.00000000 15.00000000 24.16191101
v 18.00000000 16.00000000 22.02650452
v 18.00000000 16.00000000 24.16353035
v 17.14998817 17.00000000 1.00000000
v 18.00000000 17.00000000 22.03062248
v 18.00000000 17.00000000 24.15961838
v 18.00000000 18.00000000 0.87897003
v 17.53863144 18.00000000 1.00000000
v 18.00000000 17.85397720 1.00000000
v 18.00000000 18.00000000 1.13901246
v 18.00000000 18.00000000 22.04627800
v 18.00000000 18.00000000 24.15984344
v 18.00000000 18.46879768 1.00000000
v 18.00000000 18.94356537 23.00000000
v 17.92403030 19.00000000 23.00000000
v 18.00000000 18.60323715 24.00000000
v 17.60730362 19.00000000 24.00000000
v 18.53637123 12.00000000 1.00000000
v 19.00000000 11.53810692 1.00000000
v 19.00000000 12.00000000 0.79786634
v 19.00000000 12.00000000 1.24555314
v 18.28256035 13.00000000 1.00000000
v 19.00000000 12.27896023 1.00000000
v 18.69496346 13.00000000 22.00000000
v 18.94776917 13.00000000 23.00000000
v 18.51966858 13.00000000 24.00000000
v 18.56401825 14.00000000 12.00000000
v 19.00000000 13.74327564 12.00000000
v 19.00000000 14.00000000 11.63949871
v 18.20442581 14.00000000 13.00000000
v 19.00000000 14.00000000 12.29477787
v 18.22889137 14.00000000 22.00000000
v 19.00000000 14.00000000 21.76053238
v 19.00000000 13.28288937 22.00000000
v 19.00000000 13.08705521 23.00000000
v 19.00000000 13.52251911 24.00000000
v 19.00000000 14.00000000 24.13949585
v 19.00000000 14.25951004 12.00000000
v 19.00000000 14.83363247 22.00000000
v 19.00000000 15.00000000 22.03129578
v 19.00000000 15.00000000 24.15859604
v 18.66782188 16.00000000 12.00000000
v 19.00000000 15.79723549 12.00000000
v 19.00000000 16.00000000 11.71289921
v 19.00000000 16.00000000 12.22646713
v 19.00000000 16.00000000 22.04349709
v 19.00000000 16.00000000 24.15768051
v 19.00000000 16.25208855 12.00000000
v 18.14269829 17.00000000 22.00000000
v 19.00000000 16.14110184 22.00000000
v 19.00000000 17.00000000 21.64696884
v 19.00000000 17.00000000 24.14385223
v 18.14596558 18.00000000 1.00000000
v 19.00000000 17.81944275 22.00000000
v 19.00000000 17.91493416 23.00000000
v 18.95159340 18.00000000 23.00000000
v 19.00000000 17.47812653 24.00000000
v 18.50735283 18.00000000 24.00000000
v 19.00000000 19.00000000 0.88046640
v 18.53108597 19.00000000 1.00000000
v 19.00000000 18.85397530 1.00000000
v 19.00000000 19.00000000 1.13790703
v 19.00000000 19.45396423 1.00000000
v 19.53704071 11.00000000 1.00000000
v 20.00000000 10.54064083 1.00000000
v 20.00000000 11.00000000 0.77388233
v 20.00000000 11.00000000 1.24620092
v 19.27812195 12.00000000 1.00000000
v 20.00000000 11.27898502 1.00000000
v 19.63738441 14.00000000 11.00000000
v 20.00000000 13.70214462 11.00000000
v 20.00000000 14.00000000 10.70717335
v 19.34315681 14.00000000 12.00000000
v 20.00000000 14.00000000 11.34522343
v 19.17559052 14.00000000 22.00000000
v 19.44994926 14.00000000 23.00000000
v 19.19030952 14.00000000 24.00000000
v 20.00000000 14.24598122 11.00000000
v 19.69123268 15.00000000 23.00000000
v 19.28981781 15.00000000 24.00000000
v 19.62640190 16.00000000 11.00000000
v 20.00000000 15.74215794 11.00000000
v 20.00000000 16.00000000 10.68899441
v 19.27542877 16.00000000 12.00000000
v 20.00000000 16.00000000 11.36018658
v 19.67984200 16.00000000 23.00000000
v 19.28128052 16.00000000 24.00000000
v 20.00000000 16.28926277 11.00000000
v 19.26450920 17.00000000 22.00000000
v 19.44752312 17.00000000 23.00000000
v 19.19198036 17.00000000 24.00000000
v 19.14467621 19.00000000 1.00000000
v 20.00000000 20.00000000 0.86670715
v 19.54669380 20.00000000 1.00000000
v 20.00000000 19.85565186 1.00000000
v 20.00000000 20.00000000 1.13901305
v 20.00000000 20.47503853 1.00000000
v 20.37459183 11.00000000 1.00000000
v 20.43532562 14.00000000 11.00000000
v 20.46964264 16.00000000 11.00000000
v 20.23828316 20.00000000 1.00000000
f 3 2 1
f 4 1 2
f 3 1 5
f 3 5 6
f 1 4 7
f 1 7 5
f 6 5 8
f 6 8 9
f 5 7 10
f 5 10 8
f 9 8 11
f 9 11 12
f 8 10 13
f 8 13 11
f 14 12 11
f 14 11 13
f 17 16 15
f 18 15 16
f 17 15 19
f 17 19 20
f 15 18 21
f 15 21 19
f 22 20 19
f 22 19 21
f 3 23 2
f 23 4 2
f 6 24 23
f 6 23 3
f 24 7 4
f 24 4 23
f 9 25 24
f 9 24 6
f 25 10 7
f 25 7 24
f 12 26 25
f 12 25 9
f 26 13 10
f 26 10 25
f 28 14 27
f 28 12 14
f 26 12 28
f 26 28 29
f 30 26 29
f 30 13 26
f 30 27 14
f 13 30 14
f 28 27 31
f 28 31 32
f 27 30 33
f 27 33 31
f 32 31 34
f 32 34 35
f 31 33 36
f 31 36 34
f 37 35 34
f 37 34 36
f 17 38 16
f 38 18 16
f 20 39 38
f 20 38 17
f 39 21 18
f 39 18 38
f 22 39 20
f 39 22 21
f 42 41 40
f 43 40 41
f 44 42 40
f 44 40 43
f 28 45 29
f 45 30 29
f 32 46 45
f 32 45 28
f 46 33 30
f 46 30 45
f 35 47 46
f 35 46 32
f 47 36 33
f 47 33 46
f 49 37 48
f 49 35 37
f 47 35 49
f 47 49 50
f 51 47 50
f 51 36 47
f 51 48 37
f 36 51 37
f 52 49 48
f 52 48 51
f 42 53 41
f 53 43 41
f 44 53 42
f 53 44 43
f 49 54 50
f 54 51 50
f 56 52 55
f 56 49 52
f 54 49 56
f 54 56 57
f 58 54 57
f 58 51 54
f 58 55 52
f 51 58 52
f 59 56 55
f 59 55 58
f 62 61 60
f 63 60 61
f 64 62 60
f 64 60 63
f 67 66 65
f 69 68 65
f 69 65 66
f 70 68 69
f 67 65 71
f 67 71 72
f 73 65 68
f 71 65 73
f 68 70 74
f 68 74 73
f 72 71 75
f 72 75 76
f 73 78 77
f 75 73 77
f 71 73 75
f 78 73 74
f 79 76 75
f 79 75 77
f 56 80 57
f 80 58 57
f 59 80 56
f 80 59 58
f 62 81 61
f 81 63 61
f 81 62 64
f 84 83 82
f 64 63 81
f 83 84 85
f 86 82 83
f 86 83 85
f 89 88 87
f 91 90 87
f 91 87 88
f 93 92 90
f 93 90 91
f 94 92 93
f 95 89 87
f 97 96 95
f 87 97 95
f 90 97 87
f 98 90 92
f 97 90 98
f 92 94 99
f 92 99 98
f 102 101 100
f 103 100 101
f 67 104 66
f 105 96 97
f 66 105 97
f 69 66 97
f 105 66 104
f 69 97 70
f 97 106 70
f 97 98 106
f 98 99 107
f 98 107 106
f 108 102 100
f 108 100 103
f 72 109 104
f 72 104 67
f 105 104 110
f 110 104 109
f 111 74 106
f 106 74 70
f 106 107 112
f 106 112 111
f 115 114 113
f 116 113 114
f 76 117 109
f 76 109 72
f 118 77 78
f 109 119 110
f 119 109 117
f 74 111 78
f 111 118 78
f 111 120 118
f 111 112 121
f 111 121 120
f 122 115 113
f 122 113 116
f 124 79 123
f 124 76 79
f 117 76 124
f 117 124 125
f 117 125 119
f 79 77 123
f 118 123 77
f 123 118 126
f 127 118 120
f 126 118 127
f 120 121 128
f 120 128 127
f 129 124 123
f 129 123 126
f 129 126 130
f 130 126 127
f 130 127 131
f 131 127 128
f 82 132 84
f 132 85 84
f 135 134 133
f 137 136 133
f 137 133 134
f 139 138 136
f 139 136 137
f 140 138 139
f 132 82 86
f 143 142 141
f 86 85 132
f 142 143 144
f 135 133 88
f 89 135 88
f 145 135 89
f 88 133 91
f 91 133 136
f 91 136 93
f 93 136 138
f 94 93 138
f 140 94 138
f 146 94 140
f 147 141 142
f 147 142 144
f 148 145 89
f 148 89 95
f 95 96 148
f 148 96 149
f 146 99 94
f 150 99 146
f 102 151 101
f 151 103 101
f 105 149 96
f 105 152 149
f 150 107 99
f 153 107 150
f 108 151 102
f 151 108 103
f 110 152 105
f 110 154 152
f 153 112 107
f 155 112 153
f 115 156 114
f 156 116 114
f 119 154 110
f 119 157 154
f 155 121 112
f 158 121 155
f 122 156 115
f 156 122 116
f 124 159 125
f 159 160 125
f 160 119 125
f 160 157 119
f 158 128 121
f 161 128 158
f 163 129 162
f 163 124 129
f 159 124 163
f 159 163 164
f 159 164 160
f 165 129 130
f 129 165 162
f 131 166 130
f 130 166 165
f 167 166 131
f 128 167 131
f 161 167 128
f 168 163 162
f 168 162 165
f 168 165 169
f 169 165 166
f 169 166 170
f 170 166 167
f 135 171 134
f 134 171 172
f 173 134 172
f 137 134 173
f 137 174 139
f 173 174 137
f 140 139 174
f 140 174 175
f 141 176 143
f 176 144 143
f 145 177 171
f 145 171 135
f 172 171 178
f 178 171 177
f 175 146 140
f 179 146 175
f 176 141 147
f 182 181 180
f 147 144 176
f 181 182 183
f 148 177 145
f 148 149 177
f 149 178 177
f 149 184 178
f 179 150 146
f 185 150 179
f 186 180 181
f 186 181 183
f 152 184 149
f 152 187 184
f 185 153 150
f 188 153 185
f 154 187 152
f 154 189 187
f 188 155 153
f 190 155 188
f 157 189 154
f 157 191 189
f 190 158 155
f 192 158 190
f 160 191 157
f 160 193 191
f 192 161 158
f 194 161 192
f 163 195 164
f 195 196 164
f 196 160 164
f 196 193 160
f 194 167 161
f 197 167 194
f 168 195 163
f 198 196 195
f 168 198 195
f 169 198 168
f 199 169 170
f 199 198 169
f 170 167 197
f 170 197 199
f 201 200 173
f 201 173 172
f 173 202 174
f 200 202 173
f 175 174 202
f 175 202 203
f 178 201 172
f 178 204 201
f 203 179 175
f 205 179 203
f 180 206 182
f 206 183 182
f 184 204 178
f 184 207 204
f 205 185 179
f 208 185 205
f 186 206 180
f 183 206 186
f 211 210 209
f 213 212 210
f 213 210 211
f 215 214 212
f 215 212 213
f 217 216 214
f 217 214 215
f 219 218 216
f 219 216 217
f 221 220 218
f 221 218 219
f 223 222 220
f 223 220 221
f 225 224 222
f 225 222 223
f 227 226 224
f 227 224 225
f 229 228 226
f 229 226 227
f 231 230 228
f 231 228 229
f 233 232 230
f 233 230 231
f 235 234 232
f 235 232 233
f 237 236 234
f 237 234 235
f 239 238 236
f 239 236 237
f 241 240 238
f 241 238 239
f 243 242 240
f 243 240 241
f 245 244 242
f 245 242 243
f 247 246 244
f 247 244 245
f 249 248 246
f 249 246 247
f 250 248 249
f 187 207 184
f 187 251 207
f 208 188 185
f 252 188 208
f 253 209 210
f 253 210 212
f 253 212 254
f 254 212 214
f 254 214 255
f 255 214 216
f 255 216 256
f 256 216 218
f 256 218 257
f 257 218 220
f 257 220 258
f 258 220 222
f 258 222 259
f 259 222 224
f 259 224 260
f 260 224 226
f 260 226 261
f 261 226 228
f 261 228 262
f 262 228 230
f 262 230 263
f 263 230 232
f 263 232 264
f 264 232 234
f 264 234 265
f 265 234 236
f 265 236 266
f 268 267 266
f 236 268 266
f 238 268 236
f 240 270 269
f 268 240 269
f 238 240 268
f 270 240 242
f 270 242 271
f 271 242 244
f 271 244 272
f 272 244 246
f 272 246 273
f 273 246 248
f 273 248 274
f 274 248 250
f 189 251 187
f 189 275 251
f 252 190 188
f 276 190 252
f 277 267 268
f 277 268 269
f 191 275 189
f 191 278 275
f 276 192 190
f 279 192 276
f 193 278 191
f 193 280 278
f 279 194 192
f 281 194 279
f 196 280 193
f 196 282 280
f 281 197 194
f 283 197 281
f 284 282 196
f 284 196 198
f 285 198 199
f 285 284 198
f 199 197 283
f 199 283 285
f 287 286 200
f 287 200 201
f 200 288 202
f 286 288 200
f 203 202 288
f 203 288 289
f 204 287 201
f 204 290 287
f 289 205 203
f 291 205 289
f 207 290 204
f 207 292 290
f 291 208 205
f 293 208 291
f 209 294 211
f 295 213 211
f 295 211 294
f 296 215 213
f 296 213 295
f 297 217 215
f 297 215 296
f 298 219 217
f 298 217 297
f 299 221 219
f 299 219 298
f 300 223 221
f 300 221 299
f 301 225 223
f 301 223 300
f 302 227 225
f 302 225 301
f 303 229 227
f 303 227 302
f 304 231 229
f 304 229 303
f 305 233 231
f 305 231 304
f 306 235 233
f 306 233 305
f 307 237 235
f 307 235 306
f 308 239 237
f 308 237 307
f 309 241 239
f 309 239 308
f 310 243 241
f 310 241 309
f 311 245 243
f 311 243 310
f 312 247 245
f 312 245 311
f 247 312 313
f 314 247 313
f 249 247 314
f 250 249 314
f 250 314 315
f 251 292 207
f 251 316 292
f 293 252 208
f 317 252 293
f 253 294 209
f 294 253 254
f 294 254 295
f 295 254 255
f 295 255 296
f 296 255 256
f 296 256 297
f 297 256 257
f 297 257 298
f 298 257 258
f 298 258 299
f 299 258 259
f 299 259 300
f 300 259 260
f 300 260 301
f 301 260 261
f 301 261 302
f 302 261 262
f 302 262 303
f 303 262 263
f 303 263 304
f 304 263 264
f 304 264 305
f 305 264 265
f 305 265 306
f 306 265 266
f 306 266 307
f 307 266 267
f 318 307 267
f 308 307 318
f 318 269 270
f 309 318 270
f 308 318 309
f 309 270 271
f 309 271 310
f 310 271 272
f 310 272 311
f 311 272 273
f 311 273 312
f 319 313 312
f 273 319 312
f 274 319 273
f 274 250 315
f 274 315 319
f 275 316 251
f 275 320 316
f 317 276 252
f 321 276 317
f 277 318 267
f 318 277 269
f 278 320 275
f 278 322 320
f 321 279 276
f 323 279 321
f 280 322 278
f 280 324 322
f 323 281 279
f 325 281 323
f 282 324 280
f 282 326 324
f 325 283 281
f 327 283 325
f 328 326 282
f 328 282 284
f 329 284 285
f 329 328 284
f 285 283 327
f 285 327 329
f 331 330 286
f 331 286 287
f 286 332 288
f 330 332 286
f 289 288 332
f 289 332 333
f 290 331 287
f 290 334 331
f 333 291 289
f 335 291 333
f 338 337 336
f 339 336 337
f 342 341 340
f 341 334 340
f 334 292 340
f 334 290 292
f 335 293 291
f 343 293 335
f 344 338 336
f 344 336 339
f 313 345 314
f 340 346 342
f 315 314 345
f 340 292 346
f 292 347 346
f 292 316 347
f 343 317 293
f 348 317 343
f 319 345 313
f 345 319 315
f 320 347 316
f 320 349 347
f 348 321 317
f 350 321 348
f 353 352 351
f 354 351 352
f 322 349 320
f 322 355 349
f 350 323 321
f 356 323 350
f 357 353 351
f 357 351 354
f 324 355 322
f 324 358 355
f 356 325 323
f 359 325 356
f 326 358 324
f 326 360 358
f 359 327 325
f 361 327 359
f 362 360 326
f 362 326 328
f 363 328 329
f 363 362 328
f 329 327 361
f 329 361 363
f 331 364 330
f 365 332 330
f 365 330 364
f 365 333 332
f 368 367 366
f 369 366 367
f 372 371 370
f 371 373 364
f 334 371 364
f 331 334 364
f 370 371 334
f 364 373 365
f 365 373 374
f 333 365 374
f 375 333 374
f 335 333 375
f 337 338 376
f 366 377 368
f 366 369 377
f 337 376 339
f 380 379 378
f 381 378 379
f 372 383 382
f 372 342 383
f 372 370 341
f 342 372 341
f 370 334 341
f 384 382 383
f 375 343 335
f 385 343 375
f 344 376 338
f 376 344 339
f 386 380 378
f 386 378 381
f 346 383 342
f 346 347 383
f 347 384 383
f 347 387 384
f 385 348 343
f 388 348 385
f 349 387 347
f 349 389 387
f 388 350 348
f 390 350 388
f 353 391 352
f 391 354 352
f 355 389 349
f 355 392 389
f 390 356 350
f 393 356 390
f 391 353 357
f 396 395 394
f 357 354 391
f 395 396 397
f 358 392 355
f 358 398 392
f 393 359 356
f 399 359 393
f 400 394 395
f 400 395 397
f 360 402 401
f 398 360 401
f 358 360 398
f 404 403 402
f 402 403 401
f 399 403 404
f 361 399 404
f 359 399 361
f 362 402 360
f 402 362 363
f 402 363 404
f 404 363 361
f 407 406 405
f 408 405 406
f 367 368 409
f 405 410 407
f 405 408 410
f 367 409 369
f 372 411 371
f 412 373 371
f 412 371 411
f 413 374 373
f 413 373 412
f 413 375 374
f 377 409 368
f 409 377 369
f 416 415 414
f 417 379 380
f 418 414 415
f 417 381 379
f 420 382 419
f 420 372 382
f 411 372 420
f 411 420 421
f 419 382 384
f 412 421 422
f 421 412 411
f 412 422 413
f 413 422 423
f 375 413 423
f 424 375 423
f 385 375 424
f 425 416 414
f 380 386 417
f 414 418 425
f 417 386 381
f 426 420 419
f 419 384 426
f 384 427 426
f 384 387 427
f 424 388 385
f 428 388 424
f 431 430 429
f 432 429 430
f 389 427 387
f 389 433 427
f 428 390 388
f 434 390 428
f 435 431 429
f 435 429 432
f 438 437 436
f 437 433 436
f 433 392 436
f 433 389 392
f 434 393 390
f 439 393 434
f 394 440 396
f 440 397 396
f 441 438 436
f 392 398 436
f 398 442 436
f 442 441 436
f 442 398 443
f 445 444 443
f 443 444 442
f 439 444 445
f 399 439 445
f 393 439 399
f 440 394 400
f 448 447 446
f 400 397 440
f 447 448 449
f 401 443 398
f 443 401 403
f 443 403 445
f 445 403 399
f 450 446 447
f 450 447 449
f 453 452 451
f 454 451 452
f 406 407 455
f 451 456 453
f 451 454 456
f 406 455 408
f 410 455 407
f 455 410 408
f 459 458 457
f 460 415 416
f 461 457 458
f 460 418 415
f 420 462 421
f 463 422 421
f 463 421 462
f 464 423 422
f 464 422 463
f 464 424 423
f 465 459 457
f 416 425 460
f 457 461 465
f 460 425 418
f 426 462 420
f 462 426 427
f 466 462 427
f 463 462 466
f 463 467 464
f 463 466 467
f 467 428 424
f 467 424 464
f 470 469 468
f 471 430 431
f 472 468 469
f 471 432 430
f 433 473 466
f 433 466 427
f 466 474 467
f 466 473 474
f 474 434 428
f 474 428 467
f 475 470 468
f 431 435 471
f 468 472 475
f 471 435 432
f 438 476 437
f 473 433 437
f 476 473 437
f 477 473 476
f 473 478 474
f 473 477 478
f 478 439 434
f 478 434 474
f 441 476 438
f 476 441 442
f 476 442 477
f 477 442 444
f 477 444 478
f 478 444 439
f 446 479 448
f 479 449 448
f 479 446 450
f 482 481 480
f 450 449 479
f 481 482 483
f 484 480 481
f 484 481 483
f 453 485 452
f 485 454 452
f 456 485 453
f 485 456 454
f 459 486 458
f 486 461 458
f 465 486 459
f 486 465 461
f 470 487 469
f 487 472 469
f 475 487 470
f 487 475 472
f 480 488 482
f 488 483 482
f 484 488 480
f 488 484 483

