# https://github.com/mikedh/trimesh
v 11.81747150 37.00000000 45.00000000
v 12.00000000 36.81101608 45.00000000
v 12.00000000 37.00000000 44.37104797
v 12.00000000 37.00000000 45.27232361
v 12.00000000 37.23213196 45.00000000
v 12.52802658 37.00000000 45.00000000
v 34.38443756 37.00000000 45.00000000
v 35.00000000 36.74267960 45.00000000
v 35.00000000 37.00000000 44.43551254
v 35.00000000 37.00000000 45.44798660
v 35.00000000 37.31622314 45.00000000
v 35.77345657 13.00000000 2.00000000
v 36.00000000 12.83002567 2.00000000
v 36.00000000 13.00000000 1.48629975
v 36.00000000 13.00000000 2.36351967
v 36.00000000 13.19858646 2.00000000
v 35.76391983 14.00000000 4.00000000
v 36.00000000 13.84611607 4.00000000
v 36.00000000 14.00000000 3.15611815
v 36.00000000 14.00000000 4.28634548
v 36.00000000 14.24260902 4.00000000
v 35.76029205 16.00000000 7.00000000
v 36.00000000 15.76463509 7.00000000
v 36.00000000 16.00000000 6.69353962
v 36.00000000 16.00000000 7.77804995
v 36.00000000 16.16001701 7.00000000
v 35.77102280 17.00000000 9.00000000
v 36.00000000 16.81009865 9.00000000
v 36.00000000 17.00000000 8.59183598
v 36.00000000 17.00000000 9.45231438
v 36.00000000 17.17788887 9.00000000
v 35.74933624 18.00000000 11.00000000
v 36.00000000 17.82287216 11.00000000
v 36.00000000 18.00000000 10.37814617
v 36.00000000 18.00000000 11.35923958
v 36.00000000 18.22434044 11.00000000
v 35.81074905 20.00000000 14.00000000
v 36.00000000 19.78768349 14.00000000
v 36.00000000 20.00000000 13.79251480
v 36.00000000 20.00000000 14.56968689
v 36.00000000 20.11289024 14.00000000
v 35.74795532 21.00000000 16.00000000
v 36.00000000 20.76690674 16.00000000
v 36.00000000 21.00000000 15.65089989
v 36.00000000 21.00000000 16.63297653
v 36.00000000 21.17497444 16.00000000
v 35.74192429 22.00000000 18.00000000
v 36.00000000 21.79473686 18.00000000
v 36.00000000 22.00000000 17.53626633
v 36.00000000 22.00000000 18.44776344
v 36.00000000 22.20778275 18.00000000
v 35.73260880 23.00000000 20.00000000
v 36.00000000 22.80990410 20.00000000
v 36.00000000 23.00000000 19.33185387
v 36.00000000 23.00000000 20.36059380
v 36.00000000 23.25708199 20.00000000
v 35.79812622 24.00000000 22.00000000
v 36.00000000 23.87599182 22.00000000
v 36.00000000 24.00000000 21.26502800
v 36.00000000 24.00000000 22.22446251
v 36.00000000 24.23691750 22.00000000
v 36.00000000 25.00000000 22.70924568
v 35.62240219 25.00000000 23.00000000
v 36.00000000 24.72350311 23.00000000
v 36.00000000 25.00000000 23.88051796
v 36.00000000 25.19975662 23.00000000
v 35.74224091 26.00000000 25.00000000
v 36.00000000 25.76812363 25.00000000
v 36.00000000 26.00000000 24.64003563
v 36.00000000 26.00000000 25.58945084
v 36.00000000 26.59881401 25.00000000
v 35.75523376 27.00000000 27.00000000
v 36.00000000 26.81047821 27.00000000
v 36.00000000 27.00000000 26.21597290
v 36.00000000 27.00000000 27.40633583
v 35.74011612 28.00000000 22.00000000
v 36.00000000 27.77444267 22.00000000
v 36.00000000 28.00000000 21.27421761
v 35.42984009 28.00000000 23.00000000
v 36.00000000 27.73394394 23.00000000
v 36.00000000 28.00000000 23.62792206
v 36.00000000 27.20514488 27.00000000
v 35.73528290 28.00000000 29.00000000
v 36.00000000 27.82078362 29.00000000
v 36.00000000 28.00000000 28.29000282
v 36.00000000 28.00000000 29.33544731
v 35.75320053 29.00000000 18.00000000
v 36.00000000 28.82983017 18.00000000
v 36.00000000 29.00000000 17.19556236
v 35.74838638 29.00000000 19.00000000
v 36.00000000 28.74603271 19.00000000
v 36.00000000 29.00000000 19.71900558
v 36.00000000 28.20814705 22.00000000
v 36.00000000 28.15434647 23.00000000
v 36.00000000 28.26385689 29.00000000
v 36.00000000 29.00000000 29.88418388
v 35.88439941 29.00000000 30.00000000
v 36.00000000 28.84426308 30.00000000
v 35.86543274 29.00000000 31.00000000
v 36.00000000 28.92415237 31.00000000
v 36.00000000 29.00000000 31.13873100
v 35.74843597 30.00000000 14.00000000
v 36.00000000 29.83803940 14.00000000
v 36.00000000 30.00000000 13.19731045
v 35.75022507 30.00000000 15.00000000
v 36.00000000 29.76712227 15.00000000
v 36.00000000 30.00000000 15.75469875
v 36.00000000 29.21165085 18.00000000
v 36.00000000 29.15876579 19.00000000
v 36.00000000 29.06356049 30.00000000
v 36.00000000 29.16786194 31.00000000
v 36.00000000 30.00000000 31.71014023
v 35.76190567 30.00000000 32.00000000
v 36.00000000 29.75419044 32.00000000
v 36.00000000 30.00000000 32.92467499
v 35.74655533 31.00000000 11.00000000
v 36.00000000 30.77856445 11.00000000
v 36.00000000 31.00000000 10.48656082
v 36.00000000 31.00000000 11.86915779
v 36.00000000 30.22169685 14.00000000
v 36.00000000 30.15930557 15.00000000
v 36.00000000 30.15779686 32.00000000
v 35.76065445 31.00000000 34.00000000
v 36.00000000 30.79387283 34.00000000
v 36.00000000 31.00000000 33.62015915
v 36.00000000 31.00000000 34.54376602
v 35.69958115 32.00000000 6.00000000
v 36.00000000 31.85103416 6.00000000
v 36.00000000 32.00000000 5.35362387
v 35.38732910 32.00000000 7.00000000
v 36.00000000 31.79263496 7.00000000
v 36.00000000 32.00000000 7.88134718
v 36.00000000 31.16773796 11.00000000
v 36.00000000 31.17984009 34.00000000
v 35.75554657 32.00000000 36.00000000
v 36.00000000 31.81720543 36.00000000
v 36.00000000 32.00000000 35.48283005
v 36.00000000 32.00000000 36.38731384
v 35.76715469 33.00000000 2.00000000
v 36.00000000 32.86442947 2.00000000
v 36.00000000 33.00000000 1.44898570
v 35.76488495 33.00000000 3.00000000
v 36.00000000 32.81399155 3.00000000
v 36.00000000 33.00000000 3.68034482
v 36.00000000 32.24689102 6.00000000
v 36.00000000 32.16917038 7.00000000
v 36.00000000 32.21324158 36.00000000
v 35.76073837 33.00000000 38.00000000
v 36.00000000 32.84711456 38.00000000
v 36.00000000 33.00000000 37.25032425
v 36.00000000 33.00000000 38.28887939
v 36.00000000 33.24912262 2.00000000
v 36.00000000 33.16753006 3.00000000
v 36.00000000 33.24655151 38.00000000
v 35.70486832 35.00000000 41.00000000
v 36.00000000 34.76476288 41.00000000
v 36.00000000 35.00000000 40.67710114
v 36.00000000 35.00000000 41.73814774
v 36.00000000 35.16363144 41.00000000
v 35.72903442 36.00000000 43.00000000
v 36.00000000 35.85150909 43.00000000
v 36.00000000 36.00000000 42.66852951
v 36.00000000 36.00000000 43.37632370
v 36.00000000 36.13871002 43.00000000
v 35.31330872 37.00000000 45.00000000
v 36.12544250 13.00000000 2.00000000
v 36.13007355 14.00000000 4.00000000
v 36.13312912 16.00000000 7.00000000
v 36.12762451 17.00000000 9.00000000
v 36.14053726 18.00000000 11.00000000
v 36.10199738 20.00000000 14.00000000
v 36.13995361 21.00000000 16.00000000
v 36.14612579 22.00000000 18.00000000
v 36.15448761 23.00000000 20.00000000
v 36.12656021 24.00000000 22.00000000
v 36.14221573 25.00000000 23.00000000
v 36.14374924 26.00000000 25.00000000
v 36.13743973 27.00000000 27.00000000
v 36.18580627 28.00000000 22.00000000
v 36.24099350 28.00000000 23.00000000
v 36.15031052 28.00000000 29.00000000
v 36.14237213 29.00000000 18.00000000
v 36.14721298 29.00000000 19.00000000
v 36.06052399 29.00000000 30.00000000
v 36.07061005 29.00000000 31.00000000
v 36.14255524 30.00000000 14.00000000
v 36.14150238 30.00000000 15.00000000
v 36.13231277 30.00000000 32.00000000
v 36.14309311 31.00000000 11.00000000
v 36.13380432 31.00000000 34.00000000
v 36.13957214 32.00000000 6.00000000
v 36.13925171 32.00000000 7.00000000
v 36.13714600 32.00000000 36.00000000
v 36.13019943 33.00000000 2.00000000
v 36.13109589 33.00000000 3.00000000
v 36.12934113 33.00000000 38.00000000
v 36.13427734 35.00000000 41.00000000
v 36.09457397 36.00000000 43.00000000
f 3 2 1
f 4 1 2
f 5 3 1
f 5 1 4
f 3 6 2
f 6 4 2
f 5 6 3
f 6 5 4
f 9 8 7
f 10 7 8
f 11 9 7
f 11 7 10
f 14 13 12
f 15 12 13
f 16 14 12
f 16 12 15
f 19 18 17
f 20 17 18
f 21 19 17
f 21 17 20
f 24 23 22
f 25 22 23
f 26 24 22
f 26 22 25
f 29 28 27
f 30 27 28
f 31 29 27
f 31 27 30
f 34 33 32
f 35 32 33
f 36 34 32
f 36 32 35
f 39 38 37
f 40 37 38
f 41 39 37
f 41 37 40
f 44 43 42
f 45 42 43
f 46 44 42
f 46 42 45
f 49 48 47
f 50 47 48
f 51 49 47
f 51 47 50
f 54 53 52
f 55 52 53
f 56 54 52
f 56 52 55
f 59 58 57
f 60 57 58
f 61 59 57
f 64 63 62
f 60 61 57
f 65 63 64
f 66 62 63
f 66 63 65
f 69 68 67
f 70 67 68
f 71 69 67
f 71 67 70
f 74 73 72
f 75 72 73
f 78 77 76
f 80 79 76
f 80 76 77
f 81 79 80
f 82 74 72
f 82 72 75
f 85 84 83
f 86 83 84
f 89 88 87
f 91 90 87
f 91 87 88
f 92 90 91
f 93 78 76
f 93 76 79
f 93 79 94
f 94 79 81
f 95 85 83
f 98 97 96
f 86 95 83
f 100 99 97
f 100 97 98
f 101 99 100
f 104 103 102
f 106 105 102
f 106 102 103
f 107 105 106
f 108 89 87
f 108 87 90
f 108 90 109
f 109 90 92
f 110 96 97
f 110 97 99
f 110 99 111
f 114 113 112
f 101 111 99
f 115 113 114
f 118 117 116
f 119 116 117
f 120 104 102
f 120 102 105
f 120 105 121
f 121 105 107
f 122 112 113
f 122 113 115
f 125 124 123
f 126 123 124
f 129 128 127
f 131 130 127
f 131 127 128
f 132 130 131
f 133 118 116
f 133 116 119
f 134 125 123
f 134 123 126
f 137 136 135
f 138 135 136
f 141 140 139
f 143 142 139
f 143 139 140
f 144 142 143
f 145 129 127
f 145 127 130
f 145 130 146
f 146 130 132
f 147 137 135
f 147 135 138
f 150 149 148
f 151 148 149
f 152 141 139
f 152 139 142
f 152 142 153
f 153 142 144
f 154 150 148
f 154 148 151
f 157 156 155
f 158 155 156
f 159 157 155
f 159 155 158
f 162 161 160
f 163 160 161
f 164 162 160
f 164 160 163
f 9 165 8
f 165 10 8
f 11 165 9
f 165 11 10
f 14 166 13
f 166 15 13
f 16 166 14
f 166 16 15
f 19 167 18
f 167 20 18
f 21 167 19
f 167 21 20
f 24 168 23
f 168 25 23
f 26 168 24
f 168 26 25
f 29 169 28
f 169 30 28
f 31 169 29
f 169 31 30
f 34 170 33
f 170 35 33
f 36 170 34
f 170 36 35
f 39 171 38
f 171 40 38
f 41 171 39
f 171 41 40
f 44 172 43
f 172 45 43
f 46 172 44
f 172 46 45
f 49 173 48
f 173 50 48
f 51 173 49
f 173 51 50
f 54 174 53
f 174 55 53
f 56 174 54
f 174 56 55
f 59 175 58
f 175 60 58
f 61 175 59
f 60 175 61
f 64 62 176
f 176 65 64
f 66 176 62
f 176 66 65
f 69 177 68
f 177 70 68
f 71 177 69
f 177 71 70
f 74 178 73
f 178 75 73
f 78 179 77
f 180 80 77
f 180 77 179
f 180 81 80
f 82 178 74
f 178 82 75
f 85 181 84
f 181 86 84
f 89 182 88
f 183 91 88
f 183 88 182
f 183 92 91
f 93 179 78
f 179 93 94
f 179 94 180
f 180 94 81
f 95 181 85
f 86 181 95
f 98 96 184
f 185 100 98
f 185 98 184
f 185 101 100
f 104 186 103
f 187 106 103
f 187 103 186
f 187 107 106
f 108 182 89
f 182 108 109
f 182 109 183
f 183 109 92
f 110 184 96
f 184 110 111
f 184 111 185
f 101 185 111
f 114 112 188
f 188 115 114
f 118 189 117
f 189 119 117
f 120 186 104
f 186 120 121
f 186 121 187
f 187 121 107
f 122 188 112
f 188 122 115
f 125 190 124
f 190 126 124
f 129 191 128
f 192 131 128
f 192 128 191
f 192 132 131
f 133 189 118
f 189 133 119
f 134 190 125
f 190 134 126
f 137 193 136
f 193 138 136
f 141 194 140
f 195 143 140
f 195 140 194
f 195 144 143
f 145 191 129
f 191 145 146
f 191 146 192
f 192 146 132
f 147 193 137
f 193 147 138
f 150 196 149
f 196 151 149
f 152 194 141
f 194 152 153
f 194 153 195
f 195 153 144
f 154 196 150
f 196 154 151
f 157 197 156
f 197 158 156
f 159 197 157
f 197 159 158
f 162 198 161
f 198 163 161
f 164 198 162
f 198 164 163

