# https://github.com/mikedh/trimesh
v 8.81847572 9.00000000 13.00000000
v 9.00000000 8.76405716 13.00000000
v 9.00000000 9.00000000 12.60787582
v 8.83903217 9.00000000 14.00000000
v 9.00000000 8.79009914 14.00000000
v 9.00000000 9.00000000 14.86083698
v 8.71923828 10.00000000 13.00000000
v 9.00000000 10.00000000 12.65555763
v 8.73825073 10.00000000 14.00000000
v 9.00000000 9.26314926 15.00000000
v 8.92516899 10.00000000 15.00000000
v 9.00000000 10.00000000 15.09526539
v 8.72302723 11.00000000 13.00000000
v 9.00000000 11.00000000 12.71800900
v 8.74104786 11.00000000 14.00000000
v 8.91196918 11.00000000 15.00000000
v 9.00000000 11.00000000 15.11865902
v 8.70955372 12.00000000 13.00000000
v 9.00000000 12.00000000 12.71001720
v 8.72585964 12.00000000 14.00000000
v 8.86986446 12.00000000 15.00000000
v 9.00000000 12.00000000 15.18041515
v 8.68862152 13.00000000 13.00000000
v 9.00000000 13.00000000 12.70243263
v 8.68804836 13.00000000 14.00000000
v 8.82792568 13.00000000 15.00000000
v 9.00000000 13.00000000 15.24208546
v 8.67320633 14.00000000 13.00000000
v 9.00000000 14.00000000 12.70741749
v 8.63676548 14.00000000 14.00000000
v 8.77976322 14.00000000 15.00000000
v 9.00000000 14.00000000 15.29823208
v 8.65416145 15.00000000 13.00000000
v 9.00000000 15.00000000 12.71115398
v 8.59029007 15.00000000 14.00000000
v 8.73964024 15.00000000 15.00000000
v 9.00000000 15.00000000 15.34375191
v 8.63566875 16.00000000 13.00000000
v 9.00000000 16.00000000 12.71185970
v 8.56027412 16.00000000 14.00000000
v 8.73658752 16.00000000 15.00000000
v 9.00000000 16.00000000 15.32331562
v 8.62507439 17.00000000 13.00000000
v 9.00000000 17.00000000 12.71335411
v 8.53113842 17.00000000 14.00000000
v 8.71873474 17.00000000 15.00000000
v 9.00000000 17.00000000 15.32798958
v 8.62934971 18.00000000 13.00000000
v 9.00000000 18.00000000 12.71556950
v 8.55085564 18.00000000 14.00000000
v 8.76507950 18.00000000 15.00000000
v 9.00000000 18.00000000 15.26244068
v 8.64689255 19.00000000 13.00000000
v 9.00000000 19.00000000 12.70748425
v 8.59955502 19.00000000 14.00000000
v 8.82676506 19.00000000 15.00000000
v 9.00000000 19.00000000 15.46861172
v 9.00000000 19.86261940 13.00000000
v 9.00000000 19.91760826 14.00000000
v 9.00000000 19.54587746 15.00000000
v 8.86924171 20.00000000 25.00000000
v 9.00000000 19.81352425 25.00000000
v 9.00000000 20.00000000 24.54347610
v 8.89050007 20.00000000 26.00000000
v 9.00000000 19.86924553 26.00000000
v 9.00000000 20.00000000 26.92805672
v 9.00000000 20.83933258 25.00000000
v 9.00000000 21.00000000 25.10902596
v 8.79496956 21.00000000 26.00000000
v 9.00000000 20.02226639 27.00000000
v 8.65992641 21.00000000 27.00000000
v 8.55774879 21.00000000 28.00000000
v 9.00000000 20.20699692 28.00000000
v 8.53232098 21.00000000 29.00000000
v 9.00000000 20.40566444 29.00000000
v 8.62347794 21.00000000 30.00000000
v 9.00000000 20.62315178 30.00000000
v 9.00000000 21.00000000 30.60584450
v 9.00000000 21.27322388 26.00000000
v 9.00000000 21.55051804 27.00000000
v 9.00000000 21.94813538 28.00000000
v 9.00000000 22.00000000 28.08045006
v 8.66230583 22.00000000 29.00000000
v 8.49083996 22.00000000 30.00000000
v 9.00000000 22.00000000 30.78142357
v 9.00000000 22.32502556 29.00000000
v 9.00000000 22.58278656 30.00000000
v 9.70962620 9.00000000 2.00000000
v 10.00000000 8.76139736 2.00000000
v 10.00000000 9.00000000 1.18373001
v 10.00000000 9.00000000 2.89331841
v 9.83447933 9.00000000 6.00000000
v 10.00000000 8.91333866 6.00000000
v 10.00000000 9.00000000 5.29861879
v 9.61929417 9.00000000 7.00000000
v 10.00000000 8.77065563 7.00000000
v 9.48986149 9.00000000 8.00000000
v 10.00000000 8.65151024 8.00000000
v 9.41573811 9.00000000 9.00000000
v 10.00000000 8.57890320 9.00000000
v 9.40141106 9.00000000 10.00000000
v 10.00000000 8.57790184 10.00000000
v 9.40953827 9.00000000 11.00000000
v 10.00000000 8.61717033 11.00000000
v 9.45449829 9.00000000 12.00000000
v 10.00000000 8.69656658 12.00000000
v 10.00000000 8.46815109 13.00000000
v 10.00000000 8.38173580 14.00000000
v 9.07471275 9.00000000 15.00000000
v 10.00000000 8.63231182 15.00000000
v 10.00000000 9.00000000 15.35070419
v 10.00000000 9.30009747 2.00000000
v 10.00000000 9.35891914 6.00000000
v 10.00000000 9.50587463 7.00000000
v 10.00000000 9.53854847 8.00000000
v 10.00000000 9.57826138 9.00000000
v 10.00000000 9.61756992 10.00000000
v 10.00000000 9.68779469 11.00000000
v 10.00000000 9.82721615 12.00000000
v 10.00000000 10.00000000 12.17244720
v 10.00000000 10.00000000 15.57074451
v 10.00000000 11.00000000 12.71389866
v 10.00000000 11.00000000 15.65901470
v 10.00000000 12.00000000 12.71187496
v 10.00000000 12.00000000 15.71429539
v 10.00000000 13.00000000 12.71175861
v 10.00000000 13.00000000 15.77905750
v 10.00000000 14.00000000 12.71173000
v 10.00000000 14.00000000 15.78886604
v 10.00000000 15.00000000 12.71289730
v 10.00000000 15.00000000 15.80284500
v 10.00000000 16.00000000 12.71348763
v 10.00000000 16.00000000 15.77116203
v 10.00000000 17.00000000 12.71148682
v 10.00000000 17.00000000 15.73714066
v 10.00000000 18.00000000 12.71200752
v 10.00000000 18.00000000 15.66667557
v 10.00000000 19.00000000 12.69476509
v 10.00000000 18.36050987 16.00000000
v 9.22934914 19.00000000 16.00000000
v 9.24674511 19.00000000 17.00000000
v 10.00000000 18.44934082 17.00000000
v 9.27542400 19.00000000 18.00000000
v 10.00000000 18.49559212 18.00000000
v 9.32141209 19.00000000 19.00000000
v 10.00000000 18.56716919 19.00000000
v 9.37106037 19.00000000 20.00000000
v 10.00000000 18.63852310 20.00000000
v 9.47309303 19.00000000 21.00000000
v 10.00000000 18.74342728 21.00000000
v 9.63914776 19.00000000 22.00000000
v 10.00000000 18.85173225 22.00000000
v 10.00000000 19.00000000 22.81401443
v 9.75223446 20.00000000 10.00000000
v 10.00000000 19.89032555 10.00000000
v 10.00000000 20.00000000 9.28244686
v 9.56477547 20.00000000 11.00000000
v 10.00000000 19.75474930 11.00000000
v 9.47735310 20.00000000 12.00000000
v 10.00000000 19.65419388 12.00000000
v 9.10117912 20.00000000 13.00000000
v 9.08329678 20.00000000 14.00000000
v 9.24601460 20.00000000 15.00000000
v 9.35223389 20.00000000 16.00000000
v 9.31080437 20.00000000 17.00000000
v 9.24315357 20.00000000 18.00000000
v 10.00000000 20.00000000 18.46327209
v 10.00000000 19.41985130 19.00000000
v 10.00000000 19.34565353 20.00000000
v 10.00000000 19.24090385 21.00000000
v 10.00000000 19.13560104 22.00000000
v 9.14285183 20.00000000 24.00000000
v 10.00000000 19.12411690 24.00000000
v 10.00000000 20.00000000 23.54125023
v 10.00000000 19.27994347 25.00000000
v 10.00000000 19.49092865 26.00000000
v 9.02715778 20.00000000 27.00000000
v 10.00000000 19.71545410 27.00000000
v 10.00000000 20.00000000 27.85681915
v 9.56215763 21.00000000 6.00000000
v 10.00000000 20.74874306 6.00000000
v 10.00000000 21.00000000 5.20819283
v 10.00000000 21.00000000 6.83423233
v 10.00000000 20.22035789 10.00000000
v 10.00000000 20.32864952 11.00000000
v 10.00000000 20.37084579 12.00000000
v 10.00000000 20.41209221 13.00000000
v 10.00000000 20.40010643 14.00000000
v 10.00000000 20.39423180 15.00000000
v 10.00000000 20.42643929 16.00000000
v 10.00000000 20.46297073 17.00000000
v 10.00000000 20.52593994 18.00000000
v 9.68922901 21.00000000 23.00000000
v 10.00000000 20.89457321 23.00000000
v 10.00000000 21.00000000 22.25361443
v 9.30569649 21.00000000 24.00000000
v 9.04647827 21.00000000 25.00000000
v 10.00000000 20.04336548 28.00000000
v 10.00000000 20.23456192 29.00000000
v 10.00000000 20.52056313 30.00000000
v 10.00000000 21.00000000 30.71068764
v 9.60765743 22.00000000 2.00000000
v 10.00000000 21.84784698 2.00000000
v 10.00000000 22.00000000 1.55683506
v 10.00000000 22.00000000 2.78297663
v 10.00000000 21.22500801 6.00000000
v 10.00000000 21.12280846 23.00000000
v 10.00000000 21.30016327 24.00000000
v 10.00000000 21.49978065 25.00000000
v 10.00000000 21.74837112 26.00000000
v 10.00000000 21.97826195 27.00000000
v 9.08449078 22.00000000 28.00000000
v 10.00000000 22.00000000 27.07605171
v 10.00000000 22.00000000 30.94371796
v 10.00000000 22.16514397 2.00000000
v 10.00000000 22.27519226 28.00000000
v 10.00000000 22.59771729 29.00000000
v 10.00000000 22.79057884 30.00000000
v 10.21237469 9.00000000 2.00000000
v 10.11363220 9.00000000 6.00000000
v 10.26346302 9.00000000 7.00000000
v 10.36194038 9.00000000 8.00000000
v 10.42109013 9.00000000 9.00000000
v 10.42991161 9.00000000 10.00000000
v 10.41827011 9.00000000 11.00000000
v 10.36893272 9.00000000 12.00000000
v 11.00000000 9.00000000 12.63186550
v 11.00000000 8.52490044 13.00000000
v 11.00000000 8.37978363 14.00000000
v 11.00000000 8.61715317 15.00000000
v 11.00000000 9.00000000 15.37889671
v 11.00000000 10.00000000 12.58971596
v 11.00000000 10.00000000 15.62215233
v 11.00000000 11.00000000 12.71208191
v 11.00000000 11.00000000 15.78442955
v 11.00000000 12.00000000 12.71140003
v 11.00000000 12.00000000 15.85721016
v 11.00000000 13.00000000 12.71013260
v 11.00000000 13.00000000 15.96456432
v 11.00000000 14.00000000 12.70985508
v 11.00000000 14.00000000 15.97413445
v 11.00000000 15.00000000 12.70997524
v 11.00000000 15.00000000 15.95523071
v 11.00000000 16.00000000 12.70916080
v 11.00000000 16.00000000 15.95404816
v 11.00000000 17.00000000 12.71093941
v 11.00000000 17.00000000 15.87822533
v 11.00000000 18.00000000 12.71124268
v 11.00000000 18.00000000 15.80361271
v 11.00000000 19.00000000 12.71115303
v 11.00000000 18.27870178 16.00000000
v 11.00000000 18.53086281 17.00000000
v 11.00000000 18.57821846 18.00000000
v 11.00000000 18.65328598 19.00000000
v 11.00000000 18.73079681 20.00000000
v 11.00000000 18.83982468 21.00000000
v 10.76210308 19.00000000 22.00000000
v 11.00000000 19.00000000 21.77539253
v 10.18505669 20.00000000 10.00000000
v 10.34469604 20.00000000 11.00000000
v 10.42729378 20.00000000 12.00000000
v 11.00000000 20.00000000 12.61428070
v 11.00000000 20.00000000 18.46963692
v 11.00000000 19.31743431 19.00000000
v 11.00000000 19.24600410 20.00000000
v 11.00000000 19.14295197 21.00000000
v 11.00000000 19.04226112 22.00000000
v 11.00000000 20.00000000 21.47733688
v 10.47398567 20.00000000 22.00000000
v 11.00000000 19.08498573 23.00000000
v 10.53152561 20.00000000 23.00000000
v 11.00000000 19.24531364 24.00000000
v 11.00000000 19.41525650 25.00000000
v 11.00000000 19.62832832 26.00000000
v 11.00000000 19.84902382 27.00000000
v 11.00000000 20.00000000 27.64850235
v 10.24855232 21.00000000 6.00000000
v 11.00000000 20.38525963 13.00000000
v 11.00000000 20.47420311 14.00000000
v 11.00000000 20.52498627 15.00000000
v 11.00000000 20.56288910 16.00000000
v 11.00000000 20.59863472 17.00000000
v 11.00000000 20.66099930 18.00000000
v 10.34361935 21.00000000 22.00000000
v 11.00000000 21.00000000 21.36525726
v 11.00000000 20.08287239 28.00000000
v 11.00000000 20.36646461 29.00000000
v 11.00000000 20.66388893 30.00000000
v 11.00000000 21.00000000 30.52878952
v 10.14435673 22.00000000 2.00000000
v 11.00000000 21.07987595 22.00000000
v 11.00000000 21.25013924 23.00000000
v 11.00000000 21.43370247 24.00000000
v 11.00000000 21.63804817 25.00000000
v 11.00000000 21.88667679 26.00000000
v 10.16123390 22.00000000 27.00000000
v 11.00000000 22.00000000 26.49632835
v 11.00000000 22.00000000 30.90189934
v 11.00000000 22.11548615 27.00000000
v 11.00000000 22.42172241 28.00000000
v 11.00000000 22.74038124 29.00000000
v 11.00000000 22.92746735 30.00000000
v 12.00000000 8.51506138 13.00000000
v 12.00000000 9.00000000 12.71215343
v 12.00000000 8.37963772 14.00000000
v 12.00000000 8.59424591 15.00000000
v 12.00000000 9.00000000 15.42461491
v 12.00000000 10.00000000 12.71320534
v 12.00000000 10.00000000 15.73782825
v 12.00000000 11.00000000 12.71300793
v 12.00000000 11.00000000 15.89736080
v 12.00000000 12.00000000 12.71091175
v 12.00000000 12.00000000 15.99338722
v 12.00000000 13.00000000 12.70970726
v 12.00000000 12.06246090 16.00000000
v 11.25808144 13.00000000 16.00000000
v 12.00000000 13.00000000 16.10062408
v 12.00000000 14.00000000 12.70980072
v 11.16830635 14.00000000 16.00000000
v 12.00000000 14.00000000 16.12587929
v 12.00000000 15.00000000 12.70990658
v 11.26295662 15.00000000 16.00000000
v 12.00000000 15.00000000 16.12713242
v 12.00000000 16.00000000 12.71111107
v 11.32880116 16.00000000 16.00000000
v 12.00000000 16.00000000 16.09340286
v 12.00000000 17.00000000 12.71018600
v 12.00000000 17.00000000 15.97588348
v 12.00000000 16.78969765 16.00000000
v 12.00000000 18.00000000 12.71254635
v 12.00000000 18.00000000 15.89427567
v 12.00000000 19.00000000 12.71134567
v 12.00000000 18.21944237 16.00000000
v 12.00000000 18.65902901 17.00000000
v 12.00000000 18.70703506 18.00000000
v 12.00000000 18.78587914 19.00000000
v 12.00000000 18.86417961 20.00000000
v 11.80550385 19.00000000 21.00000000
v 12.00000000 19.00000000 20.77902222
v 12.00000000 20.00000000 12.70948982
v 12.00000000 20.00000000 18.47468758
v 12.00000000 19.19690323 19.00000000
v 12.00000000 19.12371635 20.00000000
v 12.00000000 19.03585243 21.00000000
v 12.00000000 20.00000000 20.48147583
v 11.48006821 20.00000000 21.00000000
v 12.00000000 19.08918381 22.00000000
v 12.00000000 19.21436119 23.00000000
v 12.00000000 19.38192940 24.00000000
v 12.00000000 19.55189133 25.00000000
v 12.00000000 19.76272392 26.00000000
v 11.88280201 20.00000000 27.00000000
v 12.00000000 20.00000000 26.92180443
v 12.00000000 20.47137260 13.00000000
v 12.00000000 20.55560875 14.00000000
v 12.00000000 20.65769577 15.00000000
v 12.00000000 20.69672585 16.00000000
v 12.00000000 20.73056412 17.00000000
v 12.00000000 20.79296875 18.00000000
v 12.00000000 20.92283058 21.00000000
v 12.00000000 21.00000000 21.28421211
v 12.00000000 20.01913071 27.00000000
v 12.00000000 20.21398163 28.00000000
v 12.00000000 20.50938225 29.00000000
v 12.00000000 20.80145645 30.00000000
v 12.00000000 21.00000000 30.33333588
v 12.00000000 21.21793938 22.00000000
v 12.00000000 21.38289642 23.00000000
v 12.00000000 21.56875610 24.00000000
v 12.00000000 21.77389908 25.00000000
v 12.00000000 21.99625206 26.00000000
v 12.00000000 22.00000000 26.01558113
v 12.00000000 22.00000000 30.89951134
v 12.00000000 22.24411011 27.00000000
v 12.00000000 22.54986763 28.00000000
v 12.00000000 22.85554504 29.00000000
v 12.00000000 22.95485497 30.00000000
v 13.00000000 8.51453686 13.00000000
v 13.00000000 9.00000000 12.71224213
v 13.00000000 8.37933540 14.00000000
v 13.00000000 8.57740688 15.00000000
v 13.00000000 9.00000000 15.46361732
v 13.00000000 10.00000000 12.71349335
v 13.00000000 10.00000000 15.78480244
v 13.00000000 11.00000000 12.70975876
v 13.00000000 11.00000000 15.97067547
v 13.00000000 12.00000000 12.71100998
v 13.00000000 11.24564266 16.00000000
v 12.06991673 12.00000000 16.00000000
v 13.00000000 12.00000000 16.08903313
v 13.00000000 13.00000000 12.71251965
v 13.00000000 13.00000000 16.18866730
v 13.00000000 14.00000000 12.71141911
v 13.00000000 14.00000000 16.22130585
v 13.00000000 15.00000000 12.71250248
v 13.00000000 15.00000000 16.22273827
v 13.00000000 16.00000000 12.70952511
v 13.00000000 16.00000000 16.19873810
v 13.00000000 17.00000000 12.70970631
v 12.18573093 17.00000000 16.00000000
v 13.00000000 17.00000000 16.10861778
v 13.00000000 18.00000000 12.71182346
v 13.00000000 18.00000000 15.97499847
v 13.00000000 17.81246567 16.00000000
v 13.00000000 19.00000000 12.71001339
v 13.00000000 18.07975197 16.00000000
v 13.00000000 18.74785233 17.00000000
v 13.00000000 18.79686356 18.00000000
v 13.00000000 18.87237549 19.00000000
v 13.00000000 18.94587898 20.00000000
v 13.00000000 19.00000000 20.50946426
v 13.00000000 20.00000000 12.71014595
v 12.47344685 20.00000000 16.00000000
v 13.00000000 20.00000000 15.48880482
v 13.00000000 19.27467537 16.00000000
v 13.00000000 20.00000000 16.48748016
v 12.47838211 20.00000000 19.00000000
v 12.48042679 20.00000000 20.00000000
v 13.00000000 19.05243492 21.00000000
v 13.00000000 19.17064857 22.00000000
v 13.00000000 19.29563904 23.00000000
v 13.00000000 19.46662140 24.00000000
v 13.00000000 19.63225555 25.00000000
v 13.00000000 19.84553146 26.00000000
v 13.00000000 20.00000000 26.75080490
v 13.00000000 20.53287888 13.00000000
v 13.00000000 20.59950829 14.00000000
v 13.00000000 20.73330879 15.00000000
v 13.00000000 20.80789185 17.00000000
v 13.00000000 20.86447334 18.00000000
v 13.00000000 20.94541740 19.00000000
v 13.00000000 20.97147942 20.00000000
v 12.35044098 21.00000000 21.00000000
v 13.00000000 21.00000000 20.15980911
v 13.00000000 20.05105591 27.00000000
v 13.00000000 20.29148674 28.00000000
v 13.00000000 20.58011055 29.00000000
v 13.00000000 20.87061501 30.00000000
v 13.00000000 21.00000000 30.22605324
v 13.00000000 21.16000748 21.00000000
v 13.00000000 21.28750610 22.00000000
v 13.00000000 21.45558929 23.00000000
v 13.00000000 21.63499451 24.00000000
v 13.00000000 21.84261131 25.00000000
v 13.00000000 21.94070244 26.00000000
v 13.00000000 22.00000000 26.18051720
v 13.00000000 22.00000000 30.87698174
v 13.00000000 22.31352615 27.00000000
v 13.00000000 22.62148476 28.00000000
v 13.00000000 22.93328094 29.00000000
v 12.36363697 23.00000000 30.00000000
v 13.00000000 23.00000000 29.46252060
v 13.00000000 23.00000000 30.12947655
v 13.00000000 23.07401276 30.00000000
v 14.00000000 8.50838184 13.00000000
v 14.00000000 9.00000000 12.71111393
v 14.00000000 8.38065529 14.00000000
v 14.00000000 8.54630375 15.00000000
v 14.00000000 9.00000000 15.52175045
v 14.00000000 10.00000000 12.71349335
v 14.00000000 10.00000000 15.85643864
v 14.00000000 11.00000000 12.70867729
v 14.00000000 11.00000000 15.94696522
v 14.00000000 12.00000000 12.71121693
v 14.00000000 11.25067234 16.00000000
v 14.00000000 12.00000000 16.17447853
v 14.00000000 13.00000000 12.70977116
v 14.00000000 13.00000000 16.27889442
v 14.00000000 14.00000000 12.71050549
v 14.00000000 14.00000000 16.31667709
v 14.00000000 15.00000000 12.70912361
v 14.00000000 15.00000000 16.31910896
v 14.00000000 16.00000000 12.71067333
v 14.00000000 16.00000000 16.30061722
v 14.00000000 17.00000000 12.71006966
v 14.00000000 17.00000000 16.19161415
v 14.00000000 18.00000000 12.71253204
v 14.00000000 18.00000000 15.92382908
v 14.00000000 17.68593216 16.00000000
v 14.00000000 19.00000000 12.71185303
v 14.00000000 18.27856827 16.00000000
v 14.00000000 18.81100464 17.00000000
v 14.00000000 18.86055565 18.00000000
v 13.66976070 19.00000000 19.00000000
v 14.00000000 19.00000000 18.69052696
v 13.74766922 19.00000000 20.00000000
v 14.00000000 20.00000000 12.70930862
v 13.47970009 20.00000000 16.00000000
v 13.48073959 20.00000000 17.00000000
v 14.00000000 20.00000000 16.48851967
v 14.00000000 19.17924881 17.00000000
v 14.00000000 20.00000000 17.48418427
v 14.00000000 19.05840874 19.00000000
v 14.00000000 19.01811600 20.00000000
v 14.00000000 19.12060547 21.00000000
v 14.00000000 19.22967720 22.00000000
v 13.52472782 20.00000000 23.00000000
v 14.00000000 20.00000000 22.54957962
v 14.00000000 20.00000000 23.57690239
v 14.00000000 19.53201866 24.00000000
v 14.00000000 19.69957161 25.00000000
v 14.00000000 19.90916634 26.00000000
v 14.00000000 20.00000000 26.42543411
v 14.00000000 20.60502625 13.00000000
v 14.00000000 20.65896416 14.00000000
v 14.00000000 20.62989426 15.00000000
v 14.00000000 20.83346558 16.00000000
v 14.00000000 20.92316437 18.00000000
v 14.00000000 20.98913765 19.00000000
v 13.24065399 21.00000000 20.00000000
v 14.00000000 21.00000000 19.10464668
v 14.00000000 20.55175209 23.00000000
v 14.00000000 20.12253761 27.00000000
v 14.00000000 20.35882759 28.00000000
v 14.00000000 20.64907837 29.00000000
v 14.00000000 20.93623924 30.00000000
v 14.00000000 21.00000000 30.11356926
v 14.00000000 21.09554482 20.00000000
v 14.00000000 21.22144318 21.00000000
v 14.00000000 21.35453606 22.00000000
v 14.00000000 21.51955986 23.00000000
v 14.00000000 21.70192528 24.00000000
v 14.00000000 21.91112518 25.00000000
v 13.33626652 22.00000000 26.00000000
v 14.00000000 22.00000000 25.39654160
v 14.00000000 22.00000000 30.85874939
v 14.00000000 22.13531303 26.00000000
v 14.00000000 22.38087654 27.00000000
v 14.00000000 22.68791008 28.00000000
v 14.00000000 22.97342491 29.00000000
v 14.00000000 23.00000000 29.17908478
v 14.00000000 23.00000000 30.19969749
v 14.00000000 23.12235069 30.00000000
v 15.00000000 8.50379276 13.00000000
v 15.00000000 9.00000000 12.71101665
v 15.00000000 8.37959290 14.00000000
v 15.00000000 8.53824997 15.00000000
v 15.00000000 9.00000000 15.53920364
v 15.00000000 10.00000000 12.71281719
v 15.00000000 10.00000000 15.87327957
v 15.00000000 11.00000000 12.71026993
v 15.00000000 10.61727142 16.00000000
v 14.42971802 11.00000000 16.00000000
v 15.00000000 11.00000000 16.07852936
v 15.00000000 12.00000000 12.71093559
v 15.00000000 12.00000000 16.19368362
v 15.00000000 13.00000000 12.71073723
v 15.00000000 13.00000000 16.29535294
v 15.00000000 14.00000000 12.71018696
v 15.00000000 14.00000000 16.33726692
v 15.00000000 15.00000000 12.70986557
v 15.00000000 15.00000000 16.33680153
v 15.00000000 16.00000000 12.71121311
v 15.00000000 16.00000000 16.31579781
v 15.00000000 17.00000000 12.70913982
v 15.00000000 17.00000000 16.20992088
v 15.00000000 18.00000000 12.71011829
v 14.47999573 18.00000000 16.00000000
v 15.00000000 18.00000000 16.10102463
v 15.00000000 19.00000000 12.71124363
v 15.00000000 18.83650017 17.00000000
v 15.00000000 18.88924026 18.00000000
v 15.00000000 19.00000000 18.76566124
v 15.00000000 20.00000000 12.70823574
v 15.00000000 20.00000000 16.48954201
v 15.00000000 19.15572548 17.00000000
v 15.00000000 20.00000000 17.48387718
v 15.00000000 19.03176308 19.00000000
v 15.00000000 19.04697609 20.00000000
v 14.50694656 20.00000000 21.00000000
v 15.00000000 20.00000000 20.53096771
v 14.50933933 20.00000000 22.00000000
v 15.00000000 19.39368820 23.00000000
v 15.00000000 20.00000000 22.55125427
v 14.51103020 20.00000000 23.00000000
v 15.00000000 19.55808830 24.00000000
v 15.00000000 19.72342873 25.00000000
v 15.00000000 19.93730164 26.00000000
v 15.00000000 20.00000000 26.30944824
v 15.00000000 20.63146210 13.00000000
v 15.00000000 20.67431641 14.00000000
v 15.00000000 20.77866173 15.00000000
v 15.00000000 20.85559273 16.00000000
v 15.00000000 20.95306587 18.00000000
v 15.00000000 20.96179008 19.00000000
v 15.00000000 21.00000000 19.25530815
v 15.00000000 20.77765083 21.00000000
v 15.00000000 20.66329002 22.00000000
v 15.00000000 20.13987350 27.00000000
v 15.00000000 20.38545036 28.00000000
v 15.00000000 20.67094803 29.00000000
v 14.61529732 21.00000000 30.00000000
v 15.00000000 21.00000000 29.89232826
v 15.00000000 21.12087631 20.00000000
v 15.00000000 21.24626160 21.00000000
v 15.00000000 21.37755775 22.00000000
v 15.00000000 21.54421425 23.00000000
v 15.00000000 21.72821236 24.00000000
v 15.00000000 21.92515373 25.00000000
v 15.00000000 22.00000000 25.32515907
v 15.00000000 21.04282761 30.00000000
v 15.00000000 22.00000000 30.85867882
v 15.00000000 22.15629959 26.00000000
v 15.00000000 22.40363312 27.00000000
v 15.00000000 22.70837021 28.00000000
v 15.00000000 22.97808075 29.00000000
v 15.00000000 23.00000000 29.14448738
v 15.00000000 23.00000000 30.21647835
v 15.00000000 23.13371658 30.00000000
v 16.00000000 8.50500488 13.00000000
v 16.00000000 9.00000000 12.71247864
v 16.00000000 8.38074970 14.00000000
v 16.00000000 8.53642464 15.00000000
v 16.00000000 9.00000000 15.53880024
v 16.00000000 10.00000000 12.71173096
v 16.00000000 10.00000000 15.87486172
v 16.00000000 11.00000000 12.71044445
v 15.49167728 11.00000000 16.00000000
v 16.00000000 11.00000000 15.93012142
v 16.00000000 12.00000000 12.71149921
v 16.00000000 11.29353714 16.00000000
v 16.00000000 12.00000000 16.19269562
v 16.00000000 13.00000000 12.71028137
v 16.00000000 13.00000000 16.29537010
v 16.00000000 14.00000000 12.70798492
v 16.00000000 14.00000000 16.33664703
v 16.00000000 15.00000000 12.70995522
v 16.00000000 15.00000000 16.33696747
v 16.00000000 16.00000000 12.71088314
v 16.00000000 16.00000000 16.31552315
v 16.00000000 17.00000000 12.71056080
v 16.00000000 17.00000000 16.20981979
v 16.00000000 18.00000000 12.71149063
v 16.00000000 18.00000000 16.10009193
v 16.00000000 19.00000000 12.70977688
v 16.00000000 18.84045410 17.00000000
v 16.00000000 18.88877296 18.00000000
v 16.00000000 19.00000000 18.72888947
v 16.00000000 20.00000000 12.70990849
v 16.00000000 20.00000000 16.48957825
v 16.00000000 19.15167427 17.00000000
v 16.00000000 20.00000000 17.48446274
v 16.00000000 19.03861237 19.00000000
v 15.49970818 20.00000000 20.00000000
v 16.00000000 20.00000000 19.51788521
v 15.49978161 20.00000000 22.00000000
v 16.00000000 19.26102066 22.00000000
v 16.00000000 20.00000000 21.53775597
v 16.00000000 19.39046669 23.00000000
v 16.00000000 19.55795479 24.00000000
v 16.00000000 19.72277641 25.00000000
v 15.50253296 20.00000000 26.00000000
v 16.00000000 20.00000000 25.81972504
v 16.00000000 20.63665962 13.00000000
v 16.00000000 20.67594910 14.00000000
v 16.00000000 20.81374168 15.00000000
v 16.00000000 20.85613060 16.00000000
v 16.00000000 20.95128250 18.00000000
v 16.00000000 20.96419525 19.00000000
v 16.00000000 20.89181900 20.00000000
v 16.00000000 21.00000000 19.24746513
v 16.00000000 20.77791405 21.00000000
v 16.00000000 20.05407524 26.00000000
v 16.00000000 20.14112663 27.00000000
v 16.00000000 20.38377953 28.00000000
v 16.00000000 20.67354202 29.00000000
v 16.00000000 21.00000000 29.89433670
v 16.00000000 21.11815643 20.00000000
v 16.00000000 21.24691963 21.00000000
v 16.00000000 21.37770462 22.00000000
v 16.00000000 21.54541588 23.00000000
v 16.00000000 21.72985840 24.00000000
v 16.00000000 21.93332481 25.00000000
v 16.00000000 22.00000000 25.29565430
v 16.00000000 21.04149628 30.00000000
v 16.00000000 22.00000000 30.84852219
v 16.00000000 22.15876389 26.00000000
v 16.00000000 22.40149117 27.00000000
v 16.00000000 22.70290756 28.00000000
v 16.00000000 22.97387314 29.00000000
v 16.00000000 23.00000000 29.16332817
v 16.00000000 23.00000000 30.22179794
v 16.00000000 23.13784981 30.00000000
v 17.00000000 8.50950432 13.00000000
v 17.00000000 9.00000000 12.71211529
v 17.00000000 8.38101768 14.00000000
v 17.00000000 8.54273605 15.00000000
v 17.00000000 9.00000000 15.52208328
v 17.00000000 10.00000000 12.71089935
v 17.00000000 10.00000000 15.85162830
v 17.00000000 11.00000000 12.70977211
v 17.00000000 11.00000000 15.95746517
v 17.00000000 12.00000000 12.71175480
v 17.00000000 11.22809219 16.00000000
v 17.00000000 12.00000000 16.15695953
v 17.00000000 13.00000000 12.71108723
v 17.00000000 13.00000000 16.26357460
v 17.00000000 14.00000000 12.71070004
v 17.00000000 14.00000000 16.29788589
v 17.00000000 15.00000000 12.71054840
v 17.00000000 15.00000000 16.29869080
v 17.00000000 16.00000000 12.70983219
v 17.00000000 16.00000000 16.27485275
v 17.00000000 17.00000000 12.70917416
v 17.00000000 17.00000000 16.16669273
v 17.00000000 18.00000000 12.71057224
v 16.62248421 18.00000000 16.00000000
v 17.00000000 18.00000000 15.94765568
v 17.00000000 17.74496078 16.00000000
v 17.00000000 19.00000000 12.71159935
v 17.00000000 18.20267677 16.00000000
v 17.00000000 18.81080055 17.00000000
v 17.00000000 18.86062431 18.00000000
v 17.00000000 19.00000000 18.65702629
v 17.00000000 20.00000000 12.70952034
v 17.00000000 20.00000000 16.48930359
v 17.00000000 19.17925453 17.00000000
v 17.00000000 20.00000000 17.48384666
v 16.50628471 20.00000000 19.00000000
v 17.00000000 20.00000000 18.47884178
v 16.49345589 20.00000000 21.00000000
v 17.00000000 19.11737442 21.00000000
v 17.00000000 20.00000000 20.53090477
v 17.00000000 19.23447227 22.00000000
v 17.00000000 19.36696434 23.00000000
v 17.00000000 19.53044701 24.00000000
v 17.00000000 19.69802856 25.00000000
v 16.40736008 20.00000000 26.00000000
v 17.00000000 19.90997314 26.00000000
v 17.00000000 20.00000000 26.44445610
v 17.00000000 20.60402489 13.00000000
v 17.00000000 20.64247513 14.00000000
v 17.00000000 20.71814156 15.00000000
v 17.00000000 20.83424950 16.00000000
v 17.00000000 20.93107605 18.00000000
v 17.00000000 21.00000000 19.21681976
v 17.00000000 20.91232300 20.00000000
v 17.00000000 20.11348534 27.00000000
v 17.00000000 20.35606575 28.00000000
v 17.00000000 20.64854050 29.00000000
v 17.00000000 21.00000000 29.85935593
v 17.00000000 21.09615898 20.00000000
v 17.00000000 21.22163010 21.00000000
v 17.00000000 21.35393524 22.00000000
v 17.00000000 21.52118874 23.00000000
v 17.00000000 21.70290375 24.00000000
v 17.00000000 21.90690804 25.00000000
v 17.00000000 22.00000000 25.41515541
v 17.00000000 21.06053352 30.00000000
v 17.00000000 22.00000000 30.85721588
v 17.00000000 22.13222885 26.00000000
v 17.00000000 22.38125038 27.00000000
v 17.00000000 22.68613052 28.00000000
v 17.00000000 22.97241211 29.00000000
v 17.00000000 23.00000000 29.17965698
v 17.00000000 23.00000000 30.20660019
v 17.00000000 23.12627792 30.00000000
v 18.00000000 8.50850582 13.00000000
v 18.00000000 9.00000000 12.70873260
v 18.00000000 8.37932396 14.00000000
v 18.00000000 8.56496906 15.00000000
v 18.00000000 9.00000000 15.47452641
v 18.00000000 10.00000000 12.71118069
v 18.00000000 10.00000000 15.80640888
v 18.00000000 11.00000000 12.71150017
v 18.00000000 11.00000000 15.96705627
v 18.00000000 12.00000000 12.71207428
v 18.00000000 11.29590511 16.00000000
v 18.00000000 12.00000000 16.07767296
v 18.00000000 13.00000000 12.71012211
v 18.00000000 13.00000000 16.17290306
v 18.00000000 14.00000000 12.70986843
v 18.00000000 14.00000000 16.20083046
v 18.00000000 15.00000000 12.71019936
v 18.00000000 15.00000000 16.20222664
v 18.00000000 16.00000000 12.71108341
v 18.00000000 16.00000000 16.16945839
v 18.00000000 17.00000000 12.71176434
v 18.00000000 17.00000000 16.07133865
v 18.00000000 18.00000000 12.71154785
v 18.00000000 18.00000000 15.94379616
v 18.00000000 17.56206894 16.00000000
v 18.00000000 19.00000000 12.71187782
v 18.00000000 18.16172600 16.00000000
v 18.00000000 18.74598694 17.00000000
v 18.00000000 18.79178238 18.00000000
v 17.35982132 19.00000000 19.00000000
v 18.00000000 18.87002373 19.00000000
v 18.00000000 19.00000000 19.69618797
v 18.00000000 20.00000000 12.70657063
v 18.00000000 20.00000000 16.48793983
v 18.00000000 19.24046135 17.00000000
v 18.00000000 20.00000000 17.48280144
v 17.51738930 20.00000000 19.00000000
v 18.00000000 19.05223846 20.00000000
v 17.49113846 20.00000000 20.00000000
v 18.00000000 19.04875374 21.00000000
v 18.00000000 19.16759872 22.00000000
v 18.00000000 19.29646492 23.00000000
v 18.00000000 19.46320152 24.00000000
v 18.00000000 19.62925339 25.00000000
v 18.00000000 19.83734894 26.00000000
v 18.00000000 20.00000000 26.77592659
v 18.00000000 20.53644943 13.00000000
v 18.00000000 20.57374763 14.00000000
v 18.00000000 20.73265839 15.00000000
v 18.00000000 20.76514816 16.00000000
v 18.00000000 20.86498833 18.00000000
v 18.00000000 20.94597054 19.00000000
v 18.00000000 20.96939087 20.00000000
v 17.74603081 21.00000000 20.00000000
v 18.00000000 21.00000000 20.16907120
v 18.00000000 20.04726410 27.00000000
v 18.00000000 20.29360580 28.00000000
v 18.00000000 20.58154297 29.00000000
v 17.30244446 21.00000000 30.00000000
v 18.00000000 20.86684608 30.00000000
v 18.00000000 21.00000000 30.23020554
v 18.00000000 21.16103935 21.00000000
v 18.00000000 21.28855896 22.00000000
v 18.00000000 21.45409966 23.00000000
v 18.00000000 21.63940430 24.00000000
v 18.00000000 21.83338165 25.00000000
v 18.00000000 22.00000000 25.70739174
v 18.00000000 22.00000000 30.87984848
v 18.00000000 22.06958961 26.00000000
v 18.00000000 22.31347466 27.00000000
v 18.00000000 22.61482430 28.00000000
v 18.00000000 22.92625999 29.00000000
v 18.00000000 23.00000000 29.48008156
v 18.00000000 23.00000000 30.13418579
v 18.00000000 23.07709312 30.00000000
v 19.00000000 8.51043224 13.00000000
v 19.00000000 9.00000000 12.71045494
v 19.00000000 8.37903881 14.00000000
v 19.00000000 8.59306431 15.00000000
v 19.00000000 9.00000000 15.42276955
v 19.00000000 10.00000000 12.71148777
v 19.00000000 10.00000000 15.72491074
v 19.00000000 11.00000000 12.71103191
v 19.00000000 11.00000000 15.88509274
v 19.00000000 12.00000000 12.71210766
v 18.69680595 12.00000000 16.00000000
v 19.00000000 12.00000000 15.96676445
v 19.00000000 13.00000000 12.71308422
v 18.66174507 13.00000000 16.00000000
v 19.00000000 13.00000000 15.92475891
v 19.00000000 14.00000000 12.70993423
v 19.00000000 13.44541073 16.00000000
v 19.00000000 14.00000000 16.10906029
v 19.00000000 15.00000000 12.70900822
v 19.00000000 15.00000000 16.11593246
v 19.00000000 16.00000000 12.71138954
v 19.00000000 16.00000000 16.07028008
v 19.00000000 17.00000000 12.71243668
v 18.70246124 17.00000000 16.00000000
v 19.00000000 17.00000000 15.96994305
v 19.00000000 16.69900131 16.00000000
v 19.00000000 18.00000000 12.71238899
v 19.00000000 18.00000000 15.87680054
v 19.00000000 19.00000000 12.71156406
v 19.00000000 18.24352264 16.00000000
v 19.00000000 18.66058540 17.00000000
v 19.00000000 18.71238708 18.00000000
v 19.00000000 18.78353310 19.00000000
v 18.29496765 19.00000000 20.00000000
v 19.00000000 18.86306953 20.00000000
v 19.00000000 19.00000000 20.73003769
v 19.00000000 20.00000000 12.70921135
v 18.52642632 20.00000000 16.00000000
v 19.00000000 20.00000000 15.48712635
v 19.00000000 19.35368919 16.00000000
v 19.00000000 19.31795311 17.00000000
v 19.00000000 20.00000000 17.48036003
v 19.00000000 19.04682922 21.00000000
v 19.00000000 19.08709908 22.00000000
v 19.00000000 19.21603584 23.00000000
v 19.00000000 19.38050270 24.00000000
v 19.00000000 19.55143738 25.00000000
v 19.00000000 19.76360321 26.00000000
v 19.00000000 20.00000000 26.97227287
v 19.00000000 20.47069931 13.00000000
v 19.00000000 20.52257919 14.00000000
v 19.00000000 20.65818977 15.00000000
v 19.00000000 20.79637718 18.00000000
v 19.00000000 20.87267876 19.00000000
v 19.00000000 20.96471024 20.00000000
v 19.00000000 21.00000000 20.28158188
v 19.00000000 20.00651169 27.00000000
v 19.00000000 20.21792221 28.00000000
v 19.00000000 20.50490379 29.00000000
v 19.00000000 20.79896355 30.00000000
v 19.00000000 21.00000000 30.33268166
v 19.00000000 21.08990669 21.00000000
v 19.00000000 21.21550941 22.00000000
v 19.00000000 21.38511276 23.00000000
v 19.00000000 21.56833649 24.00000000
v 19.00000000 21.76965523 25.00000000
v 19.00000000 21.97046661 26.00000000
v 18.69246101 22.00000000 26.00000000
v 19.00000000 22.00000000 26.11296272
v 19.00000000 22.00000000 30.89691162
v 19.00000000 22.24493408 27.00000000
v 19.00000000 22.54865646 28.00000000
v 19.00000000 22.86749649 29.00000000
v 19.00000000 22.96621704 30.00000000
v 18.71069908 23.00000000 30.00000000
v 20.00000000 8.52431679 13.00000000
v 20.00000000 9.00000000 12.60153198
v 20.00000000 8.38009930 14.00000000
v 20.00000000 8.60255814 15.00000000
v 20.00000000 9.00000000 15.39416313
v 20.00000000 10.00000000 12.50444317
v 20.00000000 10.00000000 15.67438030
v 20.00000000 11.00000000 12.71075439
v 20.00000000 11.00000000 15.76475716
v 20.00000000 12.00000000 12.71088696
v 20.00000000 12.00000000 15.86291313
v 20.00000000 13.00000000 12.70932102
v 20.00000000 13.00000000 15.93181229
v 20.00000000 14.00000000 12.70896149
v 19.62783241 14.00000000 16.00000000
v 20.00000000 14.00000000 15.93420887
v 20.00000000 15.00000000 12.70845413
v 19.66771698 15.00000000 16.00000000
v 20.00000000 15.00000000 15.94120216
v 20.00000000 16.00000000 12.71056843
v 19.38972282 16.00000000 16.00000000
v 20.00000000 16.00000000 15.88735771
v 20.00000000 17.00000000 12.71270561
v 20.00000000 17.00000000 15.81980705
v 20.00000000 18.00000000 12.71338177
v 20.00000000 18.00000000 15.73189640
v 20.00000000 19.00000000 12.71347046
v 20.00000000 18.34205818 16.00000000
v 20.00000000 18.53000069 17.00000000
v 20.00000000 18.57740974 18.00000000
v 20.00000000 18.65418816 19.00000000
v 20.00000000 18.72922325 20.00000000
v 19.24551392 19.00000000 21.00000000
v 20.00000000 18.84327507 21.00000000
v 20.00000000 19.00000000 21.77708817
v 20.00000000 20.00000000 12.49607468
v 19.55219841 20.00000000 16.00000000
v 19.54921341 20.00000000 17.00000000
v 20.00000000 19.04104042 22.00000000
v 20.00000000 19.08603287 23.00000000
v 20.00000000 19.24992752 24.00000000
v 20.00000000 19.41398048 25.00000000
v 20.00000000 19.62595177 26.00000000
v 19.04271317 20.00000000 27.00000000
v 20.00000000 19.84971809 27.00000000
v 20.00000000 20.00000000 27.68888283
v 20.00000000 20.38954163 13.00000000
v 20.00000000 20.46598625 14.00000000
v 20.00000000 20.52568626 15.00000000
v 20.00000000 20.56221199 16.00000000
v 20.00000000 20.59968758 17.00000000
v 20.00000000 20.66161919 18.00000000
v 20.00000000 20.74248695 19.00000000
v 20.00000000 20.82923698 20.00000000
v 20.00000000 20.95354652 21.00000000
v 19.65826797 21.00000000 21.00000000
v 20.00000000 21.00000000 21.36817169
v 20.00000000 20.06999016 28.00000000
v 20.00000000 20.36747932 29.00000000
v 20.00000000 20.66425705 30.00000000
v 20.00000000 21.00000000 30.52606583
v 20.00000000 21.08082962 22.00000000
v 20.00000000 21.24947548 23.00000000
v 20.00000000 21.43678284 24.00000000
v 20.00000000 21.63521767 25.00000000
v 20.00000000 21.88480759 26.00000000
v 20.00000000 22.00000000 26.51374817
v 20.00000000 22.00000000 30.91791916
v 20.00000000 22.11067581 27.00000000
v 20.00000000 22.42129517 28.00000000
v 20.00000000 22.73797989 29.00000000
v 20.00000000 22.92840958 30.00000000
v 20.85290527 9.00000000 1.00000000
v 21.00000000 8.72388363 1.00000000
v 21.00000000 9.00000000 0.69093943
v 20.80490685 9.00000000 2.00000000
v 21.00000000 8.81352997 2.00000000
v 21.00000000 9.00000000 2.65054655
v 20.80820084 9.00000000 7.00000000
v 21.00000000 8.86316967 7.00000000
v 21.00000000 9.00000000 6.12203074
v 20.67323875 9.00000000 8.00000000
v 21.00000000 8.73793602 8.00000000
v 20.60852814 9.00000000 9.00000000
v 21.00000000 8.66959190 9.00000000
v 20.59618187 9.00000000 10.00000000
v 21.00000000 8.66992474 10.00000000
v 20.61509514 9.00000000 11.00000000
v 21.00000000 8.70861912 11.00000000
v 20.67921638 9.00000000 12.00000000
v 21.00000000 8.77934361 12.00000000
v 21.00000000 8.50227928 13.00000000
v 21.00000000 8.38174248 14.00000000
v 21.00000000 8.63431072 15.00000000
v 21.00000000 9.00000000 15.34743595
v 21.00000000 9.14091969 1.00000000
v 21.00000000 9.29706669 2.00000000
v 21.00000000 9.48774433 7.00000000
v 21.00000000 9.56315041 8.00000000
v 21.00000000 9.61390400 9.00000000
v 21.00000000 9.65187359 10.00000000
v 21.00000000 9.75580311 11.00000000
v 21.00000000 9.86646748 12.00000000
v 21.00000000 10.00000000 12.08944225
v 21.00000000 10.00000000 15.55948925
v 21.00000000 11.00000000 12.71366405
v 21.00000000 11.00000000 15.63584137
v 21.00000000 12.00000000 12.71247196
v 21.00000000 12.00000000 15.69654274
v 21.00000000 13.00000000 12.71158695
v 21.00000000 13.00000000 15.74611950
v 21.00000000 14.00000000 12.71118927
v 21.00000000 14.00000000 15.75487900
v 21.00000000 15.00000000 12.71135998
v 21.00000000 15.00000000 15.76682377
v 21.00000000 16.00000000 12.71189022
v 21.00000000 16.00000000 15.71564865
v 21.00000000 17.00000000 12.71305466
v 21.00000000 17.00000000 15.68365097
v 21.00000000 18.00000000 12.71173191
v 21.00000000 18.00000000 15.61198616
v 21.00000000 19.00000000 12.68482876
v 21.00000000 18.39959908 16.00000000
v 21.00000000 18.45025063 17.00000000
v 21.00000000 18.49759102 18.00000000
v 21.00000000 18.56853104 19.00000000
v 21.00000000 18.63913727 20.00000000
v 21.00000000 18.74169350 21.00000000
v 20.23140335 19.00000000 22.00000000
v 21.00000000 18.85186768 22.00000000
v 21.00000000 19.00000000 22.76427078
v 20.69985962 20.00000000 10.00000000
v 21.00000000 19.86532402 10.00000000
v 21.00000000 20.00000000 9.24259567
v 20.53196144 20.00000000 11.00000000
v 21.00000000 19.73439026 11.00000000
v 20.44142342 20.00000000 12.00000000
v 21.00000000 19.63342285 12.00000000
v 20.57065773 20.00000000 16.00000000
v 21.00000000 20.00000000 15.47936726
v 21.00000000 19.58061600 16.00000000
v 21.00000000 20.00000000 16.47812653
v 21.00000000 19.04264259 23.00000000
v 21.00000000 19.12313271 24.00000000
v 21.00000000 19.27878189 25.00000000
v 21.00000000 19.49142647 26.00000000
v 21.00000000 19.71695328 27.00000000
v 21.00000000 20.00000000 27.87610054
v 20.84989548 21.00000000 5.00000000
v 21.00000000 20.90590477 5.00000000
v 21.00000000 21.00000000 4.64879179
v 20.70911026 21.00000000 6.00000000
v 21.00000000 20.75514603 6.00000000
v 21.00000000 21.00000000 6.86565256
v 21.00000000 20.24812126 10.00000000
v 21.00000000 20.33425903 11.00000000
v 21.00000000 20.37515259 12.00000000
v 21.00000000 20.41523933 13.00000000
v 21.00000000 20.40184402 14.00000000
v 21.00000000 20.39393806 15.00000000
v 21.00000000 20.46601486 17.00000000
v 21.00000000 20.52386284 18.00000000
v 21.00000000 20.60778427 19.00000000
v 21.00000000 20.69841385 20.00000000
v 21.00000000 20.83323097 21.00000000
v 21.00000000 20.96010780 22.00000000
v 20.67148590 21.00000000 22.00000000
v 21.00000000 21.00000000 22.25746155
v 21.00000000 20.03672218 28.00000000
v 21.00000000 20.23313332 29.00000000
v 21.00000000 20.52422333 30.00000000
v 21.00000000 21.00000000 30.69262886
v 20.80237389 22.00000000 2.00000000
v 21.00000000 21.82313347 2.00000000
v 21.00000000 22.00000000 1.46891320
v 21.00000000 22.00000000 2.75896740
v 21.00000000 21.14188957 5.00000000
v 21.00000000 21.20737076 6.00000000
v 21.00000000 21.11515808 23.00000000
v 21.00000000 21.29967308 24.00000000
v 21.00000000 21.49909782 25.00000000
v 21.00000000 21.74480438 26.00000000
v 21.00000000 21.97679138 27.00000000
v 20.82182693 22.00000000 27.00000000
v 21.00000000 22.00000000 27.07942581
v 21.00000000 22.00000000 30.94311905
v 21.00000000 22.18467140 2.00000000
v 21.00000000 22.28082466 28.00000000
v 21.00000000 22.59740639 29.00000000
v 21.00000000 22.79089546 30.00000000
v 21.17925453 9.00000000 1.00000000
v 21.22821426 9.00000000 2.00000000
v 21.22999001 9.00000000 7.00000000
v 21.39291763 9.00000000 8.00000000
v 21.47332191 9.00000000 9.00000000
v 21.48408890 9.00000000 10.00000000
v 21.47171402 9.00000000 11.00000000
v 21.40050507 9.00000000 12.00000000
v 21.86950493 9.00000000 13.00000000
v 21.95130920 9.00000000 14.00000000
v 21.62576103 9.00000000 15.00000000
v 21.84898186 10.00000000 13.00000000
v 21.94641685 10.00000000 14.00000000
v 21.85009575 10.00000000 15.00000000
v 21.83340073 11.00000000 13.00000000
v 21.94631195 11.00000000 14.00000000
v 21.89311028 11.00000000 15.00000000
v 22.00000000 11.44560242 13.00000000
v 22.00000000 12.00000000 12.89795399
v 21.93406105 12.00000000 14.00000000
v 22.00000000 12.00000000 13.48197460
v 21.93736267 12.00000000 15.00000000
v 22.00000000 13.00000000 12.85264397
v 22.00000000 12.42136669 14.00000000
v 21.96715546 13.00000000 15.00000000
v 22.00000000 13.00000000 14.80778885
v 22.00000000 14.00000000 12.80067539
v 21.95188522 14.00000000 15.00000000
v 22.00000000 14.00000000 14.81118870
v 22.00000000 15.00000000 12.76083851
v 22.00000000 14.32540226 15.00000000
v 22.00000000 15.00000000 15.12015629
v 22.00000000 16.00000000 12.73856544
v 22.00000000 16.00000000 15.13788891
v 22.00000000 17.00000000 12.71616650
v 22.00000000 17.00000000 15.14467144
v 22.00000000 18.00000000 12.72786236
v 21.90837860 18.00000000 15.00000000
v 22.00000000 18.00000000 14.79972839
v 22.00000000 17.61974716 15.00000000
v 22.00000000 19.00000000 12.76869392
v 21.95205307 19.00000000 15.00000000
v 22.00000000 19.00000000 14.82586956
v 21.77456093 19.00000000 16.00000000
v 21.75204086 19.00000000 17.00000000
v 21.72176743 19.00000000 18.00000000
v 21.68314362 19.00000000 19.00000000
v 21.62488365 19.00000000 20.00000000
v 21.52597809 19.00000000 21.00000000
v 21.36215782 19.00000000 22.00000000
v 21.21300125 20.00000000 10.00000000
v 21.35195732 20.00000000 11.00000000
v 21.43041611 20.00000000 12.00000000
v 22.00000000 19.63438225 13.00000000
v 21.78314590 20.00000000 13.00000000
v 22.00000000 19.63418961 14.00000000
v 21.77852249 20.00000000 14.00000000
v 21.60718727 20.00000000 15.00000000
v 21.69938278 20.00000000 17.00000000
v 21.76652336 20.00000000 18.00000000
v 21.85610580 20.00000000 19.00000000
v 21.92278671 20.00000000 20.00000000
v 21.97430420 20.00000000 21.00000000
v 21.96030807 20.00000000 22.00000000
v 22.00000000 19.77014732 23.00000000
v 22.00000000 20.00000000 22.28050423
v 22.00000000 19.75637817 24.00000000
v 22.00000000 19.80719757 25.00000000
v 22.00000000 19.86752510 26.00000000
v 21.91413879 20.00000000 27.00000000
v 22.00000000 20.00000000 26.79652786
v 21.16442299 21.00000000 5.00000000
v 21.31115532 21.00000000 6.00000000
v 22.00000000 20.27250671 23.00000000
v 21.29744911 21.00000000 23.00000000
v 22.00000000 20.53782463 24.00000000
v 21.70822906 21.00000000 24.00000000
v 22.00000000 20.94508553 25.00000000
v 21.98491669 21.00000000 25.00000000
v 22.00000000 21.00000000 25.03711700
v 22.00000000 20.07060623 27.00000000
v 22.00000000 20.20912361 28.00000000
v 22.00000000 20.40925407 29.00000000
v 22.00000000 20.62305641 30.00000000
v 22.00000000 21.00000000 30.60331154
v 21.29878807 22.00000000 2.00000000
v 22.00000000 21.27263069 26.00000000
v 22.00000000 21.55669594 27.00000000
v 22.00000000 21.96039772 28.00000000
v 21.93645859 22.00000000 28.00000000
v 22.00000000 22.00000000 28.06260681
v 22.00000000 22.00000000 30.77081299
v 22.00000000 22.32197571 29.00000000
v 22.00000000 22.57855225 30.00000000
v 22.07970619 12.00000000 13.00000000
v 22.12289047 13.00000000 13.00000000
v 22.10524940 13.00000000 14.00000000
v 22.17713356 14.00000000 13.00000000
v 22.16129303 14.00000000 14.00000000
v 22.22808456 15.00000000 13.00000000
v 22.20809174 15.00000000 14.00000000
v 22.08091736 15.00000000 15.00000000
v 22.26192856 16.00000000 13.00000000
v 22.24039078 16.00000000 14.00000000
v 22.09672928 16.00000000 15.00000000
v 22.29347992 17.00000000 13.00000000
v 22.26868248 17.00000000 14.00000000
v 22.10629845 17.00000000 15.00000000
v 22.27298164 18.00000000 13.00000000
v 22.24650192 18.00000000 14.00000000
v 22.21451187 19.00000000 13.00000000
v 22.19747353 19.00000000 14.00000000
v 22.09907150 20.00000000 23.00000000
v 22.14251518 20.00000000 24.00000000
v 22.13590240 20.00000000 25.00000000
v 22.10955048 20.00000000 26.00000000
v 22.20331955 21.00000000 26.00000000
v 22.34016418 21.00000000 27.00000000
v 22.44059181 21.00000000 28.00000000
v 22.46574020 21.00000000 29.00000000
v 22.37814903 21.00000000 30.00000000
v 22.33013916 22.00000000 29.00000000
v 22.51001740 22.00000000 30.00000000
f 3 2 1
f 5 4 1
f 5 1 2
f 6 4 5
f 3 1 7
f 3 7 8
f 9 1 4
f 7 1 9
f 4 6 10
f 11 4 10
f 9 4 11
f 12 11 10
f 8 7 13
f 8 13 14
f 15 7 9
f 13 7 15
f 16 9 11
f 15 9 16
f 11 12 17
f 11 17 16
f 14 13 18
f 14 18 19
f 20 13 15
f 18 13 20
f 21 15 16
f 20 15 21
f 16 17 22
f 16 22 21
f 19 18 23
f 19 23 24
f 25 18 20
f 23 18 25
f 26 20 21
f 25 20 26
f 21 22 27
f 21 27 26
f 24 23 28
f 24 28 29
f 30 23 25
f 28 23 30
f 31 25 26
f 30 25 31
f 26 27 32
f 26 32 31
f 29 28 33
f 29 33 34
f 35 28 30
f 33 28 35
f 36 30 31
f 35 30 36
f 31 32 37
f 31 37 36
f 34 33 38
f 34 38 39
f 40 33 35
f 38 33 40
f 41 35 36
f 40 35 41
f 36 37 42
f 36 42 41
f 39 38 43
f 39 43 44
f 45 38 40
f 43 38 45
f 46 40 41
f 45 40 46
f 41 42 47
f 41 47 46
f 44 43 48
f 44 48 49
f 50 43 45
f 48 43 50
f 51 45 46
f 50 45 51
f 46 47 52
f 46 52 51
f 49 48 53
f 49 53 54
f 55 48 50
f 53 48 55
f 56 50 51
f 55 50 56
f 51 52 57
f 51 57 56
f 58 54 53
f 58 53 55
f 58 55 59
f 59 55 56
f 59 56 60
f 60 56 57
f 63 62 61
f 65 64 61
f 65 61 62
f 66 64 65
f 67 63 61
f 69 68 67
f 61 69 67
f 64 69 61
f 64 66 70
f 71 64 70
f 69 64 71
f 73 72 71
f 73 71 70
f 75 74 72
f 75 72 73
f 77 76 74
f 77 74 75
f 78 76 77
f 79 68 69
f 79 69 71
f 79 71 80
f 80 71 72
f 80 72 81
f 83 82 81
f 72 83 81
f 74 83 72
f 84 74 76
f 83 74 84
f 76 78 85
f 76 85 84
f 86 82 83
f 86 83 84
f 86 84 87
f 87 84 85
f 90 89 88
f 91 88 89
f 94 93 92
f 96 95 92
f 96 92 93
f 98 97 95
f 98 95 96
f 100 99 97
f 100 97 98
f 102 101 99
f 102 99 100
f 104 103 101
f 104 101 102
f 106 105 103
f 106 103 104
f 2 3 105
f 106 2 105
f 107 2 106
f 2 108 5
f 107 108 2
f 110 109 6
f 5 110 6
f 108 110 5
f 111 109 110
f 112 90 88
f 112 88 91
f 113 94 92
f 113 92 95
f 113 95 114
f 114 95 97
f 114 97 115
f 115 97 99
f 115 99 116
f 116 99 101
f 116 101 117
f 117 101 103
f 117 103 118
f 118 103 105
f 118 105 119
f 105 3 119
f 3 120 119
f 3 8 120
f 109 10 6
f 12 10 109
f 111 12 109
f 121 12 111
f 14 120 8
f 14 122 120
f 121 17 12
f 123 17 121
f 19 122 14
f 19 124 122
f 123 22 17
f 125 22 123
f 24 124 19
f 24 126 124
f 125 27 22
f 127 27 125
f 29 126 24
f 29 128 126
f 127 32 27
f 129 32 127
f 34 128 29
f 34 130 128
f 129 37 32
f 131 37 129
f 39 130 34
f 39 132 130
f 131 42 37
f 133 42 131
f 44 132 39
f 44 134 132
f 133 47 42
f 135 47 133
f 49 134 44
f 49 136 134
f 135 52 47
f 137 52 135
f 54 136 49
f 54 138 136
f 140 57 139
f 57 137 139
f 57 52 137
f 142 141 140
f 142 140 139
f 144 143 141
f 144 141 142
f 146 145 143
f 146 143 144
f 148 147 145
f 148 145 146
f 150 149 147
f 150 147 148
f 152 151 149
f 152 149 150
f 153 151 152
f 156 155 154
f 158 157 154
f 158 154 155
f 160 159 157
f 160 157 158
f 161 159 58
f 159 138 58
f 138 54 58
f 138 159 160
f 59 162 58
f 58 162 161
f 60 163 59
f 59 163 162
f 57 140 60
f 140 163 60
f 140 164 163
f 165 140 141
f 164 140 165
f 166 141 143
f 165 141 166
f 145 168 167
f 166 145 167
f 143 145 166
f 168 145 147
f 168 147 169
f 169 147 149
f 169 149 170
f 170 149 151
f 170 151 171
f 171 151 153
f 174 173 172
f 62 63 172
f 173 62 172
f 175 62 173
f 62 176 65
f 175 176 62
f 178 177 66
f 65 178 66
f 176 178 65
f 179 177 178
f 182 181 180
f 183 180 181
f 184 156 154
f 184 154 157
f 184 157 185
f 185 157 159
f 185 159 186
f 186 159 161
f 186 161 187
f 187 161 162
f 187 162 188
f 188 162 163
f 188 163 189
f 189 163 164
f 189 164 190
f 190 164 165
f 190 165 191
f 191 165 166
f 191 166 192
f 192 166 167
f 195 194 193
f 193 194 174
f 172 193 174
f 196 193 172
f 67 197 63
f 197 172 63
f 197 196 172
f 68 197 67
f 177 70 66
f 179 198 177
f 198 70 177
f 198 73 70
f 73 199 75
f 198 199 73
f 75 200 77
f 199 200 75
f 78 77 200
f 78 200 201
f 204 203 202
f 205 202 203
f 206 182 180
f 206 180 183
f 207 195 193
f 207 193 196
f 207 196 208
f 208 196 197
f 208 197 209
f 209 197 68
f 79 209 68
f 210 209 79
f 211 79 80
f 211 210 79
f 213 211 212
f 211 81 212
f 211 80 81
f 82 212 81
f 201 85 78
f 214 85 201
f 215 204 202
f 215 202 205
f 216 213 212
f 216 212 82
f 86 216 82
f 217 216 86
f 218 86 87
f 218 217 86
f 87 85 214
f 87 214 218
f 90 219 89
f 219 91 89
f 94 220 93
f 221 96 93
f 221 93 220
f 222 98 96
f 222 96 221
f 223 100 98
f 223 98 222
f 224 102 100
f 224 100 223
f 225 104 102
f 225 102 224
f 226 106 104
f 226 104 225
f 106 226 227
f 228 106 227
f 107 106 228
f 107 229 108
f 228 229 107
f 108 230 110
f 229 230 108
f 111 110 230
f 111 230 231
f 112 219 90
f 219 112 91
f 113 220 94
f 220 113 114
f 220 114 221
f 221 114 115
f 221 115 222
f 222 115 116
f 222 116 223
f 223 116 117
f 223 117 224
f 224 117 118
f 224 118 225
f 225 118 119
f 225 119 226
f 119 120 226
f 120 227 226
f 120 232 227
f 231 121 111
f 233 121 231
f 122 232 120
f 122 234 232
f 233 123 121
f 235 123 233
f 124 234 122
f 124 236 234
f 235 125 123
f 237 125 235
f 126 236 124
f 126 238 236
f 237 127 125
f 239 127 237
f 128 238 126
f 128 240 238
f 239 129 127
f 241 129 239
f 130 240 128
f 130 242 240
f 241 131 129
f 243 131 241
f 132 242 130
f 132 244 242
f 243 133 131
f 245 133 243
f 134 244 132
f 134 246 244
f 245 135 133
f 247 135 245
f 136 246 134
f 136 248 246
f 247 137 135
f 249 137 247
f 138 248 136
f 138 250 248
f 249 251 137
f 137 251 139
f 139 252 142
f 251 252 139
f 142 253 144
f 252 253 142
f 144 254 146
f 253 254 144
f 146 255 148
f 254 255 146
f 148 256 150
f 255 256 148
f 256 258 257
f 152 256 257
f 150 256 152
f 257 153 152
f 156 259 155
f 260 158 155
f 260 155 259
f 261 160 158
f 261 158 260
f 261 262 160
f 262 138 160
f 262 250 138
f 264 263 168
f 168 263 167
f 265 168 169
f 265 264 168
f 266 169 170
f 266 265 169
f 257 258 267
f 266 269 268
f 269 266 171
f 170 171 266
f 270 257 267
f 257 270 153
f 271 153 270
f 153 271 171
f 269 171 271
f 173 174 271
f 270 173 271
f 272 173 270
f 173 273 175
f 272 273 173
f 175 274 176
f 273 274 175
f 176 275 178
f 274 275 176
f 179 178 275
f 179 275 276
f 182 277 181
f 277 183 181
f 184 259 156
f 259 184 185
f 259 185 260
f 260 185 186
f 260 186 261
f 278 262 261
f 186 278 261
f 187 278 186
f 279 187 188
f 279 278 187
f 280 188 189
f 280 279 188
f 281 189 190
f 281 280 189
f 282 190 191
f 282 281 190
f 283 191 192
f 283 282 191
f 192 167 263
f 192 263 283
f 268 269 284
f 268 284 285
f 195 284 194
f 284 271 194
f 284 269 271
f 194 271 174
f 276 286 179
f 179 286 198
f 198 287 199
f 286 287 198
f 199 288 200
f 287 288 199
f 201 200 288
f 201 288 289
f 204 290 203
f 290 205 203
f 206 277 182
f 277 206 183
f 291 285 284
f 291 284 195
f 207 291 195
f 292 291 207
f 293 207 208
f 293 292 207
f 294 208 209
f 294 293 208
f 295 209 210
f 295 294 209
f 297 295 296
f 295 211 296
f 295 210 211
f 213 296 211
f 289 214 201
f 298 214 289
f 215 290 204
f 290 215 205
f 299 297 296
f 299 296 213
f 216 299 213
f 300 299 216
f 301 216 217
f 301 300 216
f 302 217 218
f 302 301 217
f 218 214 298
f 218 298 302
f 304 303 228
f 304 228 227
f 228 305 229
f 303 305 228
f 229 306 230
f 305 306 229
f 231 230 306
f 231 306 307
f 232 304 227
f 232 308 304
f 307 233 231
f 309 233 307
f 234 308 232
f 234 310 308
f 309 235 233
f 311 235 309
f 236 310 234
f 236 312 310
f 311 237 235
f 313 237 311
f 238 312 236
f 238 314 312
f 316 239 315
f 239 313 315
f 239 237 313
f 317 316 315
f 240 314 238
f 240 318 314
f 319 241 316
f 316 241 239
f 316 317 320
f 316 320 319
f 242 318 240
f 242 321 318
f 322 243 319
f 319 243 241
f 319 320 323
f 319 323 322
f 244 321 242
f 244 324 321
f 325 245 322
f 322 245 243
f 322 323 326
f 322 326 325
f 246 324 244
f 246 327 324
f 329 328 325
f 328 245 325
f 328 247 245
f 329 325 326
f 248 327 246
f 248 330 327
f 328 249 247
f 331 249 328
f 250 330 248
f 250 332 330
f 331 333 249
f 249 333 251
f 251 334 252
f 333 334 251
f 252 335 253
f 334 335 252
f 253 336 254
f 335 336 253
f 254 337 255
f 336 337 254
f 337 339 338
f 256 337 338
f 255 337 256
f 338 258 256
f 262 332 250
f 262 340 332
f 342 341 264
f 264 341 263
f 343 264 265
f 343 342 264
f 338 339 344
f 343 346 345
f 346 343 266
f 265 266 343
f 266 268 346
f 258 338 267
f 344 267 338
f 267 344 347
f 267 348 270
f 347 348 267
f 270 349 272
f 348 349 270
f 272 350 273
f 349 350 272
f 273 351 274
f 350 351 273
f 351 353 352
f 275 351 352
f 274 351 275
f 352 276 275
f 354 340 262
f 354 262 278
f 355 278 279
f 355 354 278
f 356 279 280
f 356 355 279
f 357 280 281
f 357 356 280
f 358 281 282
f 358 357 281
f 359 282 283
f 359 358 282
f 283 263 341
f 283 341 359
f 360 345 346
f 346 268 360
f 268 361 360
f 268 285 361
f 353 362 352
f 352 362 276
f 362 286 276
f 362 363 286
f 286 364 287
f 363 364 286
f 287 365 288
f 364 365 287
f 289 288 365
f 289 365 366
f 367 361 285
f 367 285 291
f 368 291 292
f 368 367 291
f 369 292 293
f 369 368 292
f 370 293 294
f 370 369 293
f 371 294 295
f 371 370 294
f 295 297 371
f 371 297 372
f 366 298 289
f 373 298 366
f 374 372 297
f 374 297 299
f 375 299 300
f 375 374 299
f 376 300 301
f 376 375 300
f 377 301 302
f 377 376 301
f 302 298 373
f 302 373 377
f 379 378 303
f 379 303 304
f 303 380 305
f 378 380 303
f 305 381 306
f 380 381 305
f 307 306 381
f 307 381 382
f 308 379 304
f 308 383 379
f 382 309 307
f 384 309 382
f 310 383 308
f 310 385 383
f 384 311 309
f 386 311 384
f 312 385 310
f 312 387 385
f 389 313 388
f 313 386 388
f 313 311 386
f 390 389 388
f 314 387 312
f 314 391 387
f 389 315 313
f 317 315 389
f 390 317 389
f 392 317 390
f 318 391 314
f 318 393 391
f 392 320 317
f 394 320 392
f 321 393 318
f 321 395 393
f 394 323 320
f 396 323 394
f 324 395 321
f 324 397 395
f 396 326 323
f 398 326 396
f 327 397 324
f 327 399 397
f 400 328 329
f 401 400 329
f 326 401 329
f 398 401 326
f 330 399 327
f 330 402 399
f 404 403 400
f 403 328 400
f 403 331 328
f 404 400 401
f 332 402 330
f 332 405 402
f 403 406 331
f 331 406 333
f 333 407 334
f 406 407 333
f 334 408 335
f 407 408 334
f 335 409 336
f 408 409 335
f 336 410 337
f 409 410 336
f 339 337 410
f 339 410 411
f 340 405 332
f 340 412 405
f 415 414 413
f 413 416 415
f 417 341 342
f 343 418 342
f 342 418 417
f 418 343 345
f 419 344 411
f 339 411 344
f 344 420 347
f 419 420 344
f 347 421 348
f 420 421 347
f 348 422 349
f 421 422 348
f 349 423 350
f 422 423 349
f 350 424 351
f 423 424 350
f 353 351 424
f 353 424 425
f 426 412 340
f 426 340 354
f 427 354 355
f 427 426 354
f 428 355 356
f 428 427 355
f 357 413 414
f 428 357 414
f 356 357 428
f 429 416 413
f 357 429 413
f 358 429 357
f 430 358 359
f 430 429 358
f 359 341 417
f 431 359 417
f 430 359 431
f 431 417 418
f 431 418 432
f 434 432 433
f 433 432 360
f 432 418 360
f 418 345 360
f 361 433 360
f 425 435 353
f 353 435 362
f 362 436 363
f 435 436 362
f 363 437 364
f 436 437 363
f 364 438 365
f 437 438 364
f 366 365 438
f 366 438 439
f 440 434 433
f 440 433 361
f 367 440 361
f 441 440 367
f 442 367 368
f 442 441 367
f 443 368 369
f 443 442 368
f 444 369 370
f 444 443 369
f 445 370 371
f 445 444 370
f 371 372 445
f 445 372 446
f 439 373 366
f 447 373 439
f 448 446 372
f 448 372 374
f 449 374 375
f 449 448 374
f 450 375 376
f 450 449 375
f 452 450 451
f 450 377 451
f 450 376 377
f 453 451 377
f 373 453 377
f 447 453 373
f 454 452 451
f 454 451 453
f 456 455 378
f 456 378 379
f 378 457 380
f 455 457 378
f 380 458 381
f 457 458 380
f 382 381 458
f 382 458 459
f 383 456 379
f 383 460 456
f 459 384 382
f 461 384 459
f 385 460 383
f 385 462 460
f 461 386 384
f 463 386 461
f 387 462 385
f 387 464 462
f 463 465 386
f 386 465 388
f 390 388 465
f 390 465 466
f 391 464 387
f 391 467 464
f 466 392 390
f 468 392 466
f 393 467 391
f 393 469 467
f 468 394 392
f 470 394 468
f 395 469 393
f 395 471 469
f 470 396 394
f 472 396 470
f 397 471 395
f 397 473 471
f 472 398 396
f 474 398 472
f 399 473 397
f 399 475 473
f 474 401 398
f 476 401 474
f 402 475 399
f 402 477 475
f 479 478 404
f 404 478 403
f 404 401 476
f 404 476 479
f 405 477 402
f 405 480 477
f 478 481 403
f 403 481 406
f 406 482 407
f 481 482 406
f 407 483 408
f 482 483 407
f 483 485 484
f 409 483 484
f 408 483 409
f 486 410 409
f 486 409 484
f 486 411 410
f 412 480 405
f 412 487 480
f 488 414 415
f 488 415 416
f 491 490 489
f 489 492 491
f 485 493 484
f 484 493 486
f 486 493 494
f 486 494 411
f 494 419 411
f 494 495 419
f 419 496 420
f 495 496 419
f 496 498 497
f 421 496 497
f 420 496 421
f 421 497 499
f 500 421 499
f 422 421 500
f 422 501 423
f 500 501 422
f 423 502 424
f 501 502 423
f 425 424 502
f 425 502 503
f 504 487 412
f 504 412 426
f 505 426 427
f 505 504 426
f 506 427 428
f 506 505 427
f 428 414 488
f 507 428 488
f 506 428 507
f 507 489 490
f 507 429 489
f 507 488 416
f 429 507 416
f 508 492 489
f 429 508 489
f 430 508 429
f 509 430 431
f 509 508 430
f 511 509 510
f 509 432 510
f 509 431 432
f 434 510 432
f 498 512 497
f 497 512 499
f 503 513 425
f 425 513 435
f 435 514 436
f 513 514 435
f 436 515 437
f 514 515 436
f 437 516 438
f 515 516 437
f 439 438 516
f 439 516 517
f 518 511 510
f 518 510 434
f 440 518 434
f 519 518 440
f 520 440 441
f 520 519 440
f 521 441 442
f 521 520 441
f 522 442 443
f 522 521 442
f 523 443 444
f 523 522 443
f 525 523 524
f 523 445 524
f 523 444 445
f 446 524 445
f 517 447 439
f 526 447 517
f 527 525 524
f 527 524 446
f 448 527 446
f 528 527 448
f 529 448 449
f 529 528 448
f 530 449 450
f 530 529 449
f 450 452 530
f 530 452 531
f 526 453 447
f 532 453 526
f 533 531 452
f 533 452 454
f 454 453 532
f 454 532 533
f 535 534 455
f 535 455 456
f 455 536 457
f 534 536 455
f 457 537 458
f 536 537 457
f 459 458 537
f 459 537 538
f 460 535 456
f 460 539 535
f 538 461 459
f 540 461 538
f 462 539 460
f 462 541 539
f 543 463 542
f 463 540 542
f 463 461 540
f 544 543 542
f 464 541 462
f 464 545 541
f 543 465 463
f 466 465 543
f 544 466 543
f 546 466 544
f 467 545 464
f 467 547 545
f 546 468 466
f 548 468 546
f 469 547 467
f 469 549 547
f 548 470 468
f 550 470 548
f 471 549 469
f 471 551 549
f 550 472 470
f 552 472 550
f 473 551 471
f 473 553 551
f 552 474 472
f 554 474 552
f 475 553 473
f 475 555 553
f 554 476 474
f 556 476 554
f 477 555 475
f 477 557 555
f 558 478 479
f 559 558 479
f 476 559 479
f 556 559 476
f 480 557 477
f 480 560 557
f 558 481 478
f 559 561 558
f 561 481 558
f 561 482 481
f 482 562 483
f 561 562 482
f 485 483 562
f 485 562 563
f 487 560 480
f 487 564 560
f 566 565 491
f 491 565 490
f 491 492 566
f 566 492 567
f 563 568 485
f 485 568 493
f 493 569 494
f 568 569 493
f 569 571 570
f 495 569 570
f 494 569 495
f 572 496 495
f 572 495 570
f 498 496 572
f 575 574 573
f 500 499 575
f 573 500 575
f 576 500 573
f 500 577 501
f 576 577 500
f 501 578 502
f 577 578 501
f 503 502 578
f 503 578 579
f 580 564 487
f 580 487 504
f 581 504 505
f 581 580 504
f 582 505 506
f 582 581 505
f 583 506 507
f 583 582 506
f 507 490 565
f 507 565 583
f 584 567 492
f 584 492 508
f 585 508 509
f 585 584 508
f 509 511 585
f 585 511 586
f 571 587 570
f 570 587 572
f 572 587 588
f 574 575 588
f 575 512 588
f 498 572 588
f 498 588 512
f 512 575 499
f 579 589 503
f 503 589 513
f 513 590 514
f 589 590 513
f 514 591 515
f 590 591 514
f 591 593 592
f 516 591 592
f 515 591 516
f 592 517 516
f 594 586 511
f 594 511 518
f 595 518 519
f 595 594 518
f 596 519 520
f 596 595 519
f 597 520 521
f 597 596 520
f 598 521 522
f 598 597 521
f 599 522 523
f 599 598 522
f 523 525 599
f 599 525 600
f 593 601 592
f 517 592 601
f 602 517 601
f 526 517 602
f 603 600 525
f 603 525 527
f 604 527 528
f 604 603 527
f 605 528 529
f 605 604 528
f 606 529 530
f 606 605 529
f 530 531 606
f 606 531 607
f 602 532 526
f 608 532 602
f 609 607 531
f 609 531 533
f 533 532 608
f 533 608 609
f 611 610 534
f 611 534 535
f 534 612 536
f 610 612 534
f 536 613 537
f 612 613 536
f 538 537 613
f 538 613 614
f 539 611 535
f 539 615 611
f 614 540 538
f 616 540 614
f 541 615 539
f 541 617 615
f 542 540 618
f 540 619 618
f 540 616 619
f 618 544 542
f 545 617 541
f 545 620 617
f 619 621 618
f 544 618 621
f 622 544 621
f 546 544 622
f 547 620 545
f 547 623 620
f 622 548 546
f 624 548 622
f 549 623 547
f 549 625 623
f 624 550 548
f 626 550 624
f 551 625 549
f 551 627 625
f 626 552 550
f 628 552 626
f 553 627 551
f 553 629 627
f 628 554 552
f 630 554 628
f 555 629 553
f 555 631 629
f 630 556 554
f 632 556 630
f 557 631 555
f 557 633 631
f 632 559 556
f 634 559 632
f 560 633 557
f 560 635 633
f 634 636 559
f 559 636 561
f 561 637 562
f 636 637 561
f 563 562 637
f 563 637 638
f 564 635 560
f 564 639 635
f 641 640 566
f 566 640 565
f 566 567 641
f 641 567 642
f 638 643 563
f 563 643 568
f 643 645 644
f 569 643 644
f 568 643 569
f 644 571 569
f 648 647 646
f 573 574 646
f 647 573 646
f 649 573 647
f 573 650 576
f 649 650 573
f 576 651 577
f 650 651 576
f 651 653 652
f 578 651 652
f 577 651 578
f 652 579 578
f 654 639 564
f 654 564 580
f 655 580 581
f 655 654 580
f 656 581 582
f 656 655 581
f 657 582 583
f 657 656 582
f 583 565 640
f 583 640 657
f 658 642 567
f 658 567 584
f 659 584 585
f 659 658 584
f 645 660 644
f 586 659 585
f 659 586 661
f 644 660 571
f 660 587 571
f 660 662 587
f 646 588 648
f 588 662 648
f 588 587 662
f 588 646 574
f 653 663 652
f 652 663 579
f 663 589 579
f 663 664 589
f 589 665 590
f 664 665 589
f 590 666 591
f 665 666 590
f 593 591 666
f 593 666 667
f 668 661 586
f 668 586 594
f 669 594 595
f 669 668 594
f 670 595 596
f 670 669 595
f 671 596 597
f 671 670 596
f 672 597 598
f 672 671 597
f 673 598 599
f 673 672 598
f 599 600 673
f 673 600 674
f 667 675 593
f 593 675 601
f 602 601 675
f 602 675 676
f 677 674 600
f 677 600 603
f 678 603 604
f 678 677 603
f 679 604 605
f 679 678 604
f 680 605 606
f 680 679 605
f 606 607 680
f 680 607 681
f 676 608 602
f 682 608 676
f 683 681 607
f 683 607 609
f 609 608 682
f 609 682 683
f 685 684 610
f 685 610 611
f 610 686 612
f 684 686 610
f 612 687 613
f 686 687 612
f 614 613 687
f 614 687 688
f 615 685 611
f 615 689 685
f 688 616 614
f 690 616 688
f 617 689 615
f 617 691 689
f 690 619 616
f 692 619 690
f 620 691 617
f 620 693 691
f 692 694 619
f 619 694 621
f 622 621 694
f 622 694 695
f 623 693 620
f 623 696 693
f 695 624 622
f 697 624 695
f 625 696 623
f 625 698 696
f 697 626 624
f 699 626 697
f 627 698 625
f 627 700 698
f 699 628 626
f 701 628 699
f 629 700 627
f 629 702 700
f 701 630 628
f 703 630 701
f 631 702 629
f 631 704 702
f 703 632 630
f 705 632 703
f 633 704 631
f 633 706 704
f 709 708 707
f 705 709 707
f 634 705 707
f 632 705 634
f 635 706 633
f 635 710 706
f 708 711 707
f 707 711 634
f 711 636 634
f 711 712 636
f 636 713 637
f 712 713 636
f 638 637 713
f 638 713 714
f 639 710 635
f 639 715 710
f 717 716 641
f 641 716 640
f 641 642 717
f 717 642 718
f 643 638 719
f 638 720 719
f 638 714 720
f 719 645 643
f 723 722 721
f 647 648 721
f 722 647 721
f 724 647 722
f 647 725 649
f 724 725 647
f 649 726 650
f 725 726 649
f 650 727 651
f 726 727 650
f 729 728 653
f 651 729 653
f 727 729 651
f 730 728 729
f 731 715 639
f 731 639 654
f 732 654 655
f 732 731 654
f 733 655 656
f 733 732 655
f 734 656 657
f 734 733 656
f 657 640 716
f 657 716 734
f 735 718 642
f 735 642 658
f 659 719 720
f 735 659 720
f 658 659 735
f 736 659 661
f 659 736 719
f 737 719 736
f 719 737 645
f 660 645 737
f 721 662 723
f 662 737 723
f 662 660 737
f 662 721 648
f 728 663 653
f 730 738 728
f 738 663 728
f 738 664 663
f 664 739 665
f 738 739 664
f 665 740 666
f 739 740 665
f 667 666 740
f 667 740 741
f 742 736 661
f 742 661 668
f 743 668 669
f 743 742 668
f 744 669 670
f 744 743 669
f 745 670 671
f 745 744 670
f 746 671 672
f 746 745 671
f 747 672 673
f 747 746 672
f 673 674 747
f 747 674 748
f 741 749 667
f 667 749 675
f 676 675 749
f 676 749 750
f 751 748 674
f 751 674 677
f 752 677 678
f 752 751 677
f 753 678 679
f 753 752 678
f 754 679 680
f 754 753 679
f 680 681 754
f 754 681 755
f 750 682 676
f 756 682 750
f 757 755 681
f 757 681 683
f 683 682 756
f 683 756 757
f 759 758 684
f 759 684 685
f 684 760 686
f 758 760 684
f 686 761 687
f 760 761 686
f 688 687 761
f 688 761 762
f 689 759 685
f 689 763 759
f 762 690 688
f 764 690 762
f 691 763 689
f 691 765 763
f 764 692 690
f 766 692 764
f 693 765 691
f 693 767 765
f 766 768 692
f 692 768 694
f 695 694 768
f 695 768 769
f 696 767 693
f 696 770 767
f 769 697 695
f 771 697 769
f 698 770 696
f 698 772 770
f 771 699 697
f 773 699 771
f 700 772 698
f 700 774 772
f 773 701 699
f 775 701 773
f 702 774 700
f 702 776 774
f 775 703 701
f 777 703 775
f 704 776 702
f 704 778 776
f 777 705 703
f 779 705 777
f 706 778 704
f 706 780 778
f 782 781 709
f 709 781 708
f 709 705 779
f 709 779 782
f 710 780 706
f 710 783 780
f 781 784 708
f 708 784 711
f 711 785 712
f 784 785 711
f 712 786 713
f 785 786 712
f 788 787 714
f 713 788 714
f 786 788 713
f 789 787 788
f 715 783 710
f 715 790 783
f 792 791 717
f 717 791 716
f 717 718 792
f 792 718 793
f 794 720 787
f 787 720 714
f 787 789 795
f 796 787 795
f 794 787 796
f 722 723 796
f 795 722 796
f 797 722 795
f 722 798 724
f 797 798 722
f 724 799 725
f 798 799 724
f 725 800 726
f 799 800 725
f 726 801 727
f 800 801 726
f 727 802 729
f 801 802 727
f 730 729 802
f 730 802 803
f 804 790 715
f 804 715 731
f 805 731 732
f 805 804 731
f 806 732 733
f 806 805 732
f 807 733 734
f 807 806 733
f 734 716 791
f 734 791 807
f 808 793 718
f 808 718 735
f 735 720 794
f 809 735 794
f 808 735 809
f 809 811 810
f 811 809 736
f 794 736 809
f 736 794 737
f 796 737 794
f 796 723 737
f 812 810 811
f 803 813 730
f 730 813 738
f 738 814 739
f 813 814 738
f 739 815 740
f 814 815 739
f 817 816 741
f 740 817 741
f 815 817 740
f 818 816 817
f 742 811 736
f 819 812 811
f 742 819 811
f 743 819 742
f 820 743 744
f 820 819 743
f 821 744 745
f 821 820 744
f 822 745 746
f 822 821 745
f 823 746 747
f 823 822 746
f 747 748 823
f 823 748 824
f 816 749 741
f 750 749 816
f 818 750 816
f 825 750 818
f 826 824 748
f 826 748 751
f 827 751 752
f 827 826 751
f 828 752 753
f 828 827 752
f 829 753 754
f 829 828 753
f 754 755 829
f 829 755 830
f 825 756 750
f 831 756 825
f 832 830 755
f 832 755 757
f 757 756 831
f 757 831 832
f 834 833 758
f 834 758 759
f 758 835 760
f 833 835 758
f 760 836 761
f 835 836 760
f 762 761 836
f 762 836 837
f 763 834 759
f 763 838 834
f 837 764 762
f 839 764 837
f 765 838 763
f 765 840 838
f 839 766 764
f 841 766 839
f 767 840 765
f 767 842 840
f 768 766 843
f 766 844 843
f 766 841 844
f 843 769 768
f 770 842 767
f 770 845 842
f 843 844 846
f 846 844 847
f 846 771 769
f 846 769 843
f 772 845 770
f 772 848 845
f 847 849 846
f 771 846 849
f 850 771 849
f 773 771 850
f 774 848 772
f 774 851 848
f 850 775 773
f 852 775 850
f 776 851 774
f 776 853 851
f 852 777 775
f 854 777 852
f 778 853 776
f 778 855 853
f 858 857 856
f 854 858 856
f 779 854 856
f 777 854 779
f 780 855 778
f 780 859 855
f 856 857 782
f 857 781 782
f 857 860 781
f 856 782 779
f 783 859 780
f 783 861 859
f 860 862 781
f 781 862 784
f 784 863 785
f 862 863 784
f 785 864 786
f 863 864 785
f 786 865 788
f 864 865 786
f 867 866 789
f 788 867 789
f 865 867 788
f 868 866 867
f 790 861 783
f 790 869 861
f 872 871 870
f 791 792 870
f 792 872 870
f 792 873 872
f 792 793 873
f 873 793 874
f 866 795 789
f 868 875 866
f 875 795 866
f 875 797 795
f 797 876 798
f 875 876 797
f 798 877 799
f 876 877 798
f 799 878 800
f 877 878 799
f 800 879 801
f 878 879 800
f 801 880 802
f 879 880 801
f 803 802 880
f 803 880 881
f 882 869 790
f 882 790 804
f 883 804 805
f 883 882 804
f 884 805 806
f 884 883 805
f 807 870 871
f 884 807 871
f 806 807 884
f 870 807 791
f 885 874 793
f 885 793 808
f 886 808 809
f 886 885 808
f 887 809 810
f 887 886 809
f 810 812 887
f 887 812 888
f 881 889 803
f 803 889 813
f 813 890 814
f 889 890 813
f 814 891 815
f 890 891 814
f 815 892 817
f 891 892 815
f 818 817 892
f 818 892 893
f 894 888 812
f 894 812 819
f 895 819 820
f 895 894 819
f 896 820 821
f 896 895 820
f 897 821 822
f 897 896 821
f 898 822 823
f 898 897 822
f 900 899 824
f 899 823 824
f 899 898 823
f 900 901 899
f 893 825 818
f 902 825 893
f 826 900 824
f 903 901 900
f 826 903 900
f 827 903 826
f 904 827 828
f 904 903 827
f 905 828 829
f 905 904 828
f 907 906 830
f 906 829 830
f 906 905 829
f 902 906 907
f 831 902 907
f 825 902 831
f 832 907 830
f 907 832 831
f 909 908 833
f 909 833 834
f 833 910 835
f 908 910 833
f 835 911 836
f 910 911 835
f 837 836 911
f 837 911 912
f 838 909 834
f 838 913 909
f 912 839 837
f 914 839 912
f 840 913 838
f 840 915 913
f 914 841 839
f 916 841 914
f 842 915 840
f 842 917 915
f 916 844 841
f 918 844 916
f 845 917 842
f 845 919 917
f 918 847 844
f 920 847 918
f 848 919 845
f 848 921 919
f 849 847 922
f 847 923 922
f 847 920 923
f 922 850 849
f 851 921 848
f 851 924 921
f 922 923 925
f 925 923 926
f 925 852 850
f 925 850 922
f 853 924 851
f 853 927 924
f 925 926 928
f 928 926 929
f 928 854 852
f 928 852 925
f 855 927 853
f 855 930 927
f 928 929 858
f 929 857 858
f 929 931 857
f 928 858 854
f 859 930 855
f 859 932 930
f 931 860 857
f 933 860 931
f 861 932 859
f 861 934 932
f 933 935 860
f 860 935 862
f 862 936 863
f 935 936 862
f 863 937 864
f 936 937 863
f 864 938 865
f 937 938 864
f 865 939 867
f 938 939 865
f 941 940 868
f 867 941 868
f 939 941 867
f 942 940 941
f 869 934 861
f 869 943 934
f 944 871 872
f 873 945 872
f 872 945 944
f 874 945 873
f 940 875 868
f 942 946 940
f 946 875 940
f 946 876 875
f 876 947 877
f 946 947 876
f 877 948 878
f 947 948 877
f 878 949 879
f 948 949 878
f 879 950 880
f 949 950 879
f 952 951 881
f 880 952 881
f 950 952 880
f 953 951 952
f 954 943 869
f 954 869 882
f 955 882 883
f 955 954 882
f 956 883 884
f 956 955 883
f 884 871 944
f 957 884 944
f 956 884 957
f 957 944 945
f 957 945 958
f 958 945 874
f 885 958 874
f 959 958 885
f 960 885 886
f 960 959 885
f 961 886 887
f 961 960 886
f 963 962 888
f 962 887 888
f 962 961 887
f 963 964 962
f 951 889 881
f 953 965 951
f 965 889 951
f 965 890 889
f 890 966 891
f 965 966 890
f 891 967 892
f 966 967 891
f 893 892 967
f 893 967 968
f 894 963 888
f 969 964 963
f 894 969 963
f 895 969 894
f 970 895 896
f 970 969 895
f 971 896 897
f 971 970 896
f 972 897 898
f 972 971 897
f 973 898 899
f 973 972 898
f 899 901 973
f 973 901 974
f 968 902 893
f 975 902 968
f 976 974 901
f 976 901 903
f 977 903 904
f 977 976 903
f 978 904 905
f 978 977 904
f 979 905 906
f 979 978 905
f 906 902 975
f 906 975 979
f 982 981 980
f 984 983 980
f 984 980 981
f 985 983 984
f 988 987 986
f 990 989 986
f 990 986 987
f 992 991 989
f 992 989 990
f 994 993 991
f 994 991 992
f 996 995 993
f 996 993 994
f 998 997 995
f 998 995 996
f 908 909 997
f 998 908 997
f 999 908 998
f 908 1000 910
f 999 1000 908
f 910 1001 911
f 1000 1001 910
f 912 911 1001
f 912 1001 1002
f 1003 982 980
f 1003 980 983
f 1003 983 1004
f 1004 983 985
f 1005 988 986
f 1005 986 989
f 1005 989 1006
f 1006 989 991
f 1006 991 1007
f 1007 991 993
f 1007 993 1008
f 1008 993 995
f 1008 995 1009
f 1009 995 997
f 1009 997 1010
f 997 909 1010
f 909 1011 1010
f 909 913 1011
f 1002 914 912
f 1012 914 1002
f 915 1011 913
f 915 1013 1011
f 1012 916 914
f 1014 916 1012
f 917 1013 915
f 917 1015 1013
f 1014 918 916
f 1016 918 1014
f 919 1015 917
f 919 1017 1015
f 1016 920 918
f 1018 920 1016
f 921 1017 919
f 921 1019 1017
f 1018 923 920
f 1020 923 1018
f 924 1019 921
f 924 1021 1019
f 1020 926 923
f 1022 926 1020
f 927 1021 924
f 927 1023 1021
f 1022 929 926
f 1024 929 1022
f 930 1023 927
f 930 1025 1023
f 1024 931 929
f 1026 931 1024
f 932 1025 930
f 932 1027 1025
f 1026 933 931
f 1028 933 1026
f 934 1027 932
f 934 1029 1027
f 1028 1030 933
f 933 1030 935
f 935 1031 936
f 1030 1031 935
f 936 1032 937
f 1031 1032 936
f 937 1033 938
f 1032 1033 937
f 938 1034 939
f 1033 1034 938
f 939 1035 941
f 1034 1035 939
f 1037 1036 942
f 941 1037 942
f 1035 1037 941
f 1038 1036 1037
f 1041 1040 1039
f 1043 1042 1039
f 1043 1039 1040
f 1045 1044 1042
f 1045 1042 1043
f 1045 1029 1044
f 1029 943 1044
f 1029 934 943
f 1048 1047 1046
f 1046 1049 1048
f 1036 946 942
f 1038 1050 1036
f 1050 946 1036
f 1050 947 946
f 947 1051 948
f 1050 1051 947
f 948 1052 949
f 1051 1052 948
f 949 1053 950
f 1052 1053 949
f 950 1054 952
f 1053 1054 950
f 953 952 1054
f 953 1054 1055
f 1058 1057 1056
f 1060 1059 1056
f 1060 1056 1057
f 1061 1059 1060
f 1062 1041 1039
f 1062 1039 1042
f 1062 1042 1063
f 1063 1042 1044
f 1063 1044 1064
f 1064 1044 943
f 954 1064 943
f 1065 1064 954
f 1066 954 955
f 1066 1065 954
f 1067 955 956
f 1067 1066 955
f 957 1046 1047
f 1067 957 1047
f 956 957 1067
f 1068 1049 1046
f 957 1068 1046
f 958 1068 957
f 1069 958 959
f 1069 1068 958
f 1070 959 960
f 1070 1069 959
f 1071 960 961
f 1071 1070 960
f 1072 961 962
f 1072 1071 961
f 1074 1073 964
f 1073 962 964
f 1073 1072 962
f 1074 1075 1073
f 1055 1076 953
f 953 1076 965
f 965 1077 966
f 1076 1077 965
f 966 1078 967
f 1077 1078 966
f 968 967 1078
f 968 1078 1079
f 1082 1081 1080
f 1083 1080 1081
f 1084 1058 1056
f 1084 1056 1059
f 1084 1059 1085
f 1085 1059 1061
f 969 1074 964
f 1086 1075 1074
f 969 1086 1074
f 970 1086 969
f 1087 970 971
f 1087 1086 970
f 1088 971 972
f 1088 1087 971
f 1089 972 973
f 1089 1088 972
f 1091 1090 974
f 1090 973 974
f 1090 1089 973
f 1091 1092 1090
f 1079 975 968
f 1093 975 1079
f 1094 1082 1080
f 1094 1080 1083
f 976 1091 974
f 1095 1092 1091
f 976 1095 1091
f 977 1095 976
f 1096 977 978
f 1096 1095 977
f 1097 978 979
f 1097 1096 978
f 979 975 1093
f 979 1093 1097
f 982 1098 981
f 1099 984 981
f 1099 981 1098
f 1099 985 984
f 988 1100 987
f 1101 990 987
f 1101 987 1100
f 1102 992 990
f 1102 990 1101
f 1103 994 992
f 1103 992 1102
f 1104 996 994
f 1104 994 1103
f 1105 998 996
f 1105 996 1104
f 1106 999 998
f 1106 998 1105
f 1107 1000 999
f 1107 999 1106
f 1108 1001 1000
f 1108 1000 1107
f 1108 1002 1001
f 1003 1098 982
f 1098 1003 1004
f 1098 1004 1099
f 1099 1004 985
f 1005 1100 988
f 1100 1005 1006
f 1100 1006 1101
f 1101 1006 1007
f 1101 1007 1102
f 1102 1007 1008
f 1102 1008 1103
f 1103 1008 1009
f 1103 1009 1104
f 1104 1009 1010
f 1104 1010 1105
f 1105 1010 1011
f 1109 1105 1011
f 1106 1105 1109
f 1106 1110 1107
f 1106 1109 1110
f 1107 1111 1108
f 1107 1110 1111
f 1111 1012 1002
f 1111 1002 1108
f 1013 1112 1109
f 1013 1109 1011
f 1109 1113 1110
f 1109 1112 1113
f 1110 1114 1111
f 1110 1113 1114
f 1114 1014 1012
f 1114 1012 1111
f 1116 1115 1112
f 1013 1116 1112
f 1015 1116 1013
f 1118 1117 1115
f 1117 1112 1115
f 1117 1113 1112
f 1113 1119 1114
f 1113 1117 1119
f 1119 1016 1014
f 1119 1014 1114
f 1017 1116 1015
f 1017 1120 1116
f 1118 1121 1117
f 1123 1122 1121
f 1122 1117 1121
f 1122 1119 1117
f 1122 1018 1016
f 1122 1016 1119
f 1019 1120 1017
f 1019 1124 1120
f 1122 1123 1125
f 1125 1123 1126
f 1125 1020 1018
f 1125 1018 1122
f 1021 1124 1019
f 1021 1127 1124
f 1126 1128 1125
f 1020 1125 1128
f 1129 1020 1128
f 1022 1020 1129
f 1023 1127 1021
f 1023 1130 1127
f 1129 1024 1022
f 1131 1024 1129
f 1025 1130 1023
f 1025 1132 1130
f 1131 1026 1024
f 1133 1026 1131
f 1027 1132 1025
f 1027 1134 1132
f 1137 1136 1135
f 1133 1137 1135
f 1028 1133 1135
f 1026 1133 1028
f 1029 1134 1027
f 1029 1138 1134
f 1135 1136 1139
f 1139 1136 1140
f 1141 1030 1028
f 1135 1141 1028
f 1139 1141 1135
f 1142 1031 1030
f 1142 1030 1141
f 1143 1032 1031
f 1143 1031 1142
f 1144 1033 1032
f 1144 1032 1143
f 1145 1034 1033
f 1145 1033 1144
f 1146 1035 1034
f 1146 1034 1145
f 1147 1037 1035
f 1147 1035 1146
f 1147 1038 1037
f 1041 1148 1040
f 1149 1043 1040
f 1149 1040 1148
f 1150 1045 1043
f 1150 1043 1149
f 1138 1029 1151
f 1029 1150 1151
f 1150 1152 1151
f 1029 1045 1150
f 1154 1153 1152
f 1152 1153 1151
f 1153 1154 1140
f 1154 1139 1140
f 1154 1155 1139
f 1155 1047 1048
f 1141 1155 1048
f 1139 1155 1141
f 1141 1048 1049
f 1156 1141 1049
f 1142 1141 1156
f 1142 1157 1143
f 1142 1156 1157
f 1143 1158 1144
f 1143 1157 1158
f 1144 1159 1145
f 1144 1158 1159
f 1145 1160 1146
f 1145 1159 1160
f 1146 1161 1147
f 1146 1160 1161
f 1147 1161 1038
f 1161 1162 1038
f 1162 1050 1038
f 1161 1163 1162
f 1050 1164 1051
f 1162 1164 1050
f 1051 1165 1052
f 1164 1165 1051
f 1052 1166 1053
f 1165 1166 1052
f 1166 1168 1167
f 1054 1166 1167
f 1053 1166 1054
f 1167 1055 1054
f 1058 1169 1057
f 1170 1060 1057
f 1170 1057 1169
f 1170 1061 1060
f 1062 1148 1041
f 1148 1062 1063
f 1148 1063 1149
f 1149 1063 1064
f 1149 1064 1150
f 1150 1064 1065
f 1150 1065 1152
f 1152 1065 1066
f 1152 1066 1154
f 1154 1066 1067
f 1154 1067 1155
f 1155 1067 1047
f 1068 1156 1049
f 1156 1068 1069
f 1156 1069 1157
f 1157 1069 1070
f 1157 1070 1158
f 1158 1070 1071
f 1158 1071 1159
f 1159 1071 1072
f 1159 1072 1160
f 1160 1072 1073
f 1160 1073 1161
f 1172 1171 1075
f 1075 1171 1073
f 1171 1163 1073
f 1163 1161 1073
f 1174 1173 1172
f 1172 1173 1171
f 1176 1175 1174
f 1174 1175 1173
f 1176 1177 1175
f 1168 1178 1167
f 1167 1178 1055
f 1178 1076 1055
f 1178 1179 1076
f 1076 1180 1077
f 1179 1180 1076
f 1077 1181 1078
f 1180 1181 1077
f 1079 1078 1181
f 1079 1181 1182
f 1082 1183 1081
f 1183 1083 1081
f 1084 1169 1058
f 1169 1084 1085
f 1169 1085 1170
f 1170 1085 1061
f 1086 1172 1075
f 1172 1086 1087
f 1172 1087 1174
f 1174 1087 1088
f 1174 1088 1176
f 1184 1177 1176
f 1088 1184 1176
f 1089 1184 1088
f 1185 1089 1090
f 1185 1184 1089
f 1187 1186 1092
f 1186 1090 1092
f 1186 1185 1090
f 1187 1188 1186
f 1182 1093 1079
f 1189 1093 1182
f 1094 1183 1082
f 1183 1094 1083
f 1095 1187 1092
f 1190 1188 1187
f 1095 1190 1187
f 1096 1190 1095
f 1191 1096 1097
f 1191 1190 1096
f 1097 1093 1189
f 1097 1189 1191
f 1116 1192 1115
f 1192 1118 1115
f 1120 1193 1192
f 1120 1192 1116
f 1194 1121 1118
f 1192 1194 1118
f 1193 1194 1192
f 1194 1123 1121
f 1124 1195 1193
f 1124 1193 1120
f 1193 1196 1194
f 1193 1195 1196
f 1196 1126 1123
f 1196 1123 1194
f 1127 1197 1195
f 1127 1195 1124
f 1195 1198 1196
f 1195 1197 1198
f 1199 1128 1126
f 1196 1199 1126
f 1198 1199 1196
f 1199 1129 1128
f 1130 1200 1197
f 1130 1197 1127
f 1197 1201 1198
f 1197 1200 1201
f 1198 1202 1199
f 1198 1201 1202
f 1202 1131 1129
f 1202 1129 1199
f 1132 1203 1200
f 1132 1200 1130
f 1200 1204 1201
f 1200 1203 1204
f 1201 1205 1202
f 1201 1204 1205
f 1205 1133 1131
f 1205 1131 1202
f 1134 1206 1203
f 1134 1203 1132
f 1203 1207 1204
f 1203 1206 1207
f 1207 1136 1137
f 1205 1207 1137
f 1204 1207 1205
f 1205 1137 1133
f 1138 1208 1206
f 1138 1206 1134
f 1206 1209 1207
f 1206 1208 1209
f 1209 1140 1136
f 1209 1136 1207
f 1151 1208 1138
f 1208 1151 1153
f 1208 1153 1209
f 1209 1153 1140
f 1163 1210 1162
f 1211 1164 1162
f 1211 1162 1210
f 1212 1165 1164
f 1212 1164 1211
f 1213 1166 1165
f 1213 1165 1212
f 1213 1168 1166
f 1171 1210 1163
f 1210 1171 1173
f 1210 1173 1211
f 1211 1173 1175
f 1211 1175 1212
f 1212 1175 1177
f 1214 1212 1177
f 1213 1212 1214
f 1215 1178 1168
f 1213 1215 1168
f 1214 1215 1213
f 1216 1179 1178
f 1216 1178 1215
f 1217 1180 1179
f 1217 1179 1216
f 1218 1181 1180
f 1218 1180 1217
f 1218 1182 1181
f 1184 1214 1177
f 1214 1184 1185
f 1214 1185 1215
f 1215 1185 1186
f 1215 1186 1216
f 1216 1186 1188
f 1219 1216 1188
f 1217 1216 1219
f 1217 1220 1218
f 1217 1219 1220
f 1220 1189 1182
f 1220 1182 1218
f 1190 1219 1188
f 1219 1190 1191
f 1219 1191 1220
f 1220 1191 1189

