# https://github.com/mikedh/trimesh
v 4.93846941 10.00000000 14.00000000
v 5.00000000 9.82416153 14.00000000
v 5.00000000 10.00000000 13.50178814
v 5.00000000 10.00000000 14.08184338
v 5.00000000 10.06896782 14.00000000
v 4.23946428 23.00000000 21.00000000
v 5.00000000 22.62386322 21.00000000
v 5.00000000 23.00000000 20.74484444
v 5.00000000 23.00000000 21.43363953
v 5.00000000 23.26740646 21.00000000
v 5.26089144 10.00000000 13.00000000
v 6.00000000 9.61980152 13.00000000
v 6.00000000 10.00000000 12.72228622
v 6.00000000 9.62645721 14.00000000
v 6.00000000 10.00000000 14.28016090
v 6.00000000 10.29898548 13.00000000
v 6.00000000 10.29461956 14.00000000
v 6.00000000 22.62006950 21.00000000
v 6.00000000 23.00000000 20.74540520
v 6.00000000 23.00000000 21.87930107
v 6.00000000 23.30301476 21.00000000
v 7.00000000 9.55046177 13.00000000
v 7.00000000 10.00000000 12.42843437
v 7.00000000 9.56526756 14.00000000
v 7.00000000 10.00000000 14.56147957
v 6.74831915 11.00000000 1.00000000
v 7.00000000 10.54610634 1.00000000
v 7.00000000 11.00000000 0.12797301
v 6.75317001 11.00000000 2.00000000
v 7.00000000 10.56027603 2.00000000
v 6.74474764 11.00000000 3.00000000
v 7.00000000 10.55410862 3.00000000
v 6.75036430 11.00000000 4.00000000
v 7.00000000 10.55630398 4.00000000
v 6.74603224 11.00000000 5.00000000
v 7.00000000 10.55236626 5.00000000
v 6.73928928 11.00000000 6.00000000
v 7.00000000 10.53831196 6.00000000
v 6.74590254 11.00000000 7.00000000
v 7.00000000 10.54998207 7.00000000
v 6.74471998 11.00000000 8.00000000
v 7.00000000 10.55836487 8.00000000
v 6.73624516 11.00000000 9.00000000
v 7.00000000 10.54974651 9.00000000
v 6.73907614 11.00000000 10.00000000
v 7.00000000 10.54588318 10.00000000
v 6.74468660 11.00000000 11.00000000
v 7.00000000 10.55005836 11.00000000
v 6.72938585 11.00000000 12.00000000
v 7.00000000 10.54137135 12.00000000
v 6.74039602 11.00000000 13.00000000
v 6.73058414 11.00000000 14.00000000
v 7.00000000 10.55601215 15.00000000
v 6.74212837 11.00000000 15.00000000
v 6.73299789 11.00000000 16.00000000
v 7.00000000 10.54706478 16.00000000
v 6.73576546 11.00000000 17.00000000
v 7.00000000 10.54333210 17.00000000
v 6.73698235 11.00000000 18.00000000
v 7.00000000 10.54768848 18.00000000
v 6.74154234 11.00000000 19.00000000
v 7.00000000 10.55304909 19.00000000
v 6.74398232 11.00000000 20.00000000
v 7.00000000 10.55174065 20.00000000
v 6.73249292 11.00000000 21.00000000
v 7.00000000 10.53350544 21.00000000
v 7.00000000 11.00000000 21.88053894
v 6.73929787 12.00000000 1.00000000
v 7.00000000 12.00000000 0.02178023
v 6.74259186 12.00000000 2.00000000
v 6.74755716 12.00000000 3.00000000
v 6.74690008 12.00000000 4.00000000
v 6.73983669 12.00000000 5.00000000
v 6.74490643 12.00000000 6.00000000
v 6.74360371 12.00000000 7.00000000
v 6.74159765 12.00000000 8.00000000
v 6.74555588 12.00000000 9.00000000
v 6.74100351 12.00000000 10.00000000
v 6.74028969 12.00000000 11.00000000
v 6.73510361 12.00000000 12.00000000
v 6.72616673 12.00000000 13.00000000
v 6.72986889 12.00000000 14.00000000
v 6.73060513 12.00000000 15.00000000
v 6.71856260 12.00000000 16.00000000
v 6.74067926 12.00000000 17.00000000
v 6.73460388 12.00000000 18.00000000
v 6.74086046 12.00000000 19.00000000
v 6.74143219 12.00000000 20.00000000
v 6.72786379 12.00000000 21.00000000
v 7.00000000 12.00000000 21.93999481
v 6.75197172 13.00000000 1.00000000
v 7.00000000 13.00000000 0.12016217
v 6.75104189 13.00000000 2.00000000
v 6.74622297 13.00000000 3.00000000
v 6.75078917 13.00000000 4.00000000
v 6.73779011 13.00000000 5.00000000
v 6.73450422 13.00000000 6.00000000
v 6.74684381 13.00000000 7.00000000
v 6.74085188 13.00000000 8.00000000
v 6.73723173 13.00000000 9.00000000
v 6.74299908 13.00000000 10.00000000
v 6.73672867 13.00000000 11.00000000
v 6.73910379 13.00000000 12.00000000
v 6.74272203 13.00000000 13.00000000
v 6.73853445 13.00000000 14.00000000
v 6.72501373 13.00000000 15.00000000
v 6.72324753 13.00000000 16.00000000
v 6.73231554 13.00000000 17.00000000
v 6.73600149 13.00000000 18.00000000
v 6.74135399 13.00000000 19.00000000
v 6.74141741 13.00000000 20.00000000
v 6.73485947 13.00000000 21.00000000
v 7.00000000 13.00000000 21.93789673
v 6.74562645 14.00000000 1.00000000
v 7.00000000 14.00000000 0.15170890
v 6.75134993 14.00000000 2.00000000
v 6.74336100 14.00000000 3.00000000
v 6.74331570 14.00000000 4.00000000
v 6.73820686 14.00000000 5.00000000
v 6.74892282 14.00000000 6.00000000
v 6.73487473 14.00000000 7.00000000
v 6.74272871 14.00000000 8.00000000
v 6.74055672 14.00000000 9.00000000
v 6.74107552 14.00000000 10.00000000
v 6.73360109 14.00000000 11.00000000
v 6.74104261 14.00000000 12.00000000
v 6.73187590 14.00000000 13.00000000
v 6.73176718 14.00000000 14.00000000
v 6.74348402 14.00000000 15.00000000
v 6.73091459 14.00000000 16.00000000
v 6.72226381 14.00000000 17.00000000
v 6.72576714 14.00000000 18.00000000
v 6.73298693 14.00000000 19.00000000
v 6.73156643 14.00000000 20.00000000
v 6.72637701 14.00000000 21.00000000
v 7.00000000 14.00000000 21.93311882
v 7.00000000 14.16858768 1.00000000
v 7.00000000 14.16562939 2.00000000
v 7.00000000 14.16956043 3.00000000
v 7.00000000 14.17040634 4.00000000
v 7.00000000 14.17528629 5.00000000
v 7.00000000 14.16922379 6.00000000
v 7.00000000 14.17515278 7.00000000
v 7.00000000 14.16969872 8.00000000
v 7.00000000 14.17261314 9.00000000
v 7.00000000 14.17160034 10.00000000
v 7.00000000 14.17618084 11.00000000
v 7.00000000 14.17245579 12.00000000
v 7.00000000 14.17702484 13.00000000
v 7.00000000 14.29738140 14.00000000
v 7.00000000 14.43340492 15.00000000
v 7.00000000 14.17960739 16.00000000
v 7.00000000 14.18675518 17.00000000
v 7.00000000 14.18308640 18.00000000
v 7.00000000 14.17595291 19.00000000
v 7.00000000 14.17871666 20.00000000
v 7.00000000 14.26364040 21.00000000
v 7.00000000 22.62757492 21.00000000
v 7.00000000 23.00000000 20.75477600
v 7.00000000 23.00000000 21.96719170
v 7.00000000 23.29366493 21.00000000
v 8.00000000 9.62390900 13.00000000
v 8.00000000 10.00000000 12.75371552
v 8.00000000 9.61059570 14.00000000
v 8.00000000 10.00000000 14.67492771
v 7.13767529 11.00000000 1.00000000
v 7.13713503 11.00000000 2.00000000
v 7.13980293 11.00000000 3.00000000
v 7.13789368 11.00000000 4.00000000
v 7.13984442 11.00000000 5.00000000
v 7.14314747 11.00000000 6.00000000
v 7.13905525 11.00000000 7.00000000
v 7.14002514 11.00000000 8.00000000
v 7.14635658 11.00000000 9.00000000
v 7.14349890 11.00000000 10.00000000
v 7.14065409 11.00000000 11.00000000
v 7.14990425 11.00000000 12.00000000
v 8.00000000 10.17688274 13.00000000
v 7.14819288 11.00000000 13.00000000
v 8.00000000 10.37168407 14.00000000
v 7.32711363 11.00000000 14.00000000
v 7.58148289 11.00000000 15.00000000
v 7.14786911 11.00000000 16.00000000
v 7.14355278 11.00000000 17.00000000
v 7.14502859 11.00000000 18.00000000
v 7.14296675 11.00000000 19.00000000
v 7.14004040 11.00000000 20.00000000
v 7.25888062 11.00000000 21.00000000
v 7.14308167 12.00000000 1.00000000
v 7.14086008 12.00000000 2.00000000
v 7.13896799 12.00000000 3.00000000
v 7.13801908 12.00000000 4.00000000
v 7.14389420 12.00000000 5.00000000
v 7.13993025 12.00000000 6.00000000
v 7.13896894 12.00000000 7.00000000
v 7.14266920 12.00000000 8.00000000
v 7.13987970 12.00000000 9.00000000
v 7.14193201 12.00000000 10.00000000
v 7.14361238 12.00000000 11.00000000
v 7.14760971 12.00000000 12.00000000
v 7.15121698 12.00000000 13.00000000
v 7.32360268 12.00000000 14.00000000
v 7.59375858 12.00000000 15.00000000
v 7.15794754 12.00000000 16.00000000
v 7.14231491 12.00000000 17.00000000
v 7.14614248 12.00000000 18.00000000
v 7.14353418 12.00000000 19.00000000
v 7.14134741 12.00000000 20.00000000
v 7.26680899 12.00000000 21.00000000
v 7.13572216 13.00000000 1.00000000
v 7.13679600 13.00000000 2.00000000
v 7.13891268 13.00000000 3.00000000
v 7.13646650 13.00000000 4.00000000
v 7.14439821 13.00000000 5.00000000
v 7.14570761 13.00000000 6.00000000
v 7.13949060 13.00000000 7.00000000
v 7.14216185 13.00000000 8.00000000
v 7.14638233 13.00000000 9.00000000
v 7.14239073 13.00000000 10.00000000
v 7.14535904 13.00000000 11.00000000
v 7.14505100 13.00000000 12.00000000
v 7.14271450 13.00000000 13.00000000
v 7.31513834 13.00000000 14.00000000
v 7.65380716 13.00000000 15.00000000
v 7.15440369 13.00000000 16.00000000
v 7.14728165 13.00000000 17.00000000
v 7.14680767 13.00000000 18.00000000
v 7.14473343 13.00000000 19.00000000
v 7.14294338 13.00000000 20.00000000
v 7.26192093 13.00000000 21.00000000
v 7.13826370 14.00000000 1.00000000
v 7.13682127 14.00000000 2.00000000
v 7.13947296 14.00000000 3.00000000
v 7.14094067 14.00000000 4.00000000
v 7.14468765 14.00000000 5.00000000
v 7.14019012 14.00000000 6.00000000
v 7.14611006 14.00000000 7.00000000
v 7.14057922 14.00000000 8.00000000
v 7.14303112 14.00000000 9.00000000
v 7.14282513 14.00000000 10.00000000
v 7.14659166 14.00000000 11.00000000
v 7.14317083 14.00000000 12.00000000
v 7.14859819 14.00000000 13.00000000
v 7.32226419 14.00000000 14.00000000
v 7.59028959 14.00000000 15.00000000
v 7.15056992 14.00000000 16.00000000
v 7.15575266 14.00000000 17.00000000
v 7.15333366 14.00000000 18.00000000
v 7.14721489 14.00000000 19.00000000
v 7.14951515 14.00000000 20.00000000
v 7.26532078 14.00000000 21.00000000
v 8.00000000 22.62434959 21.00000000
v 8.00000000 23.00000000 20.75024033
v 8.00000000 23.00000000 21.89964867
v 8.00000000 23.29728508 21.00000000
v 9.00000000 9.62029648 13.00000000
v 9.00000000 10.00000000 12.75411606
v 9.00000000 9.61643696 14.00000000
v 9.00000000 10.00000000 14.67879772
v 9.00000000 10.17636490 13.00000000
v 9.00000000 10.36373138 14.00000000
v 9.00000000 22.62134171 21.00000000
v 9.00000000 23.00000000 20.74681664
v 9.00000000 23.00000000 21.92631721
v 9.00000000 23.30444336 21.00000000
v 10.00000000 9.61726856 13.00000000
v 10.00000000 10.00000000 12.75189590
v 10.00000000 9.61681366 14.00000000
v 10.00000000 10.00000000 14.63954639
v 10.00000000 10.17756367 13.00000000
v 10.00000000 10.36310196 14.00000000
v 10.00000000 22.62309074 21.00000000
v 10.00000000 23.00000000 20.75105667
v 10.00000000 23.00000000 21.91325951
v 10.00000000 23.29769516 21.00000000
v 11.00000000 9.61765862 13.00000000
v 11.00000000 10.00000000 12.75425053
v 11.00000000 9.62383747 14.00000000
v 11.00000000 10.00000000 14.65545845
v 11.00000000 10.17723751 13.00000000
v 11.00000000 10.35731125 14.00000000
v 10.85205460 22.00000000 1.00000000
v 11.00000000 21.82864380 1.00000000
v 11.00000000 22.00000000 0.13459727
v 10.85752106 22.00000000 2.00000000
v 11.00000000 21.83389854 2.00000000
v 10.85530663 22.00000000 3.00000000
v 11.00000000 21.83176804 3.00000000
v 10.85079288 22.00000000 4.00000000
v 11.00000000 21.82607841 4.00000000
v 10.85617733 22.00000000 5.00000000
v 11.00000000 21.83222961 5.00000000
v 10.85016155 22.00000000 6.00000000
v 11.00000000 21.82680893 6.00000000
v 10.84869671 22.00000000 7.00000000
v 11.00000000 21.82474327 7.00000000
v 10.85439682 22.00000000 8.00000000
v 11.00000000 21.83118439 8.00000000
v 10.85066605 22.00000000 9.00000000
v 11.00000000 21.82761002 9.00000000
v 10.85238552 22.00000000 10.00000000
v 11.00000000 21.82851982 10.00000000
v 10.84879875 22.00000000 11.00000000
v 11.00000000 21.82472229 11.00000000
v 10.84945393 22.00000000 12.00000000
v 11.00000000 21.82547569 12.00000000
v 10.85039711 22.00000000 13.00000000
v 11.00000000 21.82681084 13.00000000
v 10.73645878 22.00000000 14.00000000
v 11.00000000 21.66827393 14.00000000
v 10.66859150 22.00000000 15.00000000
v 11.00000000 21.36623573 15.00000000
v 10.85149193 22.00000000 16.00000000
v 11.00000000 21.82676506 16.00000000
v 10.84618092 22.00000000 17.00000000
v 11.00000000 21.82139778 17.00000000
v 10.85024261 22.00000000 18.00000000
v 11.00000000 21.82602501 18.00000000
v 10.84983826 22.00000000 19.00000000
v 11.00000000 21.82589340 19.00000000
v 10.80549526 22.00000000 20.00000000
v 11.00000000 21.82370758 20.00000000
v 10.64259720 22.00000000 21.00000000
v 11.00000000 21.73789215 21.00000000
v 10.13016319 22.00000000 22.00000000
v 11.00000000 21.52372360 22.00000000
v 10.85062981 22.00000000 23.00000000
v 11.00000000 21.82475281 23.00000000
v 10.84913254 22.00000000 24.00000000
v 11.00000000 21.82271767 24.00000000
v 10.85351467 22.00000000 25.00000000
v 11.00000000 21.82799721 25.00000000
v 10.85393620 22.00000000 26.00000000
v 11.00000000 21.82999420 26.00000000
v 10.85136795 22.00000000 27.00000000
v 11.00000000 21.82640266 27.00000000
v 10.85134602 22.00000000 28.00000000
v 11.00000000 21.82623291 28.00000000
v 10.85006714 22.00000000 29.00000000
v 11.00000000 21.82528305 29.00000000
v 10.85026836 22.00000000 30.00000000
v 11.00000000 21.82519722 30.00000000
v 11.00000000 22.00000000 30.88978195
v 11.00000000 22.17243385 1.00000000
v 11.00000000 22.16749191 2.00000000
v 11.00000000 22.17061996 3.00000000
v 11.00000000 22.17544937 4.00000000
v 11.00000000 22.16919327 5.00000000
v 11.00000000 22.17608261 6.00000000
v 11.00000000 22.17790604 7.00000000
v 11.00000000 22.17091370 8.00000000
v 11.00000000 22.17562485 9.00000000
v 11.00000000 22.17367935 10.00000000
v 11.00000000 22.17767143 11.00000000
v 11.00000000 22.17639351 12.00000000
v 11.00000000 22.17576790 13.00000000
v 11.00000000 22.18099785 14.00000000
v 11.00000000 22.18076706 15.00000000
v 11.00000000 22.17505836 16.00000000
v 11.00000000 22.17959404 17.00000000
v 11.00000000 22.17580032 18.00000000
v 11.00000000 22.17576408 19.00000000
v 11.00000000 22.22108078 20.00000000
v 11.00000000 23.00000000 20.74958229
v 11.00000000 22.46321297 22.00000000
v 11.00000000 23.00000000 21.51074028
v 11.00000000 22.17656517 23.00000000
v 11.00000000 22.17790222 24.00000000
v 11.00000000 22.17366028 25.00000000
v 11.00000000 22.17238617 26.00000000
v 11.00000000 22.17522812 27.00000000
v 11.00000000 22.17576790 28.00000000
v 11.00000000 22.17626762 29.00000000
v 11.00000000 22.17603874 30.00000000
v 11.00000000 23.28107262 21.00000000
v 12.00000000 9.61308575 13.00000000
v 12.00000000 10.00000000 12.74944305
v 12.00000000 9.61580944 14.00000000
v 12.00000000 10.00000000 14.66741371
v 12.00000000 10.18060207 13.00000000
v 12.00000000 10.36382294 14.00000000
v 12.00000000 21.71105003 1.00000000
v 12.00000000 22.00000000 0.05573177
v 12.00000000 21.71426773 2.00000000
v 12.00000000 21.71487236 3.00000000
v 12.00000000 21.71237373 4.00000000
v 12.00000000 21.71108437 5.00000000
v 12.00000000 21.71432304 6.00000000
v 12.00000000 21.71500587 7.00000000
v 12.00000000 21.71380806 8.00000000
v 12.00000000 21.71065331 9.00000000
v 12.00000000 21.71269989 10.00000000
v 12.00000000 21.71125984 11.00000000
v 12.00000000 21.71405220 12.00000000
v 12.00000000 21.71188354 13.00000000
v 12.00000000 21.52389526 14.00000000
v 12.00000000 21.27272224 15.00000000
v 12.00000000 21.70773888 16.00000000
v 12.00000000 21.71116257 17.00000000
v 12.00000000 21.71014214 18.00000000
v 12.00000000 21.70927620 19.00000000
v 12.00000000 21.70962143 20.00000000
v 12.00000000 21.71270370 21.00000000
v 12.00000000 21.71058655 22.00000000
v 12.00000000 21.71195412 23.00000000
v 12.00000000 21.71328163 24.00000000
v 12.00000000 21.71304893 25.00000000
v 12.00000000 21.71123886 26.00000000
v 12.00000000 21.71471024 27.00000000
v 12.00000000 21.71444511 28.00000000
v 12.00000000 21.71377373 29.00000000
v 12.00000000 21.71571732 30.00000000
v 12.00000000 22.00000000 30.95320702
v 12.00000000 22.29133987 1.00000000
v 12.00000000 22.28831100 2.00000000
v 12.00000000 22.28713799 3.00000000
v 12.00000000 22.29018593 4.00000000
v 12.00000000 22.29076767 5.00000000
v 12.00000000 22.28839111 6.00000000
v 12.00000000 22.28898621 7.00000000
v 12.00000000 22.28923035 8.00000000
v 12.00000000 22.29160690 9.00000000
v 12.00000000 22.28961372 10.00000000
v 12.00000000 22.29123497 11.00000000
v 12.00000000 22.29014778 12.00000000
v 12.00000000 22.29055405 13.00000000
v 12.00000000 22.29035568 14.00000000
v 12.00000000 22.29377937 15.00000000
v 12.00000000 22.29426956 16.00000000
v 12.00000000 22.29014969 17.00000000
v 12.00000000 22.29296112 18.00000000
v 12.00000000 22.29223824 19.00000000
v 12.00000000 22.35173607 20.00000000
v 12.00000000 23.00000000 20.74566650
v 12.00000000 23.00000000 21.23400879
v 12.00000000 22.32648659 22.00000000
v 12.00000000 22.28819275 23.00000000
v 12.00000000 22.28800964 24.00000000
v 12.00000000 22.28812790 25.00000000
v 12.00000000 22.29069328 26.00000000
v 12.00000000 22.28804398 27.00000000
v 12.00000000 22.28786659 28.00000000
v 12.00000000 22.28610039 29.00000000
v 12.00000000 22.28635597 30.00000000
v 12.00000000 23.18299675 21.00000000
v 13.00000000 9.62241650 13.00000000
v 13.00000000 10.00000000 12.75636959
v 13.00000000 9.62478065 14.00000000
v 13.00000000 10.00000000 14.65616608
v 13.00000000 10.17522526 13.00000000
v 13.00000000 10.35502625 14.00000000
v 13.00000000 21.71333122 1.00000000
v 13.00000000 22.00000000 0.08854577
v 13.00000000 21.71426201 2.00000000
v 13.00000000 21.71382904 3.00000000
v 13.00000000 21.71258354 4.00000000
v 13.00000000 21.71509743 5.00000000
v 13.00000000 21.71492958 6.00000000
v 13.00000000 21.71510696 7.00000000
v 13.00000000 21.71006393 8.00000000
v 13.00000000 21.71330261 9.00000000
v 13.00000000 21.71253777 10.00000000
v 13.00000000 21.71170235 11.00000000
v 13.00000000 21.70955276 12.00000000
v 13.00000000 21.71244240 13.00000000
v 13.00000000 21.52026749 14.00000000
v 13.00000000 21.22981453 15.00000000
v 13.00000000 21.70985031 16.00000000
v 13.00000000 21.70937538 17.00000000
v 13.00000000 21.70960045 18.00000000
v 13.00000000 21.71300697 19.00000000
v 13.00000000 21.70926285 20.00000000
v 13.00000000 21.71063042 21.00000000
v 13.00000000 21.71153831 22.00000000
v 13.00000000 21.71090317 23.00000000
v 13.00000000 21.71110535 24.00000000
v 13.00000000 21.71454620 25.00000000
v 13.00000000 21.71356201 26.00000000
v 13.00000000 21.71143150 27.00000000
v 13.00000000 21.71307945 28.00000000
v 13.00000000 21.71471214 29.00000000
v 13.00000000 21.71615410 30.00000000
v 13.00000000 22.00000000 30.95953941
v 13.00000000 22.28905296 1.00000000
v 13.00000000 22.28779030 2.00000000
v 13.00000000 22.28894997 3.00000000
v 13.00000000 22.28873634 4.00000000
v 13.00000000 22.28815460 5.00000000
v 13.00000000 22.28775597 6.00000000
v 13.00000000 22.28871155 7.00000000
v 13.00000000 22.29294777 8.00000000
v 13.00000000 22.28948212 9.00000000
v 13.00000000 22.29050446 10.00000000
v 13.00000000 22.29005623 11.00000000
v 13.00000000 22.29385376 12.00000000
v 13.00000000 22.29088974 13.00000000
v 13.00000000 22.29307556 14.00000000
v 13.00000000 22.29567909 15.00000000
v 13.00000000 22.29125214 16.00000000
v 13.00000000 22.29432678 17.00000000
v 13.00000000 22.29221916 18.00000000
v 13.00000000 22.28975677 19.00000000
v 13.00000000 22.35357857 20.00000000
v 13.00000000 23.00000000 20.74972916
v 13.00000000 23.00000000 21.22870255
v 13.00000000 22.32394600 22.00000000
v 13.00000000 22.28995132 23.00000000
v 13.00000000 22.29109955 24.00000000
v 13.00000000 22.28826714 25.00000000
v 13.00000000 22.28784752 26.00000000
v 13.00000000 22.28988838 27.00000000
v 13.00000000 22.28971672 28.00000000
v 13.00000000 22.28819466 29.00000000
v 13.00000000 22.28740120 30.00000000
v 13.00000000 23.17928314 21.00000000
v 14.00000000 9.61668396 13.00000000
v 14.00000000 10.00000000 12.75349998
v 14.00000000 9.61468601 14.00000000
v 14.00000000 10.00000000 14.66502953
v 14.00000000 10.17735386 13.00000000
v 14.00000000 10.36164856 14.00000000
v 14.00000000 21.71524811 1.00000000
v 14.00000000 22.00000000 0.04535918
v 14.00000000 21.71545792 2.00000000
v 14.00000000 21.71546364 3.00000000
v 14.00000000 21.71520042 4.00000000
v 14.00000000 21.71317291 5.00000000
v 14.00000000 21.71335983 6.00000000
v 14.00000000 21.71180344 7.00000000
v 14.00000000 21.71308899 8.00000000
v 14.00000000 21.71097755 9.00000000
v 14.00000000 21.70817757 10.00000000
v 14.00000000 21.71152878 11.00000000
v 14.00000000 21.70971489 12.00000000
v 14.00000000 21.71228790 13.00000000
v 14.00000000 21.52144432 14.00000000
v 14.00000000 21.24331093 15.00000000
v 14.00000000 21.71119499 16.00000000
v 14.00000000 21.70969582 17.00000000
v 14.00000000 21.70910835 18.00000000
v 14.00000000 21.70982361 19.00000000
v 14.00000000 21.70923233 20.00000000
v 14.00000000 21.71166801 21.00000000
v 14.00000000 21.70583916 22.00000000
v 14.00000000 21.71140099 23.00000000
v 14.00000000 21.71196365 24.00000000
v 14.00000000 21.71228027 25.00000000
v 14.00000000 21.71306419 26.00000000
v 14.00000000 21.71072769 27.00000000
v 14.00000000 21.71402359 28.00000000
v 14.00000000 21.71354294 29.00000000
v 14.00000000 21.71483231 30.00000000
v 14.00000000 22.00000000 30.88975143
v 14.00000000 22.28637886 1.00000000
v 14.00000000 22.28831100 2.00000000
v 14.00000000 22.28590775 3.00000000
v 14.00000000 22.28796768 4.00000000
v 14.00000000 22.28926086 5.00000000
v 14.00000000 22.28865433 6.00000000
v 14.00000000 22.28994751 7.00000000
v 14.00000000 22.29160500 8.00000000
v 14.00000000 22.29122543 9.00000000
v 14.00000000 22.29429054 10.00000000
v 14.00000000 22.29115486 11.00000000
v 14.00000000 22.29264832 12.00000000
v 14.00000000 22.29107475 13.00000000
v 14.00000000 22.29098701 14.00000000
v 14.00000000 22.29273415 15.00000000
v 14.00000000 22.28916168 16.00000000
v 14.00000000 22.29192352 17.00000000
v 14.00000000 22.29239655 18.00000000
v 14.00000000 22.29308701 19.00000000
v 14.00000000 22.35342598 20.00000000
v 14.00000000 23.00000000 20.74890900
v 14.00000000 23.00000000 21.22971153
v 14.00000000 22.32979202 22.00000000
v 14.00000000 22.28853798 23.00000000
v 14.00000000 22.29146004 24.00000000
v 14.00000000 22.28808784 25.00000000
v 14.00000000 22.28785896 26.00000000
v 14.00000000 22.29048157 27.00000000
v 14.00000000 22.28638649 28.00000000
v 14.00000000 22.28943253 29.00000000
v 14.00000000 22.28623962 30.00000000
v 14.00000000 23.17948341 21.00000000
v 15.00000000 9.62359047 13.00000000
v 15.00000000 10.00000000 12.75668049
v 15.00000000 9.61975098 14.00000000
v 15.00000000 10.00000000 14.63508224
v 15.00000000 10.17541981 13.00000000
v 15.00000000 10.36199284 14.00000000
v 15.00000000 21.71711540 1.00000000
v 15.00000000 22.00000000 0.07612512
v 15.00000000 21.71500778 2.00000000
v 15.00000000 21.71516609 3.00000000
v 15.00000000 21.71480560 4.00000000
v 15.00000000 21.71189880 5.00000000
v 15.00000000 21.71223831 6.00000000
v 15.00000000 21.71132469 7.00000000
v 15.00000000 21.71051788 8.00000000
v 15.00000000 21.71046066 9.00000000
v 15.00000000 21.71191597 10.00000000
v 15.00000000 21.70819473 11.00000000
v 15.00000000 21.71067619 12.00000000
v 15.00000000 21.71045685 13.00000000
v 15.00000000 21.51997948 14.00000000
v 15.00000000 21.23788071 15.00000000
v 15.00000000 21.71001625 16.00000000
v 15.00000000 21.71026611 17.00000000
v 15.00000000 21.71149445 18.00000000
v 15.00000000 21.71085739 19.00000000
v 15.00000000 21.71131897 20.00000000
v 15.00000000 21.70959854 21.00000000
v 15.00000000 21.71175575 22.00000000
v 15.00000000 21.71194458 23.00000000
v 15.00000000 21.71439552 24.00000000
v 15.00000000 21.71263123 25.00000000
v 15.00000000 21.71165466 26.00000000
v 15.00000000 21.71339417 27.00000000
v 15.00000000 21.71447372 28.00000000
v 15.00000000 21.71413994 29.00000000
v 15.00000000 21.71597481 30.00000000
v 15.00000000 22.00000000 30.90179253
v 15.00000000 22.28678513 1.00000000
v 15.00000000 22.28696442 2.00000000
v 15.00000000 22.28712463 3.00000000
v 15.00000000 22.28755760 4.00000000
v 15.00000000 22.28882217 5.00000000
v 15.00000000 22.29124641 6.00000000
v 15.00000000 22.29285049 7.00000000
v 15.00000000 22.29284859 8.00000000
v 15.00000000 22.29254341 9.00000000
v 15.00000000 22.29113007 10.00000000
v 15.00000000 22.29453087 11.00000000
v 15.00000000 22.29189873 12.00000000
v 15.00000000 22.29310417 13.00000000
v 15.00000000 22.29215813 14.00000000
v 15.00000000 22.29253006 15.00000000
v 15.00000000 22.29070473 16.00000000
v 15.00000000 22.29144859 17.00000000
v 15.00000000 22.29145050 18.00000000
v 15.00000000 22.29005241 19.00000000
v 15.00000000 22.35188103 20.00000000
v 15.00000000 23.00000000 20.75013161
v 15.00000000 23.00000000 21.22796059
v 15.00000000 22.32316780 22.00000000
v 15.00000000 22.28915977 23.00000000
v 15.00000000 22.28839111 24.00000000
v 15.00000000 22.29015732 25.00000000
v 15.00000000 22.28932571 26.00000000
v 15.00000000 22.28857231 27.00000000
v 15.00000000 22.28600311 28.00000000
v 15.00000000 22.28614235 29.00000000
v 15.00000000 22.28487778 30.00000000
v 15.00000000 23.17836571 21.00000000
v 16.00000000 9.61802292 13.00000000
v 16.00000000 10.00000000 12.75437450
v 16.00000000 9.61968994 14.00000000
v 16.00000000 10.00000000 14.65672302
v 16.00000000 10.17703247 13.00000000
v 16.00000000 10.36031628 14.00000000
v 16.00000000 21.71200943 1.00000000
v 16.00000000 22.00000000 0.11121454
v 16.00000000 21.71410561 2.00000000
v 16.00000000 21.71458626 3.00000000
v 16.00000000 21.71539497 4.00000000
v 16.00000000 21.71046638 5.00000000
v 16.00000000 21.71058846 6.00000000
v 16.00000000 21.71255302 7.00000000
v 16.00000000 21.71174431 8.00000000
v 16.00000000 21.70987320 9.00000000
v 16.00000000 21.71188927 10.00000000
v 16.00000000 21.70867348 11.00000000
v 16.00000000 21.70975876 12.00000000
v 16.00000000 21.71215630 13.00000000
v 16.00000000 21.52120018 14.00000000
v 16.00000000 21.23457909 15.00000000
v 16.00000000 21.70893478 16.00000000
v 16.00000000 21.71060371 17.00000000
v 16.00000000 21.71079445 18.00000000
v 16.00000000 21.70577431 19.00000000
v 16.00000000 21.70759583 20.00000000
v 16.00000000 21.71126747 21.00000000
v 16.00000000 21.71034622 22.00000000
v 16.00000000 21.70894241 23.00000000
v 16.00000000 21.71372986 24.00000000
v 16.00000000 21.71216011 25.00000000
v 16.00000000 21.71420670 26.00000000
v 16.00000000 21.71301842 27.00000000
v 16.00000000 21.71617699 28.00000000
v 16.00000000 21.71500969 29.00000000
v 16.00000000 21.71626854 30.00000000
v 16.00000000 22.00000000 30.92836761
v 16.00000000 22.28945923 1.00000000
v 16.00000000 22.28837013 2.00000000
v 16.00000000 22.28820038 3.00000000
v 16.00000000 22.28714371 4.00000000
v 16.00000000 22.29305649 5.00000000
v 16.00000000 22.29062271 6.00000000
v 16.00000000 22.29034996 7.00000000
v 16.00000000 22.29205513 8.00000000
v 16.00000000 22.29297066 9.00000000
v 16.00000000 22.29129410 10.00000000
v 16.00000000 22.29387093 11.00000000
v 16.00000000 22.29316711 12.00000000
v 16.00000000 22.29037476 13.00000000
v 16.00000000 22.29144096 14.00000000
v 16.00000000 22.29516792 15.00000000
v 16.00000000 22.29284096 16.00000000
v 16.00000000 22.29056931 17.00000000
v 16.00000000 22.29085732 18.00000000
v 16.00000000 22.29604340 19.00000000
v 16.00000000 22.35470009 20.00000000
v 16.00000000 23.00000000 20.74642944
v 16.00000000 23.00000000 21.23407936
v 16.00000000 22.32787704 22.00000000
v 16.00000000 22.29192352 23.00000000
v 16.00000000 22.28657722 24.00000000
v 16.00000000 22.29016495 25.00000000
v 16.00000000 22.28793335 26.00000000
v 16.00000000 22.28810692 27.00000000
v 16.00000000 22.28627396 28.00000000
v 16.00000000 22.28659821 29.00000000
v 16.00000000 22.28779221 30.00000000
v 16.00000000 23.18195534 21.00000000
v 17.00000000 9.61833000 13.00000000
v 17.00000000 10.00000000 12.75120926
v 17.00000000 9.61939335 14.00000000
v 17.00000000 10.00000000 14.65818977
v 17.00000000 10.17862129 13.00000000
v 17.00000000 10.35900211 14.00000000
v 17.00000000 21.71557045 1.00000000
v 17.00000000 22.00000000 0.05771239
v 17.00000000 21.71544266 2.00000000
v 17.00000000 21.71674538 3.00000000
v 17.00000000 21.71439362 4.00000000
v 17.00000000 21.70883942 5.00000000
v 17.00000000 21.71095085 6.00000000
v 17.00000000 21.71190071 7.00000000
v 17.00000000 21.71405220 8.00000000
v 17.00000000 21.71347427 9.00000000
v 17.00000000 21.71184921 10.00000000
v 17.00000000 21.71211815 11.00000000
v 17.00000000 21.71135521 12.00000000
v 17.00000000 21.71173096 13.00000000
v 17.00000000 21.52111435 14.00000000
v 17.00000000 21.23424530 15.00000000
v 17.00000000 21.70705605 16.00000000
v 17.00000000 21.71002579 17.00000000
v 17.00000000 21.71001434 18.00000000
v 17.00000000 21.71232986 19.00000000
v 17.00000000 21.71058273 20.00000000
v 17.00000000 21.71224594 21.00000000
v 17.00000000 21.71259689 22.00000000
v 17.00000000 21.71312523 23.00000000
v 17.00000000 21.71056366 24.00000000
v 17.00000000 21.71156502 25.00000000
v 17.00000000 21.71408272 26.00000000
v 17.00000000 21.71445084 27.00000000
v 17.00000000 21.71390724 28.00000000
v 17.00000000 21.71230316 29.00000000
v 17.00000000 21.71507072 30.00000000
v 17.00000000 22.00000000 30.94156647
v 17.00000000 22.28693581 1.00000000
v 17.00000000 22.28662682 2.00000000
v 17.00000000 22.28600502 3.00000000
v 17.00000000 22.28826904 4.00000000
v 17.00000000 22.29257584 5.00000000
v 17.00000000 22.29135513 6.00000000
v 17.00000000 22.29135323 7.00000000
v 17.00000000 22.28940582 8.00000000
v 17.00000000 22.29049110 9.00000000
v 17.00000000 22.29122925 10.00000000
v 17.00000000 22.28984642 11.00000000
v 17.00000000 22.29144096 12.00000000
v 17.00000000 22.29124069 13.00000000
v 17.00000000 22.29172134 14.00000000
v 17.00000000 22.29379654 15.00000000
v 17.00000000 22.29489708 16.00000000
v 17.00000000 22.29155731 17.00000000
v 17.00000000 22.29152679 18.00000000
v 17.00000000 22.29014015 19.00000000
v 17.00000000 22.35187531 20.00000000
v 17.00000000 23.00000000 20.74670601
v 17.00000000 23.00000000 21.23319817
v 17.00000000 22.32484245 22.00000000
v 17.00000000 22.29009438 23.00000000
v 17.00000000 22.29112625 24.00000000
v 17.00000000 22.29008484 25.00000000
v 17.00000000 22.28897667 26.00000000
v 17.00000000 22.28874207 27.00000000
v 17.00000000 22.28844070 28.00000000
v 17.00000000 22.28782272 29.00000000
v 17.00000000 22.28721237 30.00000000
v 17.00000000 23.18114090 21.00000000
v 18.00000000 9.62423801 13.00000000
v 18.00000000 10.00000000 12.75467682
v 18.00000000 9.61797047 14.00000000
v 18.00000000 10.00000000 14.66591644
v 18.00000000 10.17629433 13.00000000
v 18.00000000 10.36256981 14.00000000
v 18.00000000 21.71161842 1.00000000
v 18.00000000 22.00000000 0.03059572
v 18.00000000 21.71760178 2.00000000
v 18.00000000 21.71127129 3.00000000
v 18.00000000 21.71483421 4.00000000
v 18.00000000 21.71474075 5.00000000
v 18.00000000 21.71397781 6.00000000
v 18.00000000 21.71233940 7.00000000
v 18.00000000 21.71122742 8.00000000
v 18.00000000 21.71448326 9.00000000
v 18.00000000 21.71213913 10.00000000
v 18.00000000 21.71350479 11.00000000
v 18.00000000 21.71083260 12.00000000
v 18.00000000 21.71135712 13.00000000
v 18.00000000 21.52164459 14.00000000
v 18.00000000 21.24237823 15.00000000
v 18.00000000 21.71003532 16.00000000
v 18.00000000 21.70959282 17.00000000
v 18.00000000 21.71124649 18.00000000
v 18.00000000 21.70836449 19.00000000
v 18.00000000 21.71100998 20.00000000
v 18.00000000 21.71116257 21.00000000
v 18.00000000 21.71261406 22.00000000
v 18.00000000 21.71394539 23.00000000
v 18.00000000 21.71215248 24.00000000
v 18.00000000 21.71194267 25.00000000
v 18.00000000 21.71260452 26.00000000
v 18.00000000 21.71143913 27.00000000
v 18.00000000 21.71473312 28.00000000
v 18.00000000 21.71356583 29.00000000
v 18.00000000 21.71516037 30.00000000
v 18.00000000 22.00000000 30.93359375
v 18.00000000 22.28987503 1.00000000
v 18.00000000 22.28434181 2.00000000
v 18.00000000 22.29062843 3.00000000
v 18.00000000 22.28773880 4.00000000
v 18.00000000 22.28848076 5.00000000
v 18.00000000 22.28885078 6.00000000
v 18.00000000 22.28998375 7.00000000
v 18.00000000 22.29119873 8.00000000
v 18.00000000 22.28837204 9.00000000
v 18.00000000 22.29107857 10.00000000
v 18.00000000 22.28947449 11.00000000
v 18.00000000 22.29189491 12.00000000
v 18.00000000 22.29258347 13.00000000
v 18.00000000 22.29309082 14.00000000
v 18.00000000 22.29256058 15.00000000
v 18.00000000 22.29097939 16.00000000
v 18.00000000 22.29102898 17.00000000
v 18.00000000 22.29144669 18.00000000
v 18.00000000 22.29346657 19.00000000
v 18.00000000 22.35149384 20.00000000
v 18.00000000 23.00000000 20.74733162
v 18.00000000 23.00000000 21.23312759
v 18.00000000 22.32616615 22.00000000
v 18.00000000 22.28802490 23.00000000
v 18.00000000 22.28923607 24.00000000
v 18.00000000 22.29004288 25.00000000
v 18.00000000 22.28865051 26.00000000
v 18.00000000 22.28970146 27.00000000
v 18.00000000 22.28728676 28.00000000
v 18.00000000 22.29049110 29.00000000
v 18.00000000 22.28722572 30.00000000
v 18.00000000 23.18079185 21.00000000
v 19.00000000 9.62546539 13.00000000
v 19.00000000 10.00000000 12.75466919
v 19.00000000 9.62435818 14.00000000
v 19.00000000 10.00000000 14.67414761
v 19.00000000 10.17535019 13.00000000
v 19.00000000 10.35371876 14.00000000
v 19.00000000 21.71682739 1.00000000
v 19.00000000 22.00000000 0.08076576
v 19.00000000 21.71692085 2.00000000
v 19.00000000 21.71335220 3.00000000
v 19.00000000 21.71627998 4.00000000
v 19.00000000 21.71445847 5.00000000
v 19.00000000 21.71212578 6.00000000
v 19.00000000 21.71082115 7.00000000
v 19.00000000 21.71240044 8.00000000
v 19.00000000 21.71353340 9.00000000
v 19.00000000 21.71196365 10.00000000
v 19.00000000 21.71157455 11.00000000
v 19.00000000 21.71129036 12.00000000
v 19.00000000 21.71101761 13.00000000
v 19.00000000 21.52460098 14.00000000
v 19.00000000 21.24736023 15.00000000
v 19.00000000 21.70820999 16.00000000
v 19.00000000 21.70829391 17.00000000
v 19.00000000 21.70889282 18.00000000
v 19.00000000 21.71007919 19.00000000
v 19.00000000 21.70984459 20.00000000
v 19.00000000 21.71121979 21.00000000
v 19.00000000 21.70959282 22.00000000
v 19.00000000 21.71211052 23.00000000
v 19.00000000 21.71006203 24.00000000
v 19.00000000 21.71244049 25.00000000
v 19.00000000 21.71325111 26.00000000
v 19.00000000 21.71357346 27.00000000
v 19.00000000 21.71589661 28.00000000
v 19.00000000 21.71287346 29.00000000
v 19.00000000 21.71380615 30.00000000
v 19.00000000 22.00000000 30.94390488
v 19.00000000 22.28614616 1.00000000
v 19.00000000 22.28540611 2.00000000
v 19.00000000 22.28917694 3.00000000
v 19.00000000 22.28581047 4.00000000
v 19.00000000 22.28659439 5.00000000
v 19.00000000 22.28989792 6.00000000
v 19.00000000 22.29106522 7.00000000
v 19.00000000 22.28968811 8.00000000
v 19.00000000 22.28963470 9.00000000
v 19.00000000 22.29020691 10.00000000
v 19.00000000 22.29143524 11.00000000
v 19.00000000 22.29080772 12.00000000
v 19.00000000 22.28984833 13.00000000
v 19.00000000 22.29065323 14.00000000
v 19.00000000 22.29445839 15.00000000
v 19.00000000 22.29421997 16.00000000
v 19.00000000 22.29367828 17.00000000
v 19.00000000 22.29300880 18.00000000
v 19.00000000 22.29116631 19.00000000
v 19.00000000 22.35123444 20.00000000
v 19.00000000 23.00000000 20.74582481
v 19.00000000 23.00000000 21.23395157
v 19.00000000 22.32750320 22.00000000
v 19.00000000 22.28853226 23.00000000
v 19.00000000 22.29077911 24.00000000
v 19.00000000 22.28868866 25.00000000
v 19.00000000 22.28990173 26.00000000
v 19.00000000 22.28792572 27.00000000
v 19.00000000 22.28628731 28.00000000
v 19.00000000 22.29051971 29.00000000
v 19.00000000 22.28774452 30.00000000
v 19.00000000 23.18291473 21.00000000
v 20.00000000 9.62209034 13.00000000
v 20.00000000 10.00000000 12.75786304
v 20.00000000 9.60910416 14.00000000
v 20.00000000 10.00000000 14.64460087
v 20.00000000 10.17397022 13.00000000
v 20.00000000 10.36491776 14.00000000
v 20.00000000 21.71560669 1.00000000
v 20.00000000 22.00000000 0.05094456
v 20.00000000 21.71540260 2.00000000
v 20.00000000 21.71354675 3.00000000
v 20.00000000 21.71335602 4.00000000
v 20.00000000 21.71340752 5.00000000
v 20.00000000 21.71290398 6.00000000
v 20.00000000 21.71428490 7.00000000
v 20.00000000 21.71162987 8.00000000
v 20.00000000 21.71427345 9.00000000
v 20.00000000 21.71318245 10.00000000
v 20.00000000 21.71250916 11.00000000
v 20.00000000 21.70937157 12.00000000
v 20.00000000 21.71195602 13.00000000
v 20.00000000 21.52287865 14.00000000
v 20.00000000 21.23406410 15.00000000
v 20.00000000 21.70796013 16.00000000
v 20.00000000 21.70604706 17.00000000
v 20.00000000 21.70919991 18.00000000
v 20.00000000 21.70827484 19.00000000
v 20.00000000 21.70877647 20.00000000
v 20.00000000 21.70985031 21.00000000
v 20.00000000 21.71151161 22.00000000
v 20.00000000 21.71279335 23.00000000
v 20.00000000 21.71243095 24.00000000
v 20.00000000 21.71228790 25.00000000
v 20.00000000 21.71332741 26.00000000
v 20.00000000 21.71608734 27.00000000
v 20.00000000 21.71466064 28.00000000
v 20.00000000 21.71376610 29.00000000
v 20.00000000 21.71316338 30.00000000
v 20.00000000 22.00000000 30.96267700
v 20.00000000 22.28501511 1.00000000
v 20.00000000 22.28620720 2.00000000
v 20.00000000 22.28778076 3.00000000
v 20.00000000 22.28838158 4.00000000
v 20.00000000 22.28931236 5.00000000
v 20.00000000 22.28990746 6.00000000
v 20.00000000 22.28918839 7.00000000
v 20.00000000 22.29029465 8.00000000
v 20.00000000 22.28764534 9.00000000
v 20.00000000 22.28951073 10.00000000
v 20.00000000 22.29091454 11.00000000
v 20.00000000 22.29386330 12.00000000
v 20.00000000 22.29095268 13.00000000
v 20.00000000 22.29069328 14.00000000
v 20.00000000 22.29323769 15.00000000
v 20.00000000 22.29386902 16.00000000
v 20.00000000 22.29494858 17.00000000
v 20.00000000 22.29300880 18.00000000
v 20.00000000 22.29344749 19.00000000
v 20.00000000 22.35380745 20.00000000
v 20.00000000 23.00000000 20.75146484
v 20.00000000 23.00000000 21.22786903
v 20.00000000 22.32456207 22.00000000
v 20.00000000 22.29015160 23.00000000
v 20.00000000 22.28982162 24.00000000
v 20.00000000 22.28973198 25.00000000
v 20.00000000 22.28951454 26.00000000
v 20.00000000 22.28739929 27.00000000
v 20.00000000 22.28908348 28.00000000
v 20.00000000 22.28847504 29.00000000
v 20.00000000 22.28799629 30.00000000
v 20.00000000 23.17772865 21.00000000
v 21.00000000 9.62295914 13.00000000
v 21.00000000 10.00000000 12.75623512
v 21.00000000 9.62141800 14.00000000
v 21.00000000 10.00000000 14.67161465
v 21.00000000 10.17367840 13.00000000
v 21.00000000 10.35826206 14.00000000
v 21.00000000 21.71412849 1.00000000
v 21.00000000 22.00000000 0.07587168
v 21.00000000 21.71328545 2.00000000
v 21.00000000 21.71516418 3.00000000
v 21.00000000 21.71438599 4.00000000
v 21.00000000 21.71187973 5.00000000
v 21.00000000 21.71589088 6.00000000
v 21.00000000 21.71345711 7.00000000
v 21.00000000 21.71319389 8.00000000
v 21.00000000 21.71426964 9.00000000
v 21.00000000 21.71142578 10.00000000
v 21.00000000 21.71272659 11.00000000
v 21.00000000 21.71299362 12.00000000
v 21.00000000 21.71178818 13.00000000
v 21.00000000 21.52199936 14.00000000
v 21.00000000 21.23369408 15.00000000
v 21.00000000 21.70938873 16.00000000
v 21.00000000 21.71001816 17.00000000
v 21.00000000 21.70932198 18.00000000
v 21.00000000 21.70836830 19.00000000
v 21.00000000 21.71160698 20.00000000
v 21.00000000 21.70969772 21.00000000
v 21.00000000 21.71378899 22.00000000
v 21.00000000 21.70954132 23.00000000
v 21.00000000 21.71220016 24.00000000
v 21.00000000 21.71348381 25.00000000
v 21.00000000 21.71427155 26.00000000
v 21.00000000 21.71159744 27.00000000
v 21.00000000 21.71636772 28.00000000
v 21.00000000 21.71383858 29.00000000
v 21.00000000 21.71653938 30.00000000
v 21.00000000 22.00000000 30.97768974
v 21.00000000 22.28764153 1.00000000
v 21.00000000 22.28913307 2.00000000
v 21.00000000 22.28806305 3.00000000
v 21.00000000 22.28897285 4.00000000
v 21.00000000 22.28875160 5.00000000
v 21.00000000 22.28690720 6.00000000
v 21.00000000 22.28931999 7.00000000
v 21.00000000 22.28892136 8.00000000
v 21.00000000 22.28876305 9.00000000
v 21.00000000 22.29026031 10.00000000
v 21.00000000 22.28913116 11.00000000
v 21.00000000 22.29017830 12.00000000
v 21.00000000 22.29089928 13.00000000
v 21.00000000 22.28937721 14.00000000
v 21.00000000 22.29280853 15.00000000
v 21.00000000 22.29321098 16.00000000
v 21.00000000 22.29219437 17.00000000
v 21.00000000 22.29249382 18.00000000
v 21.00000000 22.29375076 19.00000000
v 21.00000000 22.29066849 20.00000000
v 21.00000000 22.29171562 21.00000000
v 20.20077324 23.00000000 21.00000000
v 21.00000000 22.28878784 22.00000000
v 21.00000000 22.29232979 23.00000000
v 21.00000000 22.29100800 24.00000000
v 21.00000000 22.28940201 25.00000000
v 21.00000000 22.28724098 26.00000000
v 21.00000000 22.28866959 27.00000000
v 21.00000000 22.28609467 28.00000000
v 21.00000000 22.28933334 29.00000000
v 21.00000000 22.28467369 30.00000000
v 22.00000000 9.63020992 13.00000000
v 22.00000000 10.00000000 12.76137352
v 22.00000000 9.62704945 14.00000000
v 22.00000000 10.00000000 14.64003277
v 22.00000000 10.17147255 13.00000000
v 22.00000000 10.35386848 14.00000000
v 22.00000000 21.71526527 1.00000000
v 22.00000000 22.00000000 0.03480298
v 22.00000000 21.71320152 2.00000000
v 22.00000000 21.71500969 3.00000000
v 22.00000000 21.71216965 4.00000000
v 22.00000000 21.71502686 5.00000000
v 22.00000000 21.71477127 6.00000000
v 22.00000000 21.71282959 7.00000000
v 22.00000000 21.71199608 8.00000000
v 22.00000000 21.71188545 9.00000000
v 22.00000000 21.71308708 10.00000000
v 22.00000000 21.71198654 11.00000000
v 22.00000000 21.71334267 12.00000000
v 22.00000000 21.71008301 13.00000000
v 22.00000000 21.52473450 14.00000000
v 22.00000000 21.22750664 15.00000000
v 22.00000000 21.70836830 16.00000000
v 22.00000000 21.70986366 17.00000000
v 22.00000000 21.70896530 18.00000000
v 22.00000000 21.71086884 19.00000000
v 22.00000000 21.70805550 20.00000000
v 22.00000000 21.71212578 21.00000000
v 22.00000000 21.71146011 22.00000000
v 22.00000000 21.70826912 23.00000000
v 22.00000000 21.71089363 24.00000000
v 22.00000000 21.71341324 25.00000000
v 22.00000000 21.71534538 26.00000000
v 22.00000000 21.71280289 27.00000000
v 22.00000000 21.71488380 28.00000000
v 22.00000000 21.71474266 29.00000000
v 22.00000000 21.71431160 30.00000000
v 22.00000000 22.00000000 30.93066216
v 22.00000000 22.28650665 1.00000000
v 22.00000000 22.28712654 2.00000000
v 22.00000000 22.28847885 3.00000000
v 22.00000000 22.28945541 4.00000000
v 22.00000000 22.28693199 5.00000000
v 22.00000000 22.28664780 6.00000000
v 22.00000000 22.29060364 7.00000000
v 22.00000000 22.28945732 8.00000000
v 22.00000000 22.29001427 9.00000000
v 22.00000000 22.29030609 10.00000000
v 22.00000000 22.29104042 11.00000000
v 22.00000000 22.29006767 12.00000000
v 22.00000000 22.29187012 13.00000000
v 22.00000000 22.29237366 14.00000000
v 22.00000000 22.29050827 15.00000000
v 22.00000000 22.29388809 16.00000000
v 22.00000000 22.29274750 17.00000000
v 22.00000000 22.29228783 18.00000000
v 22.00000000 22.29198265 19.00000000
v 22.00000000 22.29420090 20.00000000
v 22.00000000 22.29115105 21.00000000
v 22.00000000 22.29053688 22.00000000
v 22.00000000 22.29256630 23.00000000
v 22.00000000 22.29169083 24.00000000
v 22.00000000 22.28889275 25.00000000
v 22.00000000 22.28586388 26.00000000
v 22.00000000 22.29080391 27.00000000
v 22.00000000 22.28674507 28.00000000
v 22.00000000 22.28642654 29.00000000
v 22.00000000 22.28677750 30.00000000
v 23.00000000 9.62975979 13.00000000
v 23.00000000 10.00000000 12.75990582
v 23.00000000 9.63236427 14.00000000
v 23.00000000 10.00000000 14.45456696
v 23.00000000 10.17071915 13.00000000
v 23.00000000 10.30796242 14.00000000
v 23.00000000 21.71792984 1.00000000
v 23.00000000 22.00000000 0.05148117
v 23.00000000 21.71698189 2.00000000
v 23.00000000 21.71440315 3.00000000
v 23.00000000 21.71345329 4.00000000
v 23.00000000 21.71276855 5.00000000
v 23.00000000 21.71111107 6.00000000
v 23.00000000 21.71593475 7.00000000
v 23.00000000 21.71615982 8.00000000
v 23.00000000 21.71121025 9.00000000
v 23.00000000 21.71270752 10.00000000
v 23.00000000 21.71389771 11.00000000
v 23.00000000 21.71382523 12.00000000
v 23.00000000 21.71359062 13.00000000
v 23.00000000 21.56233406 14.00000000
v 23.00000000 21.42414665 15.00000000
v 23.00000000 21.70970345 16.00000000
v 23.00000000 21.71025276 17.00000000
v 23.00000000 21.71099663 18.00000000
v 23.00000000 21.70713997 19.00000000
v 23.00000000 21.71012306 20.00000000
v 23.00000000 21.70946312 21.00000000
v 23.00000000 21.70899963 22.00000000
v 23.00000000 21.70719528 23.00000000
v 23.00000000 21.71300888 24.00000000
v 23.00000000 21.71428108 25.00000000
v 23.00000000 21.70986557 26.00000000
v 23.00000000 21.71579170 27.00000000
v 23.00000000 21.71599579 28.00000000
v 23.00000000 21.71433258 29.00000000
v 23.00000000 21.71857452 30.00000000
v 23.00000000 22.00000000 30.89492607
v 23.00000000 22.28351784 1.00000000
v 23.00000000 22.28687096 2.00000000
v 23.00000000 22.28620148 3.00000000
v 23.00000000 22.28926277 4.00000000
v 23.00000000 22.28788376 5.00000000
v 23.00000000 22.29128456 6.00000000
v 23.00000000 22.28678894 7.00000000
v 23.00000000 22.28813934 8.00000000
v 23.00000000 22.29191589 9.00000000
v 23.00000000 22.28973007 10.00000000
v 23.00000000 22.29002571 11.00000000
v 23.00000000 22.28733444 12.00000000
v 23.00000000 22.28959656 13.00000000
v 23.00000000 22.29162025 14.00000000
v 23.00000000 22.28784370 15.00000000
v 23.00000000 22.29269218 16.00000000
v 23.00000000 22.29017639 17.00000000
v 23.00000000 22.29158592 18.00000000
v 23.00000000 22.29517937 19.00000000
v 23.00000000 22.29186058 20.00000000
v 23.00000000 22.29352379 21.00000000
v 23.00000000 22.29281425 22.00000000
v 23.00000000 22.29526520 23.00000000
v 23.00000000 22.28985786 24.00000000
v 23.00000000 22.28849220 25.00000000
v 23.00000000 22.29107285 26.00000000
v 23.00000000 22.28595734 27.00000000
v 23.00000000 22.28677940 28.00000000
v 23.00000000 22.28681564 29.00000000
v 23.00000000 22.28575706 30.00000000
v 24.00000000 9.62628174 13.00000000
v 24.00000000 10.00000000 12.75960827
v 24.00000000 9.63235474 14.00000000
v 24.00000000 10.00000000 14.19927692
v 24.00000000 10.17006016 13.00000000
v 24.00000000 10.16909313 14.00000000
v 23.93198586 22.00000000 1.00000000
v 23.94254303 22.00000000 2.00000000
v 23.93151283 22.00000000 3.00000000
v 23.96504784 22.00000000 4.00000000
v 23.93005180 22.00000000 5.00000000
v 23.96266174 22.00000000 6.00000000
v 23.93408775 22.00000000 7.00000000
v 23.93028259 22.00000000 8.00000000
v 23.93578148 22.00000000 9.00000000
v 23.94982719 22.00000000 10.00000000
v 23.92810822 22.00000000 11.00000000
v 23.94555092 22.00000000 12.00000000
v 23.94534302 22.00000000 13.00000000
v 23.94143867 22.00000000 14.00000000
v 23.93411064 22.00000000 15.00000000
v 23.95454216 22.00000000 16.00000000
v 24.00000000 22.00000000 16.04411125
v 24.00000000 21.08150482 17.00000000
v 24.00000000 21.07233047 18.00000000
v 24.00000000 21.13494492 19.00000000
v 24.00000000 21.08334351 20.00000000
v 24.00000000 21.06103516 21.00000000
v 24.00000000 21.05786705 22.00000000
v 24.00000000 21.07711220 23.00000000
v 24.00000000 21.04261017 24.00000000
v 24.00000000 21.11854744 25.00000000
v 23.93630219 22.00000000 26.00000000
v 24.00000000 22.00000000 25.84094620
v 23.91840553 22.00000000 27.00000000
v 23.94005394 22.00000000 28.00000000
v 23.91958618 22.00000000 29.00000000
v 23.90022659 22.00000000 30.00000000
v 24.00000000 22.93580437 17.00000000
v 24.00000000 22.93096733 18.00000000
v 24.00000000 22.95060730 19.00000000
v 24.00000000 22.95713425 20.00000000
v 24.00000000 22.95136452 21.00000000
v 24.00000000 22.95317841 22.00000000
v 24.00000000 22.97714996 23.00000000
v 24.00000000 22.96783066 24.00000000
v 24.00000000 22.98212051 25.00000000
v 24.67673492 9.00000000 1.00000000
v 25.00000000 8.58738899 1.00000000
v 25.00000000 9.00000000 0.07964461
v 24.67989731 9.00000000 2.00000000
v 25.00000000 8.58751678 2.00000000
v 24.67388535 9.00000000 3.00000000
v 25.00000000 8.58747768 3.00000000
v 24.68005371 9.00000000 4.00000000
v 25.00000000 8.59325981 4.00000000
v 24.68216896 9.00000000 5.00000000
v 25.00000000 8.59098530 5.00000000
v 24.67875099 9.00000000 6.00000000
v 25.00000000 8.59074974 6.00000000
v 24.67744446 9.00000000 7.00000000
v 25.00000000 8.58672142 7.00000000
v 24.67718887 9.00000000 8.00000000
v 25.00000000 8.58225727 8.00000000
v 24.67354012 9.00000000 9.00000000
v 25.00000000 8.58256435 9.00000000
v 24.67530823 9.00000000 10.00000000
v 25.00000000 8.58402443 10.00000000
v 24.67590141 9.00000000 11.00000000
v 25.00000000 8.58407688 11.00000000
v 24.67427635 9.00000000 12.00000000
v 25.00000000 8.58413506 12.00000000
v 24.41246414 9.00000000 13.00000000
v 25.00000000 8.49766064 13.00000000
v 24.41973877 9.00000000 14.00000000
v 25.00000000 8.49883747 14.00000000
v 24.67528343 9.00000000 15.00000000
v 25.00000000 8.58382130 15.00000000
v 24.65630150 9.00000000 16.00000000
v 25.00000000 8.58431149 16.00000000
v 24.08238411 9.00000000 17.00000000
v 25.00000000 8.58883667 17.00000000
v 24.08200264 9.00000000 18.00000000
v 25.00000000 8.59263420 18.00000000
v 24.08227348 9.00000000 19.00000000
v 25.00000000 8.58588600 19.00000000
v 24.06766510 9.00000000 20.00000000
v 25.00000000 8.59154415 20.00000000
v 24.09478188 9.00000000 21.00000000
v 25.00000000 8.58858204 21.00000000
v 24.14738464 9.00000000 22.00000000
v 25.00000000 8.74365616 22.00000000
v 25.00000000 9.00000000 22.25867271
v 25.00000000 9.28283024 1.00000000
v 25.00000000 9.28293419 2.00000000
v 25.00000000 9.28501225 3.00000000
v 25.00000000 9.27978611 4.00000000
v 25.00000000 9.28088379 5.00000000
v 25.00000000 9.28086948 6.00000000
v 25.00000000 9.28298569 7.00000000
v 25.00000000 9.28419018 8.00000000
v 25.00000000 9.28568077 9.00000000
v 25.00000000 9.28384495 10.00000000
v 25.00000000 9.28505039 11.00000000
v 25.00000000 9.34414864 12.00000000
v 25.00000000 10.00000000 12.75914860
v 25.00000000 9.29447842 15.00000000
v 25.00000000 10.00000000 14.20226479
v 25.00000000 9.29493904 16.00000000
v 25.00000000 9.41132832 17.00000000
v 25.00000000 9.41083336 18.00000000
v 25.00000000 9.41557884 19.00000000
v 25.00000000 9.41257572 20.00000000
v 25.00000000 9.40819168 21.00000000
v 25.00000000 9.25489902 22.00000000
v 25.00000000 10.17101669 13.00000000
v 25.00000000 10.17132092 14.00000000
v 24.42611122 22.00000000 17.00000000
v 24.41913033 22.00000000 18.00000000
v 24.42158318 22.00000000 19.00000000
v 24.41829872 22.00000000 20.00000000
v 24.41838074 22.00000000 21.00000000
v 24.42145538 22.00000000 22.00000000
v 24.41776276 22.00000000 23.00000000
v 24.40850258 22.00000000 24.00000000
v 24.20426559 22.00000000 25.00000000
v 25.35233688 9.00000000 1.00000000
v 25.35113144 9.00000000 2.00000000
v 25.35534477 9.00000000 3.00000000
v 25.34795570 9.00000000 4.00000000
v 25.34677887 9.00000000 5.00000000
v 25.35241508 9.00000000 6.00000000
v 25.34972000 9.00000000 7.00000000
v 25.35165024 9.00000000 8.00000000
v 25.35610390 9.00000000 9.00000000
v 25.35297203 9.00000000 10.00000000
v 25.35219193 9.00000000 11.00000000
v 25.35315514 9.00000000 12.00000000
v 25.57691574 9.00000000 13.00000000
v 25.57255745 9.00000000 14.00000000
v 25.35197449 9.00000000 15.00000000
v 25.35127449 9.00000000 16.00000000
v 25.35458183 9.00000000 17.00000000
v 25.35272026 9.00000000 18.00000000
v 25.35721970 9.00000000 19.00000000
v 25.35310173 9.00000000 20.00000000
v 25.35277367 9.00000000 21.00000000
v 25.21196747 9.00000000 22.00000000
v 26.00000000 9.63784599 13.00000000
v 26.00000000 10.00000000 12.76165867
v 26.00000000 9.63333130 14.00000000
v 26.00000000 10.00000000 14.20417023
v 26.00000000 10.16968536 13.00000000
v 26.00000000 10.17375851 14.00000000
v 26.79075050 10.00000000 13.00000000
v 26.82306480 10.00000000 14.00000000
f 3 2 1
f 4 1 2
f 5 3 1
f 5 1 4
f 8 7 6
f 9 6 7
f 10 8 6
f 10 6 9
f 13 12 11
f 2 3 11
f 12 2 11
f 14 2 12
f 4 2 14
f 4 14 15
f 16 13 11
f 16 11 3
f 5 16 3
f 17 16 5
f 5 4 15
f 5 15 17
f 19 18 7
f 19 7 8
f 9 7 18
f 9 18 20
f 21 19 8
f 21 8 10
f 10 9 20
f 10 20 21
f 23 22 12
f 23 12 13
f 12 24 14
f 22 24 12
f 15 14 24
f 15 24 25
f 28 27 26
f 30 29 26
f 30 26 27
f 32 31 29
f 32 29 30
f 34 33 31
f 34 31 32
f 36 35 33
f 36 33 34
f 38 37 35
f 38 35 36
f 40 39 37
f 40 37 38
f 42 41 39
f 42 39 40
f 44 43 41
f 44 41 42
f 46 45 43
f 46 43 44
f 48 47 45
f 48 45 46
f 50 49 47
f 50 47 48
f 51 49 16
f 49 23 16
f 23 13 16
f 23 49 50
f 17 52 16
f 16 52 51
f 15 25 53
f 52 15 53
f 54 52 53
f 17 15 52
f 56 55 54
f 56 54 53
f 58 57 55
f 58 55 56
f 60 59 57
f 60 57 58
f 62 61 59
f 62 59 60
f 64 63 61
f 64 61 62
f 66 65 63
f 66 63 64
f 67 65 66
f 28 26 68
f 28 68 69
f 70 26 29
f 68 26 70
f 71 29 31
f 70 29 71
f 72 31 33
f 71 31 72
f 73 33 35
f 72 33 73
f 74 35 37
f 73 35 74
f 75 37 39
f 74 37 75
f 76 39 41
f 75 39 76
f 77 41 43
f 76 41 77
f 78 43 45
f 77 43 78
f 79 45 47
f 78 45 79
f 80 47 49
f 79 47 80
f 81 49 51
f 80 49 81
f 82 51 52
f 81 51 82
f 83 52 54
f 82 52 83
f 84 54 55
f 83 54 84
f 85 55 57
f 84 55 85
f 86 57 59
f 85 57 86
f 87 59 61
f 86 59 87
f 88 61 63
f 87 61 88
f 89 63 65
f 88 63 89
f 65 67 90
f 65 90 89
f 69 68 91
f 69 91 92
f 93 68 70
f 91 68 93
f 94 70 71
f 93 70 94
f 95 71 72
f 94 71 95
f 96 72 73
f 95 72 96
f 97 73 74
f 96 73 97
f 98 74 75
f 97 74 98
f 99 75 76
f 98 75 99
f 100 76 77
f 99 76 100
f 101 77 78
f 100 77 101
f 102 78 79
f 101 78 102
f 103 79 80
f 102 79 103
f 104 80 81
f 103 80 104
f 105 81 82
f 104 81 105
f 106 82 83
f 105 82 106
f 107 83 84
f 106 83 107
f 108 84 85
f 107 84 108
f 109 85 86
f 108 85 109
f 110 86 87
f 109 86 110
f 111 87 88
f 110 87 111
f 112 88 89
f 111 88 112
f 89 90 113
f 89 113 112
f 92 91 114
f 92 114 115
f 116 91 93
f 114 91 116
f 117 93 94
f 116 93 117
f 118 94 95
f 117 94 118
f 119 95 96
f 118 95 119
f 120 96 97
f 119 96 120
f 121 97 98
f 120 97 121
f 122 98 99
f 121 98 122
f 123 99 100
f 122 99 123
f 124 100 101
f 123 100 124
f 125 101 102
f 124 101 125
f 126 102 103
f 125 102 126
f 127 103 104
f 126 103 127
f 128 104 105
f 127 104 128
f 129 105 106
f 128 105 129
f 130 106 107
f 129 106 130
f 131 107 108
f 130 107 131
f 132 108 109
f 131 108 132
f 133 109 110
f 132 109 133
f 134 110 111
f 133 110 134
f 135 111 112
f 134 111 135
f 112 113 136
f 112 136 135
f 137 115 114
f 137 114 116
f 137 116 138
f 138 116 117
f 138 117 139
f 139 117 118
f 139 118 140
f 140 118 119
f 140 119 141
f 141 119 120
f 141 120 142
f 142 120 121
f 142 121 143
f 143 121 122
f 143 122 144
f 144 122 123
f 144 123 145
f 145 123 124
f 145 124 146
f 146 124 125
f 146 125 147
f 147 125 126
f 147 126 148
f 148 126 127
f 148 127 149
f 149 127 128
f 149 128 150
f 150 128 129
f 150 129 151
f 151 129 130
f 151 130 152
f 152 130 131
f 152 131 153
f 153 131 132
f 153 132 154
f 154 132 133
f 154 133 155
f 155 133 134
f 155 134 156
f 156 134 135
f 156 135 157
f 157 135 136
f 159 158 18
f 159 18 19
f 20 18 158
f 20 158 160
f 161 159 19
f 161 19 21
f 21 20 160
f 21 160 161
f 163 162 22
f 163 22 23
f 22 164 24
f 162 164 22
f 25 24 164
f 25 164 165
f 28 166 27
f 167 30 27
f 167 27 166
f 168 32 30
f 168 30 167
f 169 34 32
f 169 32 168
f 170 36 34
f 170 34 169
f 171 38 36
f 171 36 170
f 172 40 38
f 172 38 171
f 173 42 40
f 173 40 172
f 174 44 42
f 174 42 173
f 175 46 44
f 175 44 174
f 176 48 46
f 176 46 175
f 177 50 48
f 177 48 176
f 163 23 178
f 23 177 178
f 177 179 178
f 23 50 177
f 181 180 179
f 179 180 178
f 181 182 53
f 165 181 53
f 25 165 53
f 181 165 180
f 183 56 53
f 183 53 182
f 184 58 56
f 184 56 183
f 185 60 58
f 185 58 184
f 186 62 60
f 186 60 185
f 187 64 62
f 187 62 186
f 188 66 64
f 188 64 187
f 188 67 66
f 69 189 166
f 69 166 28
f 166 190 167
f 166 189 190
f 167 191 168
f 167 190 191
f 168 192 169
f 168 191 192
f 169 193 170
f 169 192 193
f 170 194 171
f 170 193 194
f 171 195 172
f 171 194 195
f 172 196 173
f 172 195 196
f 173 197 174
f 173 196 197
f 174 198 175
f 174 197 198
f 175 199 176
f 175 198 199
f 176 200 177
f 176 199 200
f 177 201 179
f 177 200 201
f 179 202 181
f 179 201 202
f 181 203 182
f 181 202 203
f 182 204 183
f 182 203 204
f 183 205 184
f 183 204 205
f 184 206 185
f 184 205 206
f 185 207 186
f 185 206 207
f 186 208 187
f 186 207 208
f 187 209 188
f 187 208 209
f 209 90 67
f 209 67 188
f 92 210 189
f 92 189 69
f 189 211 190
f 189 210 211
f 190 212 191
f 190 211 212
f 191 213 192
f 191 212 213
f 192 214 193
f 192 213 214
f 193 215 194
f 193 214 215
f 194 216 195
f 194 215 216
f 195 217 196
f 195 216 217
f 196 218 197
f 196 217 218
f 197 219 198
f 197 218 219
f 198 220 199
f 198 219 220
f 199 221 200
f 199 220 221
f 200 222 201
f 200 221 222
f 201 223 202
f 201 222 223
f 202 224 203
f 202 223 224
f 203 225 204
f 203 224 225
f 204 226 205
f 204 225 226
f 205 227 206
f 205 226 227
f 206 228 207
f 206 227 228
f 207 229 208
f 207 228 229
f 208 230 209
f 208 229 230
f 230 113 90
f 230 90 209
f 115 231 210
f 115 210 92
f 210 232 211
f 210 231 232
f 211 233 212
f 211 232 233
f 212 234 213
f 212 233 234
f 213 235 214
f 213 234 235
f 214 236 215
f 214 235 236
f 215 237 216
f 215 236 237
f 216 238 217
f 216 237 238
f 217 239 218
f 217 238 239
f 218 240 219
f 218 239 240
f 219 241 220
f 219 240 241
f 220 242 221
f 220 241 242
f 221 243 222
f 221 242 243
f 222 244 223
f 222 243 244
f 223 245 224
f 223 244 245
f 224 246 225
f 224 245 246
f 225 247 226
f 225 246 247
f 226 248 227
f 226 247 248
f 227 249 228
f 227 248 249
f 228 250 229
f 228 249 250
f 229 251 230
f 229 250 251
f 251 136 113
f 251 113 230
f 137 231 115
f 231 137 138
f 231 138 232
f 232 138 139
f 232 139 233
f 233 139 140
f 233 140 234
f 234 140 141
f 234 141 235
f 235 141 142
f 235 142 236
f 236 142 143
f 236 143 237
f 237 143 144
f 237 144 238
f 238 144 145
f 238 145 239
f 239 145 146
f 239 146 240
f 240 146 147
f 240 147 241
f 241 147 148
f 241 148 242
f 242 148 149
f 242 149 243
f 243 149 150
f 243 150 244
f 244 150 151
f 244 151 245
f 245 151 152
f 245 152 246
f 246 152 153
f 246 153 247
f 247 153 154
f 247 154 248
f 248 154 155
f 248 155 249
f 249 155 156
f 249 156 250
f 250 156 157
f 250 157 251
f 251 157 136
f 253 252 158
f 253 158 159
f 160 158 252
f 160 252 254
f 255 253 159
f 255 159 161
f 161 160 254
f 161 254 255
f 257 256 162
f 257 162 163
f 162 258 164
f 256 258 162
f 165 164 258
f 165 258 259
f 260 257 163
f 260 163 178
f 261 178 180
f 261 260 178
f 180 165 259
f 180 259 261
f 263 262 252
f 263 252 253
f 254 252 262
f 254 262 264
f 265 263 253
f 265 253 255
f 255 254 264
f 255 264 265
f 267 266 256
f 267 256 257
f 256 268 258
f 266 268 256
f 259 258 268
f 259 268 269
f 270 267 257
f 270 257 260
f 271 260 261
f 271 270 260
f 261 259 269
f 261 269 271
f 273 272 262
f 273 262 263
f 264 262 272
f 264 272 274
f 275 273 263
f 275 263 265
f 265 264 274
f 265 274 275
f 277 276 266
f 277 266 267
f 266 278 268
f 276 278 266
f 269 268 278
f 269 278 279
f 280 277 267
f 280 267 270
f 281 270 271
f 281 280 270
f 271 269 279
f 271 279 281
f 284 283 282
f 286 285 282
f 286 282 283
f 288 287 285
f 288 285 286
f 290 289 287
f 290 287 288
f 292 291 289
f 292 289 290
f 294 293 291
f 294 291 292
f 296 295 293
f 296 293 294
f 298 297 295
f 298 295 296
f 300 299 297
f 300 297 298
f 302 301 299
f 302 299 300
f 304 303 301
f 304 301 302
f 306 305 303
f 306 303 304
f 308 307 305
f 308 305 306
f 310 309 307
f 310 307 308
f 312 311 309
f 312 309 310
f 314 313 311
f 314 311 312
f 316 315 313
f 316 313 314
f 318 317 315
f 318 315 316
f 320 319 317
f 320 317 318
f 322 321 319
f 322 319 320
f 324 323 321
f 324 321 322
f 326 325 323
f 326 323 324
f 328 327 325
f 328 325 326
f 330 329 327
f 330 327 328
f 332 331 329
f 332 329 330
f 334 333 331
f 334 331 332
f 336 335 333
f 336 333 334
f 338 337 335
f 338 335 336
f 340 339 337
f 340 337 338
f 342 341 339
f 342 339 340
f 343 341 342
f 344 284 282
f 344 282 285
f 344 285 345
f 345 285 287
f 345 287 346
f 346 287 289
f 346 289 347
f 347 289 291
f 347 291 348
f 348 291 293
f 348 293 349
f 349 293 295
f 349 295 350
f 350 295 297
f 350 297 351
f 351 297 299
f 351 299 352
f 352 299 301
f 352 301 353
f 353 301 303
f 353 303 354
f 354 303 305
f 354 305 355
f 355 305 307
f 355 307 356
f 356 307 309
f 356 309 357
f 357 309 311
f 357 311 358
f 358 311 313
f 358 313 359
f 359 313 315
f 359 315 360
f 360 315 317
f 360 317 361
f 361 317 319
f 361 319 362
f 362 319 321
f 362 321 363
f 273 364 272
f 364 321 272
f 321 323 272
f 364 363 321
f 323 325 365
f 274 323 365
f 366 274 365
f 323 274 272
f 365 325 327
f 365 327 367
f 367 327 329
f 367 329 368
f 368 329 331
f 368 331 369
f 369 331 333
f 369 333 370
f 370 333 335
f 370 335 371
f 371 335 337
f 371 337 372
f 372 337 339
f 372 339 373
f 373 339 341
f 373 341 374
f 374 341 343
f 375 364 273
f 375 273 275
f 275 274 366
f 275 366 375
f 377 376 276
f 377 276 277
f 276 378 278
f 376 378 276
f 279 278 378
f 279 378 379
f 380 377 277
f 380 277 280
f 381 280 281
f 381 380 280
f 281 279 379
f 281 379 381
f 383 382 283
f 383 283 284
f 283 384 286
f 382 384 283
f 286 385 288
f 384 385 286
f 288 386 290
f 385 386 288
f 290 387 292
f 386 387 290
f 292 388 294
f 387 388 292
f 294 389 296
f 388 389 294
f 296 390 298
f 389 390 296
f 298 391 300
f 390 391 298
f 300 392 302
f 391 392 300
f 302 393 304
f 392 393 302
f 304 394 306
f 393 394 304
f 306 395 308
f 394 395 306
f 308 396 310
f 395 396 308
f 310 397 312
f 396 397 310
f 312 398 314
f 397 398 312
f 314 399 316
f 398 399 314
f 316 400 318
f 399 400 316
f 318 401 320
f 400 401 318
f 320 402 322
f 401 402 320
f 322 403 324
f 402 403 322
f 324 404 326
f 403 404 324
f 326 405 328
f 404 405 326
f 328 406 330
f 405 406 328
f 330 407 332
f 406 407 330
f 332 408 334
f 407 408 332
f 334 409 336
f 408 409 334
f 336 410 338
f 409 410 336
f 338 411 340
f 410 411 338
f 340 412 342
f 411 412 340
f 343 342 412
f 343 412 413
f 414 383 284
f 414 284 344
f 415 344 345
f 415 414 344
f 416 345 346
f 416 415 345
f 417 346 347
f 417 416 346
f 418 347 348
f 418 417 347
f 419 348 349
f 419 418 348
f 420 349 350
f 420 419 349
f 421 350 351
f 421 420 350
f 422 351 352
f 422 421 351
f 423 352 353
f 423 422 352
f 424 353 354
f 424 423 353
f 425 354 355
f 425 424 354
f 426 355 356
f 426 425 355
f 427 356 357
f 427 426 356
f 428 357 358
f 428 427 357
f 429 358 359
f 429 428 358
f 430 359 360
f 430 429 359
f 431 360 361
f 431 430 360
f 432 361 362
f 432 431 361
f 433 362 363
f 433 432 362
f 363 364 433
f 433 364 434
f 436 435 365
f 365 435 366
f 437 365 367
f 437 436 365
f 438 367 368
f 438 437 367
f 439 368 369
f 439 438 368
f 440 369 370
f 440 439 369
f 441 370 371
f 441 440 370
f 442 371 372
f 442 441 371
f 443 372 373
f 443 442 372
f 444 373 374
f 444 443 373
f 374 343 413
f 374 413 444
f 445 434 364
f 445 364 375
f 375 366 435
f 375 435 445
f 447 446 376
f 447 376 377
f 376 448 378
f 446 448 376
f 379 378 448
f 379 448 449
f 450 447 377
f 450 377 380
f 451 380 381
f 451 450 380
f 381 379 449
f 381 449 451
f 453 452 382
f 453 382 383
f 382 454 384
f 452 454 382
f 384 455 385
f 454 455 384
f 385 456 386
f 455 456 385
f 386 457 387
f 456 457 386
f 387 458 388
f 457 458 387
f 388 459 389
f 458 459 388
f 389 460 390
f 459 460 389
f 390 461 391
f 460 461 390
f 391 462 392
f 461 462 391
f 392 463 393
f 462 463 392
f 393 464 394
f 463 464 393
f 394 465 395
f 464 465 394
f 395 466 396
f 465 466 395
f 396 467 397
f 466 467 396
f 397 468 398
f 467 468 397
f 398 469 399
f 468 469 398
f 399 470 400
f 469 470 399
f 400 471 401
f 470 471 400
f 401 472 402
f 471 472 401
f 402 473 403
f 472 473 402
f 403 474 404
f 473 474 403
f 404 475 405
f 474 475 404
f 405 476 406
f 475 476 405
f 406 477 407
f 476 477 406
f 407 478 408
f 477 478 407
f 408 479 409
f 478 479 408
f 409 480 410
f 479 480 409
f 410 481 411
f 480 481 410
f 411 482 412
f 481 482 411
f 413 412 482
f 413 482 483
f 484 453 383
f 484 383 414
f 485 414 415
f 485 484 414
f 486 415 416
f 486 485 415
f 487 416 417
f 487 486 416
f 488 417 418
f 488 487 417
f 489 418 419
f 489 488 418
f 490 419 420
f 490 489 419
f 491 420 421
f 491 490 420
f 492 421 422
f 492 491 421
f 493 422 423
f 493 492 422
f 494 423 424
f 494 493 423
f 495 424 425
f 495 494 424
f 496 425 426
f 496 495 425
f 497 426 427
f 497 496 426
f 498 427 428
f 498 497 427
f 499 428 429
f 499 498 428
f 500 429 430
f 500 499 429
f 501 430 431
f 501 500 430
f 502 431 432
f 502 501 431
f 503 432 433
f 503 502 432
f 433 434 503
f 503 434 504
f 506 505 436
f 436 505 435
f 507 436 437
f 507 506 436
f 508 437 438
f 508 507 437
f 509 438 439
f 509 508 438
f 510 439 440
f 510 509 439
f 511 440 441
f 511 510 440
f 512 441 442
f 512 511 441
f 513 442 443
f 513 512 442
f 514 443 444
f 514 513 443
f 444 413 483
f 444 483 514
f 515 504 434
f 515 434 445
f 445 435 505
f 445 505 515
f 517 516 446
f 517 446 447
f 446 518 448
f 516 518 446
f 449 448 518
f 449 518 519
f 520 517 447
f 520 447 450
f 521 450 451
f 521 520 450
f 451 449 519
f 451 519 521
f 523 522 452
f 523 452 453
f 452 524 454
f 522 524 452
f 454 525 455
f 524 525 454
f 455 526 456
f 525 526 455
f 456 527 457
f 526 527 456
f 457 528 458
f 527 528 457
f 458 529 459
f 528 529 458
f 459 530 460
f 529 530 459
f 460 531 461
f 530 531 460
f 461 532 462
f 531 532 461
f 462 533 463
f 532 533 462
f 463 534 464
f 533 534 463
f 464 535 465
f 534 535 464
f 465 536 466
f 535 536 465
f 466 537 467
f 536 537 466
f 467 538 468
f 537 538 467
f 468 539 469
f 538 539 468
f 469 540 470
f 539 540 469
f 470 541 471
f 540 541 470
f 471 542 472
f 541 542 471
f 472 543 473
f 542 543 472
f 473 544 474
f 543 544 473
f 474 545 475
f 544 545 474
f 475 546 476
f 545 546 475
f 476 547 477
f 546 547 476
f 477 548 478
f 547 548 477
f 478 549 479
f 548 549 478
f 479 550 480
f 549 550 479
f 480 551 481
f 550 551 480
f 481 552 482
f 551 552 481
f 483 482 552
f 483 552 553
f 554 523 453
f 554 453 484
f 555 484 485
f 555 554 484
f 556 485 486
f 556 555 485
f 557 486 487
f 557 556 486
f 558 487 488
f 558 557 487
f 559 488 489
f 559 558 488
f 560 489 490
f 560 559 489
f 561 490 491
f 561 560 490
f 562 491 492
f 562 561 491
f 563 492 493
f 563 562 492
f 564 493 494
f 564 563 493
f 565 494 495
f 565 564 494
f 566 495 496
f 566 565 495
f 567 496 497
f 567 566 496
f 568 497 498
f 568 567 497
f 569 498 499
f 569 568 498
f 570 499 500
f 570 569 499
f 571 500 501
f 571 570 500
f 572 501 502
f 572 571 501
f 573 502 503
f 573 572 502
f 503 504 573
f 573 504 574
f 576 575 506
f 506 575 505
f 577 506 507
f 577 576 506
f 578 507 508
f 578 577 507
f 579 508 509
f 579 578 508
f 580 509 510
f 580 579 509
f 581 510 511
f 581 580 510
f 582 511 512
f 582 581 511
f 583 512 513
f 583 582 512
f 584 513 514
f 584 583 513
f 514 483 553
f 514 553 584
f 585 574 504
f 585 504 515
f 515 505 575
f 515 575 585
f 587 586 516
f 587 516 517
f 516 588 518
f 586 588 516
f 519 518 588
f 519 588 589
f 590 587 517
f 590 517 520
f 591 520 521
f 591 590 520
f 521 519 589
f 521 589 591
f 593 592 522
f 593 522 523
f 522 594 524
f 592 594 522
f 524 595 525
f 594 595 524
f 525 596 526
f 595 596 525
f 526 597 527
f 596 597 526
f 527 598 528
f 597 598 527
f 528 599 529
f 598 599 528
f 529 600 530
f 599 600 529
f 530 601 531
f 600 601 530
f 531 602 532
f 601 602 531
f 532 603 533
f 602 603 532
f 533 604 534
f 603 604 533
f 534 605 535
f 604 605 534
f 535 606 536
f 605 606 535
f 536 607 537
f 606 607 536
f 537 608 538
f 607 608 537
f 538 609 539
f 608 609 538
f 539 610 540
f 609 610 539
f 540 611 541
f 610 611 540
f 541 612 542
f 611 612 541
f 542 613 543
f 612 613 542
f 543 614 544
f 613 614 543
f 544 615 545
f 614 615 544
f 545 616 546
f 615 616 545
f 546 617 547
f 616 617 546
f 547 618 548
f 617 618 547
f 548 619 549
f 618 619 548
f 549 620 550
f 619 620 549
f 550 621 551
f 620 621 550
f 551 622 552
f 621 622 551
f 553 552 622
f 553 622 623
f 624 593 523
f 624 523 554
f 625 554 555
f 625 624 554
f 626 555 556
f 626 625 555
f 627 556 557
f 627 626 556
f 628 557 558
f 628 627 557
f 629 558 559
f 629 628 558
f 630 559 560
f 630 629 559
f 631 560 561
f 631 630 560
f 632 561 562
f 632 631 561
f 633 562 563
f 633 632 562
f 634 563 564
f 634 633 563
f 635 564 565
f 635 634 564
f 636 565 566
f 636 635 565
f 637 566 567
f 637 636 566
f 638 567 568
f 638 637 567
f 639 568 569
f 639 638 568
f 640 569 570
f 640 639 569
f 641 570 571
f 641 640 570
f 642 571 572
f 642 641 571
f 643 572 573
f 643 642 572
f 573 574 643
f 643 574 644
f 646 645 576
f 576 645 575
f 647 576 577
f 647 646 576
f 648 577 578
f 648 647 577
f 649 578 579
f 649 648 578
f 650 579 580
f 650 649 579
f 651 580 581
f 651 650 580
f 652 581 582
f 652 651 581
f 653 582 583
f 653 652 582
f 654 583 584
f 654 653 583
f 584 553 623
f 584 623 654
f 655 644 574
f 655 574 585
f 585 575 645
f 585 645 655
f 657 656 586
f 657 586 587
f 586 658 588
f 656 658 586
f 589 588 658
f 589 658 659
f 660 657 587
f 660 587 590
f 661 590 591
f 661 660 590
f 591 589 659
f 591 659 661
f 663 662 592
f 663 592 593
f 592 664 594
f 662 664 592
f 594 665 595
f 664 665 594
f 595 666 596
f 665 666 595
f 596 667 597
f 666 667 596
f 597 668 598
f 667 668 597
f 598 669 599
f 668 669 598
f 599 670 600
f 669 670 599
f 600 671 601
f 670 671 600
f 601 672 602
f 671 672 601
f 602 673 603
f 672 673 602
f 603 674 604
f 673 674 603
f 604 675 605
f 674 675 604
f 605 676 606
f 675 676 605
f 606 677 607
f 676 677 606
f 607 678 608
f 677 678 607
f 608 679 609
f 678 679 608
f 609 680 610
f 679 680 609
f 610 681 611
f 680 681 610
f 611 682 612
f 681 682 611
f 612 683 613
f 682 683 612
f 613 684 614
f 683 684 613
f 614 685 615
f 684 685 614
f 615 686 616
f 685 686 615
f 616 687 617
f 686 687 616
f 617 688 618
f 687 688 617
f 618 689 619
f 688 689 618
f 619 690 620
f 689 690 619
f 620 691 621
f 690 691 620
f 621 692 622
f 691 692 621
f 623 622 692
f 623 692 693
f 694 663 593
f 694 593 624
f 695 624 625
f 695 694 624
f 696 625 626
f 696 695 625
f 697 626 627
f 697 696 626
f 698 627 628
f 698 697 627
f 699 628 629
f 699 698 628
f 700 629 630
f 700 699 629
f 701 630 631
f 701 700 630
f 702 631 632
f 702 701 631
f 703 632 633
f 703 702 632
f 704 633 634
f 704 703 633
f 705 634 635
f 705 704 634
f 706 635 636
f 706 705 635
f 707 636 637
f 707 706 636
f 708 637 638
f 708 707 637
f 709 638 639
f 709 708 638
f 710 639 640
f 710 709 639
f 711 640 641
f 711 710 640
f 712 641 642
f 712 711 641
f 713 642 643
f 713 712 642
f 643 644 713
f 713 644 714
f 716 715 646
f 646 715 645
f 717 646 647
f 717 716 646
f 718 647 648
f 718 717 647
f 719 648 649
f 719 718 648
f 720 649 650
f 720 719 649
f 721 650 651
f 721 720 650
f 722 651 652
f 722 721 651
f 723 652 653
f 723 722 652
f 724 653 654
f 724 723 653
f 654 623 693
f 654 693 724
f 725 714 644
f 725 644 655
f 655 645 715
f 655 715 725
f 727 726 656
f 727 656 657
f 656 728 658
f 726 728 656
f 659 658 728
f 659 728 729
f 730 727 657
f 730 657 660
f 731 660 661
f 731 730 660
f 661 659 729
f 661 729 731
f 733 732 662
f 733 662 663
f 662 734 664
f 732 734 662
f 664 735 665
f 734 735 664
f 665 736 666
f 735 736 665
f 666 737 667
f 736 737 666
f 667 738 668
f 737 738 667
f 668 739 669
f 738 739 668
f 669 740 670
f 739 740 669
f 670 741 671
f 740 741 670
f 671 742 672
f 741 742 671
f 672 743 673
f 742 743 672
f 673 744 674
f 743 744 673
f 674 745 675
f 744 745 674
f 675 746 676
f 745 746 675
f 676 747 677
f 746 747 676
f 677 748 678
f 747 748 677
f 678 749 679
f 748 749 678
f 679 750 680
f 749 750 679
f 680 751 681
f 750 751 680
f 681 752 682
f 751 752 681
f 682 753 683
f 752 753 682
f 683 754 684
f 753 754 683
f 684 755 685
f 754 755 684
f 685 756 686
f 755 756 685
f 686 757 687
f 756 757 686
f 687 758 688
f 757 758 687
f 688 759 689
f 758 759 688
f 689 760 690
f 759 760 689
f 690 761 691
f 760 761 690
f 691 762 692
f 761 762 691
f 693 692 762
f 693 762 763
f 764 733 663
f 764 663 694
f 765 694 695
f 765 764 694
f 766 695 696
f 766 765 695
f 767 696 697
f 767 766 696
f 768 697 698
f 768 767 697
f 769 698 699
f 769 768 698
f 770 699 700
f 770 769 699
f 771 700 701
f 771 770 700
f 772 701 702
f 772 771 701
f 773 702 703
f 773 772 702
f 774 703 704
f 774 773 703
f 775 704 705
f 775 774 704
f 776 705 706
f 776 775 705
f 777 706 707
f 777 776 706
f 778 707 708
f 778 777 707
f 779 708 709
f 779 778 708
f 780 709 710
f 780 779 709
f 781 710 711
f 781 780 710
f 782 711 712
f 782 781 711
f 783 712 713
f 783 782 712
f 713 714 783
f 783 714 784
f 786 785 716
f 716 785 715
f 787 716 717
f 787 786 716
f 788 717 718
f 788 787 717
f 789 718 719
f 789 788 718
f 790 719 720
f 790 789 719
f 791 720 721
f 791 790 720
f 792 721 722
f 792 791 721
f 793 722 723
f 793 792 722
f 794 723 724
f 794 793 723
f 724 693 763
f 724 763 794
f 795 784 714
f 795 714 725
f 725 715 785
f 725 785 795
f 797 796 726
f 797 726 727
f 726 798 728
f 796 798 726
f 729 728 798
f 729 798 799
f 800 797 727
f 800 727 730
f 801 730 731
f 801 800 730
f 731 729 799
f 731 799 801
f 803 802 732
f 803 732 733
f 732 804 734
f 802 804 732
f 734 805 735
f 804 805 734
f 735 806 736
f 805 806 735
f 736 807 737
f 806 807 736
f 737 808 738
f 807 808 737
f 738 809 739
f 808 809 738
f 739 810 740
f 809 810 739
f 740 811 741
f 810 811 740
f 741 812 742
f 811 812 741
f 742 813 743
f 812 813 742
f 743 814 744
f 813 814 743
f 744 815 745
f 814 815 744
f 745 816 746
f 815 816 745
f 746 817 747
f 816 817 746
f 747 818 748
f 817 818 747
f 748 819 749
f 818 819 748
f 749 820 750
f 819 820 749
f 750 821 751
f 820 821 750
f 751 822 752
f 821 822 751
f 752 823 753
f 822 823 752
f 753 824 754
f 823 824 753
f 754 825 755
f 824 825 754
f 755 826 756
f 825 826 755
f 756 827 757
f 826 827 756
f 757 828 758
f 827 828 757
f 758 829 759
f 828 829 758
f 759 830 760
f 829 830 759
f 760 831 761
f 830 831 760
f 761 832 762
f 831 832 761
f 763 762 832
f 763 832 833
f 834 803 733
f 834 733 764
f 835 764 765
f 835 834 764
f 836 765 766
f 836 835 765
f 837 766 767
f 837 836 766
f 838 767 768
f 838 837 767
f 839 768 769
f 839 838 768
f 840 769 770
f 840 839 769
f 841 770 771
f 841 840 770
f 842 771 772
f 842 841 771
f 843 772 773
f 843 842 772
f 844 773 774
f 844 843 773
f 845 774 775
f 845 844 774
f 846 775 776
f 846 845 775
f 847 776 777
f 847 846 776
f 848 777 778
f 848 847 777
f 849 778 779
f 849 848 778
f 850 779 780
f 850 849 779
f 851 780 781
f 851 850 780
f 852 781 782
f 852 851 781
f 853 782 783
f 853 852 782
f 783 784 853
f 853 784 854
f 856 855 786
f 786 855 785
f 857 786 787
f 857 856 786
f 858 787 788
f 858 857 787
f 859 788 789
f 859 858 788
f 860 789 790
f 860 859 789
f 861 790 791
f 861 860 790
f 862 791 792
f 862 861 791
f 863 792 793
f 863 862 792
f 864 793 794
f 864 863 793
f 794 763 833
f 794 833 864
f 865 854 784
f 865 784 795
f 795 785 855
f 795 855 865
f 867 866 796
f 867 796 797
f 796 868 798
f 866 868 796
f 799 798 868
f 799 868 869
f 870 867 797
f 870 797 800
f 871 800 801
f 871 870 800
f 801 799 869
f 801 869 871
f 873 872 802
f 873 802 803
f 802 874 804
f 872 874 802
f 804 875 805
f 874 875 804
f 805 876 806
f 875 876 805
f 806 877 807
f 876 877 806
f 807 878 808
f 877 878 807
f 808 879 809
f 878 879 808
f 809 880 810
f 879 880 809
f 810 881 811
f 880 881 810
f 811 882 812
f 881 882 811
f 812 883 813
f 882 883 812
f 813 884 814
f 883 884 813
f 814 885 815
f 884 885 814
f 815 886 816
f 885 886 815
f 816 887 817
f 886 887 816
f 817 888 818
f 887 888 817
f 818 889 819
f 888 889 818
f 819 890 820
f 889 890 819
f 820 891 821
f 890 891 820
f 821 892 822
f 891 892 821
f 822 893 823
f 892 893 822
f 823 894 824
f 893 894 823
f 824 895 825
f 894 895 824
f 825 896 826
f 895 896 825
f 826 897 827
f 896 897 826
f 827 898 828
f 897 898 827
f 828 899 829
f 898 899 828
f 829 900 830
f 899 900 829
f 830 901 831
f 900 901 830
f 831 902 832
f 901 902 831
f 833 832 902
f 833 902 903
f 904 873 803
f 904 803 834
f 905 834 835
f 905 904 834
f 906 835 836
f 906 905 835
f 907 836 837
f 907 906 836
f 908 837 838
f 908 907 837
f 909 838 839
f 909 908 838
f 910 839 840
f 910 909 839
f 911 840 841
f 911 910 840
f 912 841 842
f 912 911 841
f 913 842 843
f 913 912 842
f 914 843 844
f 914 913 843
f 915 844 845
f 915 914 844
f 916 845 846
f 916 915 845
f 917 846 847
f 917 916 846
f 918 847 848
f 918 917 847
f 919 848 849
f 919 918 848
f 920 849 850
f 920 919 849
f 921 850 851
f 921 920 850
f 922 851 852
f 922 921 851
f 923 852 853
f 923 922 852
f 853 854 923
f 923 854 924
f 926 925 856
f 856 925 855
f 927 856 857
f 927 926 856
f 928 857 858
f 928 927 857
f 929 858 859
f 929 928 858
f 930 859 860
f 930 929 859
f 931 860 861
f 931 930 860
f 932 861 862
f 932 931 861
f 933 862 863
f 933 932 862
f 934 863 864
f 934 933 863
f 864 833 903
f 864 903 934
f 935 924 854
f 935 854 865
f 865 855 925
f 865 925 935
f 937 936 866
f 937 866 867
f 866 938 868
f 936 938 866
f 869 868 938
f 869 938 939
f 940 937 867
f 940 867 870
f 941 870 871
f 941 940 870
f 871 869 939
f 871 939 941
f 943 942 872
f 943 872 873
f 872 944 874
f 942 944 872
f 874 945 875
f 944 945 874
f 875 946 876
f 945 946 875
f 876 947 877
f 946 947 876
f 877 948 878
f 947 948 877
f 878 949 879
f 948 949 878
f 879 950 880
f 949 950 879
f 880 951 881
f 950 951 880
f 881 952 882
f 951 952 881
f 882 953 883
f 952 953 882
f 883 954 884
f 953 954 883
f 884 955 885
f 954 955 884
f 885 956 886
f 955 956 885
f 886 957 887
f 956 957 886
f 887 958 888
f 957 958 887
f 888 959 889
f 958 959 888
f 889 960 890
f 959 960 889
f 890 961 891
f 960 961 890
f 891 962 892
f 961 962 891
f 892 963 893
f 962 963 892
f 893 964 894
f 963 964 893
f 894 965 895
f 964 965 894
f 895 966 896
f 965 966 895
f 896 967 897
f 966 967 896
f 897 968 898
f 967 968 897
f 898 969 899
f 968 969 898
f 899 970 900
f 969 970 899
f 900 971 901
f 970 971 900
f 901 972 902
f 971 972 901
f 903 902 972
f 903 972 973
f 974 943 873
f 974 873 904
f 975 904 905
f 975 974 904
f 976 905 906
f 976 975 905
f 977 906 907
f 977 976 906
f 978 907 908
f 978 977 907
f 979 908 909
f 979 978 908
f 980 909 910
f 980 979 909
f 981 910 911
f 981 980 910
f 982 911 912
f 982 981 911
f 983 912 913
f 983 982 912
f 984 913 914
f 984 983 913
f 985 914 915
f 985 984 914
f 986 915 916
f 986 985 915
f 987 916 917
f 987 986 916
f 988 917 918
f 988 987 917
f 989 918 919
f 989 988 918
f 990 919 920
f 990 989 919
f 991 920 921
f 991 990 920
f 992 921 922
f 992 991 921
f 993 922 923
f 993 992 922
f 923 924 993
f 993 924 994
f 996 995 926
f 926 995 925
f 997 926 927
f 997 996 926
f 998 927 928
f 998 997 927
f 999 928 929
f 999 998 928
f 1000 929 930
f 1000 999 929
f 1001 930 931
f 1001 1000 930
f 1002 931 932
f 1002 1001 931
f 1003 932 933
f 1003 1002 932
f 1004 933 934
f 1004 1003 933
f 934 903 973
f 934 973 1004
f 1005 994 924
f 1005 924 935
f 935 925 995
f 935 995 1005
f 1007 1006 936
f 1007 936 937
f 936 1008 938
f 1006 1008 936
f 939 938 1008
f 939 1008 1009
f 1010 1007 937
f 1010 937 940
f 1011 940 941
f 1011 1010 940
f 941 939 1009
f 941 1009 1011
f 1013 1012 942
f 1013 942 943
f 942 1014 944
f 1012 1014 942
f 944 1015 945
f 1014 1015 944
f 945 1016 946
f 1015 1016 945
f 946 1017 947
f 1016 1017 946
f 947 1018 948
f 1017 1018 947
f 948 1019 949
f 1018 1019 948
f 949 1020 950
f 1019 1020 949
f 950 1021 951
f 1020 1021 950
f 951 1022 952
f 1021 1022 951
f 952 1023 953
f 1022 1023 952
f 953 1024 954
f 1023 1024 953
f 954 1025 955
f 1024 1025 954
f 955 1026 956
f 1025 1026 955
f 956 1027 957
f 1026 1027 956
f 957 1028 958
f 1027 1028 957
f 958 1029 959
f 1028 1029 958
f 959 1030 960
f 1029 1030 959
f 960 1031 961
f 1030 1031 960
f 961 1032 962
f 1031 1032 961
f 962 1033 963
f 1032 1033 962
f 963 1034 964
f 1033 1034 963
f 964 1035 965
f 1034 1035 964
f 965 1036 966
f 1035 1036 965
f 966 1037 967
f 1036 1037 966
f 967 1038 968
f 1037 1038 967
f 968 1039 969
f 1038 1039 968
f 969 1040 970
f 1039 1040 969
f 970 1041 971
f 1040 1041 970
f 971 1042 972
f 1041 1042 971
f 973 972 1042
f 973 1042 1043
f 1044 1013 943
f 1044 943 974
f 1045 974 975
f 1045 1044 974
f 1046 975 976
f 1046 1045 975
f 1047 976 977
f 1047 1046 976
f 1048 977 978
f 1048 1047 977
f 1049 978 979
f 1049 1048 978
f 1050 979 980
f 1050 1049 979
f 1051 980 981
f 1051 1050 980
f 1052 981 982
f 1052 1051 981
f 1053 982 983
f 1053 1052 982
f 1054 983 984
f 1054 1053 983
f 1055 984 985
f 1055 1054 984
f 1056 985 986
f 1056 1055 985
f 1057 986 987
f 1057 1056 986
f 1058 987 988
f 1058 1057 987
f 1059 988 989
f 1059 1058 988
f 1060 989 990
f 1060 1059 989
f 1061 990 991
f 1061 1060 990
f 1062 991 992
f 1062 1061 991
f 1063 992 993
f 1063 1062 992
f 1065 1064 994
f 1064 993 994
f 1064 1063 993
f 995 996 1065
f 996 1064 1065
f 996 1066 1064
f 1067 996 997
f 1067 1066 996
f 1068 997 998
f 1068 1067 997
f 1069 998 999
f 1069 1068 998
f 1070 999 1000
f 1070 1069 999
f 1071 1000 1001
f 1071 1070 1000
f 1072 1001 1002
f 1072 1071 1001
f 1073 1002 1003
f 1073 1072 1002
f 1074 1003 1004
f 1074 1073 1003
f 1004 973 1043
f 1004 1043 1074
f 1005 1065 994
f 1065 1005 995
f 1076 1075 1006
f 1076 1006 1007
f 1006 1077 1008
f 1075 1077 1006
f 1009 1008 1077
f 1009 1077 1078
f 1079 1076 1007
f 1079 1007 1010
f 1080 1010 1011
f 1080 1079 1010
f 1011 1009 1078
f 1011 1078 1080
f 1082 1081 1012
f 1082 1012 1013
f 1012 1083 1014
f 1081 1083 1012
f 1014 1084 1015
f 1083 1084 1014
f 1015 1085 1016
f 1084 1085 1015
f 1016 1086 1017
f 1085 1086 1016
f 1017 1087 1018
f 1086 1087 1017
f 1018 1088 1019
f 1087 1088 1018
f 1019 1089 1020
f 1088 1089 1019
f 1020 1090 1021
f 1089 1090 1020
f 1021 1091 1022
f 1090 1091 1021
f 1022 1092 1023
f 1091 1092 1022
f 1023 1093 1024
f 1092 1093 1023
f 1024 1094 1025
f 1093 1094 1024
f 1025 1095 1026
f 1094 1095 1025
f 1026 1096 1027
f 1095 1096 1026
f 1027 1097 1028
f 1096 1097 1027
f 1028 1098 1029
f 1097 1098 1028
f 1029 1099 1030
f 1098 1099 1029
f 1030 1100 1031
f 1099 1100 1030
f 1031 1101 1032
f 1100 1101 1031
f 1032 1102 1033
f 1101 1102 1032
f 1033 1103 1034
f 1102 1103 1033
f 1034 1104 1035
f 1103 1104 1034
f 1035 1105 1036
f 1104 1105 1035
f 1036 1106 1037
f 1105 1106 1036
f 1037 1107 1038
f 1106 1107 1037
f 1038 1108 1039
f 1107 1108 1038
f 1039 1109 1040
f 1108 1109 1039
f 1040 1110 1041
f 1109 1110 1040
f 1041 1111 1042
f 1110 1111 1041
f 1043 1042 1111
f 1043 1111 1112
f 1113 1082 1013
f 1113 1013 1044
f 1114 1044 1045
f 1114 1113 1044
f 1115 1045 1046
f 1115 1114 1045
f 1116 1046 1047
f 1116 1115 1046
f 1117 1047 1048
f 1117 1116 1047
f 1118 1048 1049
f 1118 1117 1048
f 1119 1049 1050
f 1119 1118 1049
f 1120 1050 1051
f 1120 1119 1050
f 1121 1051 1052
f 1121 1120 1051
f 1122 1052 1053
f 1122 1121 1052
f 1123 1053 1054
f 1123 1122 1053
f 1124 1054 1055
f 1124 1123 1054
f 1125 1055 1056
f 1125 1124 1055
f 1126 1056 1057
f 1126 1125 1056
f 1127 1057 1058
f 1127 1126 1057
f 1128 1058 1059
f 1128 1127 1058
f 1129 1059 1060
f 1129 1128 1059
f 1130 1060 1061
f 1130 1129 1060
f 1131 1061 1062
f 1131 1130 1061
f 1132 1062 1063
f 1132 1131 1062
f 1133 1063 1064
f 1133 1132 1063
f 1134 1064 1066
f 1134 1133 1064
f 1135 1066 1067
f 1135 1134 1066
f 1136 1067 1068
f 1136 1135 1067
f 1137 1068 1069
f 1137 1136 1068
f 1138 1069 1070
f 1138 1137 1069
f 1139 1070 1071
f 1139 1138 1070
f 1140 1071 1072
f 1140 1139 1071
f 1141 1072 1073
f 1141 1140 1072
f 1142 1073 1074
f 1142 1141 1073
f 1074 1043 1112
f 1074 1112 1142
f 1144 1143 1075
f 1144 1075 1076
f 1075 1145 1077
f 1143 1145 1075
f 1078 1077 1145
f 1078 1145 1146
f 1147 1144 1076
f 1147 1076 1079
f 1148 1079 1080
f 1148 1147 1079
f 1080 1078 1146
f 1080 1146 1148
f 1150 1149 1081
f 1150 1081 1082
f 1081 1151 1083
f 1149 1151 1081
f 1083 1152 1084
f 1151 1152 1083
f 1084 1153 1085
f 1152 1153 1084
f 1085 1154 1086
f 1153 1154 1085
f 1086 1155 1087
f 1154 1155 1086
f 1087 1156 1088
f 1155 1156 1087
f 1088 1157 1089
f 1156 1157 1088
f 1089 1158 1090
f 1157 1158 1089
f 1090 1159 1091
f 1158 1159 1090
f 1091 1160 1092
f 1159 1160 1091
f 1092 1161 1093
f 1160 1161 1092
f 1093 1162 1094
f 1161 1162 1093
f 1094 1163 1095
f 1162 1163 1094
f 1095 1164 1096
f 1163 1164 1095
f 1096 1165 1097
f 1164 1165 1096
f 1097 1166 1098
f 1165 1166 1097
f 1098 1167 1099
f 1166 1167 1098
f 1099 1168 1100
f 1167 1168 1099
f 1100 1169 1101
f 1168 1169 1100
f 1101 1170 1102
f 1169 1170 1101
f 1102 1171 1103
f 1170 1171 1102
f 1103 1172 1104
f 1171 1172 1103
f 1104 1173 1105
f 1172 1173 1104
f 1105 1174 1106
f 1173 1174 1105
f 1106 1175 1107
f 1174 1175 1106
f 1107 1176 1108
f 1175 1176 1107
f 1108 1177 1109
f 1176 1177 1108
f 1109 1178 1110
f 1177 1178 1109
f 1110 1179 1111
f 1178 1179 1110
f 1112 1111 1179
f 1112 1179 1180
f 1181 1150 1082
f 1181 1082 1113
f 1182 1113 1114
f 1182 1181 1113
f 1183 1114 1115
f 1183 1182 1114
f 1184 1115 1116
f 1184 1183 1115
f 1185 1116 1117
f 1185 1184 1116
f 1186 1117 1118
f 1186 1185 1117
f 1187 1118 1119
f 1187 1186 1118
f 1188 1119 1120
f 1188 1187 1119
f 1189 1120 1121
f 1189 1188 1120
f 1190 1121 1122
f 1190 1189 1121
f 1191 1122 1123
f 1191 1190 1122
f 1192 1123 1124
f 1192 1191 1123
f 1193 1124 1125
f 1193 1192 1124
f 1194 1125 1126
f 1194 1193 1125
f 1195 1126 1127
f 1195 1194 1126
f 1196 1127 1128
f 1196 1195 1127
f 1197 1128 1129
f 1197 1196 1128
f 1198 1129 1130
f 1198 1197 1129
f 1199 1130 1131
f 1199 1198 1130
f 1200 1131 1132
f 1200 1199 1131
f 1201 1132 1133
f 1201 1200 1132
f 1202 1133 1134
f 1202 1201 1133
f 1203 1134 1135
f 1203 1202 1134
f 1204 1135 1136
f 1204 1203 1135
f 1205 1136 1137
f 1205 1204 1136
f 1206 1137 1138
f 1206 1205 1137
f 1207 1138 1139
f 1207 1206 1138
f 1208 1139 1140
f 1208 1207 1139
f 1209 1140 1141
f 1209 1208 1140
f 1210 1141 1142
f 1210 1209 1141
f 1142 1112 1180
f 1142 1180 1210
f 1212 1211 1143
f 1212 1143 1144
f 1143 1213 1145
f 1211 1213 1143
f 1146 1145 1213
f 1146 1213 1214
f 1215 1212 1144
f 1215 1144 1147
f 1216 1147 1148
f 1216 1215 1147
f 1148 1146 1214
f 1148 1214 1216
f 1150 1217 1149
f 1218 1151 1149
f 1218 1149 1217
f 1219 1152 1151
f 1219 1151 1218
f 1220 1153 1152
f 1220 1152 1219
f 1221 1154 1153
f 1221 1153 1220
f 1222 1155 1154
f 1222 1154 1221
f 1223 1156 1155
f 1223 1155 1222
f 1224 1157 1156
f 1224 1156 1223
f 1225 1158 1157
f 1225 1157 1224
f 1226 1159 1158
f 1226 1158 1225
f 1227 1160 1159
f 1227 1159 1226
f 1228 1161 1160
f 1228 1160 1227
f 1229 1162 1161
f 1229 1161 1228
f 1230 1163 1162
f 1230 1162 1229
f 1231 1164 1163
f 1231 1163 1230
f 1232 1165 1164
f 1232 1164 1231
f 1165 1232 1233
f 1234 1165 1233
f 1166 1165 1234
f 1166 1235 1167
f 1234 1235 1166
f 1167 1236 1168
f 1235 1236 1167
f 1168 1237 1169
f 1236 1237 1168
f 1169 1238 1170
f 1237 1238 1169
f 1170 1239 1171
f 1238 1239 1170
f 1171 1240 1172
f 1239 1240 1171
f 1172 1241 1173
f 1240 1241 1172
f 1173 1242 1174
f 1241 1242 1173
f 1242 1244 1243
f 1175 1242 1243
f 1174 1242 1175
f 1245 1176 1175
f 1245 1175 1243
f 1246 1177 1176
f 1246 1176 1245
f 1247 1178 1177
f 1247 1177 1246
f 1248 1179 1178
f 1248 1178 1247
f 1248 1180 1179
f 1181 1217 1150
f 1217 1181 1182
f 1217 1182 1218
f 1218 1182 1183
f 1218 1183 1219
f 1219 1183 1184
f 1219 1184 1220
f 1220 1184 1185
f 1220 1185 1221
f 1221 1185 1186
f 1221 1186 1222
f 1222 1186 1187
f 1222 1187 1223
f 1223 1187 1188
f 1223 1188 1224
f 1224 1188 1189
f 1224 1189 1225
f 1225 1189 1190
f 1225 1190 1226
f 1226 1190 1191
f 1226 1191 1227
f 1227 1191 1192
f 1227 1192 1228
f 1228 1192 1193
f 1228 1193 1229
f 1229 1193 1194
f 1229 1194 1230
f 1230 1194 1195
f 1230 1195 1231
f 1231 1195 1196
f 1231 1196 1232
f 1249 1233 1232
f 1196 1249 1232
f 1197 1249 1196
f 1250 1197 1198
f 1250 1249 1197
f 1251 1198 1199
f 1251 1250 1198
f 1252 1199 1200
f 1252 1251 1199
f 1253 1200 1201
f 1253 1252 1200
f 1254 1201 1202
f 1254 1253 1201
f 1255 1202 1203
f 1255 1254 1202
f 1256 1203 1204
f 1256 1255 1203
f 1257 1204 1205
f 1257 1256 1204
f 1206 1243 1244
f 1257 1206 1244
f 1205 1206 1257
f 1243 1206 1207
f 1243 1207 1245
f 1245 1207 1208
f 1245 1208 1246
f 1246 1208 1209
f 1246 1209 1247
f 1247 1209 1210
f 1247 1210 1248
f 1248 1210 1180
f 1260 1259 1258
f 1262 1261 1258
f 1262 1258 1259
f 1264 1263 1261
f 1264 1261 1262
f 1266 1265 1263
f 1266 1263 1264
f 1268 1267 1265
f 1268 1265 1266
f 1270 1269 1267
f 1270 1267 1268
f 1272 1271 1269
f 1272 1269 1270
f 1274 1273 1271
f 1274 1271 1272
f 1276 1275 1273
f 1276 1273 1274
f 1278 1277 1275
f 1278 1275 1276
f 1280 1279 1277
f 1280 1277 1278
f 1282 1281 1279
f 1282 1279 1280
f 1284 1283 1281
f 1284 1281 1282
f 1286 1285 1283
f 1286 1283 1284
f 1288 1287 1285
f 1288 1285 1286
f 1290 1289 1287
f 1290 1287 1288
f 1292 1291 1289
f 1292 1289 1290
f 1294 1293 1291
f 1294 1291 1292
f 1296 1295 1293
f 1296 1293 1294
f 1298 1297 1295
f 1298 1295 1296
f 1300 1299 1297
f 1300 1297 1298
f 1302 1301 1299
f 1302 1299 1300
f 1303 1301 1302
f 1304 1260 1258
f 1304 1258 1261
f 1304 1261 1305
f 1305 1261 1263
f 1305 1263 1306
f 1306 1263 1265
f 1306 1265 1307
f 1307 1265 1267
f 1307 1267 1308
f 1308 1267 1269
f 1308 1269 1309
f 1309 1269 1271
f 1309 1271 1310
f 1310 1271 1273
f 1310 1273 1311
f 1311 1273 1275
f 1311 1275 1312
f 1312 1275 1277
f 1312 1277 1313
f 1313 1277 1279
f 1313 1279 1314
f 1314 1279 1281
f 1314 1281 1315
f 1212 1316 1211
f 1316 1281 1211
f 1281 1283 1211
f 1316 1315 1281
f 1211 1283 1213
f 1213 1283 1285
f 1285 1287 1317
f 1214 1285 1317
f 1318 1214 1317
f 1285 1214 1213
f 1317 1287 1289
f 1317 1289 1319
f 1319 1289 1291
f 1319 1291 1320
f 1320 1291 1293
f 1320 1293 1321
f 1321 1293 1295
f 1321 1295 1322
f 1322 1295 1297
f 1322 1297 1323
f 1323 1297 1299
f 1323 1299 1324
f 1324 1299 1301
f 1324 1301 1325
f 1325 1301 1303
f 1326 1316 1212
f 1326 1212 1215
f 1327 1215 1216
f 1327 1326 1215
f 1216 1214 1318
f 1216 1318 1327
f 1233 1328 1234
f 1329 1235 1234
f 1329 1234 1328
f 1330 1236 1235
f 1330 1235 1329
f 1331 1237 1236
f 1331 1236 1330
f 1332 1238 1237
f 1332 1237 1331
f 1333 1239 1238
f 1333 1238 1332
f 1334 1240 1239
f 1334 1239 1333
f 1335 1241 1240
f 1335 1240 1334
f 1336 1242 1241
f 1336 1241 1335
f 1336 1244 1242
f 1249 1328 1233
f 1328 1249 1250
f 1328 1250 1329
f 1329 1250 1251
f 1329 1251 1330
f 1330 1251 1252
f 1330 1252 1331
f 1331 1252 1253
f 1331 1253 1332
f 1332 1253 1254
f 1332 1254 1333
f 1333 1254 1255
f 1333 1255 1334
f 1334 1255 1256
f 1334 1256 1335
f 1335 1256 1257
f 1335 1257 1336
f 1336 1257 1244
f 1260 1337 1259
f 1338 1262 1259
f 1338 1259 1337
f 1339 1264 1262
f 1339 1262 1338
f 1340 1266 1264
f 1340 1264 1339
f 1341 1268 1266
f 1341 1266 1340
f 1342 1270 1268
f 1342 1268 1341
f 1343 1272 1270
f 1343 1270 1342
f 1344 1274 1272
f 1344 1272 1343
f 1345 1276 1274
f 1345 1274 1344
f 1346 1278 1276
f 1346 1276 1345
f 1347 1280 1278
f 1347 1278 1346
f 1348 1282 1280
f 1348 1280 1347
f 1349 1284 1282
f 1349 1282 1348
f 1350 1286 1284
f 1350 1284 1349
f 1351 1288 1286
f 1351 1286 1350
f 1352 1290 1288
f 1352 1288 1351
f 1353 1292 1290
f 1353 1290 1352
f 1354 1294 1292
f 1354 1292 1353
f 1355 1296 1294
f 1355 1294 1354
f 1356 1298 1296
f 1356 1296 1355
f 1357 1300 1298
f 1357 1298 1356
f 1358 1302 1300
f 1358 1300 1357
f 1358 1303 1302
f 1304 1337 1260
f 1337 1304 1305
f 1337 1305 1338
f 1338 1305 1306
f 1338 1306 1339
f 1339 1306 1307
f 1339 1307 1340
f 1340 1307 1308
f 1340 1308 1341
f 1341 1308 1309
f 1341 1309 1342
f 1342 1309 1310
f 1342 1310 1343
f 1343 1310 1311
f 1343 1311 1344
f 1344 1311 1312
f 1344 1312 1345
f 1345 1312 1313
f 1345 1313 1346
f 1346 1313 1314
f 1346 1314 1347
f 1347 1314 1315
f 1347 1315 1348
f 1349 1348 1359
f 1348 1316 1359
f 1316 1360 1359
f 1316 1348 1315
f 1349 1359 1350
f 1350 1359 1361
f 1362 1318 1317
f 1350 1362 1317
f 1351 1350 1317
f 1361 1362 1350
f 1351 1317 1319
f 1351 1319 1352
f 1352 1319 1320
f 1352 1320 1353
f 1353 1320 1321
f 1353 1321 1354
f 1354 1321 1322
f 1354 1322 1355
f 1355 1322 1323
f 1355 1323 1356
f 1356 1323 1324
f 1356 1324 1357
f 1357 1324 1325
f 1357 1325 1358
f 1358 1325 1303
f 1363 1360 1316
f 1363 1316 1326
f 1364 1326 1327
f 1364 1363 1326
f 1327 1318 1362
f 1327 1362 1364
f 1360 1365 1359
f 1366 1361 1359
f 1366 1359 1365
f 1366 1362 1361
f 1363 1365 1360
f 1365 1363 1364
f 1365 1364 1366
f 1366 1364 1362

