# https://github.com/mikedh/trimesh
v 11.84240437 15.00000000 2.00000000
v 12.00000000 14.33377457 2.00000000
v 12.00000000 15.00000000 1.83491468
v 12.00000000 15.00000000 2.15467143
v 11.82454681 16.00000000 2.00000000
v 12.00000000 16.00000000 1.82011139
v 12.00000000 16.00000000 2.17272234
v 12.00000000 16.88560295 2.00000000
v 12.60260773 13.00000000 2.00000000
v 13.00000000 12.49945831 2.00000000
v 13.00000000 13.00000000 1.70438695
v 13.00000000 13.00000000 2.32667398
v 12.11096382 14.00000000 2.00000000
v 13.00000000 14.00000000 1.55817878
v 13.00000000 14.00000000 2.79479837
v 13.00000000 15.00000000 1.55658185
v 12.87804127 15.00000000 3.00000000
v 13.00000000 14.57719517 3.00000000
v 13.00000000 15.00000000 3.11804247
v 13.00000000 16.00000000 1.55777156
v 12.85538101 16.00000000 3.00000000
v 13.00000000 16.00000000 3.13993073
v 12.03472614 17.00000000 2.00000000
v 13.00000000 17.00000000 1.56117868
v 13.00000000 17.00000000 2.84114909
v 13.00000000 16.54426003 3.00000000
v 12.51538563 18.00000000 2.00000000
v 13.00000000 18.00000000 1.65689111
v 13.00000000 18.00000000 2.41175699
v 13.00000000 18.65795898 2.00000000
v 13.51888561 12.00000000 2.00000000
v 14.00000000 11.63790417 2.00000000
v 14.00000000 12.00000000 1.72087657
v 14.00000000 12.00000000 2.30825663
v 14.00000000 13.00000000 1.55653834
v 14.00000000 13.00000000 2.93159461
v 14.00000000 14.00000000 1.55628300
v 14.00000000 13.06273460 3.00000000
v 13.19147301 14.00000000 3.00000000
v 14.00000000 14.00000000 3.60936785
v 14.00000000 15.00000000 1.55850708
v 14.00000000 15.00000000 3.70319796
v 14.00000000 16.00000000 1.56006515
v 14.00000000 16.00000000 3.70098186
v 14.00000000 17.00000000 1.55707324
v 13.13581562 17.00000000 3.00000000
v 14.00000000 17.00000000 3.63028073
v 14.00000000 18.00000000 1.55853879
v 13.82030296 18.00000000 3.00000000
v 14.00000000 18.00000000 3.12785006
v 13.33840084 19.00000000 2.00000000
v 14.00000000 19.00000000 1.65086985
v 14.00000000 19.00000000 2.41504526
v 14.00000000 18.17930603 3.00000000
v 14.00000000 19.50653648 2.00000000
v 15.00000000 11.18070889 2.00000000
v 15.00000000 12.00000000 1.55759490
v 15.00000000 12.00000000 2.74868107
v 15.00000000 13.00000000 1.55876470
v 15.00000000 12.24461937 3.00000000
v 14.06571484 13.00000000 3.00000000
v 15.00000000 13.00000000 3.59213471
v 15.00000000 14.00000000 1.55786550
v 15.00000000 14.00000000 3.69905710
v 15.00000000 15.00000000 1.55754721
v 15.00000000 15.00000000 3.69770527
v 15.00000000 16.00000000 1.55957305
v 15.00000000 16.00000000 3.69764948
v 15.00000000 17.00000000 1.55904400
v 15.00000000 17.00000000 3.69746375
v 15.00000000 18.00000000 1.55929506
v 15.00000000 18.00000000 3.63561344
v 15.00000000 19.00000000 1.55786955
v 15.00000000 19.00000000 2.85265303
v 15.00000000 18.87364578 3.00000000
v 15.00000000 19.96063614 2.00000000
v 15.68187904 2.00000000 10.00000000
v 16.00000000 1.03504610 10.00000000
v 16.00000000 2.00000000 9.17845535
v 15.68343925 2.00000000 11.00000000
v 16.00000000 1.04242563 11.00000000
v 15.68419552 2.00000000 12.00000000
v 16.00000000 1.08226800 12.00000000
v 15.67982101 2.00000000 13.00000000
v 16.00000000 1.08551872 13.00000000
v 15.68402576 2.00000000 14.00000000
v 16.00000000 1.05117846 14.00000000
v 15.68088436 2.00000000 15.00000000
v 16.00000000 1.08776283 15.00000000
v 15.68074703 2.00000000 16.00000000
v 16.00000000 1.06172025 16.00000000
v 15.68395233 2.00000000 17.00000000
v 16.00000000 1.04767537 17.00000000
v 15.68449020 2.00000000 18.00000000
v 16.00000000 1.05568898 18.00000000
v 15.67864990 2.00000000 19.00000000
v 16.00000000 1.08060861 19.00000000
v 15.68328857 2.00000000 20.00000000
v 16.00000000 1.09141397 20.00000000
v 15.68088913 2.00000000 21.00000000
v 16.00000000 1.10607958 21.00000000
v 15.68438721 2.00000000 22.00000000
v 16.00000000 1.06536067 22.00000000
v 15.68257236 2.00000000 23.00000000
v 16.00000000 1.07083058 23.00000000
v 15.67873955 2.00000000 24.00000000
v 16.00000000 1.05894029 24.00000000
v 15.68341446 2.00000000 25.00000000
v 16.00000000 1.04075706 25.00000000
v 15.68341732 2.00000000 26.00000000
v 16.00000000 1.07048082 26.00000000
v 15.67988396 2.00000000 27.00000000
v 16.00000000 1.05740738 27.00000000
v 15.67549133 2.00000000 28.00000000
v 16.00000000 1.02645636 28.00000000
v 16.00000000 2.00000000 28.84353638
v 15.68109226 3.00000000 10.00000000
v 16.00000000 3.00000000 9.12712383
v 15.68233490 3.00000000 11.00000000
v 15.68278980 3.00000000 12.00000000
v 15.68183708 3.00000000 13.00000000
v 15.68362331 3.00000000 14.00000000
v 15.68060207 3.00000000 15.00000000
v 15.68011379 3.00000000 16.00000000
v 15.67948151 3.00000000 17.00000000
v 15.68346882 3.00000000 18.00000000
v 15.68373871 3.00000000 19.00000000
v 15.68172932 3.00000000 20.00000000
v 15.68310928 3.00000000 21.00000000
v 15.68095875 3.00000000 22.00000000
v 15.68430424 3.00000000 23.00000000
v 15.68319893 3.00000000 24.00000000
v 15.68113995 3.00000000 25.00000000
v 15.68161774 3.00000000 26.00000000
v 15.68358994 3.00000000 27.00000000
v 15.68305206 3.00000000 28.00000000
v 16.00000000 3.00000000 28.87066460
v 15.68320084 4.00000000 10.00000000
v 16.00000000 4.00000000 9.16938972
v 15.68252945 4.00000000 11.00000000
v 15.68100357 4.00000000 12.00000000
v 15.68258190 4.00000000 13.00000000
v 15.68130207 4.00000000 14.00000000
v 15.68215752 4.00000000 15.00000000
v 15.68014336 4.00000000 16.00000000
v 15.68066788 4.00000000 17.00000000
v 15.68005276 4.00000000 18.00000000
v 15.68211651 4.00000000 19.00000000
v 15.68050766 4.00000000 20.00000000
v 15.68460464 4.00000000 21.00000000
v 15.68340015 4.00000000 22.00000000
v 15.68438244 4.00000000 23.00000000
v 15.68382263 4.00000000 24.00000000
v 15.68098259 4.00000000 25.00000000
v 15.68270016 4.00000000 26.00000000
v 15.68084908 4.00000000 27.00000000
v 15.68337727 4.00000000 28.00000000
v 16.00000000 4.00000000 28.88134575
v 15.67885494 5.00000000 10.00000000
v 16.00000000 5.00000000 9.14533520
v 15.68132591 5.00000000 11.00000000
v 15.68211555 5.00000000 12.00000000
v 15.68162251 5.00000000 13.00000000
v 15.67950439 5.00000000 14.00000000
v 15.68124390 5.00000000 15.00000000
v 15.67955780 5.00000000 16.00000000
v 15.67973137 5.00000000 17.00000000
v 15.68127155 5.00000000 18.00000000
v 15.67884064 5.00000000 19.00000000
v 15.67893410 5.00000000 20.00000000
v 15.68022060 5.00000000 21.00000000
v 15.68159008 5.00000000 22.00000000
v 15.68305492 5.00000000 23.00000000
v 15.68350124 5.00000000 24.00000000
v 15.68134308 5.00000000 25.00000000
v 15.68025684 5.00000000 26.00000000
v 15.68477821 5.00000000 27.00000000
v 15.68247414 5.00000000 28.00000000
v 16.00000000 5.00000000 28.85687637
v 15.68367767 6.00000000 10.00000000
v 16.00000000 6.00000000 9.15069485
v 15.68175316 6.00000000 11.00000000
v 15.67929363 6.00000000 12.00000000
v 15.67908764 6.00000000 13.00000000
v 15.68001556 6.00000000 14.00000000
v 15.68035126 6.00000000 15.00000000
v 15.67989731 6.00000000 16.00000000
v 15.68125248 6.00000000 17.00000000
v 15.68001175 6.00000000 18.00000000
v 15.67862320 6.00000000 19.00000000
v 15.67831516 6.00000000 20.00000000
v 15.68104172 6.00000000 21.00000000
v 15.68231106 6.00000000 22.00000000
v 15.68198776 6.00000000 23.00000000
v 15.68155956 6.00000000 24.00000000
v 15.68098450 6.00000000 25.00000000
v 15.68067741 6.00000000 26.00000000
v 15.68131924 6.00000000 27.00000000
v 15.68131924 6.00000000 28.00000000
v 16.00000000 6.00000000 28.84097672
v 15.67911625 7.00000000 10.00000000
v 16.00000000 7.00000000 9.18983459
v 15.68008518 7.00000000 11.00000000
v 15.67957211 7.00000000 12.00000000
v 15.68039417 7.00000000 13.00000000
v 15.67899799 7.00000000 14.00000000
v 15.68059444 7.00000000 15.00000000
v 15.67906380 7.00000000 16.00000000
v 15.67821598 7.00000000 17.00000000
v 15.68166542 7.00000000 18.00000000
v 15.68178082 7.00000000 19.00000000
v 15.68200016 7.00000000 20.00000000
v 15.68044472 7.00000000 21.00000000
v 15.68180943 7.00000000 22.00000000
v 15.68079662 7.00000000 23.00000000
v 15.68023396 7.00000000 24.00000000
v 15.68101120 7.00000000 25.00000000
v 15.68030453 7.00000000 26.00000000
v 15.68348312 7.00000000 27.00000000
v 15.68062878 7.00000000 28.00000000
v 16.00000000 7.00000000 28.88290977
v 15.68099689 8.00000000 10.00000000
v 16.00000000 8.00000000 9.16234970
v 15.68155861 8.00000000 11.00000000
v 15.68071365 8.00000000 12.00000000
v 15.67848492 8.00000000 13.00000000
v 15.67825031 8.00000000 14.00000000
v 15.68167114 8.00000000 15.00000000
v 15.67872143 8.00000000 16.00000000
v 15.68039131 8.00000000 17.00000000
v 15.67965603 8.00000000 18.00000000
v 15.68089390 8.00000000 19.00000000
v 15.67695236 8.00000000 20.00000000
v 15.67963314 8.00000000 21.00000000
v 15.68003368 8.00000000 22.00000000
v 15.68135262 8.00000000 23.00000000
v 15.68074322 8.00000000 24.00000000
v 15.68041515 8.00000000 25.00000000
v 15.68260098 8.00000000 26.00000000
v 15.67977524 8.00000000 27.00000000
v 15.67799664 8.00000000 28.00000000
v 16.00000000 8.00000000 28.86865044
v 15.68057060 9.00000000 10.00000000
v 16.00000000 9.00000000 9.15600395
v 15.68082523 9.00000000 11.00000000
v 15.67792320 9.00000000 12.00000000
v 15.67967510 9.00000000 13.00000000
v 15.67845058 9.00000000 14.00000000
v 15.67943764 9.00000000 15.00000000
v 15.68051434 9.00000000 16.00000000
v 15.68092060 9.00000000 17.00000000
v 15.67766953 9.00000000 18.00000000
v 15.67842579 9.00000000 19.00000000
v 15.67831039 9.00000000 20.00000000
v 15.68051529 9.00000000 21.00000000
v 15.68048382 9.00000000 22.00000000
v 15.68035316 9.00000000 23.00000000
v 15.68222332 9.00000000 24.00000000
v 15.67846775 9.00000000 25.00000000
v 15.68189049 9.00000000 26.00000000
v 15.68226814 9.00000000 27.00000000
v 15.67879391 9.00000000 28.00000000
v 16.00000000 9.00000000 28.84503746
v 15.67950058 10.00000000 10.00000000
v 16.00000000 10.00000000 9.16864204
v 15.67836857 10.00000000 11.00000000
v 15.67955017 10.00000000 12.00000000
v 15.68012619 10.00000000 13.00000000
v 15.68015099 10.00000000 14.00000000
v 15.67968369 10.00000000 15.00000000
v 15.67913914 10.00000000 16.00000000
v 15.67843914 10.00000000 17.00000000
v 15.67986298 10.00000000 18.00000000
v 15.68005371 10.00000000 19.00000000
v 15.68045521 10.00000000 20.00000000
v 15.68026543 10.00000000 21.00000000
v 15.68091297 10.00000000 22.00000000
v 15.67988014 10.00000000 23.00000000
v 15.67958450 10.00000000 24.00000000
v 15.68197060 10.00000000 25.00000000
v 15.68073940 10.00000000 26.00000000
v 15.68105984 10.00000000 27.00000000
v 15.67623711 10.00000000 28.00000000
v 16.00000000 10.00000000 28.83630943
v 15.67912865 11.00000000 10.00000000
v 16.00000000 11.00000000 9.16120243
v 15.68013954 11.00000000 11.00000000
v 15.67947197 11.00000000 12.00000000
v 15.67820835 11.00000000 13.00000000
v 15.67743969 11.00000000 14.00000000
v 15.67763615 11.00000000 15.00000000
v 15.67960739 11.00000000 16.00000000
v 15.67916298 11.00000000 17.00000000
v 15.67831612 11.00000000 18.00000000
v 15.67877865 11.00000000 19.00000000
v 15.67821121 11.00000000 20.00000000
v 15.67853355 11.00000000 21.00000000
v 15.68044662 11.00000000 22.00000000
v 15.67740345 11.00000000 23.00000000
v 15.67853069 11.00000000 24.00000000
v 15.68122482 11.00000000 25.00000000
v 15.68084240 11.00000000 26.00000000
v 15.67982578 11.00000000 27.00000000
v 15.67710018 11.00000000 28.00000000
v 16.00000000 11.00000000 28.86258125
v 16.00000000 11.12067795 2.00000000
v 16.00000000 12.00000000 1.55766213
v 16.00000000 12.00000000 2.93120408
v 15.68043804 12.00000000 10.00000000
v 16.00000000 12.00000000 9.16046047
v 15.67896748 12.00000000 11.00000000
v 15.67715168 12.00000000 12.00000000
v 15.67951012 12.00000000 13.00000000
v 15.67848015 12.00000000 14.00000000
v 15.67817211 12.00000000 15.00000000
v 15.67892361 12.00000000 16.00000000
v 15.67696571 12.00000000 17.00000000
v 15.67789268 12.00000000 18.00000000
v 15.67972565 12.00000000 19.00000000
v 15.67842579 12.00000000 20.00000000
v 15.67919827 12.00000000 21.00000000
v 15.68000507 12.00000000 22.00000000
v 15.67849064 12.00000000 23.00000000
v 15.68050289 12.00000000 24.00000000
v 15.67891788 12.00000000 25.00000000
v 15.68004894 12.00000000 26.00000000
v 15.67858887 12.00000000 27.00000000
v 15.67685413 12.00000000 28.00000000
v 16.00000000 12.00000000 28.85264587
v 16.00000000 13.00000000 1.56040621
v 16.00000000 12.04423332 3.00000000
v 16.00000000 13.00000000 3.69760966
v 15.67714405 13.00000000 10.00000000
v 16.00000000 13.00000000 9.16321468
v 15.67797565 13.00000000 11.00000000
v 15.67746162 13.00000000 12.00000000
v 15.67685795 13.00000000 13.00000000
v 15.67725658 13.00000000 14.00000000
v 15.67832947 13.00000000 15.00000000
v 15.67842388 13.00000000 16.00000000
v 15.67652988 13.00000000 17.00000000
v 15.67866039 13.00000000 18.00000000
v 15.67812538 13.00000000 19.00000000
v 15.67875862 13.00000000 20.00000000
v 15.67929363 13.00000000 21.00000000
v 15.67957211 13.00000000 22.00000000
v 15.67881012 13.00000000 23.00000000
v 15.67938042 13.00000000 24.00000000
v 15.67959976 13.00000000 25.00000000
v 15.68039322 13.00000000 26.00000000
v 15.67992210 13.00000000 27.00000000
v 15.67369556 13.00000000 28.00000000
v 16.00000000 13.00000000 28.84412384
v 16.00000000 14.00000000 1.55865836
v 16.00000000 14.00000000 3.69871593
v 15.67733574 14.00000000 10.00000000
v 16.00000000 14.00000000 9.16022205
v 15.67637444 14.00000000 11.00000000
v 15.67775345 14.00000000 12.00000000
v 15.67707443 14.00000000 13.00000000
v 15.67621994 14.00000000 14.00000000
v 15.67826557 14.00000000 15.00000000
v 15.67739201 14.00000000 16.00000000
v 15.67680264 14.00000000 17.00000000
v 15.67754745 14.00000000 18.00000000
v 15.67789268 14.00000000 19.00000000
v 15.67931175 14.00000000 20.00000000
v 15.67932510 14.00000000 21.00000000
v 15.67950630 14.00000000 22.00000000
v 15.67887592 14.00000000 23.00000000
v 15.67932892 14.00000000 24.00000000
v 15.68182564 14.00000000 25.00000000
v 15.67956924 14.00000000 26.00000000
v 15.67948818 14.00000000 27.00000000
v 15.67613029 14.00000000 28.00000000
v 16.00000000 14.00000000 28.87844849
v 16.00000000 15.00000000 1.55967045
v 16.00000000 15.00000000 3.81964731
v 15.67711544 15.00000000 10.00000000
v 16.00000000 15.00000000 9.21774387
v 15.67677689 15.00000000 11.00000000
v 15.67846298 15.00000000 12.00000000
v 15.67754364 15.00000000 13.00000000
v 15.67765522 15.00000000 14.00000000
v 15.67766666 15.00000000 15.00000000
v 15.67653847 15.00000000 16.00000000
v 15.67780018 15.00000000 17.00000000
v 15.67634487 15.00000000 18.00000000
v 15.67753029 15.00000000 19.00000000
v 15.67687511 15.00000000 20.00000000
v 15.67909145 15.00000000 21.00000000
v 15.67976284 15.00000000 22.00000000
v 15.67999363 15.00000000 23.00000000
v 15.67970181 15.00000000 24.00000000
v 15.68115616 15.00000000 25.00000000
v 15.67798805 15.00000000 26.00000000
v 15.67800140 15.00000000 27.00000000
v 15.67433167 15.00000000 28.00000000
v 16.00000000 15.00000000 28.82606506
v 16.00000000 16.00000000 1.55998158
v 16.00000000 16.00000000 3.92885566
v 15.67840672 16.00000000 10.00000000
v 16.00000000 16.00000000 9.16973114
v 15.67778015 16.00000000 11.00000000
v 15.67870426 16.00000000 12.00000000
v 15.67771149 16.00000000 13.00000000
v 15.67702007 16.00000000 14.00000000
v 15.67726135 16.00000000 15.00000000
v 15.67708397 16.00000000 16.00000000
v 15.67693043 16.00000000 17.00000000
v 15.67765808 16.00000000 18.00000000
v 15.67861366 16.00000000 19.00000000
v 15.67726135 16.00000000 20.00000000
v 15.67817593 16.00000000 21.00000000
v 15.67920303 16.00000000 22.00000000
v 15.67928600 16.00000000 23.00000000
v 15.67874718 16.00000000 24.00000000
v 15.67990112 16.00000000 25.00000000
v 15.67729855 16.00000000 26.00000000
v 15.67932892 16.00000000 27.00000000
v 15.67794991 16.00000000 28.00000000
v 16.00000000 16.00000000 28.83005714
v 16.00000000 17.00000000 1.56040645
v 16.00000000 17.00000000 3.69816685
v 15.67914391 17.00000000 10.00000000
v 16.00000000 17.00000000 9.17134762
v 15.67909050 17.00000000 11.00000000
v 15.67834473 17.00000000 12.00000000
v 15.67799377 17.00000000 13.00000000
v 15.67823696 17.00000000 14.00000000
v 15.67775059 17.00000000 15.00000000
v 15.67790318 17.00000000 16.00000000
v 15.67772388 17.00000000 17.00000000
v 15.67694378 17.00000000 18.00000000
v 15.67887878 17.00000000 19.00000000
v 15.67793083 17.00000000 20.00000000
v 15.67879009 17.00000000 21.00000000
v 15.68059540 17.00000000 22.00000000
v 15.67806911 17.00000000 23.00000000
v 15.67795944 17.00000000 24.00000000
v 15.67965508 17.00000000 25.00000000
v 15.67784405 17.00000000 26.00000000
v 15.67948723 17.00000000 27.00000000
v 15.67972660 17.00000000 28.00000000
v 16.00000000 17.00000000 28.84997559
v 16.00000000 18.00000000 1.55768120
v 16.00000000 18.00000000 3.69780231
v 15.67698193 18.00000000 10.00000000
v 16.00000000 18.00000000 9.17195415
v 15.67866802 18.00000000 11.00000000
v 15.67737579 18.00000000 12.00000000
v 15.67678165 18.00000000 13.00000000
v 15.67742062 18.00000000 14.00000000
v 15.67843723 18.00000000 15.00000000
v 15.67734241 18.00000000 16.00000000
v 15.67562866 18.00000000 17.00000000
v 15.67849064 18.00000000 18.00000000
v 15.67879486 18.00000000 19.00000000
v 15.68016624 18.00000000 20.00000000
v 15.67842865 18.00000000 21.00000000
v 15.68008041 18.00000000 22.00000000
v 15.67792225 18.00000000 23.00000000
v 15.68056011 18.00000000 24.00000000
v 15.68146038 18.00000000 25.00000000
v 15.67777538 18.00000000 26.00000000
v 15.68121910 18.00000000 27.00000000
v 15.67885780 18.00000000 28.00000000
v 16.00000000 18.00000000 28.84719849
v 16.00000000 19.00000000 1.55818844
v 15.41988945 19.00000000 3.00000000
v 16.00000000 19.00000000 3.14471602
v 15.67644978 19.00000000 10.00000000
v 16.00000000 19.00000000 9.15448380
v 15.67957306 19.00000000 11.00000000
v 15.67857742 19.00000000 12.00000000
v 15.67743683 19.00000000 13.00000000
v 15.67814350 19.00000000 14.00000000
v 15.67858124 19.00000000 15.00000000
v 15.67940807 19.00000000 16.00000000
v 15.67752266 19.00000000 17.00000000
v 15.67647648 19.00000000 18.00000000
v 15.67876530 19.00000000 19.00000000
v 15.67680168 19.00000000 20.00000000
v 15.67950535 19.00000000 21.00000000
v 15.67860794 19.00000000 22.00000000
v 15.68037796 19.00000000 23.00000000
v 15.67669678 19.00000000 24.00000000
v 15.67905045 19.00000000 25.00000000
v 15.68115044 19.00000000 26.00000000
v 15.67889500 19.00000000 27.00000000
v 15.67628765 19.00000000 28.00000000
v 16.00000000 19.00000000 28.85442162
v 15.10877705 20.00000000 2.00000000
v 16.00000000 20.00000000 1.79036570
v 16.00000000 20.00000000 2.20455575
v 16.00000000 19.15460014 3.00000000
v 15.67697620 20.00000000 10.00000000
v 16.00000000 20.00000000 9.16958237
v 15.67958450 20.00000000 11.00000000
v 15.67897797 20.00000000 12.00000000
v 15.67934895 20.00000000 13.00000000
v 15.67922878 20.00000000 14.00000000
v 15.67835331 20.00000000 15.00000000
v 15.67914200 20.00000000 16.00000000
v 15.67619133 20.00000000 17.00000000
v 15.67711353 20.00000000 18.00000000
v 15.67845726 20.00000000 19.00000000
v 15.67868137 20.00000000 20.00000000
v 15.67937374 20.00000000 21.00000000
v 15.67866898 20.00000000 22.00000000
v 15.67884827 20.00000000 23.00000000
v 15.68029118 20.00000000 24.00000000
v 15.67644978 20.00000000 25.00000000
v 15.67904758 20.00000000 26.00000000
v 15.67608166 20.00000000 27.00000000
v 15.67865276 20.00000000 28.00000000
v 16.00000000 20.00000000 28.87022400
v 16.00000000 20.21976662 2.00000000
v 15.67996597 21.00000000 10.00000000
v 16.00000000 21.00000000 9.17849827
v 15.67892361 21.00000000 11.00000000
v 15.67995262 21.00000000 12.00000000
v 15.68001461 21.00000000 13.00000000
v 15.68005943 21.00000000 14.00000000
v 15.67893696 21.00000000 15.00000000
v 15.67978477 21.00000000 16.00000000
v 15.67772388 21.00000000 17.00000000
v 15.67880726 21.00000000 18.00000000
v 15.67927361 21.00000000 19.00000000
v 15.67998123 21.00000000 20.00000000
v 15.67938805 21.00000000 21.00000000
v 15.67988682 21.00000000 22.00000000
v 15.68086338 21.00000000 23.00000000
v 15.68086815 21.00000000 24.00000000
v 15.68183231 21.00000000 25.00000000
v 15.68370724 21.00000000 26.00000000
v 15.68125439 21.00000000 27.00000000
v 15.68010426 21.00000000 28.00000000
v 16.00000000 21.00000000 28.83786201
v 15.68085289 22.00000000 10.00000000
v 16.00000000 22.00000000 9.17871189
v 15.67640686 22.00000000 11.00000000
v 15.67808437 22.00000000 12.00000000
v 15.67909527 22.00000000 13.00000000
v 15.67550755 22.00000000 14.00000000
v 15.68002796 22.00000000 15.00000000
v 15.68034935 22.00000000 16.00000000
v 15.67959881 22.00000000 17.00000000
v 15.68016148 22.00000000 18.00000000
v 15.67952633 22.00000000 19.00000000
v 15.67897224 22.00000000 20.00000000
v 15.68058872 22.00000000 21.00000000
v 15.68105221 22.00000000 22.00000000
v 15.68140793 22.00000000 23.00000000
v 15.67720032 22.00000000 24.00000000
v 15.67812252 22.00000000 25.00000000
v 15.67929077 22.00000000 26.00000000
v 15.67931271 22.00000000 27.00000000
v 15.67999840 22.00000000 28.00000000
v 16.00000000 22.00000000 28.84644127
v 15.68125820 23.00000000 10.00000000
v 16.00000000 23.00000000 9.16502571
v 15.68022442 23.00000000 11.00000000
v 15.68179893 23.00000000 12.00000000
v 15.67836952 23.00000000 13.00000000
v 15.67902660 23.00000000 14.00000000
v 15.67932320 23.00000000 15.00000000
v 15.68197441 23.00000000 16.00000000
v 15.67867374 23.00000000 17.00000000
v 15.68006802 23.00000000 18.00000000
v 15.68038845 23.00000000 19.00000000
v 15.68152523 23.00000000 20.00000000
v 15.67893791 23.00000000 21.00000000
v 15.68215084 23.00000000 22.00000000
v 15.68027592 23.00000000 23.00000000
v 15.67974949 23.00000000 24.00000000
v 15.68014336 23.00000000 25.00000000
v 15.68224049 23.00000000 26.00000000
v 15.68151569 23.00000000 27.00000000
v 15.67582226 23.00000000 28.00000000
v 16.00000000 23.00000000 28.86761856
v 15.68094444 24.00000000 10.00000000
v 16.00000000 24.00000000 9.16604805
v 15.68258190 24.00000000 11.00000000
v 15.67860794 24.00000000 12.00000000
v 15.68029118 24.00000000 13.00000000
v 15.67892838 24.00000000 14.00000000
v 15.68012142 24.00000000 15.00000000
v 15.68021297 24.00000000 16.00000000
v 15.68055344 24.00000000 17.00000000
v 15.67997837 24.00000000 18.00000000
v 15.68093204 24.00000000 19.00000000
v 15.68150520 24.00000000 20.00000000
v 15.68032169 24.00000000 21.00000000
v 15.68099976 24.00000000 22.00000000
v 15.68211555 24.00000000 23.00000000
v 15.68166637 24.00000000 24.00000000
v 15.68134499 24.00000000 25.00000000
v 15.67792416 24.00000000 26.00000000
v 15.68217373 24.00000000 27.00000000
v 15.68172836 24.00000000 28.00000000
v 16.00000000 24.00000000 28.86058426
v 15.68180370 25.00000000 10.00000000
v 16.00000000 25.00000000 9.17237568
v 15.67969322 25.00000000 11.00000000
v 15.68033791 25.00000000 12.00000000
v 15.68106842 25.00000000 13.00000000
v 15.68031502 25.00000000 14.00000000
v 15.68091965 25.00000000 15.00000000
v 15.68072128 25.00000000 16.00000000
v 15.68169975 25.00000000 17.00000000
v 15.67976189 25.00000000 18.00000000
v 15.67979240 25.00000000 19.00000000
v 15.68175507 25.00000000 20.00000000
v 15.68280983 25.00000000 21.00000000
v 15.68259716 25.00000000 22.00000000
v 15.68109322 25.00000000 23.00000000
v 15.68351460 25.00000000 24.00000000
v 15.68432999 25.00000000 25.00000000
v 15.68310452 25.00000000 26.00000000
v 15.68236542 25.00000000 27.00000000
v 15.68246269 25.00000000 28.00000000
v 16.00000000 25.00000000 28.85471344
v 15.68241405 26.00000000 10.00000000
v 16.00000000 26.00000000 9.14408779
v 15.68199635 26.00000000 11.00000000
v 15.68310261 26.00000000 12.00000000
v 15.67916870 26.00000000 13.00000000
v 15.68093777 26.00000000 14.00000000
v 15.67894077 26.00000000 15.00000000
v 15.68101692 26.00000000 16.00000000
v 15.67990208 26.00000000 17.00000000
v 15.67966080 26.00000000 18.00000000
v 15.68164825 26.00000000 19.00000000
v 15.68226719 26.00000000 20.00000000
v 15.68032742 26.00000000 21.00000000
v 15.68143082 26.00000000 22.00000000
v 15.68163967 26.00000000 23.00000000
v 15.67877197 26.00000000 24.00000000
v 15.68184280 26.00000000 25.00000000
v 15.68171024 26.00000000 26.00000000
v 15.68046474 26.00000000 27.00000000
v 15.68224430 26.00000000 28.00000000
v 16.00000000 26.00000000 28.86386490
v 15.68144226 27.00000000 10.00000000
v 16.00000000 27.00000000 9.16202927
v 15.68260384 27.00000000 11.00000000
v 15.68194580 27.00000000 12.00000000
v 15.68077564 27.00000000 13.00000000
v 15.68285847 27.00000000 14.00000000
v 15.68078136 27.00000000 15.00000000
v 15.67814064 27.00000000 16.00000000
v 15.67936707 27.00000000 17.00000000
v 15.68288231 27.00000000 18.00000000
v 15.68165588 27.00000000 19.00000000
v 15.68231773 27.00000000 20.00000000
v 15.67853451 27.00000000 21.00000000
v 15.68249130 27.00000000 22.00000000
v 15.68422031 27.00000000 23.00000000
v 15.68497849 27.00000000 24.00000000
v 15.68370533 27.00000000 25.00000000
v 15.67943096 27.00000000 26.00000000
v 15.68299294 27.00000000 27.00000000
v 15.68336105 27.00000000 28.00000000
v 16.00000000 27.00000000 28.82979012
v 15.68086815 28.00000000 10.00000000
v 16.00000000 28.00000000 9.18518543
v 15.68197346 28.00000000 11.00000000
v 15.68251896 28.00000000 12.00000000
v 15.68241501 28.00000000 13.00000000
v 15.68358231 28.00000000 14.00000000
v 15.68204594 28.00000000 15.00000000
v 15.68333530 28.00000000 16.00000000
v 15.68314743 28.00000000 17.00000000
v 15.68195629 28.00000000 18.00000000
v 15.68206024 28.00000000 19.00000000
v 15.68174076 28.00000000 20.00000000
v 15.68254185 28.00000000 21.00000000
v 15.68288422 28.00000000 22.00000000
v 15.68176079 28.00000000 23.00000000
v 15.68192101 28.00000000 24.00000000
v 15.68436337 28.00000000 25.00000000
v 15.68415165 28.00000000 26.00000000
v 15.68264675 28.00000000 27.00000000
v 15.68294048 28.00000000 28.00000000
v 16.00000000 28.00000000 28.81823730
v 15.68492794 29.00000000 10.00000000
v 16.00000000 29.00000000 9.15000248
v 15.68374729 29.00000000 11.00000000
v 15.68519306 29.00000000 12.00000000
v 15.68335724 29.00000000 13.00000000
v 15.68229008 29.00000000 14.00000000
v 15.68049526 29.00000000 15.00000000
v 15.68310070 29.00000000 16.00000000
v 15.68397522 29.00000000 17.00000000
v 15.68143082 29.00000000 18.00000000
v 15.68201542 29.00000000 19.00000000
v 15.68377972 29.00000000 20.00000000
v 15.68129826 29.00000000 21.00000000
v 15.68328667 29.00000000 22.00000000
v 15.68081379 29.00000000 23.00000000
v 15.68401623 29.00000000 24.00000000
v 15.68233109 29.00000000 25.00000000
v 15.68444157 29.00000000 26.00000000
v 15.68182564 29.00000000 27.00000000
v 15.68007278 29.00000000 28.00000000
v 16.00000000 29.00000000 28.81836700
v 16.00000000 29.96261215 10.00000000
v 16.00000000 29.89911842 11.00000000
v 16.00000000 29.97763634 12.00000000
v 16.00000000 29.91650581 13.00000000
v 16.00000000 29.89788246 14.00000000
v 16.00000000 29.87998009 15.00000000
v 16.00000000 29.98215675 16.00000000
v 16.00000000 29.94284630 17.00000000
v 16.00000000 29.97208977 18.00000000
v 16.00000000 29.91812134 19.00000000
v 16.00000000 29.93889809 20.00000000
v 16.00000000 29.92264938 21.00000000
v 16.00000000 29.89348030 22.00000000
v 16.00000000 29.97414589 23.00000000
v 16.00000000 29.92739677 24.00000000
v 16.00000000 29.92430115 25.00000000
v 16.00000000 29.97086716 26.00000000
v 16.00000000 29.90764618 27.00000000
v 16.00000000 29.94934082 28.00000000
v 17.00000000 1.17022514 10.00000000
v 17.00000000 2.00000000 9.51290131
v 17.00000000 1.08415604 11.00000000
v 17.00000000 1.12030494 12.00000000
v 17.00000000 1.17014635 13.00000000
v 17.00000000 1.09249091 14.00000000
v 17.00000000 1.13966382 15.00000000
v 17.00000000 1.17508817 16.00000000
v 17.00000000 1.16178560 17.00000000
v 17.00000000 1.15501058 18.00000000
v 17.00000000 1.08654022 19.00000000
v 17.00000000 1.15929830 20.00000000
v 17.00000000 1.04422188 21.00000000
v 17.00000000 1.11598742 22.00000000
v 17.00000000 1.18310857 23.00000000
v 17.00000000 1.10110426 24.00000000
v 17.00000000 1.22705495 25.00000000
v 17.00000000 1.07166362 26.00000000
v 17.00000000 1.11803830 27.00000000
v 17.00000000 1.08303547 28.00000000
v 17.00000000 2.00000000 28.20458984
v 17.00000000 3.00000000 9.50613308
v 17.00000000 3.00000000 28.21387482
v 17.00000000 4.00000000 9.51461220
v 17.00000000 4.00000000 28.20969772
v 17.00000000 5.00000000 9.51559830
v 17.00000000 5.00000000 28.21309471
v 17.00000000 6.00000000 9.49062252
v 17.00000000 6.00000000 28.20957184
v 17.00000000 7.00000000 9.50556278
v 17.00000000 7.00000000 28.21539879
v 17.00000000 8.00000000 9.50586605
v 17.00000000 8.00000000 28.20753288
v 17.00000000 9.00000000 9.49528408
v 17.00000000 9.00000000 28.20814323
v 17.00000000 10.00000000 9.51198101
v 17.00000000 10.00000000 28.21215057
v 17.00000000 11.00000000 9.48967457
v 17.00000000 11.00000000 28.20654488
v 17.00000000 11.09811974 2.00000000
v 17.00000000 12.00000000 1.55790937
v 17.00000000 12.00000000 2.93837166
v 17.00000000 12.00000000 9.50297546
v 17.00000000 12.00000000 28.21360970
v 17.00000000 13.00000000 1.55866730
v 17.00000000 12.03967953 3.00000000
v 17.00000000 13.00000000 3.70089912
v 17.00000000 13.00000000 9.49824047
v 17.00000000 13.00000000 28.20970154
v 17.00000000 14.00000000 1.55796349
v 17.00000000 14.00000000 3.69842649
v 17.00000000 14.00000000 9.51571751
v 17.00000000 14.00000000 28.20848656
v 17.00000000 15.00000000 1.55549610
v 17.00000000 15.00000000 3.82479715
v 17.00000000 15.00000000 9.50178814
v 17.00000000 15.00000000 28.21290588
v 17.00000000 16.00000000 1.55716610
v 17.00000000 16.00000000 3.93203974
v 17.00000000 16.00000000 9.34427071
v 17.00000000 16.00000000 28.21135712
v 17.00000000 17.00000000 1.55628192
v 17.00000000 17.00000000 3.69742060
v 17.00000000 17.00000000 9.50148487
v 17.00000000 17.00000000 28.22138405
v 17.00000000 18.00000000 1.55704844
v 17.00000000 18.00000000 3.69999599
v 17.00000000 18.00000000 9.49258041
v 17.00000000 18.00000000 28.21154404
v 17.00000000 19.00000000 1.55835140
v 17.00000000 19.00000000 3.15025425
v 17.00000000 19.00000000 9.50082970
v 17.00000000 19.00000000 28.21148491
v 17.00000000 20.00000000 1.77929854
v 17.00000000 20.00000000 2.21775556
v 17.00000000 19.16297340 3.00000000
v 17.00000000 20.00000000 9.50189877
v 17.00000000 20.00000000 28.21591568
v 17.00000000 20.23106384 2.00000000
v 17.00000000 21.00000000 9.49074268
v 17.00000000 21.00000000 28.20679092
v 17.00000000 22.00000000 9.50939846
v 17.00000000 22.00000000 28.21761894
v 17.00000000 23.00000000 9.50474548
v 17.00000000 23.00000000 28.20479965
v 17.00000000 24.00000000 9.49592876
v 17.00000000 24.00000000 28.21109772
v 17.00000000 25.00000000 9.52098751
v 17.00000000 25.00000000 28.21436501
v 17.00000000 26.00000000 9.51545715
v 17.00000000 26.00000000 28.20780182
v 17.00000000 27.00000000 9.48925781
v 17.00000000 27.00000000 28.20824242
v 17.00000000 28.00000000 9.48304939
v 17.00000000 28.00000000 28.21074295
v 17.00000000 29.00000000 9.52624321
v 17.00000000 29.00000000 28.20989037
v 17.00000000 29.90344238 10.00000000
v 17.00000000 29.90386391 11.00000000
v 17.00000000 29.93092155 12.00000000
v 17.00000000 29.93424797 13.00000000
v 17.00000000 29.86537552 14.00000000
v 17.00000000 29.83973885 15.00000000
v 17.00000000 29.95280266 16.00000000
v 17.00000000 29.85526276 17.00000000
v 17.00000000 29.87912750 18.00000000
v 17.00000000 29.93381310 19.00000000
v 17.00000000 29.85697365 20.00000000
v 17.00000000 29.89306831 21.00000000
v 17.00000000 29.88957977 22.00000000
v 17.00000000 29.93956566 23.00000000
v 17.00000000 29.86573029 24.00000000
v 17.00000000 29.90350342 25.00000000
v 17.00000000 29.91485977 26.00000000
v 17.00000000 29.82694817 27.00000000
v 17.00000000 29.87361526 28.00000000
v 17.15181541 2.00000000 10.00000000
v 17.15475464 2.00000000 11.00000000
v 17.15562820 2.00000000 12.00000000
v 17.15192223 2.00000000 13.00000000
v 17.15884209 2.00000000 14.00000000
v 17.15153694 2.00000000 15.00000000
v 17.15756989 2.00000000 16.00000000
v 17.15386009 2.00000000 17.00000000
v 17.15300941 2.00000000 18.00000000
v 17.15523148 2.00000000 19.00000000
v 17.15417480 2.00000000 20.00000000
v 17.15981674 2.00000000 21.00000000
v 17.15167618 2.00000000 22.00000000
v 17.15245628 2.00000000 23.00000000
v 17.15370178 2.00000000 24.00000000
v 17.15149498 2.00000000 25.00000000
v 17.14918137 2.00000000 26.00000000
v 17.14847565 2.00000000 27.00000000
v 17.14900398 2.00000000 28.00000000
v 17.15656853 3.00000000 10.00000000
v 17.15291023 3.00000000 11.00000000
v 17.15045166 3.00000000 12.00000000
v 17.15533257 3.00000000 13.00000000
v 17.15261078 3.00000000 14.00000000
v 17.15646172 3.00000000 15.00000000
v 17.15316582 3.00000000 16.00000000
v 17.15261650 3.00000000 17.00000000
v 17.15489960 3.00000000 18.00000000
v 17.15292549 3.00000000 19.00000000
v 17.15773010 3.00000000 20.00000000
v 17.15269852 3.00000000 21.00000000
v 17.15332603 3.00000000 22.00000000
v 17.15257263 3.00000000 23.00000000
v 17.15286446 3.00000000 24.00000000
v 17.15191650 3.00000000 25.00000000
v 17.15297508 3.00000000 26.00000000
v 17.15042877 3.00000000 27.00000000
v 17.15539551 3.00000000 28.00000000
v 17.15361404 4.00000000 10.00000000
v 17.15795326 4.00000000 11.00000000
v 17.15304947 4.00000000 12.00000000
v 17.15489578 4.00000000 13.00000000
v 17.15497017 4.00000000 14.00000000
v 17.15604591 4.00000000 15.00000000
v 17.16116524 4.00000000 16.00000000
v 17.15586281 4.00000000 17.00000000
v 17.15369034 4.00000000 18.00000000
v 17.15430450 4.00000000 19.00000000
v 17.15472984 4.00000000 20.00000000
v 17.15975952 4.00000000 21.00000000
v 17.15229797 4.00000000 22.00000000
v 17.15364456 4.00000000 23.00000000
v 17.15394592 4.00000000 24.00000000
v 17.15477943 4.00000000 25.00000000
v 17.15065956 4.00000000 26.00000000
v 17.15583420 4.00000000 27.00000000
v 17.15157127 4.00000000 28.00000000
v 17.15715790 5.00000000 10.00000000
v 17.15906525 5.00000000 11.00000000
v 17.15842628 5.00000000 12.00000000
v 17.15729141 5.00000000 13.00000000
v 17.15739059 5.00000000 14.00000000
v 17.15664291 5.00000000 15.00000000
v 17.16012955 5.00000000 16.00000000
v 17.15596199 5.00000000 17.00000000
v 17.15711784 5.00000000 18.00000000
v 17.15503120 5.00000000 19.00000000
v 17.15733337 5.00000000 20.00000000
v 17.15708733 5.00000000 21.00000000
v 17.15205574 5.00000000 22.00000000
v 17.15612602 5.00000000 23.00000000
v 17.15855980 5.00000000 24.00000000
v 17.15390396 5.00000000 25.00000000
v 17.15212059 5.00000000 26.00000000
v 17.15080070 5.00000000 27.00000000
v 17.15433502 5.00000000 28.00000000
v 17.15934753 6.00000000 10.00000000
v 17.15456963 6.00000000 11.00000000
v 17.15575790 6.00000000 12.00000000
v 17.15744400 6.00000000 13.00000000
v 17.15568352 6.00000000 14.00000000
v 17.15854263 6.00000000 15.00000000
v 17.15945625 6.00000000 16.00000000
v 17.15529251 6.00000000 17.00000000
v 17.15817833 6.00000000 18.00000000
v 17.16219139 6.00000000 19.00000000
v 17.15790939 6.00000000 20.00000000
v 17.15590286 6.00000000 21.00000000
v 17.15643311 6.00000000 22.00000000
v 17.15614700 6.00000000 23.00000000
v 17.15513039 6.00000000 24.00000000
v 17.15335846 6.00000000 25.00000000
v 17.15168571 6.00000000 26.00000000
v 17.15373993 6.00000000 27.00000000
v 17.15114975 6.00000000 28.00000000
v 17.15603256 7.00000000 10.00000000
v 17.15607452 7.00000000 11.00000000
v 17.16006660 7.00000000 12.00000000
v 17.15838242 7.00000000 13.00000000
v 17.15658951 7.00000000 14.00000000
v 17.16035461 7.00000000 15.00000000
v 17.15850639 7.00000000 16.00000000
v 17.15978050 7.00000000 17.00000000
v 17.15878105 7.00000000 18.00000000
v 17.15952492 7.00000000 19.00000000
v 17.16077995 7.00000000 20.00000000
v 17.15338707 7.00000000 21.00000000
v 17.15690613 7.00000000 22.00000000
v 17.15455818 7.00000000 23.00000000
v 17.15369606 7.00000000 24.00000000
v 17.15163612 7.00000000 25.00000000
v 17.15547943 7.00000000 26.00000000
v 17.15092087 7.00000000 27.00000000
v 17.15635490 7.00000000 28.00000000
v 17.15618134 8.00000000 10.00000000
v 17.16186333 8.00000000 11.00000000
v 17.15857124 8.00000000 12.00000000
v 17.15711212 8.00000000 13.00000000
v 17.15838242 8.00000000 14.00000000
v 17.15940857 8.00000000 15.00000000
v 17.15781403 8.00000000 16.00000000
v 17.15632820 8.00000000 17.00000000
v 17.15847206 8.00000000 18.00000000
v 17.15958023 8.00000000 19.00000000
v 17.15746689 8.00000000 20.00000000
v 17.15995216 8.00000000 21.00000000
v 17.15645409 8.00000000 22.00000000
v 17.15715027 8.00000000 23.00000000
v 17.15267372 8.00000000 24.00000000
v 17.16115952 8.00000000 25.00000000
v 17.15700531 8.00000000 26.00000000
v 17.15762901 8.00000000 27.00000000
v 17.15084076 8.00000000 28.00000000
v 17.15553474 9.00000000 10.00000000
v 17.15634537 9.00000000 11.00000000
v 17.16140747 9.00000000 12.00000000
v 17.15924454 9.00000000 13.00000000
v 17.15852928 9.00000000 14.00000000
v 17.15767479 9.00000000 15.00000000
v 17.16504097 9.00000000 16.00000000
v 17.15937424 9.00000000 17.00000000
v 17.15691376 9.00000000 18.00000000
v 17.15869141 9.00000000 19.00000000
v 17.16013718 9.00000000 20.00000000
v 17.15855789 9.00000000 21.00000000
v 17.15632248 9.00000000 22.00000000
v 17.15913582 9.00000000 23.00000000
v 17.15936661 9.00000000 24.00000000
v 17.15522003 9.00000000 25.00000000
v 17.15307808 9.00000000 26.00000000
v 17.15593147 9.00000000 27.00000000
v 17.15097046 9.00000000 28.00000000
v 17.16192245 10.00000000 10.00000000
v 17.16284180 10.00000000 11.00000000
v 17.16004562 10.00000000 12.00000000
v 17.15956116 10.00000000 13.00000000
v 17.15765762 10.00000000 14.00000000
v 17.16060066 10.00000000 15.00000000
v 17.15855980 10.00000000 16.00000000
v 17.15940666 10.00000000 17.00000000
v 17.15781593 10.00000000 18.00000000
v 17.15911674 10.00000000 19.00000000
v 17.15785408 10.00000000 20.00000000
v 17.16241837 10.00000000 21.00000000
v 17.15872955 10.00000000 22.00000000
v 17.15752983 10.00000000 23.00000000
v 17.15878487 10.00000000 24.00000000
v 17.15829277 10.00000000 25.00000000
v 17.15623283 10.00000000 26.00000000
v 17.15124702 10.00000000 27.00000000
v 17.15437126 10.00000000 28.00000000
v 17.16059303 11.00000000 10.00000000
v 17.15941238 11.00000000 11.00000000
v 17.15878868 11.00000000 12.00000000
v 17.16284370 11.00000000 13.00000000
v 17.16186905 11.00000000 14.00000000
v 17.16148186 11.00000000 15.00000000
v 17.15911865 11.00000000 16.00000000
v 17.16102219 11.00000000 17.00000000
v 17.15934181 11.00000000 18.00000000
v 17.15857506 11.00000000 19.00000000
v 17.15837860 11.00000000 20.00000000
v 17.15912819 11.00000000 21.00000000
v 17.16092110 11.00000000 22.00000000
v 17.15532875 11.00000000 23.00000000
v 17.15473747 11.00000000 24.00000000
v 17.15424347 11.00000000 25.00000000
v 17.16122627 11.00000000 26.00000000
v 17.15748215 11.00000000 27.00000000
v 17.15079880 11.00000000 28.00000000
v 18.00000000 11.18933678 2.00000000
v 18.00000000 12.00000000 1.55957103
v 18.00000000 12.00000000 2.76770878
v 17.16297150 12.00000000 10.00000000
v 17.16124344 12.00000000 11.00000000
v 17.16029549 12.00000000 12.00000000
v 17.16050720 12.00000000 13.00000000
v 17.16319656 12.00000000 14.00000000
v 17.16109467 12.00000000 15.00000000
v 17.16129875 12.00000000 16.00000000
v 17.16402054 12.00000000 17.00000000
v 17.16032219 12.00000000 18.00000000
v 17.15820122 12.00000000 19.00000000
v 17.16196060 12.00000000 20.00000000
v 17.15826035 12.00000000 21.00000000
v 17.15924835 12.00000000 22.00000000
v 17.16188812 12.00000000 23.00000000
v 17.15437126 12.00000000 24.00000000
v 17.15778160 12.00000000 25.00000000
v 17.15427017 12.00000000 26.00000000
v 17.15496063 12.00000000 27.00000000
v 17.15581894 12.00000000 28.00000000
v 18.00000000 13.00000000 1.55955791
v 18.00000000 12.21958256 3.00000000
v 18.00000000 13.00000000 3.59598994
v 17.16581345 13.00000000 10.00000000
v 17.16387367 13.00000000 11.00000000
v 17.15993690 13.00000000 12.00000000
v 17.16062737 13.00000000 13.00000000
v 17.16370010 13.00000000 14.00000000
v 17.16259766 13.00000000 15.00000000
v 17.16116905 13.00000000 16.00000000
v 17.16395187 13.00000000 17.00000000
v 17.16059685 13.00000000 18.00000000
v 17.15924644 13.00000000 19.00000000
v 17.16251373 13.00000000 20.00000000
v 17.15927887 13.00000000 21.00000000
v 17.15971565 13.00000000 22.00000000
v 17.15727425 13.00000000 23.00000000
v 17.15859795 13.00000000 24.00000000
v 17.16016006 13.00000000 25.00000000
v 17.15810204 13.00000000 26.00000000
v 17.15885353 13.00000000 27.00000000
v 17.15349579 13.00000000 28.00000000
v 18.00000000 14.00000000 1.55977285
v 18.00000000 14.00000000 3.70023751
v 17.15785789 14.00000000 10.00000000
v 17.16520882 14.00000000 11.00000000
v 17.16035271 14.00000000 12.00000000
v 17.16054726 14.00000000 13.00000000
v 17.16249657 14.00000000 14.00000000
v 17.16382217 14.00000000 15.00000000
v 17.16240120 14.00000000 16.00000000
v 17.16147804 14.00000000 17.00000000
v 17.16467476 14.00000000 18.00000000
v 17.16145134 14.00000000 19.00000000
v 17.15941429 14.00000000 20.00000000
v 17.16059494 14.00000000 21.00000000
v 17.15923882 14.00000000 22.00000000
v 17.16017151 14.00000000 23.00000000
v 17.16121101 14.00000000 24.00000000
v 17.16221619 14.00000000 25.00000000
v 17.15828323 14.00000000 26.00000000
v 17.15723419 14.00000000 27.00000000
v 17.15388680 14.00000000 28.00000000
v 18.00000000 15.00000000 1.55828524
v 18.00000000 15.00000000 3.70135045
v 17.15995216 15.00000000 10.00000000
v 17.15981293 15.00000000 11.00000000
v 17.16054535 15.00000000 12.00000000
v 17.16293144 15.00000000 13.00000000
v 17.16257858 15.00000000 14.00000000
v 17.16285324 15.00000000 15.00000000
v 17.16086769 15.00000000 16.00000000
v 17.16397858 15.00000000 17.00000000
v 17.16008759 15.00000000 18.00000000
v 17.16327286 15.00000000 19.00000000
v 17.15993500 15.00000000 20.00000000
v 17.16058350 15.00000000 21.00000000
v 17.15788078 15.00000000 22.00000000
v 17.15769958 15.00000000 23.00000000
v 17.16379738 15.00000000 24.00000000
v 17.15631866 15.00000000 25.00000000
v 17.15381050 15.00000000 26.00000000
v 17.15601349 15.00000000 27.00000000
v 17.15593147 15.00000000 28.00000000
v 18.00000000 16.00000000 1.55926311
v 18.00000000 16.00000000 3.70229983
v 17.15932083 16.00000000 10.00000000
v 17.16026497 16.00000000 11.00000000
v 17.16237640 16.00000000 12.00000000
v 17.16099548 16.00000000 13.00000000
v 17.16388702 16.00000000 14.00000000
v 17.16362572 16.00000000 15.00000000
v 17.16507149 16.00000000 16.00000000
v 17.16604805 16.00000000 17.00000000
v 17.16021347 16.00000000 18.00000000
v 17.16284180 16.00000000 19.00000000
v 17.16190338 16.00000000 20.00000000
v 17.16101456 16.00000000 21.00000000
v 17.15735245 16.00000000 22.00000000
v 17.15679741 16.00000000 23.00000000
v 17.15761375 16.00000000 24.00000000
v 17.16101074 16.00000000 25.00000000
v 17.15399933 16.00000000 26.00000000
v 17.16011238 16.00000000 27.00000000
v 17.15450478 16.00000000 28.00000000
v 18.00000000 17.00000000 1.55841446
v 18.00000000 17.00000000 3.70195746
v 17.16218185 17.00000000 10.00000000
v 17.16145325 17.00000000 11.00000000
v 17.16201019 17.00000000 12.00000000
v 17.16168404 17.00000000 13.00000000
v 17.16184425 17.00000000 14.00000000
v 17.16375160 17.00000000 15.00000000
v 17.16195297 17.00000000 16.00000000
v 17.16116333 17.00000000 17.00000000
v 17.16405296 17.00000000 18.00000000
v 17.16441917 17.00000000 19.00000000
v 17.16173553 17.00000000 20.00000000
v 17.16145515 17.00000000 21.00000000
v 17.15894699 17.00000000 22.00000000
v 17.15781975 17.00000000 23.00000000
v 17.15622520 17.00000000 24.00000000
v 17.15671539 17.00000000 25.00000000
v 17.15640640 17.00000000 26.00000000
v 17.15780640 17.00000000 27.00000000
v 17.16244507 17.00000000 28.00000000
v 18.00000000 18.00000000 1.55705678
v 18.00000000 18.00000000 3.64900064
v 17.16477394 18.00000000 10.00000000
v 17.15800095 18.00000000 11.00000000
v 17.16262436 18.00000000 12.00000000
v 17.16015244 18.00000000 13.00000000
v 17.16169930 18.00000000 14.00000000
v 17.16274643 18.00000000 15.00000000
v 17.16121674 18.00000000 16.00000000
v 17.16347313 18.00000000 17.00000000
v 17.15996933 18.00000000 18.00000000
v 17.16626358 18.00000000 19.00000000
v 17.15995789 18.00000000 20.00000000
v 17.16093636 18.00000000 21.00000000
v 17.16148758 18.00000000 22.00000000
v 17.16079330 18.00000000 23.00000000
v 17.15730667 18.00000000 24.00000000
v 17.15695000 18.00000000 25.00000000
v 17.15471840 18.00000000 26.00000000
v 17.15677452 18.00000000 27.00000000
v 17.15468979 18.00000000 28.00000000
v 18.00000000 19.00000000 1.55840099
v 17.62442780 19.00000000 3.00000000
v 18.00000000 19.00000000 2.86972070
v 18.00000000 18.89338112 3.00000000
v 17.15760422 19.00000000 10.00000000
v 17.15925217 19.00000000 11.00000000
v 17.16155434 19.00000000 12.00000000
v 17.16510773 19.00000000 13.00000000
v 17.16298485 19.00000000 14.00000000
v 17.16204453 19.00000000 15.00000000
v 17.16066170 19.00000000 16.00000000
v 17.16138458 19.00000000 17.00000000
v 17.15987968 19.00000000 18.00000000
v 17.16246605 19.00000000 19.00000000
v 17.15819931 19.00000000 20.00000000
v 17.15949440 19.00000000 21.00000000
v 17.15793228 19.00000000 22.00000000
v 17.15741730 19.00000000 23.00000000
v 17.15654182 19.00000000 24.00000000
v 17.16119194 19.00000000 25.00000000
v 17.15241814 19.00000000 26.00000000
v 17.15409660 19.00000000 27.00000000
v 17.15391922 19.00000000 28.00000000
v 18.00000000 19.96726990 2.00000000
v 17.91321754 20.00000000 2.00000000
v 17.16276741 20.00000000 10.00000000
v 17.16050529 20.00000000 11.00000000
v 17.16068840 20.00000000 12.00000000
v 17.15905762 20.00000000 13.00000000
v 17.16145134 20.00000000 14.00000000
v 17.16185951 20.00000000 15.00000000
v 17.16173172 20.00000000 16.00000000
v 17.16147614 20.00000000 17.00000000
v 17.15952492 20.00000000 18.00000000
v 17.15916443 20.00000000 19.00000000
v 17.15808296 20.00000000 20.00000000
v 17.15736961 20.00000000 21.00000000
v 17.16048622 20.00000000 22.00000000
v 17.15800667 20.00000000 23.00000000
v 17.15671349 20.00000000 24.00000000
v 17.15682220 20.00000000 25.00000000
v 17.15703964 20.00000000 26.00000000
v 17.15892220 20.00000000 27.00000000
v 17.15602684 20.00000000 28.00000000
v 17.15776443 21.00000000 10.00000000
v 17.15819931 21.00000000 11.00000000
v 17.15910530 21.00000000 12.00000000
v 17.16348457 21.00000000 13.00000000
v 17.16136169 21.00000000 14.00000000
v 17.16315269 21.00000000 15.00000000
v 17.16179848 21.00000000 16.00000000
v 17.15856743 21.00000000 17.00000000
v 17.15928268 21.00000000 18.00000000
v 17.15831757 21.00000000 19.00000000
v 17.15778923 21.00000000 20.00000000
v 17.15934181 21.00000000 21.00000000
v 17.16049385 21.00000000 22.00000000
v 17.16210938 21.00000000 23.00000000
v 17.15881157 21.00000000 24.00000000
v 17.15751839 21.00000000 25.00000000
v 17.15456963 21.00000000 26.00000000
v 17.15559196 21.00000000 27.00000000
v 17.15021324 21.00000000 28.00000000
v 17.15740204 22.00000000 10.00000000
v 17.15888596 22.00000000 11.00000000
v 17.15857315 22.00000000 12.00000000
v 17.16382027 22.00000000 13.00000000
v 17.15974236 22.00000000 14.00000000
v 17.16054726 22.00000000 15.00000000
v 17.15688515 22.00000000 16.00000000
v 17.16136169 22.00000000 17.00000000
v 17.16121483 22.00000000 18.00000000
v 17.15827179 22.00000000 19.00000000
v 17.15893173 22.00000000 20.00000000
v 17.16050339 22.00000000 21.00000000
v 17.15618515 22.00000000 22.00000000
v 17.15783119 22.00000000 23.00000000
v 17.15566826 22.00000000 24.00000000
v 17.15696335 22.00000000 25.00000000
v 17.15187263 22.00000000 26.00000000
v 17.15326691 22.00000000 27.00000000
v 17.15987968 22.00000000 28.00000000
v 17.15805435 23.00000000 10.00000000
v 17.15946198 23.00000000 11.00000000
v 17.15781212 23.00000000 12.00000000
v 17.15877533 23.00000000 13.00000000
v 17.16364479 23.00000000 14.00000000
v 17.15786171 23.00000000 15.00000000
v 17.15978813 23.00000000 16.00000000
v 17.15679741 23.00000000 17.00000000
v 17.15757561 23.00000000 18.00000000
v 17.15756989 23.00000000 19.00000000
v 17.15657425 23.00000000 20.00000000
v 17.15785789 23.00000000 21.00000000
v 17.15666580 23.00000000 22.00000000
v 17.15849113 23.00000000 23.00000000
v 17.15284348 23.00000000 24.00000000
v 17.15411758 23.00000000 25.00000000
v 17.15884399 23.00000000 26.00000000
v 17.15128899 23.00000000 27.00000000
v 17.14962769 23.00000000 28.00000000
v 17.15936661 24.00000000 10.00000000
v 17.15615082 24.00000000 11.00000000
v 17.15673828 24.00000000 12.00000000
v 17.16282845 24.00000000 13.00000000
v 17.15765572 24.00000000 14.00000000
v 17.15666962 24.00000000 15.00000000
v 17.15803528 24.00000000 16.00000000
v 17.15909004 24.00000000 17.00000000
v 17.15614891 24.00000000 18.00000000
v 17.15827942 24.00000000 19.00000000
v 17.15751457 24.00000000 20.00000000
v 17.15633011 24.00000000 21.00000000
v 17.15980721 24.00000000 22.00000000
v 17.16100693 24.00000000 23.00000000
v 17.15771866 24.00000000 24.00000000
v 17.15171051 24.00000000 25.00000000
v 17.15613556 24.00000000 26.00000000
v 17.15776825 24.00000000 27.00000000
v 17.15373611 24.00000000 28.00000000
v 17.15845871 25.00000000 10.00000000
v 17.15468597 25.00000000 11.00000000
v 17.15842819 25.00000000 12.00000000
v 17.15600586 25.00000000 13.00000000
v 17.15435410 25.00000000 14.00000000
v 17.15591049 25.00000000 15.00000000
v 17.16085815 25.00000000 16.00000000
v 17.15633965 25.00000000 17.00000000
v 17.15679741 25.00000000 18.00000000
v 17.15461540 25.00000000 19.00000000
v 17.15547752 25.00000000 20.00000000
v 17.15601730 25.00000000 21.00000000
v 17.15418434 25.00000000 22.00000000
v 17.15967369 25.00000000 23.00000000
v 17.15286636 25.00000000 24.00000000
v 17.15449142 25.00000000 25.00000000
v 17.15621567 25.00000000 26.00000000
v 17.15276718 25.00000000 27.00000000
v 17.15452003 25.00000000 28.00000000
v 17.15533829 26.00000000 10.00000000
v 17.15308380 26.00000000 11.00000000
v 17.15688515 26.00000000 12.00000000
v 17.15487671 26.00000000 13.00000000
v 17.15824699 26.00000000 14.00000000
v 17.15503883 26.00000000 15.00000000
v 17.15442276 26.00000000 16.00000000
v 17.15550613 26.00000000 17.00000000
v 17.15655327 26.00000000 18.00000000
v 17.15352821 26.00000000 19.00000000
v 17.16141510 26.00000000 20.00000000
v 17.15312386 26.00000000 21.00000000
v 17.15395927 26.00000000 22.00000000
v 17.15512276 26.00000000 23.00000000
v 17.15223885 26.00000000 24.00000000
v 17.15732002 26.00000000 25.00000000
v 17.15326118 26.00000000 26.00000000
v 17.15070915 26.00000000 27.00000000
v 17.15162277 26.00000000 28.00000000
v 17.15760803 27.00000000 10.00000000
v 17.15632439 27.00000000 11.00000000
v 17.15390396 27.00000000 12.00000000
v 17.15208244 27.00000000 13.00000000
v 17.15912247 27.00000000 14.00000000
v 17.15655708 27.00000000 15.00000000
v 17.15394783 27.00000000 16.00000000
v 17.15335464 27.00000000 17.00000000
v 17.15461922 27.00000000 18.00000000
v 17.15433884 27.00000000 19.00000000
v 17.15404510 27.00000000 20.00000000
v 17.15312958 27.00000000 21.00000000
v 17.15333939 27.00000000 22.00000000
v 17.15066528 27.00000000 23.00000000
v 17.15757561 27.00000000 24.00000000
v 17.14938927 27.00000000 25.00000000
v 17.15133476 27.00000000 26.00000000
v 17.15511703 27.00000000 27.00000000
v 17.15008545 27.00000000 28.00000000
v 17.15563393 28.00000000 10.00000000
v 17.15476227 28.00000000 11.00000000
v 17.15489197 28.00000000 12.00000000
v 17.15297127 28.00000000 13.00000000
v 17.15534401 28.00000000 14.00000000
v 17.15483093 28.00000000 15.00000000
v 17.15859985 28.00000000 16.00000000
v 17.15753746 28.00000000 17.00000000
v 17.15252876 28.00000000 18.00000000
v 17.15307999 28.00000000 19.00000000
v 17.15226746 28.00000000 20.00000000
v 17.15637016 28.00000000 21.00000000
v 17.15319824 28.00000000 22.00000000
v 17.15134430 28.00000000 23.00000000
v 17.15069008 28.00000000 24.00000000
v 17.15641975 28.00000000 25.00000000
v 17.15035248 28.00000000 26.00000000
v 17.14851952 28.00000000 27.00000000
v 17.15340233 28.00000000 28.00000000
v 17.15453148 29.00000000 10.00000000
v 17.15185356 29.00000000 11.00000000
v 17.15497780 29.00000000 12.00000000
v 17.15620804 29.00000000 13.00000000
v 17.15402603 29.00000000 14.00000000
v 17.15454102 29.00000000 15.00000000
v 17.15719032 29.00000000 16.00000000
v 17.15753555 29.00000000 17.00000000
v 17.15603256 29.00000000 18.00000000
v 17.15104485 29.00000000 19.00000000
v 17.15401077 29.00000000 20.00000000
v 17.15304184 29.00000000 21.00000000
v 17.15519524 29.00000000 22.00000000
v 17.15400124 29.00000000 23.00000000
v 17.14902687 29.00000000 24.00000000
v 17.15119553 29.00000000 25.00000000
v 17.15133667 29.00000000 26.00000000
v 17.15080643 29.00000000 27.00000000
v 17.15002060 29.00000000 28.00000000
v 19.00000000 11.63544559 2.00000000
v 19.00000000 12.00000000 1.71778131
v 19.00000000 12.00000000 2.31101942
v 19.00000000 13.00000000 1.55698991
v 18.90366173 13.00000000 3.00000000
v 19.00000000 13.00000000 2.89710689
v 19.00000000 14.00000000 1.56069946
v 19.00000000 13.08879948 3.00000000
v 19.00000000 14.00000000 3.63673520
v 19.00000000 15.00000000 1.55941284
v 19.00000000 15.00000000 3.70217705
v 19.00000000 16.00000000 1.55901623
v 19.00000000 16.00000000 3.70165634
v 19.00000000 17.00000000 1.55837274
v 19.00000000 17.00000000 3.65831971
v 19.00000000 18.00000000 1.55620706
v 19.00000000 18.00000000 3.16517115
v 19.00000000 19.00000000 1.63553476
v 19.00000000 19.00000000 2.44807625
v 19.00000000 18.23030472 3.00000000
v 19.00000000 19.52559853 2.00000000
v 19.49075699 12.00000000 2.00000000
v 20.00000000 12.47142124 2.00000000
v 20.00000000 13.00000000 1.68700314
v 20.00000000 13.00000000 2.35821629
v 20.00000000 14.00000000 1.55810285
v 19.85888863 14.00000000 3.00000000
v 20.00000000 14.00000000 2.83862257
v 20.00000000 15.00000000 1.55665946
v 20.00000000 14.42842484 3.00000000
v 20.00000000 15.00000000 3.16202092
v 20.00000000 16.00000000 1.55838609
v 20.00000000 16.00000000 3.19535875
v 20.00000000 17.00000000 1.55729258
v 19.91189194 17.00000000 3.00000000
v 20.00000000 17.00000000 2.88959908
v 20.00000000 16.71504402 3.00000000
v 20.00000000 18.00000000 1.64647090
v 19.22692299 18.00000000 3.00000000
v 20.00000000 18.00000000 2.43206215
v 20.00000000 18.66670227 2.00000000
v 19.67680550 19.00000000 2.00000000
v 20.41786194 13.00000000 2.00000000
v 20.91532135 14.00000000 2.00000000
v 21.00000000 14.25544071 2.00000000
v 21.00000000 15.00000000 1.82465959
v 20.16350937 15.00000000 3.00000000
v 21.00000000 15.00000000 2.17034245
v 21.00000000 16.00000000 1.81839991
v 20.19454002 16.00000000 3.00000000
v 21.00000000 16.00000000 2.17841268
v 21.00000000 16.86445045 2.00000000
v 20.95794296 17.00000000 2.00000000
v 20.51387596 18.00000000 2.00000000
v 21.17234802 15.00000000 2.00000000
v 21.17592049 16.00000000 2.00000000
f 3 2 1
f 4 1 2
f 3 1 5
f 3 5 6
f 1 4 7
f 1 7 5
f 8 6 5
f 8 5 7
f 11 10 9
f 12 9 10
f 11 9 13
f 11 13 14
f 9 12 15
f 9 15 13
f 14 13 2
f 3 14 2
f 16 14 3
f 18 17 4
f 18 4 2
f 15 18 2
f 13 15 2
f 19 17 18
f 6 16 3
f 6 20 16
f 21 7 17
f 17 7 4
f 17 19 22
f 17 22 21
f 6 8 23
f 24 6 23
f 20 6 24
f 25 23 8
f 25 8 7
f 26 25 7
f 21 26 7
f 26 21 22
f 24 23 27
f 24 27 28
f 23 25 29
f 23 29 27
f 30 28 27
f 30 27 29
f 33 32 31
f 34 31 32
f 33 31 10
f 11 33 10
f 35 33 11
f 12 10 31
f 34 12 31
f 36 12 34
f 14 35 11
f 14 37 35
f 39 15 38
f 15 36 38
f 15 12 36
f 40 39 38
f 16 37 14
f 16 41 37
f 39 18 15
f 19 18 39
f 40 19 39
f 42 19 40
f 20 41 16
f 20 43 41
f 42 22 19
f 44 22 42
f 24 43 20
f 24 45 43
f 46 25 26
f 47 46 26
f 22 47 26
f 44 47 22
f 28 45 24
f 28 48 45
f 49 29 46
f 46 29 25
f 46 47 50
f 46 50 49
f 28 30 51
f 52 28 51
f 48 28 52
f 53 51 30
f 53 30 29
f 54 53 29
f 49 54 29
f 54 49 50
f 55 52 51
f 55 51 53
f 57 56 32
f 57 32 33
f 34 32 56
f 34 56 58
f 35 57 33
f 35 59 57
f 61 36 60
f 36 58 60
f 36 34 58
f 62 61 60
f 37 59 35
f 37 63 59
f 61 38 36
f 40 38 61
f 62 40 61
f 64 40 62
f 41 63 37
f 41 65 63
f 64 42 40
f 66 42 64
f 43 65 41
f 43 67 65
f 66 44 42
f 68 44 66
f 45 67 43
f 45 69 67
f 68 47 44
f 70 47 68
f 48 69 45
f 48 71 69
f 70 50 47
f 72 50 70
f 52 71 48
f 52 73 71
f 75 74 54
f 54 74 53
f 54 50 72
f 54 72 75
f 76 73 52
f 76 52 55
f 55 53 74
f 55 74 76
f 79 78 77
f 81 80 77
f 81 77 78
f 83 82 80
f 83 80 81
f 85 84 82
f 85 82 83
f 87 86 84
f 87 84 85
f 89 88 86
f 89 86 87
f 91 90 88
f 91 88 89
f 93 92 90
f 93 90 91
f 95 94 92
f 95 92 93
f 97 96 94
f 97 94 95
f 99 98 96
f 99 96 97
f 101 100 98
f 101 98 99
f 103 102 100
f 103 100 101
f 105 104 102
f 105 102 103
f 107 106 104
f 107 104 105
f 109 108 106
f 109 106 107
f 111 110 108
f 111 108 109
f 113 112 110
f 113 110 111
f 115 114 112
f 115 112 113
f 116 114 115
f 79 77 117
f 79 117 118
f 119 77 80
f 117 77 119
f 120 80 82
f 119 80 120
f 121 82 84
f 120 82 121
f 122 84 86
f 121 84 122
f 123 86 88
f 122 86 123
f 124 88 90
f 123 88 124
f 125 90 92
f 124 90 125
f 126 92 94
f 125 92 126
f 127 94 96
f 126 94 127
f 128 96 98
f 127 96 128
f 129 98 100
f 128 98 129
f 130 100 102
f 129 100 130
f 131 102 104
f 130 102 131
f 132 104 106
f 131 104 132
f 133 106 108
f 132 106 133
f 134 108 110
f 133 108 134
f 135 110 112
f 134 110 135
f 136 112 114
f 135 112 136
f 114 116 137
f 114 137 136
f 118 117 138
f 118 138 139
f 140 117 119
f 138 117 140
f 141 119 120
f 140 119 141
f 142 120 121
f 141 120 142
f 143 121 122
f 142 121 143
f 144 122 123
f 143 122 144
f 145 123 124
f 144 123 145
f 146 124 125
f 145 124 146
f 147 125 126
f 146 125 147
f 148 126 127
f 147 126 148
f 149 127 128
f 148 127 149
f 150 128 129
f 149 128 150
f 151 129 130
f 150 129 151
f 152 130 131
f 151 130 152
f 153 131 132
f 152 131 153
f 154 132 133
f 153 132 154
f 155 133 134
f 154 133 155
f 156 134 135
f 155 134 156
f 157 135 136
f 156 135 157
f 136 137 158
f 136 158 157
f 139 138 159
f 139 159 160
f 161 138 140
f 159 138 161
f 162 140 141
f 161 140 162
f 163 141 142
f 162 141 163
f 164 142 143
f 163 142 164
f 165 143 144
f 164 143 165
f 166 144 145
f 165 144 166
f 167 145 146
f 166 145 167
f 168 146 147
f 167 146 168
f 169 147 148
f 168 147 169
f 170 148 149
f 169 148 170
f 171 149 150
f 170 149 171
f 172 150 151
f 171 150 172
f 173 151 152
f 172 151 173
f 174 152 153
f 173 152 174
f 175 153 154
f 174 153 175
f 176 154 155
f 175 154 176
f 177 155 156
f 176 155 177
f 178 156 157
f 177 156 178
f 157 158 179
f 157 179 178
f 160 159 180
f 160 180 181
f 182 159 161
f 180 159 182
f 183 161 162
f 182 161 183
f 184 162 163
f 183 162 184
f 185 163 164
f 184 163 185
f 186 164 165
f 185 164 186
f 187 165 166
f 186 165 187
f 188 166 167
f 187 166 188
f 189 167 168
f 188 167 189
f 190 168 169
f 189 168 190
f 191 169 170
f 190 169 191
f 192 170 171
f 191 170 192
f 193 171 172
f 192 171 193
f 194 172 173
f 193 172 194
f 195 173 174
f 194 173 195
f 196 174 175
f 195 174 196
f 197 175 176
f 196 175 197
f 198 176 177
f 197 176 198
f 199 177 178
f 198 177 199
f 178 179 200
f 178 200 199
f 181 180 201
f 181 201 202
f 203 180 182
f 201 180 203
f 204 182 183
f 203 182 204
f 205 183 184
f 204 183 205
f 206 184 185
f 205 184 206
f 207 185 186
f 206 185 207
f 208 186 187
f 207 186 208
f 209 187 188
f 208 187 209
f 210 188 189
f 209 188 210
f 211 189 190
f 210 189 211
f 212 190 191
f 211 190 212
f 213 191 192
f 212 191 213
f 214 192 193
f 213 192 214
f 215 193 194
f 214 193 215
f 216 194 195
f 215 194 216
f 217 195 196
f 216 195 217
f 218 196 197
f 217 196 218
f 219 197 198
f 218 197 219
f 220 198 199
f 219 198 220
f 199 200 221
f 199 221 220
f 202 201 222
f 202 222 223
f 224 201 203
f 222 201 224
f 225 203 204
f 224 203 225
f 226 204 205
f 225 204 226
f 227 205 206
f 226 205 227
f 228 206 207
f 227 206 228
f 229 207 208
f 228 207 229
f 230 208 209
f 229 208 230
f 231 209 210
f 230 209 231
f 232 210 211
f 231 210 232
f 233 211 212
f 232 211 233
f 234 212 213
f 233 212 234
f 235 213 214
f 234 213 235
f 236 214 215
f 235 214 236
f 237 215 216
f 236 215 237
f 238 216 217
f 237 216 238
f 239 217 218
f 238 217 239
f 240 218 219
f 239 218 240
f 241 219 220
f 240 219 241
f 220 221 242
f 220 242 241
f 223 222 243
f 223 243 244
f 245 222 224
f 243 222 245
f 246 224 225
f 245 224 246
f 247 225 226
f 246 225 247
f 248 226 227
f 247 226 248
f 249 227 228
f 248 227 249
f 250 228 229
f 249 228 250
f 251 229 230
f 250 229 251
f 252 230 231
f 251 230 252
f 253 231 232
f 252 231 253
f 254 232 233
f 253 232 254
f 255 233 234
f 254 233 255
f 256 234 235
f 255 234 256
f 257 235 236
f 256 235 257
f 258 236 237
f 257 236 258
f 259 237 238
f 258 237 259
f 260 238 239
f 259 238 260
f 261 239 240
f 260 239 261
f 262 240 241
f 261 240 262
f 241 242 263
f 241 263 262
f 244 243 264
f 244 264 265
f 266 243 245
f 264 243 266
f 267 245 246
f 266 245 267
f 268 246 247
f 267 246 268
f 269 247 248
f 268 247 269
f 270 248 249
f 269 248 270
f 271 249 250
f 270 249 271
f 272 250 251
f 271 250 272
f 273 251 252
f 272 251 273
f 274 252 253
f 273 252 274
f 275 253 254
f 274 253 275
f 276 254 255
f 275 254 276
f 277 255 256
f 276 255 277
f 278 256 257
f 277 256 278
f 279 257 258
f 278 257 279
f 280 258 259
f 279 258 280
f 281 259 260
f 280 259 281
f 282 260 261
f 281 260 282
f 283 261 262
f 282 261 283
f 262 263 284
f 262 284 283
f 265 264 285
f 265 285 286
f 287 264 266
f 285 264 287
f 288 266 267
f 287 266 288
f 289 267 268
f 288 267 289
f 290 268 269
f 289 268 290
f 291 269 270
f 290 269 291
f 292 270 271
f 291 270 292
f 293 271 272
f 292 271 293
f 294 272 273
f 293 272 294
f 295 273 274
f 294 273 295
f 296 274 275
f 295 274 296
f 297 275 276
f 296 275 297
f 298 276 277
f 297 276 298
f 299 277 278
f 298 277 299
f 300 278 279
f 299 278 300
f 301 279 280
f 300 279 301
f 302 280 281
f 301 280 302
f 303 281 282
f 302 281 303
f 304 282 283
f 303 282 304
f 283 284 305
f 283 305 304
f 307 306 56
f 307 56 57
f 58 56 306
f 58 306 308
f 286 285 309
f 286 309 310
f 311 285 287
f 309 285 311
f 312 287 288
f 311 287 312
f 313 288 289
f 312 288 313
f 314 289 290
f 313 289 314
f 315 290 291
f 314 290 315
f 316 291 292
f 315 291 316
f 317 292 293
f 316 292 317
f 318 293 294
f 317 293 318
f 319 294 295
f 318 294 319
f 320 295 296
f 319 295 320
f 321 296 297
f 320 296 321
f 322 297 298
f 321 297 322
f 323 298 299
f 322 298 323
f 324 299 300
f 323 299 324
f 325 300 301
f 324 300 325
f 326 301 302
f 325 301 326
f 327 302 303
f 326 302 327
f 328 303 304
f 327 303 328
f 304 305 329
f 304 329 328
f 59 307 57
f 59 330 307
f 308 331 58
f 58 331 60
f 62 60 331
f 62 331 332
f 310 309 333
f 310 333 334
f 335 309 311
f 333 309 335
f 336 311 312
f 335 311 336
f 337 312 313
f 336 312 337
f 338 313 314
f 337 313 338
f 339 314 315
f 338 314 339
f 340 315 316
f 339 315 340
f 341 316 317
f 340 316 341
f 342 317 318
f 341 317 342
f 343 318 319
f 342 318 343
f 344 319 320
f 343 319 344
f 345 320 321
f 344 320 345
f 346 321 322
f 345 321 346
f 347 322 323
f 346 322 347
f 348 323 324
f 347 323 348
f 349 324 325
f 348 324 349
f 350 325 326
f 349 325 350
f 351 326 327
f 350 326 351
f 352 327 328
f 351 327 352
f 328 329 353
f 328 353 352
f 63 330 59
f 63 354 330
f 332 64 62
f 355 64 332
f 334 333 356
f 334 356 357
f 358 333 335
f 356 333 358
f 359 335 336
f 358 335 359
f 360 336 337
f 359 336 360
f 361 337 338
f 360 337 361
f 362 338 339
f 361 338 362
f 363 339 340
f 362 339 363
f 364 340 341
f 363 340 364
f 365 341 342
f 364 341 365
f 366 342 343
f 365 342 366
f 367 343 344
f 366 343 367
f 368 344 345
f 367 344 368
f 369 345 346
f 368 345 369
f 370 346 347
f 369 346 370
f 371 347 348
f 370 347 371
f 372 348 349
f 371 348 372
f 373 349 350
f 372 349 373
f 374 350 351
f 373 350 374
f 375 351 352
f 374 351 375
f 352 353 376
f 352 376 375
f 65 354 63
f 65 377 354
f 355 66 64
f 378 66 355
f 357 356 379
f 357 379 380
f 381 356 358
f 379 356 381
f 382 358 359
f 381 358 382
f 383 359 360
f 382 359 383
f 384 360 361
f 383 360 384
f 385 361 362
f 384 361 385
f 386 362 363
f 385 362 386
f 387 363 364
f 386 363 387
f 388 364 365
f 387 364 388
f 389 365 366
f 388 365 389
f 390 366 367
f 389 366 390
f 391 367 368
f 390 367 391
f 392 368 369
f 391 368 392
f 393 369 370
f 392 369 393
f 394 370 371
f 393 370 394
f 395 371 372
f 394 371 395
f 396 372 373
f 395 372 396
f 397 373 374
f 396 373 397
f 398 374 375
f 397 374 398
f 375 376 399
f 375 399 398
f 67 377 65
f 67 400 377
f 378 68 66
f 401 68 378
f 380 379 402
f 380 402 403
f 404 379 381
f 402 379 404
f 405 381 382
f 404 381 405
f 406 382 383
f 405 382 406
f 407 383 384
f 406 383 407
f 408 384 385
f 407 384 408
f 409 385 386
f 408 385 409
f 410 386 387
f 409 386 410
f 411 387 388
f 410 387 411
f 412 388 389
f 411 388 412
f 413 389 390
f 412 389 413
f 414 390 391
f 413 390 414
f 415 391 392
f 414 391 415
f 416 392 393
f 415 392 416
f 417 393 394
f 416 393 417
f 418 394 395
f 417 394 418
f 419 395 396
f 418 395 419
f 420 396 397
f 419 396 420
f 421 397 398
f 420 397 421
f 398 399 422
f 398 422 421
f 69 400 67
f 69 423 400
f 401 70 68
f 424 70 401
f 403 402 425
f 403 425 426
f 427 402 404
f 425 402 427
f 428 404 405
f 427 404 428
f 429 405 406
f 428 405 429
f 430 406 407
f 429 406 430
f 431 407 408
f 430 407 431
f 432 408 409
f 431 408 432
f 433 409 410
f 432 409 433
f 434 410 411
f 433 410 434
f 435 411 412
f 434 411 435
f 436 412 413
f 435 412 436
f 437 413 414
f 436 413 437
f 438 414 415
f 437 414 438
f 439 415 416
f 438 415 439
f 440 416 417
f 439 416 440
f 441 417 418
f 440 417 441
f 442 418 419
f 441 418 442
f 443 419 420
f 442 419 443
f 444 420 421
f 443 420 444
f 421 422 445
f 421 445 444
f 71 423 69
f 71 446 423
f 424 72 70
f 447 72 424
f 426 425 448
f 426 448 449
f 450 425 427
f 448 425 450
f 451 427 428
f 450 427 451
f 452 428 429
f 451 428 452
f 453 429 430
f 452 429 453
f 454 430 431
f 453 430 454
f 455 431 432
f 454 431 455
f 456 432 433
f 455 432 456
f 457 433 434
f 456 433 457
f 458 434 435
f 457 434 458
f 459 435 436
f 458 435 459
f 460 436 437
f 459 436 460
f 461 437 438
f 460 437 461
f 462 438 439
f 461 438 462
f 463 439 440
f 462 439 463
f 464 440 441
f 463 440 464
f 465 441 442
f 464 441 465
f 466 442 443
f 465 442 466
f 467 443 444
f 466 443 467
f 444 445 468
f 444 468 467
f 73 446 71
f 73 469 446
f 470 74 75
f 471 470 75
f 72 471 75
f 447 471 72
f 449 448 472
f 449 472 473
f 474 448 450
f 472 448 474
f 475 450 451
f 474 450 475
f 476 451 452
f 475 451 476
f 477 452 453
f 476 452 477
f 478 453 454
f 477 453 478
f 479 454 455
f 478 454 479
f 480 455 456
f 479 455 480
f 481 456 457
f 480 456 481
f 482 457 458
f 481 457 482
f 483 458 459
f 482 458 483
f 484 459 460
f 483 459 484
f 485 460 461
f 484 460 485
f 486 461 462
f 485 461 486
f 487 462 463
f 486 462 487
f 488 463 464
f 487 463 488
f 489 464 465
f 488 464 489
f 490 465 466
f 489 465 490
f 491 466 467
f 490 466 491
f 467 468 492
f 467 492 491
f 73 76 493
f 494 73 493
f 469 73 494
f 495 493 76
f 495 76 74
f 496 495 74
f 470 496 74
f 496 470 471
f 473 472 497
f 473 497 498
f 499 472 474
f 497 472 499
f 500 474 475
f 499 474 500
f 501 475 476
f 500 475 501
f 502 476 477
f 501 476 502
f 503 477 478
f 502 477 503
f 504 478 479
f 503 478 504
f 505 479 480
f 504 479 505
f 506 480 481
f 505 480 506
f 507 481 482
f 506 481 507
f 508 482 483
f 507 482 508
f 509 483 484
f 508 483 509
f 510 484 485
f 509 484 510
f 511 485 486
f 510 485 511
f 512 486 487
f 511 486 512
f 513 487 488
f 512 487 513
f 514 488 489
f 513 488 514
f 515 489 490
f 514 489 515
f 516 490 491
f 515 490 516
f 491 492 517
f 491 517 516
f 518 494 493
f 518 493 495
f 498 497 519
f 498 519 520
f 521 497 499
f 519 497 521
f 522 499 500
f 521 499 522
f 523 500 501
f 522 500 523
f 524 501 502
f 523 501 524
f 525 502 503
f 524 502 525
f 526 503 504
f 525 503 526
f 527 504 505
f 526 504 527
f 528 505 506
f 527 505 528
f 529 506 507
f 528 506 529
f 530 507 508
f 529 507 530
f 531 508 509
f 530 508 531
f 532 509 510
f 531 509 532
f 533 510 511
f 532 510 533
f 534 511 512
f 533 511 534
f 535 512 513
f 534 512 535
f 536 513 514
f 535 513 536
f 537 514 515
f 536 514 537
f 538 515 516
f 537 515 538
f 516 517 539
f 516 539 538
f 520 519 540
f 520 540 541
f 542 519 521
f 540 519 542
f 543 521 522
f 542 521 543
f 544 522 523
f 543 522 544
f 545 523 524
f 544 523 545
f 546 524 525
f 545 524 546
f 547 525 526
f 546 525 547
f 548 526 527
f 547 526 548
f 549 527 528
f 548 527 549
f 550 528 529
f 549 528 550
f 551 529 530
f 550 529 551
f 552 530 531
f 551 530 552
f 553 531 532
f 552 531 553
f 554 532 533
f 553 532 554
f 555 533 534
f 554 533 555
f 556 534 535
f 555 534 556
f 557 535 536
f 556 535 557
f 558 536 537
f 557 536 558
f 559 537 538
f 558 537 559
f 538 539 560
f 538 560 559
f 541 540 561
f 541 561 562
f 563 540 542
f 561 540 563
f 564 542 543
f 563 542 564
f 565 543 544
f 564 543 565
f 566 544 545
f 565 544 566
f 567 545 546
f 566 545 567
f 568 546 547
f 567 546 568
f 569 547 548
f 568 547 569
f 570 548 549
f 569 548 570
f 571 549 550
f 570 549 571
f 572 550 551
f 571 550 572
f 573 551 552
f 572 551 573
f 574 552 553
f 573 552 574
f 575 553 554
f 574 553 575
f 576 554 555
f 575 554 576
f 577 555 556
f 576 555 577
f 578 556 557
f 577 556 578
f 579 557 558
f 578 557 579
f 580 558 559
f 579 558 580
f 559 560 581
f 559 581 580
f 562 561 582
f 562 582 583
f 584 561 563
f 582 561 584
f 585 563 564
f 584 563 585
f 586 564 565
f 585 564 586
f 587 565 566
f 586 565 587
f 588 566 567
f 587 566 588
f 589 567 568
f 588 567 589
f 590 568 569
f 589 568 590
f 591 569 570
f 590 569 591
f 592 570 571
f 591 570 592
f 593 571 572
f 592 571 593
f 594 572 573
f 593 572 594
f 595 573 574
f 594 573 595
f 596 574 575
f 595 574 596
f 597 575 576
f 596 575 597
f 598 576 577
f 597 576 598
f 599 577 578
f 598 577 599
f 600 578 579
f 599 578 600
f 601 579 580
f 600 579 601
f 580 581 602
f 580 602 601
f 583 582 603
f 583 603 604
f 605 582 584
f 603 582 605
f 606 584 585
f 605 584 606
f 607 585 586
f 606 585 607
f 608 586 587
f 607 586 608
f 609 587 588
f 608 587 609
f 610 588 589
f 609 588 610
f 611 589 590
f 610 589 611
f 612 590 591
f 611 590 612
f 613 591 592
f 612 591 613
f 614 592 593
f 613 592 614
f 615 593 594
f 614 593 615
f 616 594 595
f 615 594 616
f 617 595 596
f 616 595 617
f 618 596 597
f 617 596 618
f 619 597 598
f 618 597 619
f 620 598 599
f 619 598 620
f 621 599 600
f 620 599 621
f 622 600 601
f 621 600 622
f 601 602 623
f 601 623 622
f 604 603 624
f 604 624 625
f 626 603 605
f 624 603 626
f 627 605 606
f 626 605 627
f 628 606 607
f 627 606 628
f 629 607 608
f 628 607 629
f 630 608 609
f 629 608 630
f 631 609 610
f 630 609 631
f 632 610 611
f 631 610 632
f 633 611 612
f 632 611 633
f 634 612 613
f 633 612 634
f 635 613 614
f 634 613 635
f 636 614 615
f 635 614 636
f 637 615 616
f 636 615 637
f 638 616 617
f 637 616 638
f 639 617 618
f 638 617 639
f 640 618 619
f 639 618 640
f 641 619 620
f 640 619 641
f 642 620 621
f 641 620 642
f 643 621 622
f 642 621 643
f 622 623 644
f 622 644 643
f 625 624 645
f 625 645 646
f 647 624 626
f 645 624 647
f 648 626 627
f 647 626 648
f 649 627 628
f 648 627 649
f 650 628 629
f 649 628 650
f 651 629 630
f 650 629 651
f 652 630 631
f 651 630 652
f 653 631 632
f 652 631 653
f 654 632 633
f 653 632 654
f 655 633 634
f 654 633 655
f 656 634 635
f 655 634 656
f 657 635 636
f 656 635 657
f 658 636 637
f 657 636 658
f 659 637 638
f 658 637 659
f 660 638 639
f 659 638 660
f 661 639 640
f 660 639 661
f 662 640 641
f 661 640 662
f 663 641 642
f 662 641 663
f 664 642 643
f 663 642 664
f 643 644 665
f 643 665 664
f 646 645 666
f 646 666 667
f 668 645 647
f 666 645 668
f 669 647 648
f 668 647 669
f 670 648 649
f 669 648 670
f 671 649 650
f 670 649 671
f 672 650 651
f 671 650 672
f 673 651 652
f 672 651 673
f 674 652 653
f 673 652 674
f 675 653 654
f 674 653 675
f 676 654 655
f 675 654 676
f 677 655 656
f 676 655 677
f 678 656 657
f 677 656 678
f 679 657 658
f 678 657 679
f 680 658 659
f 679 658 680
f 681 659 660
f 680 659 681
f 682 660 661
f 681 660 682
f 683 661 662
f 682 661 683
f 684 662 663
f 683 662 684
f 685 663 664
f 684 663 685
f 664 665 686
f 664 686 685
f 667 666 687
f 667 687 688
f 689 666 668
f 687 666 689
f 690 668 669
f 689 668 690
f 691 669 670
f 690 669 691
f 692 670 671
f 691 670 692
f 693 671 672
f 692 671 693
f 694 672 673
f 693 672 694
f 695 673 674
f 694 673 695
f 696 674 675
f 695 674 696
f 697 675 676
f 696 675 697
f 698 676 677
f 697 676 698
f 699 677 678
f 698 677 699
f 700 678 679
f 699 678 700
f 701 679 680
f 700 679 701
f 702 680 681
f 701 680 702
f 703 681 682
f 702 681 703
f 704 682 683
f 703 682 704
f 705 683 684
f 704 683 705
f 706 684 685
f 705 684 706
f 685 686 707
f 685 707 706
f 708 688 687
f 708 687 689
f 708 689 709
f 709 689 690
f 709 690 710
f 710 690 691
f 710 691 711
f 711 691 692
f 711 692 712
f 712 692 693
f 712 693 713
f 713 693 694
f 713 694 714
f 714 694 695
f 714 695 715
f 715 695 696
f 715 696 716
f 716 696 697
f 716 697 717
f 717 697 698
f 717 698 718
f 718 698 699
f 718 699 719
f 719 699 700
f 719 700 720
f 720 700 701
f 720 701 721
f 721 701 702
f 721 702 722
f 722 702 703
f 722 703 723
f 723 703 704
f 723 704 724
f 724 704 705
f 724 705 725
f 725 705 706
f 725 706 726
f 726 706 707
f 728 727 78
f 728 78 79
f 78 729 81
f 727 729 78
f 81 730 83
f 729 730 81
f 83 731 85
f 730 731 83
f 85 732 87
f 731 732 85
f 87 733 89
f 732 733 87
f 89 734 91
f 733 734 89
f 91 735 93
f 734 735 91
f 93 736 95
f 735 736 93
f 95 737 97
f 736 737 95
f 97 738 99
f 737 738 97
f 99 739 101
f 738 739 99
f 101 740 103
f 739 740 101
f 103 741 105
f 740 741 103
f 105 742 107
f 741 742 105
f 107 743 109
f 742 743 107
f 109 744 111
f 743 744 109
f 111 745 113
f 744 745 111
f 113 746 115
f 745 746 113
f 116 115 746
f 116 746 747
f 118 728 79
f 118 748 728
f 747 137 116
f 749 137 747
f 139 748 118
f 139 750 748
f 749 158 137
f 751 158 749
f 160 750 139
f 160 752 750
f 751 179 158
f 753 179 751
f 181 752 160
f 181 754 752
f 753 200 179
f 755 200 753
f 202 754 181
f 202 756 754
f 755 221 200
f 757 221 755
f 223 756 202
f 223 758 756
f 757 242 221
f 759 242 757
f 244 758 223
f 244 760 758
f 759 263 242
f 761 263 759
f 265 760 244
f 265 762 760
f 761 284 263
f 763 284 761
f 286 762 265
f 286 764 762
f 763 305 284
f 765 305 763
f 767 766 306
f 767 306 307
f 308 306 766
f 308 766 768
f 310 764 286
f 310 769 764
f 765 329 305
f 770 329 765
f 330 767 307
f 330 771 767
f 768 772 308
f 308 772 331
f 332 331 772
f 332 772 773
f 334 769 310
f 334 774 769
f 770 353 329
f 775 353 770
f 354 771 330
f 354 776 771
f 773 355 332
f 777 355 773
f 357 774 334
f 357 778 774
f 775 376 353
f 779 376 775
f 377 776 354
f 377 780 776
f 777 378 355
f 781 378 777
f 380 778 357
f 380 782 778
f 779 399 376
f 783 399 779
f 400 780 377
f 400 784 780
f 781 401 378
f 785 401 781
f 403 782 380
f 403 786 782
f 783 422 399
f 787 422 783
f 423 784 400
f 423 788 784
f 785 424 401
f 789 424 785
f 426 786 403
f 426 790 786
f 787 445 422
f 791 445 787
f 446 788 423
f 446 792 788
f 789 447 424
f 793 447 789
f 449 790 426
f 449 794 790
f 791 468 445
f 795 468 791
f 469 792 446
f 469 796 792
f 793 471 447
f 797 471 793
f 473 794 449
f 473 798 794
f 795 492 468
f 799 492 795
f 494 796 469
f 494 800 796
f 802 801 496
f 496 801 495
f 496 471 797
f 496 797 802
f 498 798 473
f 498 803 798
f 799 517 492
f 804 517 799
f 805 800 494
f 805 494 518
f 518 495 801
f 518 801 805
f 520 803 498
f 520 806 803
f 804 539 517
f 807 539 804
f 541 806 520
f 541 808 806
f 807 560 539
f 809 560 807
f 562 808 541
f 562 810 808
f 809 581 560
f 811 581 809
f 583 810 562
f 583 812 810
f 811 602 581
f 813 602 811
f 604 812 583
f 604 814 812
f 813 623 602
f 815 623 813
f 625 814 604
f 625 816 814
f 815 644 623
f 817 644 815
f 646 816 625
f 646 818 816
f 817 665 644
f 819 665 817
f 667 818 646
f 667 820 818
f 819 686 665
f 821 686 819
f 688 820 667
f 688 822 820
f 821 707 686
f 823 707 821
f 824 822 688
f 824 688 708
f 825 708 709
f 825 824 708
f 826 709 710
f 826 825 709
f 827 710 711
f 827 826 710
f 828 711 712
f 828 827 711
f 829 712 713
f 829 828 712
f 830 713 714
f 830 829 713
f 831 714 715
f 831 830 714
f 832 715 716
f 832 831 715
f 833 716 717
f 833 832 716
f 834 717 718
f 834 833 717
f 835 718 719
f 835 834 718
f 836 719 720
f 836 835 719
f 837 720 721
f 837 836 720
f 838 721 722
f 838 837 721
f 839 722 723
f 839 838 722
f 840 723 724
f 840 839 723
f 841 724 725
f 841 840 724
f 842 725 726
f 842 841 725
f 726 707 823
f 726 823 842
f 728 843 727
f 844 729 727
f 844 727 843
f 845 730 729
f 845 729 844
f 846 731 730
f 846 730 845
f 847 732 731
f 847 731 846
f 848 733 732
f 848 732 847
f 849 734 733
f 849 733 848
f 850 735 734
f 850 734 849
f 851 736 735
f 851 735 850
f 852 737 736
f 852 736 851
f 853 738 737
f 853 737 852
f 854 739 738
f 854 738 853
f 855 740 739
f 855 739 854
f 856 741 740
f 856 740 855
f 857 742 741
f 857 741 856
f 858 743 742
f 858 742 857
f 859 744 743
f 859 743 858
f 860 745 744
f 860 744 859
f 861 746 745
f 861 745 860
f 861 747 746
f 748 862 843
f 748 843 728
f 843 863 844
f 843 862 863
f 844 864 845
f 844 863 864
f 845 865 846
f 845 864 865
f 846 866 847
f 846 865 866
f 847 867 848
f 847 866 867
f 848 868 849
f 848 867 868
f 849 869 850
f 849 868 869
f 850 870 851
f 850 869 870
f 851 871 852
f 851 870 871
f 852 872 853
f 852 871 872
f 853 873 854
f 853 872 873
f 854 874 855
f 854 873 874
f 855 875 856
f 855 874 875
f 856 876 857
f 856 875 876
f 857 877 858
f 857 876 877
f 858 878 859
f 858 877 878
f 859 879 860
f 859 878 879
f 860 880 861
f 860 879 880
f 880 749 747
f 880 747 861
f 750 881 862
f 750 862 748
f 862 882 863
f 862 881 882
f 863 883 864
f 863 882 883
f 864 884 865
f 864 883 884
f 865 885 866
f 865 884 885
f 866 886 867
f 866 885 886
f 867 887 868
f 867 886 887
f 868 888 869
f 868 887 888
f 869 889 870
f 869 888 889
f 870 890 871
f 870 889 890
f 871 891 872
f 871 890 891
f 872 892 873
f 872 891 892
f 873 893 874
f 873 892 893
f 874 894 875
f 874 893 894
f 875 895 876
f 875 894 895
f 876 896 877
f 876 895 896
f 877 897 878
f 877 896 897
f 878 898 879
f 878 897 898
f 879 899 880
f 879 898 899
f 899 751 749
f 899 749 880
f 752 900 881
f 752 881 750
f 881 901 882
f 881 900 901
f 882 902 883
f 882 901 902
f 883 903 884
f 883 902 903
f 884 904 885
f 884 903 904
f 885 905 886
f 885 904 905
f 886 906 887
f 886 905 906
f 887 907 888
f 887 906 907
f 888 908 889
f 888 907 908
f 889 909 890
f 889 908 909
f 890 910 891
f 890 909 910
f 891 911 892
f 891 910 911
f 892 912 893
f 892 911 912
f 893 913 894
f 893 912 913
f 894 914 895
f 894 913 914
f 895 915 896
f 895 914 915
f 896 916 897
f 896 915 916
f 897 917 898
f 897 916 917
f 898 918 899
f 898 917 918
f 918 753 751
f 918 751 899
f 754 919 900
f 754 900 752
f 900 920 901
f 900 919 920
f 901 921 902
f 901 920 921
f 902 922 903
f 902 921 922
f 903 923 904
f 903 922 923
f 904 924 905
f 904 923 924
f 905 925 906
f 905 924 925
f 906 926 907
f 906 925 926
f 907 927 908
f 907 926 927
f 908 928 909
f 908 927 928
f 909 929 910
f 909 928 929
f 910 930 911
f 910 929 930
f 911 931 912
f 911 930 931
f 912 932 913
f 912 931 932
f 913 933 914
f 913 932 933
f 914 934 915
f 914 933 934
f 915 935 916
f 915 934 935
f 916 936 917
f 916 935 936
f 917 937 918
f 917 936 937
f 937 755 753
f 937 753 918
f 756 938 919
f 756 919 754
f 919 939 920
f 919 938 939
f 920 940 921
f 920 939 940
f 921 941 922
f 921 940 941
f 922 942 923
f 922 941 942
f 923 943 924
f 923 942 943
f 924 944 925
f 924 943 944
f 925 945 926
f 925 944 945
f 926 946 927
f 926 945 946
f 927 947 928
f 927 946 947
f 928 948 929
f 928 947 948
f 929 949 930
f 929 948 949
f 930 950 931
f 930 949 950
f 931 951 932
f 931 950 951
f 932 952 933
f 932 951 952
f 933 953 934
f 933 952 953
f 934 954 935
f 934 953 954
f 935 955 936
f 935 954 955
f 936 956 937
f 936 955 956
f 956 757 755
f 956 755 937
f 758 957 938
f 758 938 756
f 938 958 939
f 938 957 958
f 939 959 940
f 939 958 959
f 940 960 941
f 940 959 960
f 941 961 942
f 941 960 961
f 942 962 943
f 942 961 962
f 943 963 944
f 943 962 963
f 944 964 945
f 944 963 964
f 945 965 946
f 945 964 965
f 946 966 947
f 946 965 966
f 947 967 948
f 947 966 967
f 948 968 949
f 948 967 968
f 949 969 950
f 949 968 969
f 950 970 951
f 950 969 970
f 951 971 952
f 951 970 971
f 952 972 953
f 952 971 972
f 953 973 954
f 953 972 973
f 954 974 955
f 954 973 974
f 955 975 956
f 955 974 975
f 975 759 757
f 975 757 956
f 760 976 957
f 760 957 758
f 957 977 958
f 957 976 977
f 958 978 959
f 958 977 978
f 959 979 960
f 959 978 979
f 960 980 961
f 960 979 980
f 961 981 962
f 961 980 981
f 962 982 963
f 962 981 982
f 963 983 964
f 963 982 983
f 964 984 965
f 964 983 984
f 965 985 966
f 965 984 985
f 966 986 967
f 966 985 986
f 967 987 968
f 967 986 987
f 968 988 969
f 968 987 988
f 969 989 970
f 969 988 989
f 970 990 971
f 970 989 990
f 971 991 972
f 971 990 991
f 972 992 973
f 972 991 992
f 973 993 974
f 973 992 993
f 974 994 975
f 974 993 994
f 994 761 759
f 994 759 975
f 762 995 976
f 762 976 760
f 976 996 977
f 976 995 996
f 977 997 978
f 977 996 997
f 978 998 979
f 978 997 998
f 979 999 980
f 979 998 999
f 980 1000 981
f 980 999 1000
f 981 1001 982
f 981 1000 1001
f 982 1002 983
f 982 1001 1002
f 983 1003 984
f 983 1002 1003
f 984 1004 985
f 984 1003 1004
f 985 1005 986
f 985 1004 1005
f 986 1006 987
f 986 1005 1006
f 987 1007 988
f 987 1006 1007
f 988 1008 989
f 988 1007 1008
f 989 1009 990
f 989 1008 1009
f 990 1010 991
f 990 1009 1010
f 991 1011 992
f 991 1010 1011
f 992 1012 993
f 992 1011 1012
f 993 1013 994
f 993 1012 1013
f 1013 763 761
f 1013 761 994
f 764 1014 995
f 764 995 762
f 995 1015 996
f 995 1014 1015
f 996 1016 997
f 996 1015 1016
f 997 1017 998
f 997 1016 1017
f 998 1018 999
f 998 1017 1018
f 999 1019 1000
f 999 1018 1019
f 1000 1020 1001
f 1000 1019 1020
f 1001 1021 1002
f 1001 1020 1021
f 1002 1022 1003
f 1002 1021 1022
f 1003 1023 1004
f 1003 1022 1023
f 1004 1024 1005
f 1004 1023 1024
f 1005 1025 1006
f 1005 1024 1025
f 1006 1026 1007
f 1006 1025 1026
f 1007 1027 1008
f 1007 1026 1027
f 1008 1028 1009
f 1008 1027 1028
f 1009 1029 1010
f 1009 1028 1029
f 1010 1030 1011
f 1010 1029 1030
f 1011 1031 1012
f 1011 1030 1031
f 1012 1032 1013
f 1012 1031 1032
f 1032 765 763
f 1032 763 1013
f 1034 1033 766
f 1034 766 767
f 768 766 1033
f 768 1033 1035
f 769 1036 1014
f 769 1014 764
f 1014 1037 1015
f 1014 1036 1037
f 1015 1038 1016
f 1015 1037 1038
f 1016 1039 1017
f 1016 1038 1039
f 1017 1040 1018
f 1017 1039 1040
f 1018 1041 1019
f 1018 1040 1041
f 1019 1042 1020
f 1019 1041 1042
f 1020 1043 1021
f 1020 1042 1043
f 1021 1044 1022
f 1021 1043 1044
f 1022 1045 1023
f 1022 1044 1045
f 1023 1046 1024
f 1023 1045 1046
f 1024 1047 1025
f 1024 1046 1047
f 1025 1048 1026
f 1025 1047 1048
f 1026 1049 1027
f 1026 1048 1049
f 1027 1050 1028
f 1027 1049 1050
f 1028 1051 1029
f 1028 1050 1051
f 1029 1052 1030
f 1029 1051 1052
f 1030 1053 1031
f 1030 1052 1053
f 1031 1054 1032
f 1031 1053 1054
f 1054 770 765
f 1054 765 1032
f 771 1034 767
f 771 1055 1034
f 1035 1056 768
f 768 1056 772
f 773 772 1056
f 773 1056 1057
f 774 1058 1036
f 774 1036 769
f 1036 1059 1037
f 1036 1058 1059
f 1037 1060 1038
f 1037 1059 1060
f 1038 1061 1039
f 1038 1060 1061
f 1039 1062 1040
f 1039 1061 1062
f 1040 1063 1041
f 1040 1062 1063
f 1041 1064 1042
f 1041 1063 1064
f 1042 1065 1043
f 1042 1064 1065
f 1043 1066 1044
f 1043 1065 1066
f 1044 1067 1045
f 1044 1066 1067
f 1045 1068 1046
f 1045 1067 1068
f 1046 1069 1047
f 1046 1068 1069
f 1047 1070 1048
f 1047 1069 1070
f 1048 1071 1049
f 1048 1070 1071
f 1049 1072 1050
f 1049 1071 1072
f 1050 1073 1051
f 1050 1072 1073
f 1051 1074 1052
f 1051 1073 1074
f 1052 1075 1053
f 1052 1074 1075
f 1053 1076 1054
f 1053 1075 1076
f 1076 775 770
f 1076 770 1054
f 776 1055 771
f 776 1077 1055
f 1057 777 773
f 1078 777 1057
f 778 1079 1058
f 778 1058 774
f 1058 1080 1059
f 1058 1079 1080
f 1059 1081 1060
f 1059 1080 1081
f 1060 1082 1061
f 1060 1081 1082
f 1061 1083 1062
f 1061 1082 1083
f 1062 1084 1063
f 1062 1083 1084
f 1063 1085 1064
f 1063 1084 1085
f 1064 1086 1065
f 1064 1085 1086
f 1065 1087 1066
f 1065 1086 1087
f 1066 1088 1067
f 1066 1087 1088
f 1067 1089 1068
f 1067 1088 1089
f 1068 1090 1069
f 1068 1089 1090
f 1069 1091 1070
f 1069 1090 1091
f 1070 1092 1071
f 1070 1091 1092
f 1071 1093 1072
f 1071 1092 1093
f 1072 1094 1073
f 1072 1093 1094
f 1073 1095 1074
f 1073 1094 1095
f 1074 1096 1075
f 1074 1095 1096
f 1075 1097 1076
f 1075 1096 1097
f 1097 779 775
f 1097 775 1076
f 780 1077 776
f 780 1098 1077
f 1078 781 777
f 1099 781 1078
f 782 1100 1079
f 782 1079 778
f 1079 1101 1080
f 1079 1100 1101
f 1080 1102 1081
f 1080 1101 1102
f 1081 1103 1082
f 1081 1102 1103
f 1082 1104 1083
f 1082 1103 1104
f 1083 1105 1084
f 1083 1104 1105
f 1084 1106 1085
f 1084 1105 1106
f 1085 1107 1086
f 1085 1106 1107
f 1086 1108 1087
f 1086 1107 1108
f 1087 1109 1088
f 1087 1108 1109
f 1088 1110 1089
f 1088 1109 1110
f 1089 1111 1090
f 1089 1110 1111
f 1090 1112 1091
f 1090 1111 1112
f 1091 1113 1092
f 1091 1112 1113
f 1092 1114 1093
f 1092 1113 1114
f 1093 1115 1094
f 1093 1114 1115
f 1094 1116 1095
f 1094 1115 1116
f 1095 1117 1096
f 1095 1116 1117
f 1096 1118 1097
f 1096 1117 1118
f 1118 783 779
f 1118 779 1097
f 784 1098 780
f 784 1119 1098
f 1099 785 781
f 1120 785 1099
f 786 1121 1100
f 786 1100 782
f 1100 1122 1101
f 1100 1121 1122
f 1101 1123 1102
f 1101 1122 1123
f 1102 1124 1103
f 1102 1123 1124
f 1103 1125 1104
f 1103 1124 1125
f 1104 1126 1105
f 1104 1125 1126
f 1105 1127 1106
f 1105 1126 1127
f 1106 1128 1107
f 1106 1127 1128
f 1107 1129 1108
f 1107 1128 1129
f 1108 1130 1109
f 1108 1129 1130
f 1109 1131 1110
f 1109 1130 1131
f 1110 1132 1111
f 1110 1131 1132
f 1111 1133 1112
f 1111 1132 1133
f 1112 1134 1113
f 1112 1133 1134
f 1113 1135 1114
f 1113 1134 1135
f 1114 1136 1115
f 1114 1135 1136
f 1115 1137 1116
f 1115 1136 1137
f 1116 1138 1117
f 1116 1137 1138
f 1117 1139 1118
f 1117 1138 1139
f 1139 787 783
f 1139 783 1118
f 788 1119 784
f 788 1140 1119
f 1120 789 785
f 1141 789 1120
f 790 1142 1121
f 790 1121 786
f 1121 1143 1122
f 1121 1142 1143
f 1122 1144 1123
f 1122 1143 1144
f 1123 1145 1124
f 1123 1144 1145
f 1124 1146 1125
f 1124 1145 1146
f 1125 1147 1126
f 1125 1146 1147
f 1126 1148 1127
f 1126 1147 1148
f 1127 1149 1128
f 1127 1148 1149
f 1128 1150 1129
f 1128 1149 1150
f 1129 1151 1130
f 1129 1150 1151
f 1130 1152 1131
f 1130 1151 1152
f 1131 1153 1132
f 1131 1152 1153
f 1132 1154 1133
f 1132 1153 1154
f 1133 1155 1134
f 1133 1154 1155
f 1134 1156 1135
f 1134 1155 1156
f 1135 1157 1136
f 1135 1156 1157
f 1136 1158 1137
f 1136 1157 1158
f 1137 1159 1138
f 1137 1158 1159
f 1138 1160 1139
f 1138 1159 1160
f 1160 791 787
f 1160 787 1139
f 792 1140 788
f 792 1161 1140
f 1141 793 789
f 1162 793 1141
f 794 1163 1142
f 794 1142 790
f 1142 1164 1143
f 1142 1163 1164
f 1143 1165 1144
f 1143 1164 1165
f 1144 1166 1145
f 1144 1165 1166
f 1145 1167 1146
f 1145 1166 1167
f 1146 1168 1147
f 1146 1167 1168
f 1147 1169 1148
f 1147 1168 1169
f 1148 1170 1149
f 1148 1169 1170
f 1149 1171 1150
f 1149 1170 1171
f 1150 1172 1151
f 1150 1171 1172
f 1151 1173 1152
f 1151 1172 1173
f 1152 1174 1153
f 1152 1173 1174
f 1153 1175 1154
f 1153 1174 1175
f 1154 1176 1155
f 1154 1175 1176
f 1155 1177 1156
f 1155 1176 1177
f 1156 1178 1157
f 1156 1177 1178
f 1157 1179 1158
f 1157 1178 1179
f 1158 1180 1159
f 1158 1179 1180
f 1159 1181 1160
f 1159 1180 1181
f 1181 795 791
f 1181 791 1160
f 796 1161 792
f 796 1182 1161
f 1185 1184 1183
f 1162 1185 1183
f 797 1162 1183
f 793 1162 797
f 798 1186 1163
f 798 1163 794
f 1163 1187 1164
f 1163 1186 1187
f 1164 1188 1165
f 1164 1187 1188
f 1165 1189 1166
f 1165 1188 1189
f 1166 1190 1167
f 1166 1189 1190
f 1167 1191 1168
f 1167 1190 1191
f 1168 1192 1169
f 1168 1191 1192
f 1169 1193 1170
f 1169 1192 1193
f 1170 1194 1171
f 1170 1193 1194
f 1171 1195 1172
f 1171 1194 1195
f 1172 1196 1173
f 1172 1195 1196
f 1173 1197 1174
f 1173 1196 1197
f 1174 1198 1175
f 1174 1197 1198
f 1175 1199 1176
f 1175 1198 1199
f 1176 1200 1177
f 1176 1199 1200
f 1177 1201 1178
f 1177 1200 1201
f 1178 1202 1179
f 1178 1201 1202
f 1179 1203 1180
f 1179 1202 1203
f 1180 1204 1181
f 1180 1203 1204
f 1204 799 795
f 1204 795 1181
f 800 1206 1205
f 1182 800 1205
f 796 800 1182
f 1205 1206 1184
f 1184 1206 1183
f 1206 801 1183
f 801 802 1183
f 1183 802 797
f 803 1207 1186
f 803 1186 798
f 1186 1208 1187
f 1186 1207 1208
f 1187 1209 1188
f 1187 1208 1209
f 1188 1210 1189
f 1188 1209 1210
f 1189 1211 1190
f 1189 1210 1211
f 1190 1212 1191
f 1190 1211 1212
f 1191 1213 1192
f 1191 1212 1213
f 1192 1214 1193
f 1192 1213 1214
f 1193 1215 1194
f 1193 1214 1215
f 1194 1216 1195
f 1194 1215 1216
f 1195 1217 1196
f 1195 1216 1217
f 1196 1218 1197
f 1196 1217 1218
f 1197 1219 1198
f 1197 1218 1219
f 1198 1220 1199
f 1198 1219 1220
f 1199 1221 1200
f 1199 1220 1221
f 1200 1222 1201
f 1200 1221 1222
f 1201 1223 1202
f 1201 1222 1223
f 1202 1224 1203
f 1202 1223 1224
f 1203 1225 1204
f 1203 1224 1225
f 1225 804 799
f 1225 799 1204
f 805 1206 800
f 1206 805 801
f 806 1226 1207
f 806 1207 803
f 1207 1227 1208
f 1207 1226 1227
f 1208 1228 1209
f 1208 1227 1228
f 1209 1229 1210
f 1209 1228 1229
f 1210 1230 1211
f 1210 1229 1230
f 1211 1231 1212
f 1211 1230 1231
f 1212 1232 1213
f 1212 1231 1232
f 1213 1233 1214
f 1213 1232 1233
f 1214 1234 1215
f 1214 1233 1234
f 1215 1235 1216
f 1215 1234 1235
f 1216 1236 1217
f 1216 1235 1236
f 1217 1237 1218
f 1217 1236 1237
f 1218 1238 1219
f 1218 1237 1238
f 1219 1239 1220
f 1219 1238 1239
f 1220 1240 1221
f 1220 1239 1240
f 1221 1241 1222
f 1221 1240 1241
f 1222 1242 1223
f 1222 1241 1242
f 1223 1243 1224
f 1223 1242 1243
f 1224 1244 1225
f 1224 1243 1244
f 1244 807 804
f 1244 804 1225
f 808 1245 1226
f 808 1226 806
f 1226 1246 1227
f 1226 1245 1246
f 1227 1247 1228
f 1227 1246 1247
f 1228 1248 1229
f 1228 1247 1248
f 1229 1249 1230
f 1229 1248 1249
f 1230 1250 1231
f 1230 1249 1250
f 1231 1251 1232
f 1231 1250 1251
f 1232 1252 1233
f 1232 1251 1252
f 1233 1253 1234
f 1233 1252 1253
f 1234 1254 1235
f 1234 1253 1254
f 1235 1255 1236
f 1235 1254 1255
f 1236 1256 1237
f 1236 1255 1256
f 1237 1257 1238
f 1237 1256 1257
f 1238 1258 1239
f 1238 1257 1258
f 1239 1259 1240
f 1239 1258 1259
f 1240 1260 1241
f 1240 1259 1260
f 1241 1261 1242
f 1241 1260 1261
f 1242 1262 1243
f 1242 1261 1262
f 1243 1263 1244
f 1243 1262 1263
f 1263 809 807
f 1263 807 1244
f 810 1264 1245
f 810 1245 808
f 1245 1265 1246
f 1245 1264 1265
f 1246 1266 1247
f 1246 1265 1266
f 1247 1267 1248
f 1247 1266 1267
f 1248 1268 1249
f 1248 1267 1268
f 1249 1269 1250
f 1249 1268 1269
f 1250 1270 1251
f 1250 1269 1270
f 1251 1271 1252
f 1251 1270 1271
f 1252 1272 1253
f 1252 1271 1272
f 1253 1273 1254
f 1253 1272 1273
f 1254 1274 1255
f 1254 1273 1274
f 1255 1275 1256
f 1255 1274 1275
f 1256 1276 1257
f 1256 1275 1276
f 1257 1277 1258
f 1257 1276 1277
f 1258 1278 1259
f 1258 1277 1278
f 1259 1279 1260
f 1259 1278 1279
f 1260 1280 1261
f 1260 1279 1280
f 1261 1281 1262
f 1261 1280 1281
f 1262 1282 1263
f 1262 1281 1282
f 1282 811 809
f 1282 809 1263
f 812 1283 1264
f 812 1264 810
f 1264 1284 1265
f 1264 1283 1284
f 1265 1285 1266
f 1265 1284 1285
f 1266 1286 1267
f 1266 1285 1286
f 1267 1287 1268
f 1267 1286 1287
f 1268 1288 1269
f 1268 1287 1288
f 1269 1289 1270
f 1269 1288 1289
f 1270 1290 1271
f 1270 1289 1290
f 1271 1291 1272
f 1271 1290 1291
f 1272 1292 1273
f 1272 1291 1292
f 1273 1293 1274
f 1273 1292 1293
f 1274 1294 1275
f 1274 1293 1294
f 1275 1295 1276
f 1275 1294 1295
f 1276 1296 1277
f 1276 1295 1296
f 1277 1297 1278
f 1277 1296 1297
f 1278 1298 1279
f 1278 1297 1298
f 1279 1299 1280
f 1279 1298 1299
f 1280 1300 1281
f 1280 1299 1300
f 1281 1301 1282
f 1281 1300 1301
f 1301 813 811
f 1301 811 1282
f 814 1302 1283
f 814 1283 812
f 1283 1303 1284
f 1283 1302 1303
f 1284 1304 1285
f 1284 1303 1304
f 1285 1305 1286
f 1285 1304 1305
f 1286 1306 1287
f 1286 1305 1306
f 1287 1307 1288
f 1287 1306 1307
f 1288 1308 1289
f 1288 1307 1308
f 1289 1309 1290
f 1289 1308 1309
f 1290 1310 1291
f 1290 1309 1310
f 1291 1311 1292
f 1291 1310 1311
f 1292 1312 1293
f 1292 1311 1312
f 1293 1313 1294
f 1293 1312 1313
f 1294 1314 1295
f 1294 1313 1314
f 1295 1315 1296
f 1295 1314 1315
f 1296 1316 1297
f 1296 1315 1316
f 1297 1317 1298
f 1297 1316 1317
f 1298 1318 1299
f 1298 1317 1318
f 1299 1319 1300
f 1299 1318 1319
f 1300 1320 1301
f 1300 1319 1320
f 1320 815 813
f 1320 813 1301
f 816 1321 1302
f 816 1302 814
f 1302 1322 1303
f 1302 1321 1322
f 1303 1323 1304
f 1303 1322 1323
f 1304 1324 1305
f 1304 1323 1324
f 1305 1325 1306
f 1305 1324 1325
f 1306 1326 1307
f 1306 1325 1326
f 1307 1327 1308
f 1307 1326 1327
f 1308 1328 1309
f 1308 1327 1328
f 1309 1329 1310
f 1309 1328 1329
f 1310 1330 1311
f 1310 1329 1330
f 1311 1331 1312
f 1311 1330 1331
f 1312 1332 1313
f 1312 1331 1332
f 1313 1333 1314
f 1313 1332 1333
f 1314 1334 1315
f 1314 1333 1334
f 1315 1335 1316
f 1315 1334 1335
f 1316 1336 1317
f 1316 1335 1336
f 1317 1337 1318
f 1317 1336 1337
f 1318 1338 1319
f 1318 1337 1338
f 1319 1339 1320
f 1319 1338 1339
f 1339 817 815
f 1339 815 1320
f 818 1340 1321
f 818 1321 816
f 1321 1341 1322
f 1321 1340 1341
f 1322 1342 1323
f 1322 1341 1342
f 1323 1343 1324
f 1323 1342 1343
f 1324 1344 1325
f 1324 1343 1344
f 1325 1345 1326
f 1325 1344 1345
f 1326 1346 1327
f 1326 1345 1346
f 1327 1347 1328
f 1327 1346 1347
f 1328 1348 1329
f 1328 1347 1348
f 1329 1349 1330
f 1329 1348 1349
f 1330 1350 1331
f 1330 1349 1350
f 1331 1351 1332
f 1331 1350 1351
f 1332 1352 1333
f 1332 1351 1352
f 1333 1353 1334
f 1333 1352 1353
f 1334 1354 1335
f 1334 1353 1354
f 1335 1355 1336
f 1335 1354 1355
f 1336 1356 1337
f 1336 1355 1356
f 1337 1357 1338
f 1337 1356 1357
f 1338 1358 1339
f 1338 1357 1358
f 1358 819 817
f 1358 817 1339
f 820 1359 1340
f 820 1340 818
f 1340 1360 1341
f 1340 1359 1360
f 1341 1361 1342
f 1341 1360 1361
f 1342 1362 1343
f 1342 1361 1362
f 1343 1363 1344
f 1343 1362 1363
f 1344 1364 1345
f 1344 1363 1364
f 1345 1365 1346
f 1345 1364 1365
f 1346 1366 1347
f 1346 1365 1366
f 1347 1367 1348
f 1347 1366 1367
f 1348 1368 1349
f 1348 1367 1368
f 1349 1369 1350
f 1349 1368 1369
f 1350 1370 1351
f 1350 1369 1370
f 1351 1371 1352
f 1351 1370 1371
f 1352 1372 1353
f 1352 1371 1372
f 1353 1373 1354
f 1353 1372 1373
f 1354 1374 1355
f 1354 1373 1374
f 1355 1375 1356
f 1355 1374 1375
f 1356 1376 1357
f 1356 1375 1376
f 1357 1377 1358
f 1357 1376 1377
f 1377 821 819
f 1377 819 1358
f 822 1378 1359
f 822 1359 820
f 1359 1379 1360
f 1359 1378 1379
f 1360 1380 1361
f 1360 1379 1380
f 1361 1381 1362
f 1361 1380 1381
f 1362 1382 1363
f 1362 1381 1382
f 1363 1383 1364
f 1363 1382 1383
f 1364 1384 1365
f 1364 1383 1384
f 1365 1385 1366
f 1365 1384 1385
f 1366 1386 1367
f 1366 1385 1386
f 1367 1387 1368
f 1367 1386 1387
f 1368 1388 1369
f 1368 1387 1388
f 1369 1389 1370
f 1369 1388 1389
f 1370 1390 1371
f 1370 1389 1390
f 1371 1391 1372
f 1371 1390 1391
f 1372 1392 1373
f 1372 1391 1392
f 1373 1393 1374
f 1373 1392 1393
f 1374 1394 1375
f 1374 1393 1394
f 1375 1395 1376
f 1375 1394 1395
f 1376 1396 1377
f 1376 1395 1396
f 1396 823 821
f 1396 821 1377
f 824 1378 822
f 1378 824 825
f 1378 825 1379
f 1379 825 826
f 1379 826 1380
f 1380 826 827
f 1380 827 1381
f 1381 827 828
f 1381 828 1382
f 1382 828 829
f 1382 829 1383
f 1383 829 830
f 1383 830 1384
f 1384 830 831
f 1384 831 1385
f 1385 831 832
f 1385 832 1386
f 1386 832 833
f 1386 833 1387
f 1387 833 834
f 1387 834 1388
f 1388 834 835
f 1388 835 1389
f 1389 835 836
f 1389 836 1390
f 1390 836 837
f 1390 837 1391
f 1391 837 838
f 1391 838 1392
f 1392 838 839
f 1392 839 1393
f 1393 839 840
f 1393 840 1394
f 1394 840 841
f 1394 841 1395
f 1395 841 842
f 1395 842 1396
f 1396 842 823
f 1398 1397 1033
f 1398 1033 1034
f 1035 1033 1397
f 1035 1397 1399
f 1055 1398 1034
f 1055 1400 1398
f 1056 1035 1401
f 1035 1402 1401
f 1035 1399 1402
f 1401 1057 1056
f 1077 1400 1055
f 1077 1403 1400
f 1402 1404 1401
f 1057 1401 1404
f 1405 1057 1404
f 1078 1057 1405
f 1098 1403 1077
f 1098 1406 1403
f 1405 1099 1078
f 1407 1099 1405
f 1119 1406 1098
f 1119 1408 1406
f 1407 1120 1099
f 1409 1120 1407
f 1140 1408 1119
f 1140 1410 1408
f 1409 1141 1120
f 1411 1141 1409
f 1161 1410 1140
f 1161 1412 1410
f 1411 1162 1141
f 1413 1162 1411
f 1182 1412 1161
f 1182 1414 1412
f 1416 1415 1185
f 1185 1415 1184
f 1185 1162 1413
f 1185 1413 1416
f 1417 1414 1182
f 1417 1182 1205
f 1205 1184 1415
f 1205 1415 1417
f 1398 1418 1397
f 1418 1399 1397
f 1420 1419 1418
f 1398 1420 1418
f 1400 1420 1398
f 1399 1418 1419
f 1421 1399 1419
f 1402 1399 1421
f 1403 1420 1400
f 1403 1422 1420
f 1404 1402 1423
f 1402 1424 1423
f 1402 1421 1424
f 1423 1405 1404
f 1406 1422 1403
f 1406 1425 1422
f 1424 1426 1423
f 1405 1423 1426
f 1427 1405 1426
f 1407 1405 1427
f 1408 1425 1406
f 1408 1428 1425
f 1427 1409 1407
f 1429 1409 1427
f 1410 1428 1408
f 1410 1430 1428
f 1433 1432 1431
f 1429 1433 1431
f 1411 1429 1431
f 1409 1429 1411
f 1412 1430 1410
f 1412 1434 1430
f 1431 1432 1435
f 1435 1432 1436
f 1435 1413 1411
f 1435 1411 1431
f 1414 1438 1437
f 1434 1414 1437
f 1412 1414 1434
f 1437 1438 1436
f 1436 1438 1435
f 1438 1415 1435
f 1415 1416 1435
f 1435 1416 1413
f 1417 1438 1414
f 1438 1417 1415
f 1420 1439 1419
f 1439 1421 1419
f 1422 1440 1439
f 1422 1439 1420
f 1440 1424 1421
f 1440 1421 1439
f 1442 1441 1440
f 1422 1442 1440
f 1425 1442 1422
f 1441 1444 1443
f 1441 1443 1426
f 1440 1441 1426
f 1424 1440 1426
f 1443 1427 1426
f 1428 1442 1425
f 1428 1445 1442
f 1443 1444 1446
f 1446 1444 1447
f 1446 1429 1427
f 1446 1427 1443
f 1430 1449 1448
f 1445 1430 1448
f 1428 1430 1445
f 1448 1449 1447
f 1447 1449 1446
f 1449 1432 1446
f 1432 1433 1446
f 1446 1433 1429
f 1434 1450 1449
f 1434 1449 1430
f 1450 1436 1432
f 1450 1432 1449
f 1437 1450 1434
f 1450 1437 1436
f 1442 1451 1441
f 1451 1444 1441
f 1445 1452 1451
f 1445 1451 1442
f 1452 1447 1444
f 1452 1444 1451
f 1448 1452 1445
f 1452 1448 1447

