# https://github.com/mikedh/trimesh
v 5.88486719 14.00000000 20.00000000
v 6.00000000 13.67641068 20.00000000
v 6.00000000 14.00000000 19.83098602
v 6.00000000 14.00000000 20.23487473
v 6.00000000 14.53596020 20.00000000
v 5.81973553 17.00000000 20.00000000
v 6.00000000 16.49600601 20.00000000
v 6.00000000 17.00000000 19.81768799
v 6.00000000 17.00000000 20.22499466
v 6.00000000 17.14733887 20.00000000
v 6.14086342 14.00000000 20.00000000
v 6.15103054 17.00000000 20.00000000
v 19.71199036 14.00000000 11.00000000
v 20.00000000 13.65583706 11.00000000
v 20.00000000 14.00000000 10.87357616
v 20.00000000 14.00000000 11.11968517
v 19.73415947 15.00000000 11.00000000
v 20.00000000 15.00000000 10.92508221
v 20.00000000 15.00000000 11.10733318
v 19.71481895 16.00000000 11.00000000
v 20.00000000 16.00000000 10.91883945
v 20.00000000 16.00000000 11.11582375
v 19.72311783 17.00000000 11.00000000
v 20.00000000 17.00000000 10.80662251
v 20.00000000 17.00000000 11.16000462
v 20.00000000 17.15713882 11.00000000
v 21.00000000 13.64813995 11.00000000
v 21.00000000 14.00000000 10.55188942
v 21.00000000 14.00000000 11.08955383
v 21.00000000 15.00000000 10.55632591
v 21.00000000 15.00000000 11.08706093
v 21.00000000 16.00000000 10.57941341
v 21.00000000 16.00000000 11.08650970
v 21.00000000 17.00000000 10.55789375
v 21.00000000 17.00000000 11.17907333
v 21.00000000 17.17595291 11.00000000
v 21.10981369 14.00000000 11.00000000
v 21.10719109 15.00000000 11.00000000
v 21.10648727 16.00000000 11.00000000
v 21.18033981 17.00000000 11.00000000
v 24.86848259 14.00000000 8.00000000
v 25.00000000 13.66650009 8.00000000
v 25.00000000 14.00000000 7.79449368
v 25.00000000 14.00000000 8.19432640
v 25.00000000 14.50632668 8.00000000
v 24.82151794 17.00000000 8.00000000
v 25.00000000 16.46481705 8.00000000
v 25.00000000 17.00000000 7.80942011
v 25.00000000 17.00000000 8.18311405
v 25.00000000 17.14582634 8.00000000
v 25.12649155 14.00000000 8.00000000
v 25.15057755 17.00000000 8.00000000
v 28.92817497 14.00000000 5.00000000
v 29.00000000 13.77854347 5.00000000
v 29.00000000 14.00000000 4.92757893
v 29.00000000 14.00000000 5.25601196
v 28.93009377 15.00000000 5.00000000
v 29.00000000 15.00000000 4.94481516
v 29.00000000 15.00000000 5.30086994
v 29.00000000 15.47402668 5.00000000
v 28.87004662 17.00000000 5.00000000
v 29.00000000 16.54487419 5.00000000
v 29.00000000 17.00000000 4.86635923
v 29.00000000 17.00000000 5.25141668
v 29.00000000 17.10614777 5.00000000
v 29.46033478 14.00000000 5.00000000
v 29.50016212 15.00000000 5.00000000
v 30.00000000 16.42529297 5.00000000
v 30.00000000 17.00000000 4.85274363
v 30.00000000 17.00000000 5.11788273
v 30.00000000 17.11689377 5.00000000
v 30.18717575 17.00000000 5.00000000
f 3 2 1
f 4 1 2
f 5 3 1
f 5 1 4
f 8 7 6
f 9 6 7
f 10 8 6
f 10 6 9
f 3 11 2
f 11 4 2
f 5 11 3
f 11 5 4
f 8 12 7
f 12 9 7
f 10 12 8
f 12 10 9
f 15 14 13
f 16 13 14
f 15 13 17
f 15 17 18
f 13 16 19
f 13 19 17
f 18 17 20
f 18 20 21
f 17 19 22
f 17 22 20
f 21 20 23
f 21 23 24
f 20 22 25
f 20 25 23
f 26 24 23
f 26 23 25
f 28 27 14
f 28 14 15
f 16 14 27
f 16 27 29
f 18 28 15
f 18 30 28
f 29 19 16
f 31 19 29
f 21 30 18
f 21 32 30
f 31 22 19
f 33 22 31
f 24 32 21
f 24 34 32
f 33 25 22
f 35 25 33
f 36 34 24
f 36 24 26
f 26 25 35
f 26 35 36
f 28 37 27
f 37 29 27
f 30 38 37
f 30 37 28
f 38 31 29
f 38 29 37
f 32 39 38
f 32 38 30
f 39 33 31
f 39 31 38
f 34 40 39
f 34 39 32
f 40 35 33
f 40 33 39
f 36 40 34
f 40 36 35
f 43 42 41
f 44 41 42
f 45 43 41
f 45 41 44
f 48 47 46
f 49 46 47
f 50 48 46
f 50 46 49
f 43 51 42
f 51 44 42
f 45 51 43
f 51 45 44
f 48 52 47
f 52 49 47
f 50 52 48
f 52 50 49
f 55 54 53
f 56 53 54
f 55 53 57
f 55 57 58
f 53 56 59
f 53 59 57
f 60 58 57
f 60 57 59
f 63 62 61
f 64 61 62
f 65 63 61
f 65 61 64
f 55 66 54
f 66 56 54
f 58 67 66
f 58 66 55
f 67 59 56
f 67 56 66
f 60 67 58
f 67 60 59
f 69 68 62
f 69 62 63
f 64 62 68
f 64 68 70
f 71 69 63
f 71 63 65
f 65 64 70
f 65 70 71
f 69 72 68
f 72 70 68
f 71 72 69
f 72 71 70

