# https://github.com/mikedh/trimesh
v 1.83126628 6.00000000 3.00000000
v 2.00000000 5.82289934 3.00000000
v 2.00000000 6.00000000 2.83873129
v 2.00000000 6.00000000 3.87969017
v 2.00000000 6.27146292 3.00000000
v 2.20788288 6.00000000 3.00000000
v 2.18127632 6.00000000 5.00000000
v 3.00000000 5.23665714 5.00000000
v 3.00000000 6.00000000 4.52223969
v 3.00000000 6.00000000 5.37277603
v 2.23984241 7.00000000 5.00000000
v 3.00000000 7.00000000 4.78403950
v 3.00000000 7.00000000 5.33207703
v 2.26693535 8.00000000 5.00000000
v 3.00000000 8.00000000 4.89210701
v 3.00000000 8.00000000 5.32984877
v 2.27108860 9.00000000 5.00000000
v 3.00000000 9.00000000 4.88931656
v 3.00000000 9.00000000 5.33959055
v 2.22450233 10.00000000 5.00000000
v 3.00000000 10.00000000 4.88459349
v 3.00000000 10.00000000 5.33939600
v 2.21286392 11.00000000 5.00000000
v 3.00000000 11.00000000 4.89239168
v 3.00000000 11.00000000 5.32400990
v 2.23344731 12.00000000 5.00000000
v 3.00000000 12.00000000 4.88863134
v 3.00000000 12.00000000 5.33305407
v 2.25518727 13.00000000 5.00000000
v 3.00000000 13.00000000 4.88444662
v 3.00000000 13.00000000 5.33985090
v 3.00000000 13.84694576 5.00000000
v 3.64505148 6.00000000 5.00000000
v 3.23379230 7.00000000 5.00000000
v 3.17411685 8.00000000 5.00000000
v 3.17545533 9.00000000 5.00000000
v 3.18175149 10.00000000 5.00000000
v 3.17262101 11.00000000 5.00000000
v 3.17898130 12.00000000 5.00000000
v 3.18420720 13.00000000 5.00000000
v 5.77478266 6.00000000 7.00000000
v 6.00000000 5.81615877 7.00000000
v 6.00000000 6.00000000 6.87210369
v 6.00000000 6.00000000 7.19524860
v 6.00000000 6.24414349 7.00000000
v 6.14618397 6.00000000 7.00000000
v 7.00000000 5.77082253 8.00000000
v 7.00000000 6.00000000 7.75138235
v 6.68079090 6.00000000 8.00000000
v 7.00000000 6.00000000 8.50771999
v 7.00000000 6.33291626 8.00000000
v 7.27960491 6.00000000 8.00000000
v 8.00000000 5.75460720 9.00000000
v 8.00000000 6.00000000 8.76117611
v 7.54533386 6.00000000 9.00000000
v 8.00000000 6.00000000 9.84564781
v 8.00000000 6.28627348 9.00000000
v 8.27620316 6.00000000 9.00000000
v 9.00000000 5.51878548 10.00000000
v 9.00000000 6.00000000 9.86357307
v 8.30598545 6.00000000 10.00000000
v 9.00000000 6.00000000 10.61228085
v 9.00000000 6.49740791 10.00000000
v 9.16978836 6.00000000 10.00000000
v 10.00000000 5.19139099 11.00000000
v 10.00000000 6.00000000 10.62410450
v 9.17696762 6.00000000 11.00000000
v 10.00000000 6.00000000 11.41741657
v 9.35742569 7.00000000 11.00000000
v 10.00000000 7.00000000 10.85206223
v 10.00000000 7.00000000 11.26350117
v 9.34649181 8.00000000 11.00000000
v 10.00000000 8.00000000 10.90707970
v 10.00000000 8.00000000 11.27622795
v 9.37504959 9.00000000 11.00000000
v 10.00000000 9.00000000 10.91057396
v 10.00000000 9.00000000 11.27118778
v 9.30187988 10.00000000 11.00000000
v 10.00000000 10.00000000 10.90639496
v 10.00000000 10.00000000 11.28194523
v 9.33103657 11.00000000 11.00000000
v 10.00000000 11.00000000 10.90401840
v 10.00000000 11.00000000 11.28576279
v 9.33919621 12.00000000 11.00000000
v 10.00000000 12.00000000 10.89923096
v 10.00000000 12.00000000 11.29171848
v 9.30566883 13.00000000 11.00000000
v 10.00000000 13.00000000 10.90456963
v 10.00000000 13.00000000 11.28044701
v 10.00000000 13.62239361 11.00000000
v 10.45421982 6.00000000 11.00000000
v 10.16213036 7.00000000 11.00000000
v 10.11648560 8.00000000 11.00000000
v 10.11191368 9.00000000 11.00000000
v 10.11704540 10.00000000 11.00000000
v 10.12001801 11.00000000 11.00000000
v 10.12538147 12.00000000 11.00000000
v 10.11938381 13.00000000 11.00000000
v 13.91664791 7.00000000 16.00000000
v 14.00000000 6.47263956 16.00000000
v 14.00000000 7.00000000 15.67746258
v 14.00000000 7.00000000 16.06917000
v 13.93023205 8.00000000 16.00000000
v 14.00000000 8.00000000 15.71813583
v 14.00000000 8.00000000 16.05701447
v 13.92790031 9.00000000 16.00000000
v 14.00000000 9.00000000 15.70842171
v 14.00000000 9.00000000 16.05899048
v 14.00000000 9.47494411 16.00000000
v 13.92038918 11.00000000 16.00000000
v 14.00000000 10.49698925 16.00000000
v 14.00000000 11.00000000 15.68392754
v 14.00000000 11.00000000 16.06553841
v 13.92351723 12.00000000 16.00000000
v 14.00000000 12.00000000 15.69743061
v 14.00000000 12.00000000 16.06307983
v 14.00000000 12.49643040 16.00000000
v 14.42585754 5.00000000 16.00000000
v 15.00000000 4.45070601 16.00000000
v 15.00000000 5.00000000 15.88786888
v 15.00000000 5.00000000 16.36924553
v 14.54644585 6.00000000 15.00000000
v 15.00000000 5.83413410 15.00000000
v 15.00000000 6.00000000 14.83613014
v 15.00000000 5.57244444 16.00000000
v 15.00000000 6.00000000 15.67825794
v 15.00000000 6.24847746 15.00000000
v 15.00000000 7.00000000 15.85587025
v 15.00000000 6.48222685 16.00000000
v 15.00000000 7.00000000 16.29614258
v 15.00000000 7.47410202 16.00000000
v 14.45227432 8.00000000 16.00000000
v 14.44044590 9.00000000 16.00000000
v 15.00000000 10.00000000 15.90861607
v 14.49901009 10.00000000 16.00000000
v 15.00000000 9.53372002 16.00000000
v 15.00000000 10.00000000 16.30880356
v 15.00000000 10.50810146 16.00000000
v 14.51012135 11.00000000 16.00000000
v 15.00000000 11.49924469 16.00000000
v 15.00000000 12.00000000 15.91128254
v 15.00000000 12.00000000 16.31414604
v 15.00000000 12.46382046 16.00000000
v 14.50741768 14.00000000 16.00000000
v 15.00000000 13.52915668 16.00000000
v 15.00000000 14.00000000 15.90875721
v 15.00000000 14.00000000 16.30679893
v 15.00000000 14.23161316 16.00000000
v 15.22676754 5.00000000 16.00000000
v 15.18466759 6.00000000 15.00000000
v 16.00000000 5.56793022 16.00000000
v 16.00000000 6.00000000 15.72824574
v 15.22355366 6.00000000 16.00000000
v 16.00000000 6.00000000 16.82332230
v 16.00000000 6.42376947 16.00000000
v 15.18523502 7.00000000 16.00000000
v 15.19721508 10.00000000 16.00000000
v 15.19078064 12.00000000 16.00000000
v 15.19567204 14.00000000 16.00000000
v 16.30948448 6.00000000 16.00000000
v 17.00000000 6.00000000 16.62075233
v 17.00000000 5.16495514 17.00000000
v 16.13601303 6.00000000 17.00000000
v 17.00000000 6.00000000 17.50629234
v 17.00000000 6.79304981 17.00000000
v 16.47906303 8.00000000 17.00000000
v 17.00000000 7.51889277 17.00000000
v 17.00000000 8.00000000 16.93358231
v 17.00000000 8.00000000 17.19976807
v 16.40324402 9.00000000 17.00000000
v 17.00000000 9.00000000 16.93073463
v 17.00000000 9.00000000 17.20550156
v 17.00000000 9.49210644 17.00000000
v 16.42207909 11.00000000 17.00000000
v 17.00000000 10.50436687 17.00000000
v 17.00000000 11.00000000 16.92993736
v 17.00000000 11.00000000 17.20379066
v 17.00000000 11.49849033 17.00000000
v 17.42651176 6.00000000 17.00000000
v 17.06787491 8.00000000 17.00000000
v 17.07077408 9.00000000 17.00000000
v 17.07148743 11.00000000 17.00000000
v 19.80875778 4.00000000 20.00000000
v 20.00000000 3.92559505 20.00000000
v 20.00000000 4.00000000 19.87345886
v 20.00000000 4.00000000 20.19878769
v 19.63545990 5.00000000 20.00000000
v 20.00000000 5.00000000 19.73615837
v 20.00000000 5.00000000 20.38807297
v 19.62187004 6.00000000 20.00000000
v 20.00000000 6.00000000 19.51432991
v 20.00000000 6.00000000 20.38974190
v 19.63880539 7.00000000 20.00000000
v 20.00000000 7.00000000 19.67979050
v 20.00000000 7.00000000 20.37963867
v 19.63914680 8.00000000 20.00000000
v 20.00000000 8.00000000 19.68948746
v 20.00000000 8.00000000 20.37844849
v 19.62932777 9.00000000 20.00000000
v 20.00000000 9.00000000 19.68239975
v 20.00000000 9.00000000 20.38221741
v 19.63269234 10.00000000 20.00000000
v 20.00000000 10.00000000 19.67842293
v 20.00000000 10.00000000 20.38688469
v 19.63339615 11.00000000 20.00000000
v 20.00000000 11.00000000 19.68388939
v 20.00000000 11.00000000 20.38335228
v 19.63184166 12.00000000 20.00000000
v 20.00000000 12.00000000 19.68471336
v 20.00000000 12.00000000 20.38031578
v 19.62851334 13.00000000 20.00000000
v 20.00000000 13.00000000 19.67601776
v 20.00000000 13.00000000 20.38890266
v 19.62867546 14.00000000 20.00000000
v 20.00000000 14.00000000 19.72979927
v 20.00000000 14.00000000 20.38751030
v 19.59847832 15.00000000 20.00000000
v 20.00000000 15.00000000 19.75469780
v 20.00000000 15.00000000 20.65250969
v 19.81037521 16.00000000 20.00000000
v 20.00000000 16.00000000 19.78207207
v 20.00000000 16.00000000 20.63345718
v 19.80652809 17.00000000 20.00000000
v 20.00000000 17.00000000 19.77775002
v 20.00000000 17.00000000 20.65910339
v 19.81009674 18.00000000 20.00000000
v 20.00000000 18.00000000 19.78171539
v 20.00000000 18.00000000 20.61442757
v 19.80729485 19.00000000 20.00000000
v 20.00000000 19.00000000 19.77817154
v 20.00000000 19.00000000 20.67240143
v 19.81439018 20.00000000 20.00000000
v 20.00000000 20.00000000 19.78659821
v 20.00000000 20.00000000 20.64152336
v 19.81099129 21.00000000 20.00000000
v 20.00000000 21.00000000 19.78192329
v 20.00000000 21.00000000 20.83556175
v 19.81221199 22.00000000 20.00000000
v 20.00000000 22.00000000 19.78374290
v 20.00000000 22.00000000 20.66316605
v 19.81257439 23.00000000 20.00000000
v 20.00000000 23.00000000 19.78399467
v 20.00000000 23.00000000 20.64959526
v 19.80898476 24.00000000 20.00000000
v 20.00000000 24.00000000 19.78008270
v 20.00000000 24.00000000 20.68027878
v 19.81662941 25.00000000 20.00000000
v 20.00000000 25.00000000 19.78869247
v 20.00000000 25.00000000 20.63397980
v 19.81520081 26.00000000 20.00000000
v 20.00000000 26.00000000 19.78698921
v 20.00000000 26.00000000 20.63388443
v 20.00000000 26.69334984 20.00000000
v 21.00000000 3.92094469 20.00000000
v 21.00000000 4.00000000 19.89546776
v 21.00000000 4.00000000 20.21345901
v 21.00000000 5.00000000 19.68459129
v 21.00000000 5.00000000 20.50891685
v 21.00000000 6.00000000 19.64699936
v 21.00000000 6.00000000 20.52544975
v 21.00000000 7.00000000 19.68289948
v 21.00000000 7.00000000 20.51191711
v 21.00000000 8.00000000 19.68185616
v 21.00000000 8.00000000 20.51922607
v 21.00000000 9.00000000 19.68311310
v 21.00000000 9.00000000 20.50673103
v 21.00000000 10.00000000 19.68268013
v 21.00000000 10.00000000 20.51155090
v 21.00000000 11.00000000 19.68007469
v 21.00000000 11.00000000 20.51750183
v 21.00000000 12.00000000 19.68264961
v 21.00000000 12.00000000 20.51074791
v 21.00000000 13.00000000 19.68127251
v 21.00000000 13.00000000 20.50885391
v 21.00000000 14.00000000 19.68033028
v 21.00000000 14.00000000 20.50989151
v 21.00000000 15.00000000 19.68167686
v 21.00000000 15.00000000 20.51453018
v 21.00000000 16.00000000 19.68016434
v 21.00000000 16.00000000 20.51175690
v 21.00000000 17.00000000 19.68154716
v 21.00000000 17.00000000 20.50893784
v 21.00000000 18.00000000 19.68148613
v 21.00000000 18.00000000 20.50994873
v 21.00000000 19.00000000 19.68002319
v 21.00000000 19.00000000 20.51306915
v 21.00000000 20.00000000 19.68256760
v 21.00000000 20.00000000 20.51220703
v 21.00000000 21.00000000 19.68254662
v 21.00000000 21.00000000 20.51394081
v 21.00000000 22.00000000 19.68243217
v 21.00000000 22.00000000 20.51028061
v 21.00000000 23.00000000 19.68288803
v 21.00000000 23.00000000 20.51118469
v 21.00000000 24.00000000 19.68467903
v 21.00000000 24.00000000 20.50839615
v 21.00000000 25.00000000 19.68366623
v 21.00000000 25.00000000 20.51511192
v 21.00000000 26.00000000 19.68297577
v 21.00000000 26.00000000 20.50509834
v 20.51220512 27.00000000 20.00000000
v 21.00000000 27.00000000 19.89691353
v 21.00000000 27.00000000 20.55035019
v 21.00000000 27.07773972 20.00000000
v 22.00000000 3.92633510 20.00000000
v 22.00000000 4.00000000 19.90294838
v 22.00000000 4.00000000 20.19627380
v 22.00000000 5.00000000 19.68468094
v 22.00000000 5.00000000 20.51300049
v 22.00000000 6.00000000 19.68088150
v 22.00000000 6.00000000 20.51829147
v 22.00000000 7.00000000 19.68433952
v 22.00000000 7.00000000 20.51123810
v 22.00000000 8.00000000 19.68312263
v 22.00000000 8.00000000 20.51057243
v 22.00000000 9.00000000 19.68220139
v 22.00000000 9.00000000 20.51446342
v 22.00000000 10.00000000 19.67945671
v 22.00000000 10.00000000 20.51159668
v 22.00000000 11.00000000 19.67975235
v 22.00000000 11.00000000 20.51407051
v 22.00000000 12.00000000 19.68043327
v 22.00000000 12.00000000 20.51467705
v 22.00000000 13.00000000 19.68243599
v 22.00000000 13.00000000 20.51369667
v 22.00000000 14.00000000 19.68274498
v 22.00000000 14.00000000 20.50739288
v 22.00000000 15.00000000 19.68195724
v 22.00000000 15.00000000 20.51281166
v 22.00000000 16.00000000 19.68118477
v 22.00000000 16.00000000 20.50948334
v 22.00000000 17.00000000 19.68282890
v 22.00000000 17.00000000 20.50927734
v 22.00000000 18.00000000 19.68094063
v 22.00000000 18.00000000 20.51391220
v 22.00000000 19.00000000 19.68176079
v 22.00000000 19.00000000 20.51061249
v 22.00000000 20.00000000 19.68140030
v 22.00000000 20.00000000 20.51412201
v 22.00000000 21.00000000 19.68134308
v 22.00000000 21.00000000 20.50926018
v 22.00000000 22.00000000 19.67908287
v 22.00000000 22.00000000 20.51819229
v 22.00000000 23.00000000 19.68227005
v 22.00000000 23.00000000 20.50726318
v 22.00000000 24.00000000 19.68442917
v 22.00000000 24.00000000 20.50419617
v 22.00000000 25.00000000 19.68268585
v 22.00000000 25.00000000 20.51456261
v 22.00000000 26.00000000 19.68435287
v 22.00000000 26.00000000 20.50898933
v 22.00000000 26.80078125 20.00000000
v 21.49930573 27.00000000 20.00000000
v 23.00000000 3.92107058 20.00000000
v 23.00000000 4.00000000 19.89613152
v 23.00000000 4.00000000 20.21016884
v 23.00000000 5.00000000 19.68437576
v 23.00000000 5.00000000 20.50820732
v 23.00000000 6.00000000 19.68138695
v 23.00000000 6.00000000 20.51352882
v 23.00000000 7.00000000 19.68456459
v 23.00000000 7.00000000 20.50948143
v 23.00000000 8.00000000 19.68181419
v 23.00000000 8.00000000 20.51586533
v 23.00000000 9.00000000 19.68482208
v 23.00000000 9.00000000 20.51098824
v 23.00000000 10.00000000 19.68416405
v 23.00000000 10.00000000 20.51304054
v 23.00000000 11.00000000 19.68284607
v 23.00000000 11.00000000 20.51327896
v 23.00000000 12.00000000 19.68223190
v 23.00000000 12.00000000 20.51172638
v 23.00000000 13.00000000 19.68109131
v 23.00000000 13.00000000 20.51246452
v 23.00000000 14.00000000 19.67963219
v 23.00000000 14.00000000 20.51913643
v 23.00000000 15.00000000 19.68233109
v 23.00000000 15.00000000 20.51668358
v 23.00000000 16.00000000 19.68101692
v 23.00000000 16.00000000 20.51811409
v 23.00000000 17.00000000 19.68047333
v 23.00000000 17.00000000 20.50918007
v 23.00000000 18.00000000 19.68085670
v 23.00000000 18.00000000 20.51751709
v 23.00000000 19.00000000 19.68133736
v 23.00000000 19.00000000 20.51258659
v 23.00000000 20.00000000 19.68154144
v 23.00000000 20.00000000 20.51282310
v 23.00000000 21.00000000 19.68014717
v 23.00000000 21.00000000 20.51572418
v 23.00000000 22.00000000 19.68419266
v 23.00000000 22.00000000 20.51158142
v 23.00000000 23.00000000 19.68348312
v 23.00000000 23.00000000 20.51089668
v 23.00000000 24.00000000 19.68605614
v 23.00000000 24.00000000 20.50977325
v 23.00000000 25.00000000 19.68395042
v 23.00000000 25.00000000 20.51053810
v 23.00000000 26.00000000 19.68359566
v 23.00000000 26.00000000 20.50846672
v 22.51226425 27.00000000 20.00000000
v 23.00000000 27.00000000 19.90113068
v 23.00000000 27.00000000 20.54335403
v 23.00000000 27.07443428 20.00000000
v 24.00000000 3.92895055 20.00000000
v 24.00000000 4.00000000 19.90590286
v 24.00000000 4.00000000 20.19313049
v 24.00000000 5.00000000 19.68559074
v 24.00000000 5.00000000 20.50749779
v 24.00000000 6.00000000 19.68360138
v 24.00000000 6.00000000 20.51831436
v 24.00000000 7.00000000 19.68351173
v 24.00000000 7.00000000 20.51047325
v 24.00000000 8.00000000 19.68177986
v 24.00000000 8.00000000 20.51521111
v 24.00000000 9.00000000 19.68137169
v 24.00000000 9.00000000 20.51985931
v 24.00000000 10.00000000 19.68229294
v 24.00000000 10.00000000 20.51276016
v 24.00000000 11.00000000 19.68309402
v 24.00000000 11.00000000 20.51333046
v 24.00000000 12.00000000 19.68107414
v 24.00000000 12.00000000 20.50867271
v 24.00000000 13.00000000 19.68234634
v 24.00000000 13.00000000 20.51402092
v 24.00000000 14.00000000 19.68183327
v 24.00000000 14.00000000 20.51027679
v 24.00000000 15.00000000 19.68328476
v 24.00000000 15.00000000 20.51182175
v 24.00000000 16.00000000 19.68275642
v 24.00000000 16.00000000 20.51125145
v 24.00000000 17.00000000 19.68179893
v 24.00000000 17.00000000 20.51185608
v 24.00000000 18.00000000 19.68351555
v 24.00000000 18.00000000 20.50969124
v 24.00000000 19.00000000 19.68020058
v 24.00000000 19.00000000 20.51629257
v 24.00000000 20.00000000 19.68278122
v 24.00000000 20.00000000 20.51203537
v 24.00000000 21.00000000 19.68191719
v 24.00000000 21.00000000 20.51237869
v 24.00000000 22.00000000 19.67995262
v 24.00000000 22.00000000 20.50985527
v 24.00000000 23.00000000 19.68438530
v 24.00000000 23.00000000 20.50765419
v 24.00000000 24.00000000 19.68033981
v 24.00000000 24.00000000 20.51795769
v 24.00000000 25.00000000 19.68314171
v 24.00000000 25.00000000 20.51660538
v 24.00000000 26.00000000 19.68400002
v 24.00000000 26.00000000 20.50880623
v 24.00000000 26.79998779 20.00000000
v 23.48583984 27.00000000 20.00000000
v 24.47110939 4.00000000 20.00000000
v 25.00000000 4.20065308 20.00000000
v 25.00000000 5.00000000 19.68298531
v 25.00000000 5.00000000 20.51378059
v 25.00000000 6.00000000 19.68348503
v 25.00000000 6.00000000 20.51555443
v 25.00000000 7.00000000 19.68287277
v 25.00000000 7.00000000 20.51167107
v 25.00000000 8.00000000 19.68416023
v 25.00000000 8.00000000 20.51574898
v 25.00000000 9.00000000 19.68329430
v 25.00000000 9.00000000 20.50864601
v 25.00000000 10.00000000 19.68252754
v 25.00000000 10.00000000 20.51680565
v 25.00000000 11.00000000 19.68400002
v 25.00000000 11.00000000 20.50769806
v 25.00000000 12.00000000 19.68321991
v 25.00000000 12.00000000 20.51135826
v 25.00000000 13.00000000 19.68469429
v 25.00000000 13.00000000 20.51138878
v 25.00000000 14.00000000 19.68284416
v 25.00000000 14.00000000 20.51182747
v 25.00000000 15.00000000 19.68334770
v 25.00000000 15.00000000 20.51144218
v 25.00000000 16.00000000 19.68187332
v 25.00000000 16.00000000 20.51124191
v 25.00000000 17.00000000 19.68173218
v 25.00000000 17.00000000 20.51356506
v 25.00000000 18.00000000 19.68248367
v 25.00000000 18.00000000 20.51854324
v 25.00000000 19.00000000 19.68400002
v 25.00000000 19.00000000 20.50908661
v 25.00000000 20.00000000 19.68385696
v 25.00000000 20.00000000 20.50979614
v 25.00000000 21.00000000 19.68458939
v 25.00000000 21.00000000 20.51226234
v 25.00000000 22.00000000 19.68189430
v 25.00000000 22.00000000 20.51100540
v 25.00000000 23.00000000 19.68430710
v 25.00000000 23.00000000 20.50602913
v 25.00000000 24.00000000 19.68418884
v 25.00000000 24.00000000 20.51361465
v 25.00000000 25.00000000 19.68272591
v 25.00000000 25.00000000 20.51109886
v 25.00000000 26.00000000 19.68514824
v 25.00000000 26.00000000 20.51076698
v 24.51614571 27.00000000 20.00000000
v 25.00000000 27.00000000 19.90185928
v 25.00000000 27.00000000 20.50828552
v 25.00000000 27.07416725 20.00000000
v 25.52424240 4.00000000 20.00000000
v 26.00000000 3.92723346 20.00000000
v 26.00000000 4.00000000 19.90429878
v 26.00000000 4.00000000 20.19828796
v 26.00000000 5.00000000 19.68433189
v 26.00000000 5.00000000 20.51294708
v 26.00000000 6.00000000 19.68581772
v 26.00000000 6.00000000 20.50414467
v 26.00000000 7.00000000 19.68317413
v 26.00000000 7.00000000 20.51429749
v 26.00000000 8.00000000 19.68429375
v 26.00000000 8.00000000 20.50756454
v 26.00000000 9.00000000 19.68489075
v 26.00000000 9.00000000 20.51121712
v 26.00000000 10.00000000 19.68165970
v 26.00000000 10.00000000 20.51554298
v 26.00000000 11.00000000 19.68350220
v 26.00000000 11.00000000 20.50992775
v 26.00000000 12.00000000 19.68415451
v 26.00000000 12.00000000 20.51692200
v 26.00000000 13.00000000 19.68419838
v 26.00000000 13.00000000 20.50949097
v 26.00000000 14.00000000 19.68443871
v 26.00000000 14.00000000 20.50747490
v 26.00000000 15.00000000 19.68278122
v 26.00000000 15.00000000 20.51346779
v 26.00000000 16.00000000 19.68401337
v 26.00000000 16.00000000 20.51503181
v 26.00000000 17.00000000 19.68481445
v 26.00000000 17.00000000 20.50762558
v 26.00000000 18.00000000 19.68255234
v 26.00000000 18.00000000 20.51460457
v 26.00000000 19.00000000 19.68185806
v 26.00000000 19.00000000 20.51610184
v 26.00000000 20.00000000 19.68287468
v 26.00000000 20.00000000 20.51426125
v 26.00000000 21.00000000 19.68397331
v 26.00000000 21.00000000 20.50763130
v 26.00000000 22.00000000 19.68418121
v 26.00000000 22.00000000 20.50737381
v 26.00000000 23.00000000 19.68602180
v 26.00000000 23.00000000 20.50838089
v 26.00000000 24.00000000 19.68584251
v 26.00000000 24.00000000 20.50219917
v 26.00000000 25.00000000 19.68500328
v 26.00000000 25.00000000 20.51384735
v 26.00000000 26.00000000 19.68152237
v 26.00000000 26.00000000 20.51606178
v 26.00000000 27.00000000 19.90713501
v 26.00000000 27.00000000 20.47950745
v 26.00000000 27.07004929 20.00000000
v 27.00000000 3.92398930 20.00000000
v 27.00000000 4.00000000 19.89857864
v 27.00000000 4.00000000 20.20323372
v 27.00000000 5.00000000 19.68457603
v 27.00000000 5.00000000 20.50757980
v 27.00000000 6.00000000 19.68444252
v 27.00000000 6.00000000 20.51660728
v 27.00000000 7.00000000 19.68734741
v 27.00000000 7.00000000 20.50911140
v 27.00000000 8.00000000 19.68301773
v 27.00000000 8.00000000 20.50644493
v 27.00000000 9.00000000 19.68525696
v 27.00000000 9.00000000 20.51022911
v 27.00000000 10.00000000 19.68485451
v 27.00000000 10.00000000 20.51457024
v 27.00000000 11.00000000 19.68334198
v 27.00000000 11.00000000 20.50975609
v 27.00000000 12.00000000 19.68281174
v 27.00000000 12.00000000 20.51511002
v 27.00000000 13.00000000 19.68131447
v 27.00000000 13.00000000 20.51294136
v 27.00000000 14.00000000 19.68285942
v 27.00000000 14.00000000 20.51078224
v 27.00000000 15.00000000 19.68243408
v 27.00000000 15.00000000 20.51317787
v 27.00000000 16.00000000 19.68179703
v 27.00000000 16.00000000 20.51548958
v 27.00000000 17.00000000 19.68518639
v 27.00000000 17.00000000 20.50874901
v 27.00000000 18.00000000 19.68156242
v 27.00000000 18.00000000 20.51485825
v 27.00000000 19.00000000 19.68579674
v 27.00000000 19.00000000 20.50959015
v 27.00000000 20.00000000 19.68091202
v 27.00000000 20.00000000 20.51433945
v 27.00000000 21.00000000 19.68449593
v 27.00000000 21.00000000 20.50857925
v 27.00000000 22.00000000 19.68457603
v 27.00000000 22.00000000 20.50630951
v 27.00000000 23.00000000 19.68585396
v 27.00000000 23.00000000 20.50670433
v 27.00000000 24.00000000 19.68657875
v 27.00000000 24.00000000 20.51363754
v 27.00000000 25.00000000 19.68465805
v 27.00000000 25.00000000 20.50254250
v 27.00000000 26.00000000 19.68107414
v 27.00000000 26.00000000 20.51525307
v 27.00000000 27.00000000 19.90417862
v 27.00000000 27.00000000 20.58233070
v 27.00000000 27.07247925 20.00000000
v 28.00000000 3.92684054 20.00000000
v 28.00000000 4.00000000 19.90272903
v 28.00000000 4.00000000 20.19476700
v 28.00000000 5.00000000 19.68615532
v 28.00000000 5.00000000 20.50710297
v 28.00000000 6.00000000 19.68769836
v 28.00000000 6.00000000 20.51284599
v 28.00000000 7.00000000 19.68500900
v 28.00000000 7.00000000 20.51377678
v 28.00000000 8.00000000 19.68430710
v 28.00000000 8.00000000 20.51108360
v 28.00000000 9.00000000 19.68557167
v 28.00000000 9.00000000 20.51395988
v 28.00000000 10.00000000 19.68461418
v 28.00000000 10.00000000 20.50884628
v 28.00000000 11.00000000 19.68160057
v 28.00000000 11.00000000 20.51409912
v 28.00000000 12.00000000 19.68321991
v 28.00000000 12.00000000 20.51566315
v 28.00000000 13.00000000 19.68223381
v 28.00000000 13.00000000 20.51083755
v 28.00000000 14.00000000 19.67980003
v 28.00000000 14.00000000 20.51951599
v 28.00000000 15.00000000 19.68340302
v 28.00000000 15.00000000 20.51355171
v 28.00000000 16.00000000 19.68400383
v 28.00000000 16.00000000 20.50900269
v 28.00000000 17.00000000 19.68249130
v 28.00000000 17.00000000 20.51161766
v 28.00000000 18.00000000 19.68343163
v 28.00000000 18.00000000 20.50798988
v 28.00000000 19.00000000 19.68666077
v 28.00000000 19.00000000 20.51414680
v 28.00000000 20.00000000 19.68384552
v 28.00000000 20.00000000 20.51162338
v 28.00000000 21.00000000 19.68016624
v 28.00000000 21.00000000 20.51318169
v 28.00000000 22.00000000 19.68505287
v 28.00000000 22.00000000 20.51030159
v 28.00000000 23.00000000 19.68492508
v 28.00000000 23.00000000 20.51341629
v 28.00000000 24.00000000 19.68821526
v 28.00000000 24.00000000 20.50767136
v 28.00000000 25.00000000 19.68655014
v 28.00000000 25.00000000 20.51101494
v 28.00000000 26.00000000 19.68201637
v 28.00000000 26.00000000 20.50638199
v 28.00000000 27.00000000 19.90197945
v 28.00000000 27.00000000 20.52840424
v 28.00000000 27.07431412 20.00000000
v 29.00000000 3.93244672 20.00000000
v 29.00000000 4.00000000 19.90984344
v 29.00000000 4.00000000 20.18079567
v 29.00000000 5.00000000 19.68365288
v 29.00000000 5.00000000 20.51092148
v 29.00000000 6.00000000 19.68490219
v 29.00000000 6.00000000 20.51241112
v 29.00000000 7.00000000 19.68677711
v 29.00000000 7.00000000 20.51150131
v 29.00000000 8.00000000 19.68752861
v 29.00000000 8.00000000 20.50514603
v 29.00000000 9.00000000 19.68328857
v 29.00000000 9.00000000 20.51462173
v 29.00000000 10.00000000 19.68337250
v 29.00000000 10.00000000 20.50984573
v 29.00000000 11.00000000 19.68223572
v 29.00000000 11.00000000 20.51368141
v 29.00000000 12.00000000 19.68423843
v 29.00000000 12.00000000 20.51126480
v 29.00000000 13.00000000 19.68543625
v 29.00000000 13.00000000 20.51415634
v 29.00000000 14.00000000 19.68662262
v 29.00000000 14.00000000 20.51173782
v 29.00000000 15.00000000 19.68499947
v 29.00000000 15.00000000 20.51466370
v 29.00000000 16.00000000 19.68279266
v 29.00000000 16.00000000 20.51527214
v 29.00000000 17.00000000 19.68201256
v 29.00000000 17.00000000 20.51123810
v 29.00000000 18.00000000 19.68492317
v 29.00000000 18.00000000 20.51358604
v 29.00000000 19.00000000 19.68551636
v 29.00000000 19.00000000 20.51326180
v 29.00000000 20.00000000 19.68291092
v 29.00000000 20.00000000 20.52004051
v 29.00000000 21.00000000 19.68412971
v 29.00000000 21.00000000 20.51141739
v 29.00000000 22.00000000 19.68492508
v 29.00000000 22.00000000 20.50805283
v 29.00000000 23.00000000 19.68594170
v 29.00000000 23.00000000 20.51045990
v 29.00000000 24.00000000 19.68766022
v 29.00000000 24.00000000 20.51264763
v 29.00000000 25.00000000 19.68412590
v 29.00000000 25.00000000 20.50757599
v 29.00000000 26.00000000 19.68429947
v 29.00000000 26.00000000 20.51064682
v 29.00000000 27.00000000 19.90352821
v 29.00000000 27.00000000 20.53165817
v 29.00000000 27.07287407 20.00000000
v 30.00000000 3.92695117 20.00000000
v 30.00000000 4.00000000 19.90311050
v 30.00000000 4.00000000 20.20017242
v 30.00000000 5.00000000 19.68650627
v 30.00000000 5.00000000 20.51251984
v 30.00000000 6.00000000 19.68650627
v 30.00000000 6.00000000 20.50916481
v 30.00000000 7.00000000 19.68478966
v 30.00000000 7.00000000 20.51632309
v 30.00000000 8.00000000 19.68523026
v 30.00000000 8.00000000 20.51541328
v 30.00000000 9.00000000 19.68477058
v 30.00000000 9.00000000 20.51288795
v 30.00000000 10.00000000 19.68607140
v 30.00000000 10.00000000 20.51590729
v 30.00000000 11.00000000 19.68470001
v 30.00000000 11.00000000 20.51737595
v 30.00000000 12.00000000 19.68477058
v 30.00000000 12.00000000 20.51037979
v 30.00000000 13.00000000 19.68254471
v 30.00000000 13.00000000 20.51911354
v 30.00000000 14.00000000 19.68529129
v 30.00000000 14.00000000 20.51582527
v 30.00000000 15.00000000 19.68436623
v 30.00000000 15.00000000 20.50757217
v 30.00000000 16.00000000 19.68490982
v 30.00000000 16.00000000 20.51274109
v 30.00000000 17.00000000 19.68560410
v 30.00000000 17.00000000 20.51289177
v 30.00000000 18.00000000 19.68465805
v 30.00000000 18.00000000 20.50745773
v 30.00000000 19.00000000 19.68629074
v 30.00000000 19.00000000 20.51250076
v 30.00000000 20.00000000 19.68496895
v 30.00000000 20.00000000 20.51277733
v 30.00000000 21.00000000 19.68516541
v 30.00000000 21.00000000 20.51464081
v 30.00000000 22.00000000 19.68302345
v 30.00000000 22.00000000 20.51614571
v 30.00000000 23.00000000 19.68736458
v 30.00000000 23.00000000 20.51017761
v 30.00000000 24.00000000 19.68780327
v 30.00000000 24.00000000 20.50781822
v 30.00000000 25.00000000 19.68405342
v 30.00000000 25.00000000 20.51273155
v 30.00000000 26.00000000 19.68676186
v 30.00000000 26.00000000 20.50735664
v 30.00000000 27.00000000 19.91062927
v 30.00000000 27.00000000 20.57602501
v 30.00000000 27.06743622 20.00000000
v 30.75483131 4.00000000 20.00000000
v 30.93783760 5.00000000 20.00000000
v 30.92682648 6.00000000 20.00000000
v 30.92646408 7.00000000 20.00000000
v 30.97358322 8.00000000 20.00000000
v 30.93883324 9.00000000 20.00000000
v 30.95679283 10.00000000 20.00000000
v 30.95123863 11.00000000 20.00000000
v 30.94187355 12.00000000 20.00000000
v 30.94292259 13.00000000 20.00000000
v 30.90905380 14.00000000 20.00000000
v 30.94801903 15.00000000 20.00000000
v 30.91706276 16.00000000 20.00000000
v 30.93289185 17.00000000 20.00000000
v 30.98414993 18.00000000 20.00000000
v 30.94090080 19.00000000 20.00000000
v 30.93292046 20.00000000 20.00000000
v 30.94833755 21.00000000 20.00000000
v 30.96535301 22.00000000 20.00000000
v 30.94422913 23.00000000 20.00000000
v 30.94050407 24.00000000 20.00000000
v 30.91750908 25.00000000 20.00000000
v 30.94937134 26.00000000 20.00000000
v 30.70016098 27.00000000 20.00000000
f 3 2 1
f 4 1 2
f 5 3 1
f 5 1 4
f 3 6 2
f 6 4 2
f 9 8 7
f 10 7 8
f 5 6 3
f 6 5 4
f 9 7 11
f 9 11 12
f 7 10 13
f 7 13 11
f 12 11 14
f 12 14 15
f 11 13 16
f 11 16 14
f 15 14 17
f 15 17 18
f 14 16 19
f 14 19 17
f 18 17 20
f 18 20 21
f 17 19 22
f 17 22 20
f 21 20 23
f 21 23 24
f 20 22 25
f 20 25 23
f 24 23 26
f 24 26 27
f 23 25 28
f 23 28 26
f 27 26 29
f 27 29 30
f 26 28 31
f 26 31 29
f 32 30 29
f 32 29 31
f 9 33 8
f 33 10 8
f 12 34 33
f 12 33 9
f 34 13 10
f 34 10 33
f 15 35 34
f 15 34 12
f 35 16 13
f 35 13 34
f 18 36 35
f 18 35 15
f 36 19 16
f 36 16 35
f 21 37 36
f 21 36 18
f 37 22 19
f 37 19 36
f 24 38 37
f 24 37 21
f 38 25 22
f 38 22 37
f 27 39 38
f 27 38 24
f 39 28 25
f 39 25 38
f 30 40 39
f 30 39 27
f 40 31 28
f 40 28 39
f 32 40 30
f 40 32 31
f 43 42 41
f 44 41 42
f 45 43 41
f 45 41 44
f 43 46 42
f 44 42 46
f 49 48 47
f 50 49 47
f 45 46 43
f 49 51 48
f 44 46 45
f 51 49 50
f 48 52 47
f 50 47 52
f 55 54 53
f 56 55 53
f 51 52 48
f 55 57 54
f 50 52 51
f 57 55 56
f 54 58 53
f 56 53 58
f 61 60 59
f 62 61 59
f 57 58 54
f 61 63 60
f 56 58 57
f 63 61 62
f 60 64 59
f 62 59 64
f 67 66 65
f 68 67 65
f 63 64 60
f 63 62 64
f 70 66 69
f 67 69 66
f 67 68 71
f 67 71 69
f 70 69 72
f 70 72 73
f 69 71 74
f 69 74 72
f 73 72 75
f 73 75 76
f 72 74 77
f 72 77 75
f 76 75 78
f 76 78 79
f 75 77 80
f 75 80 78
f 79 78 81
f 79 81 82
f 78 80 83
f 78 83 81
f 82 81 84
f 82 84 85
f 81 83 86
f 81 86 84
f 85 84 87
f 85 87 88
f 84 86 89
f 84 89 87
f 90 88 87
f 90 87 89
f 66 91 65
f 91 68 65
f 70 92 91
f 70 91 66
f 92 71 68
f 92 68 91
f 73 93 92
f 73 92 70
f 93 74 71
f 93 71 92
f 76 94 93
f 76 93 73
f 94 77 74
f 94 74 93
f 79 95 94
f 79 94 76
f 95 80 77
f 95 77 94
f 82 96 95
f 82 95 79
f 96 83 80
f 96 80 95
f 85 97 96
f 85 96 82
f 97 86 83
f 97 83 96
f 88 98 97
f 88 97 85
f 98 89 86
f 98 86 97
f 90 98 88
f 98 90 89
f 101 100 99
f 102 99 100
f 101 99 103
f 101 103 104
f 99 102 105
f 99 105 103
f 104 103 106
f 104 106 107
f 103 105 108
f 103 108 106
f 109 107 106
f 109 106 108
f 112 111 110
f 113 110 111
f 112 110 114
f 112 114 115
f 110 113 116
f 110 116 114
f 117 115 114
f 117 114 116
f 120 119 118
f 121 118 119
f 124 123 122
f 120 118 125
f 123 126 122
f 125 118 121
f 127 124 122
f 122 126 127
f 101 128 100
f 129 100 128
f 102 100 129
f 102 129 130
f 104 132 131
f 128 104 131
f 101 104 128
f 130 131 132
f 105 130 132
f 102 130 105
f 107 133 132
f 107 132 104
f 133 108 105
f 133 105 132
f 133 107 109
f 136 135 134
f 109 108 133
f 135 136 137
f 134 139 138
f 134 112 139
f 134 135 111
f 112 134 111
f 113 138 139
f 113 137 138
f 113 111 135
f 137 113 135
f 141 140 139
f 112 141 139
f 115 141 112
f 113 139 140
f 142 113 140
f 116 113 142
f 143 141 115
f 143 115 117
f 117 116 142
f 117 142 143
f 146 145 144
f 147 144 145
f 148 146 144
f 148 144 147
f 120 149 119
f 149 121 119
f 124 150 123
f 126 123 150
f 120 151 149
f 151 120 152
f 125 152 120
f 152 125 153
f 154 149 151
f 154 121 149
f 154 153 125
f 121 154 125
f 127 150 124
f 153 155 152
f 156 129 128
f 150 127 126
f 153 154 155
f 129 156 130
f 131 156 128
f 156 131 130
f 134 157 136
f 157 137 136
f 138 157 134
f 157 138 137
f 141 158 140
f 158 142 140
f 143 158 141
f 158 143 142
f 146 159 145
f 159 147 145
f 148 159 146
f 159 148 147
f 152 160 151
f 162 160 161
f 162 151 160
f 162 163 154
f 151 162 154
f 164 163 162
f 155 160 152
f 155 161 160
f 155 165 161
f 155 154 163
f 165 155 163
f 165 163 164
f 168 167 166
f 169 166 167
f 168 166 170
f 168 170 171
f 166 169 172
f 166 172 170
f 173 171 170
f 173 170 172
f 176 175 174
f 177 174 175
f 178 176 174
f 178 174 177
f 161 179 162
f 179 164 162
f 165 179 161
f 179 165 164
f 168 180 167
f 180 169 167
f 171 181 180
f 171 180 168
f 181 172 169
f 181 169 180
f 173 181 171
f 181 173 172
f 176 182 175
f 182 177 175
f 178 182 176
f 182 178 177
f 185 184 183
f 186 183 184
f 185 183 187
f 185 187 188
f 183 186 189
f 183 189 187
f 188 187 190
f 188 190 191
f 187 189 192
f 187 192 190
f 191 190 193
f 191 193 194
f 190 192 195
f 190 195 193
f 194 193 196
f 194 196 197
f 193 195 198
f 193 198 196
f 197 196 199
f 197 199 200
f 196 198 201
f 196 201 199
f 200 199 202
f 200 202 203
f 199 201 204
f 199 204 202
f 203 202 205
f 203 205 206
f 202 204 207
f 202 207 205
f 206 205 208
f 206 208 209
f 205 207 210
f 205 210 208
f 209 208 211
f 209 211 212
f 208 210 213
f 208 213 211
f 212 211 214
f 212 214 215
f 211 213 216
f 211 216 214
f 215 214 217
f 215 217 218
f 214 216 219
f 214 219 217
f 218 217 220
f 218 220 221
f 217 219 222
f 217 222 220
f 221 220 223
f 221 223 224
f 220 222 225
f 220 225 223
f 224 223 226
f 224 226 227
f 223 225 228
f 223 228 226
f 227 226 229
f 227 229 230
f 226 228 231
f 226 231 229
f 230 229 232
f 230 232 233
f 229 231 234
f 229 234 232
f 233 232 235
f 233 235 236
f 232 234 237
f 232 237 235
f 236 235 238
f 236 238 239
f 235 237 240
f 235 240 238
f 239 238 241
f 239 241 242
f 238 240 243
f 238 243 241
f 242 241 244
f 242 244 245
f 241 243 246
f 241 246 244
f 245 244 247
f 245 247 248
f 244 246 249
f 244 249 247
f 248 247 250
f 248 250 251
f 247 249 252
f 247 252 250
f 253 251 250
f 253 250 252
f 255 254 184
f 255 184 185
f 186 184 254
f 186 254 256
f 188 255 185
f 188 257 255
f 256 189 186
f 258 189 256
f 191 257 188
f 191 259 257
f 258 192 189
f 260 192 258
f 194 259 191
f 194 261 259
f 260 195 192
f 262 195 260
f 197 261 194
f 197 263 261
f 262 198 195
f 264 198 262
f 200 263 197
f 200 265 263
f 264 201 198
f 266 201 264
f 203 265 200
f 203 267 265
f 266 204 201
f 268 204 266
f 206 267 203
f 206 269 267
f 268 207 204
f 270 207 268
f 209 269 206
f 209 271 269
f 270 210 207
f 272 210 270
f 212 271 209
f 212 273 271
f 272 213 210
f 274 213 272
f 215 273 212
f 215 275 273
f 274 216 213
f 276 216 274
f 218 275 215
f 218 277 275
f 276 219 216
f 278 219 276
f 221 277 218
f 221 279 277
f 278 222 219
f 280 222 278
f 224 279 221
f 224 281 279
f 280 225 222
f 282 225 280
f 227 281 224
f 227 283 281
f 282 228 225
f 284 228 282
f 230 283 227
f 230 285 283
f 284 231 228
f 286 231 284
f 233 285 230
f 233 287 285
f 286 234 231
f 288 234 286
f 236 287 233
f 236 289 287
f 288 237 234
f 290 237 288
f 239 289 236
f 239 291 289
f 290 240 237
f 292 240 290
f 242 291 239
f 242 293 291
f 292 243 240
f 294 243 292
f 245 293 242
f 245 295 293
f 294 246 243
f 296 246 294
f 248 295 245
f 248 297 295
f 296 249 246
f 298 249 296
f 251 297 248
f 251 299 297
f 298 252 249
f 300 252 298
f 251 253 301
f 302 251 301
f 299 251 302
f 303 301 253
f 252 303 253
f 300 303 252
f 304 302 301
f 304 301 303
f 306 305 254
f 306 254 255
f 256 254 305
f 256 305 307
f 257 306 255
f 257 308 306
f 307 258 256
f 309 258 307
f 259 308 257
f 259 310 308
f 309 260 258
f 311 260 309
f 261 310 259
f 261 312 310
f 311 262 260
f 313 262 311
f 263 312 261
f 263 314 312
f 313 264 262
f 315 264 313
f 265 314 263
f 265 316 314
f 315 266 264
f 317 266 315
f 267 316 265
f 267 318 316
f 317 268 266
f 319 268 317
f 269 318 267
f 269 320 318
f 319 270 268
f 321 270 319
f 271 320 269
f 271 322 320
f 321 272 270
f 323 272 321
f 273 322 271
f 273 324 322
f 323 274 272
f 325 274 323
f 275 324 273
f 275 326 324
f 325 276 274
f 327 276 325
f 277 326 275
f 277 328 326
f 327 278 276
f 329 278 327
f 279 328 277
f 279 330 328
f 329 280 278
f 331 280 329
f 281 330 279
f 281 332 330
f 331 282 280
f 333 282 331
f 283 332 281
f 283 334 332
f 333 284 282
f 335 284 333
f 285 334 283
f 285 336 334
f 335 286 284
f 337 286 335
f 287 336 285
f 287 338 336
f 337 288 286
f 339 288 337
f 289 338 287
f 289 340 338
f 339 290 288
f 341 290 339
f 291 340 289
f 291 342 340
f 341 292 290
f 343 292 341
f 293 342 291
f 293 344 342
f 343 294 292
f 345 294 343
f 295 344 293
f 295 346 344
f 345 296 294
f 347 296 345
f 297 346 295
f 297 348 346
f 347 298 296
f 349 298 347
f 299 348 297
f 299 350 348
f 349 300 298
f 351 300 349
f 302 353 352
f 350 302 352
f 299 302 350
f 351 352 353
f 303 351 353
f 300 351 303
f 304 353 302
f 353 304 303
f 355 354 305
f 355 305 306
f 307 305 354
f 307 354 356
f 308 355 306
f 308 357 355
f 356 309 307
f 358 309 356
f 310 357 308
f 310 359 357
f 358 311 309
f 360 311 358
f 312 359 310
f 312 361 359
f 360 313 311
f 362 313 360
f 314 361 312
f 314 363 361
f 362 315 313
f 364 315 362
f 316 363 314
f 316 365 363
f 364 317 315
f 366 317 364
f 318 365 316
f 318 367 365
f 366 319 317
f 368 319 366
f 320 367 318
f 320 369 367
f 368 321 319
f 370 321 368
f 322 369 320
f 322 371 369
f 370 323 321
f 372 323 370
f 324 371 322
f 324 373 371
f 372 325 323
f 374 325 372
f 326 373 324
f 326 375 373
f 374 327 325
f 376 327 374
f 328 375 326
f 328 377 375
f 376 329 327
f 378 329 376
f 330 377 328
f 330 379 377
f 378 331 329
f 380 331 378
f 332 379 330
f 332 381 379
f 380 333 331
f 382 333 380
f 334 381 332
f 334 383 381
f 382 335 333
f 384 335 382
f 336 383 334
f 336 385 383
f 384 337 335
f 386 337 384
f 338 385 336
f 338 387 385
f 386 339 337
f 388 339 386
f 340 387 338
f 340 389 387
f 388 341 339
f 390 341 388
f 342 389 340
f 342 391 389
f 390 343 341
f 392 343 390
f 344 391 342
f 344 393 391
f 392 345 343
f 394 345 392
f 346 393 344
f 346 395 393
f 394 347 345
f 396 347 394
f 348 395 346
f 348 397 395
f 396 349 347
f 398 349 396
f 350 397 348
f 350 399 397
f 398 351 349
f 400 351 398
f 350 352 401
f 402 350 401
f 399 350 402
f 403 401 352
f 351 403 352
f 400 403 351
f 404 402 401
f 404 401 403
f 406 405 354
f 406 354 355
f 356 354 405
f 356 405 407
f 357 406 355
f 357 408 406
f 407 358 356
f 409 358 407
f 359 408 357
f 359 410 408
f 409 360 358
f 411 360 409
f 361 410 359
f 361 412 410
f 411 362 360
f 413 362 411
f 363 412 361
f 363 414 412
f 413 364 362
f 415 364 413
f 365 414 363
f 365 416 414
f 415 366 364
f 417 366 415
f 367 416 365
f 367 418 416
f 417 368 366
f 419 368 417
f 369 418 367
f 369 420 418
f 419 370 368
f 421 370 419
f 371 420 369
f 371 422 420
f 421 372 370
f 423 372 421
f 373 422 371
f 373 424 422
f 423 374 372
f 425 374 423
f 375 424 373
f 375 426 424
f 425 376 374
f 427 376 425
f 377 426 375
f 377 428 426
f 427 378 376
f 429 378 427
f 379 428 377
f 379 430 428
f 429 380 378
f 431 380 429
f 381 430 379
f 381 432 430
f 431 382 380
f 433 382 431
f 383 432 381
f 383 434 432
f 433 384 382
f 435 384 433
f 385 434 383
f 385 436 434
f 435 386 384
f 437 386 435
f 387 436 385
f 387 438 436
f 437 388 386
f 439 388 437
f 389 438 387
f 389 440 438
f 439 390 388
f 441 390 439
f 391 440 389
f 391 442 440
f 441 392 390
f 443 392 441
f 393 442 391
f 393 444 442
f 443 394 392
f 445 394 443
f 395 444 393
f 395 446 444
f 445 396 394
f 447 396 445
f 397 446 395
f 397 448 446
f 447 398 396
f 449 398 447
f 399 448 397
f 399 450 448
f 449 400 398
f 451 400 449
f 402 453 452
f 450 402 452
f 399 402 450
f 451 452 453
f 403 451 453
f 400 451 403
f 404 453 402
f 453 404 403
f 406 454 405
f 454 407 405
f 456 455 454
f 406 456 454
f 408 456 406
f 407 454 455
f 457 407 455
f 409 407 457
f 410 456 408
f 410 458 456
f 457 411 409
f 459 411 457
f 412 458 410
f 412 460 458
f 459 413 411
f 461 413 459
f 414 460 412
f 414 462 460
f 461 415 413
f 463 415 461
f 416 462 414
f 416 464 462
f 463 417 415
f 465 417 463
f 418 464 416
f 418 466 464
f 465 419 417
f 467 419 465
f 420 466 418
f 420 468 466
f 467 421 419
f 469 421 467
f 422 468 420
f 422 470 468
f 469 423 421
f 471 423 469
f 424 470 422
f 424 472 470
f 471 425 423
f 473 425 471
f 426 472 424
f 426 474 472
f 473 427 425
f 475 427 473
f 428 474 426
f 428 476 474
f 475 429 427
f 477 429 475
f 430 476 428
f 430 478 476
f 477 431 429
f 479 431 477
f 432 478 430
f 432 480 478
f 479 433 431
f 481 433 479
f 434 480 432
f 434 482 480
f 481 435 433
f 483 435 481
f 436 482 434
f 436 484 482
f 483 437 435
f 485 437 483
f 438 484 436
f 438 486 484
f 485 439 437
f 487 439 485
f 440 486 438
f 440 488 486
f 487 441 439
f 489 441 487
f 442 488 440
f 442 490 488
f 489 443 441
f 491 443 489
f 444 490 442
f 444 492 490
f 491 445 443
f 493 445 491
f 446 492 444
f 446 494 492
f 493 447 445
f 495 447 493
f 448 494 446
f 448 496 494
f 495 449 447
f 497 449 495
f 450 496 448
f 450 498 496
f 497 451 449
f 499 451 497
f 450 452 500
f 501 450 500
f 498 450 501
f 502 500 452
f 451 502 452
f 499 502 451
f 503 501 500
f 503 500 502
f 506 505 504
f 507 504 505
f 506 504 455
f 456 506 455
f 508 506 456
f 457 455 504
f 507 457 504
f 509 457 507
f 458 508 456
f 458 510 508
f 509 459 457
f 511 459 509
f 460 510 458
f 460 512 510
f 511 461 459
f 513 461 511
f 462 512 460
f 462 514 512
f 513 463 461
f 515 463 513
f 464 514 462
f 464 516 514
f 515 465 463
f 517 465 515
f 466 516 464
f 466 518 516
f 517 467 465
f 519 467 517
f 468 518 466
f 468 520 518
f 519 469 467
f 521 469 519
f 470 520 468
f 470 522 520
f 521 471 469
f 523 471 521
f 472 522 470
f 472 524 522
f 523 473 471
f 525 473 523
f 474 524 472
f 474 526 524
f 525 475 473
f 527 475 525
f 476 526 474
f 476 528 526
f 527 477 475
f 529 477 527
f 478 528 476
f 478 530 528
f 529 479 477
f 531 479 529
f 480 530 478
f 480 532 530
f 531 481 479
f 533 481 531
f 482 532 480
f 482 534 532
f 533 483 481
f 535 483 533
f 484 534 482
f 484 536 534
f 535 485 483
f 537 485 535
f 486 536 484
f 486 538 536
f 537 487 485
f 539 487 537
f 488 538 486
f 488 540 538
f 539 489 487
f 541 489 539
f 490 540 488
f 490 542 540
f 541 491 489
f 543 491 541
f 492 542 490
f 492 544 542
f 543 493 491
f 545 493 543
f 494 544 492
f 494 546 544
f 545 495 493
f 547 495 545
f 496 546 494
f 496 548 546
f 547 497 495
f 549 497 547
f 498 548 496
f 498 550 548
f 549 499 497
f 551 499 549
f 501 550 498
f 501 552 550
f 551 502 499
f 553 502 551
f 554 552 501
f 554 501 503
f 503 502 553
f 503 553 554
f 556 555 505
f 556 505 506
f 507 505 555
f 507 555 557
f 508 556 506
f 508 558 556
f 557 509 507
f 559 509 557
f 510 558 508
f 510 560 558
f 559 511 509
f 561 511 559
f 512 560 510
f 512 562 560
f 561 513 511
f 563 513 561
f 514 562 512
f 514 564 562
f 563 515 513
f 565 515 563
f 516 564 514
f 516 566 564
f 565 517 515
f 567 517 565
f 518 566 516
f 518 568 566
f 567 519 517
f 569 519 567
f 520 568 518
f 520 570 568
f 569 521 519
f 571 521 569
f 522 570 520
f 522 572 570
f 571 523 521
f 573 523 571
f 524 572 522
f 524 574 572
f 573 525 523
f 575 525 573
f 526 574 524
f 526 576 574
f 575 527 525
f 577 527 575
f 528 576 526
f 528 578 576
f 577 529 527
f 579 529 577
f 530 578 528
f 530 580 578
f 579 531 529
f 581 531 579
f 532 580 530
f 532 582 580
f 581 533 531
f 583 533 581
f 534 582 532
f 534 584 582
f 583 535 533
f 585 535 583
f 536 584 534
f 536 586 584
f 585 537 535
f 587 537 585
f 538 586 536
f 538 588 586
f 587 539 537
f 589 539 587
f 540 588 538
f 540 590 588
f 589 541 539
f 591 541 589
f 542 590 540
f 542 592 590
f 591 543 541
f 593 543 591
f 544 592 542
f 544 594 592
f 593 545 543
f 595 545 593
f 546 594 544
f 546 596 594
f 595 547 545
f 597 547 595
f 548 596 546
f 548 598 596
f 597 549 547
f 599 549 597
f 550 598 548
f 550 600 598
f 599 551 549
f 601 551 599
f 552 600 550
f 552 602 600
f 601 553 551
f 603 553 601
f 604 602 552
f 604 552 554
f 554 553 603
f 554 603 604
f 606 605 555
f 606 555 556
f 557 555 605
f 557 605 607
f 558 606 556
f 558 608 606
f 607 559 557
f 609 559 607
f 560 608 558
f 560 610 608
f 609 561 559
f 611 561 609
f 562 610 560
f 562 612 610
f 611 563 561
f 613 563 611
f 564 612 562
f 564 614 612
f 613 565 563
f 615 565 613
f 566 614 564
f 566 616 614
f 615 567 565
f 617 567 615
f 568 616 566
f 568 618 616
f 617 569 567
f 619 569 617
f 570 618 568
f 570 620 618
f 619 571 569
f 621 571 619
f 572 620 570
f 572 622 620
f 621 573 571
f 623 573 621
f 574 622 572
f 574 624 622
f 623 575 573
f 625 575 623
f 576 624 574
f 576 626 624
f 625 577 575
f 627 577 625
f 578 626 576
f 578 628 626
f 627 579 577
f 629 579 627
f 580 628 578
f 580 630 628
f 629 581 579
f 631 581 629
f 582 630 580
f 582 632 630
f 631 583 581
f 633 583 631
f 584 632 582
f 584 634 632
f 633 585 583
f 635 585 633
f 586 634 584
f 586 636 634
f 635 587 585
f 637 587 635
f 588 636 586
f 588 638 636
f 637 589 587
f 639 589 637
f 590 638 588
f 590 640 638
f 639 591 589
f 641 591 639
f 592 640 590
f 592 642 640
f 641 593 591
f 643 593 641
f 594 642 592
f 594 644 642
f 643 595 593
f 645 595 643
f 596 644 594
f 596 646 644
f 645 597 595
f 647 597 645
f 598 646 596
f 598 648 646
f 647 599 597
f 649 599 647
f 600 648 598
f 600 650 648
f 649 601 599
f 651 601 649
f 602 650 600
f 602 652 650
f 651 603 601
f 653 603 651
f 654 652 602
f 654 602 604
f 604 603 653
f 604 653 654
f 656 655 605
f 656 605 606
f 607 605 655
f 607 655 657
f 608 656 606
f 608 658 656
f 657 609 607
f 659 609 657
f 610 658 608
f 610 660 658
f 659 611 609
f 661 611 659
f 612 660 610
f 612 662 660
f 661 613 611
f 663 613 661
f 614 662 612
f 614 664 662
f 663 615 613
f 665 615 663
f 616 664 614
f 616 666 664
f 665 617 615
f 667 617 665
f 618 666 616
f 618 668 666
f 667 619 617
f 669 619 667
f 620 668 618
f 620 670 668
f 669 621 619
f 671 621 669
f 622 670 620
f 622 672 670
f 671 623 621
f 673 623 671
f 624 672 622
f 624 674 672
f 673 625 623
f 675 625 673
f 626 674 624
f 626 676 674
f 675 627 625
f 677 627 675
f 628 676 626
f 628 678 676
f 677 629 627
f 679 629 677
f 630 678 628
f 630 680 678
f 679 631 629
f 681 631 679
f 632 680 630
f 632 682 680
f 681 633 631
f 683 633 681
f 634 682 632
f 634 684 682
f 683 635 633
f 685 635 683
f 636 684 634
f 636 686 684
f 685 637 635
f 687 637 685
f 638 686 636
f 638 688 686
f 687 639 637
f 689 639 687
f 640 688 638
f 640 690 688
f 689 641 639
f 691 641 689
f 642 690 640
f 642 692 690
f 691 643 641
f 693 643 691
f 644 692 642
f 644 694 692
f 693 645 643
f 695 645 693
f 646 694 644
f 646 696 694
f 695 647 645
f 697 647 695
f 648 696 646
f 648 698 696
f 697 649 647
f 699 649 697
f 650 698 648
f 650 700 698
f 699 651 649
f 701 651 699
f 652 700 650
f 652 702 700
f 701 653 651
f 703 653 701
f 704 702 652
f 704 652 654
f 654 653 703
f 654 703 704
f 706 705 655
f 706 655 656
f 657 655 705
f 657 705 707
f 658 706 656
f 658 708 706
f 707 659 657
f 709 659 707
f 660 708 658
f 660 710 708
f 709 661 659
f 711 661 709
f 662 710 660
f 662 712 710
f 711 663 661
f 713 663 711
f 664 712 662
f 664 714 712
f 713 665 663
f 715 665 713
f 666 714 664
f 666 716 714
f 715 667 665
f 717 667 715
f 668 716 666
f 668 718 716
f 717 669 667
f 719 669 717
f 670 718 668
f 670 720 718
f 719 671 669
f 721 671 719
f 672 720 670
f 672 722 720
f 721 673 671
f 723 673 721
f 674 722 672
f 674 724 722
f 723 675 673
f 725 675 723
f 676 724 674
f 676 726 724
f 725 677 675
f 727 677 725
f 678 726 676
f 678 728 726
f 727 679 677
f 729 679 727
f 680 728 678
f 680 730 728
f 729 681 679
f 731 681 729
f 682 730 680
f 682 732 730
f 731 683 681
f 733 683 731
f 684 732 682
f 684 734 732
f 733 685 683
f 735 685 733
f 686 734 684
f 686 736 734
f 735 687 685
f 737 687 735
f 688 736 686
f 688 738 736
f 737 689 687
f 739 689 737
f 690 738 688
f 690 740 738
f 739 691 689
f 741 691 739
f 692 740 690
f 692 742 740
f 741 693 691
f 743 693 741
f 694 742 692
f 694 744 742
f 743 695 693
f 745 695 743
f 696 744 694
f 696 746 744
f 745 697 695
f 747 697 745
f 698 746 696
f 698 748 746
f 747 699 697
f 749 699 747
f 700 748 698
f 700 750 748
f 749 701 699
f 751 701 749
f 702 750 700
f 702 752 750
f 751 703 701
f 753 703 751
f 754 752 702
f 754 702 704
f 704 703 753
f 704 753 754
f 706 755 705
f 755 707 705
f 708 756 755
f 708 755 706
f 756 709 707
f 756 707 755
f 710 757 756
f 710 756 708
f 757 711 709
f 757 709 756
f 712 758 757
f 712 757 710
f 758 713 711
f 758 711 757
f 714 759 758
f 714 758 712
f 759 715 713
f 759 713 758
f 716 760 759
f 716 759 714
f 760 717 715
f 760 715 759
f 718 761 760
f 718 760 716
f 761 719 717
f 761 717 760
f 720 762 761
f 720 761 718
f 762 721 719
f 762 719 761
f 722 763 762
f 722 762 720
f 763 723 721
f 763 721 762
f 724 764 763
f 724 763 722
f 764 725 723
f 764 723 763
f 726 765 764
f 726 764 724
f 765 727 725
f 765 725 764
f 728 766 765
f 728 765 726
f 766 729 727
f 766 727 765
f 730 767 766
f 730 766 728
f 767 731 729
f 767 729 766
f 732 768 767
f 732 767 730
f 768 733 731
f 768 731 767
f 734 769 768
f 734 768 732
f 769 735 733
f 769 733 768
f 736 770 769
f 736 769 734
f 770 737 735
f 770 735 769
f 738 771 770
f 738 770 736
f 771 739 737
f 771 737 770
f 740 772 771
f 740 771 738
f 772 741 739
f 772 739 771
f 742 773 772
f 742 772 740
f 773 743 741
f 773 741 772
f 744 774 773
f 744 773 742
f 774 745 743
f 774 743 773
f 746 775 774
f 746 774 744
f 775 747 745
f 775 745 774
f 748 776 775
f 748 775 746
f 776 749 747
f 776 747 775
f 750 777 776
f 750 776 748
f 777 751 749
f 777 749 776
f 752 778 777
f 752 777 750
f 778 753 751
f 778 751 777
f 754 778 752
f 778 754 753

